<svg width="200" height="55" viewBox="0 0 200 55" fill="none" xmlns="http://www.w3.org/2000/svg">
<g clip-path="url(#clip0_33542_1430)">
<path d="M33.9659 26.8325C36.1095 26.3521 37.8466 24.4425 37.8466 21.6213C37.8466 18.7631 35.703 15.8309 31.2062 15.8309H18.332V20.6973H29.8757C31.0707 20.6973 31.8838 21.5104 31.8838 22.6438C31.8838 23.7772 31.0707 24.615 29.8757 24.615H18.332V38.5487H31.6128C36.0726 38.5487 38.2901 35.6905 38.2901 32.3888C38.2901 29.5183 36.3806 27.2021 33.9659 26.8325ZM30.0851 33.6824H24.1963V29.4567H30.0851C31.5142 29.4567 32.3273 30.4422 32.3273 31.6003C32.3273 32.82 31.4773 33.6824 30.0851 33.6824ZM159.739 38.5487H176.395V33.6084H165.603V29.5183H176.161V24.5411H165.603V20.7589H176.395V15.8186H159.739V38.5487ZM195.368 30.2082C197.475 29.4567 199.902 27.35 199.902 23.3953C199.902 19.1696 197.043 15.8309 192.005 15.8309H180.633V38.5487H186.498V30.8488H189.491L193.31 38.5487H200.025L195.368 30.2082ZM191.118 25.8716H186.485V20.7589H191.118C192.645 20.7589 193.939 21.7445 193.939 23.3091C193.939 24.886 192.645 25.8716 191.118 25.8716ZM52.7166 15.449C45.7683 15.449 40.557 20.2907 40.557 27.2021C40.557 34.1136 45.7683 38.9552 52.7166 38.9552C59.665 38.9552 64.8394 34.1136 64.8394 27.2021C64.8394 20.2907 59.665 15.449 52.7166 15.449ZM52.7166 33.7809C48.9345 33.7809 46.5198 30.8858 46.5198 27.2021C46.5198 23.4939 48.9345 20.6234 52.7166 20.6234C56.4619 20.6234 58.8766 23.4816 58.8766 27.2021C58.8766 30.8858 56.4619 33.7809 52.7166 33.7809ZM83.4792 28.9023L74.2887 15.8309H68.2519V38.5487H74.1162V24.8244L83.7256 38.5487H89.3804V15.8309H83.4916V28.9023H83.4792ZM138.573 20.9314H144.943V38.5364H150.807V20.9314H157.139V15.8186H138.573V20.9314ZM127.954 24.3439C125.428 23.8635 124.036 23.4569 124.036 22.2619C124.036 21.2763 124.788 20.4878 126.722 20.4878C128.73 20.4878 131.219 21.2763 133.128 22.8409L136.331 18.6522C133.917 16.5701 130.75 15.486 127.104 15.486C121.276 15.486 118.049 18.7877 118.049 22.6068C118.049 27.9906 123.297 28.9392 127.042 29.6907C129.457 30.1959 130.923 30.7133 130.923 32.0069C130.923 33.091 129.691 33.9534 127.683 33.9534C124.578 33.9534 122.065 32.5859 120.426 30.9597L117.322 35.3579C119.601 37.5385 122.804 38.9676 127.399 38.9676C133.498 38.9676 136.873 35.9369 136.873 31.3662C136.886 26.2166 131.711 25.1324 127.954 24.3439ZM103.561 15.8309H94.025V38.5487H103.598C110.718 38.5487 115.856 34.2244 115.856 27.1775C115.856 20.1306 110.718 15.8309 103.561 15.8309ZM103.561 33.436H99.8769V20.9314H103.585C107.737 20.9314 109.856 23.654 109.856 27.1652C109.868 30.5408 107.552 33.436 103.561 33.436Z" fill="#2B3663"/>
<path d="M116.201 50.3388H4.06554V4.06554H116.201V0H0V54.4043H116.201V50.3388Z" fill="#2B3663"/>
</g>
<defs>
<clipPath id="clip0_33542_1430">
<rect width="200" height="54.4043" fill="white"/>
</clipPath>
</defs>
</svg>
