<svg width="200" height="20" viewBox="0 0 200 20" fill="none" xmlns="http://www.w3.org/2000/svg">
<path d="M22.2001 3.69737H18.8174V0.27121H22.2001V3.69737ZM22.2001 7.89312H18.8174V11.2975H22.2001V7.89312ZM22.2001 15.9629H18.8174V19.376H22.2001V15.9629Z" fill="#F7B021"/>
<path d="M18.8178 3.69737H0V0.27121H18.8178V3.69737ZM18.8178 7.89312H0V11.2975H18.8178V7.89312ZM18.8178 15.9629H0V19.376H18.8178V15.9629Z" fill="#41CFAC"/>
<path d="M53.8835 0.271201C54.2831 0.280331 54.6092 0.606427 54.6183 1.006V12.1845C54.6322 13.2193 54.4674 14.2493 54.1313 15.2281C53.8248 16.1111 53.3204 16.9129 52.6574 17.5716C51.9604 18.2503 51.1213 18.766 50.2008 19.0803C49.1056 19.4542 47.9534 19.6351 46.7964 19.6151C45.6329 19.6416 44.4742 19.4608 43.3746 19.0803C42.4602 18.7638 41.6271 18.2486 40.9354 17.5716C40.2797 16.9094 39.7801 16.1085 39.4745 15.2281C39.1458 14.2476 38.984 13.2184 38.9962 12.1845V1.02339C39.0053 0.623819 39.3314 0.297724 39.731 0.288593H41.9398C42.3393 0.297724 42.6654 0.623819 42.6746 1.02339V12.0671C42.6567 12.7176 42.7572 13.3654 42.9702 13.9802C43.3133 14.9659 44.1181 15.7237 45.1224 16.0063C45.6633 16.1646 46.2242 16.242 46.7877 16.2368C47.3538 16.2416 47.9177 16.1637 48.4616 16.0063C48.9469 15.8646 49.393 15.6128 49.766 15.2715C50.1512 14.9085 50.4486 14.4624 50.6356 13.9672C50.8613 13.3554 50.9691 12.7063 50.953 12.0541V1.01035C50.96 0.605989 51.2921 0.275983 51.6965 0.271201H53.8835ZM72.6796 15.9498C73.0791 15.9589 73.4052 16.285 73.4144 16.6846V18.6238C73.4052 19.0234 73.0791 19.3494 72.6796 19.3586H60.7402C60.3406 19.3494 60.0145 19.0234 60.0054 18.6238V1.02339C60.0054 0.617297 60.3341 0.280766 60.7402 0.271201H62.9489C63.3485 0.280331 63.6746 0.606427 63.6837 1.006V15.9672L72.6796 15.9498ZM92.5191 18.2064C92.5961 18.2712 92.6522 18.3573 92.68 18.4542C92.6961 18.5064 92.7065 18.5603 92.7104 18.6151C92.7013 19.0147 92.3752 19.3408 91.9756 19.3499H89.3669C89.0517 19.3651 88.7416 19.2629 88.4973 19.0629C88.2755 18.8716 88.1538 18.7586 88.1147 18.7194L81.7406 11.5193V18.6325C81.7315 19.0321 81.4054 19.3581 81.0058 19.3673H78.7971C78.3975 19.3581 78.0714 19.0321 78.0623 18.6325V1.02339C78.0714 0.623819 78.3975 0.297724 78.7971 0.288593H81.0058C81.4054 0.297724 81.7315 0.623819 81.7406 1.02339V7.42788L87.6886 0.905997C87.8399 0.737732 88.0142 0.591208 88.206 0.471205C88.4242 0.35642 88.6686 0.3012 88.9147 0.31033H91.4191C91.8187 0.319461 92.1448 0.645556 92.1539 1.04513C92.1495 1.19731 92.0926 1.34297 91.993 1.45819L84.6581 9.44967L92.5191 18.2064ZM109.511 15.9498C109.91 15.9589 110.236 16.285 110.246 16.6846V18.6238C110.236 19.0234 109.91 19.3494 109.511 19.3586H97.541C97.1414 19.3494 96.8153 19.0234 96.8062 18.6238V1.02339C96.8153 0.623819 97.1414 0.297724 97.541 0.288593H109.28C109.68 0.297724 110.006 0.623819 110.015 1.02339V2.96257C110.02 3.15909 109.939 3.34822 109.793 3.47997C109.659 3.62214 109.472 3.70258 109.276 3.70171H100.485V8.04963H108.698C108.893 8.04877 109.081 8.1292 109.215 8.27138C109.361 8.40312 109.442 8.59225 109.437 8.78878V10.7062C109.442 10.9027 109.361 11.0919 109.215 11.2236C109.081 11.3658 108.893 11.4462 108.698 11.4454H100.485V15.9672L109.511 15.9498ZM121.807 0.00162836C122.9 -0.0183721 123.99 0.145981 125.029 0.488597C125.862 0.76382 126.644 1.17687 127.342 1.71036C127.918 2.1482 128.397 2.70213 128.746 3.33649C129.039 3.85128 129.221 4.42129 129.281 5.01044C129.306 5.21044 129.231 5.41088 129.081 5.54523C128.934 5.67828 128.744 5.75263 128.546 5.75393H126.642C126.395 5.7735 126.148 5.70915 125.942 5.57132C125.768 5.44045 125.621 5.27827 125.507 5.09305C125.196 4.6013 124.769 4.19346 124.263 3.90606C123.501 3.52258 122.65 3.34692 121.798 3.39736C121.344 3.39345 120.891 3.44432 120.45 3.54954C120.058 3.63693 119.681 3.78345 119.333 3.98433C119.034 4.15781 118.778 4.39738 118.585 4.68434C118.401 4.95783 118.304 5.28088 118.307 5.61045C118.291 5.96872 118.38 6.32394 118.563 6.63221C118.783 6.93613 119.084 7.17136 119.433 7.31049C119.958 7.53615 120.502 7.71484 121.059 7.84528C121.728 8.00616 122.568 8.19746 123.563 8.41921C124.525 8.61965 125.469 8.89748 126.385 9.24966C127.092 9.51445 127.746 9.90315 128.316 10.3975C128.797 10.8219 129.179 11.3475 129.433 11.9367C129.688 12.5676 129.813 13.2437 129.798 13.9237C129.806 14.7146 129.619 15.4955 129.255 16.1976C128.883 16.9072 128.354 17.5216 127.707 17.9933C126.957 18.5373 126.114 18.9394 125.22 19.1803C124.146 19.4812 123.035 19.6277 121.92 19.6151C120.935 19.619 119.954 19.4929 119.002 19.2412C118.129 19.0208 117.297 18.6625 116.537 18.1803C115.848 17.7481 115.256 17.1781 114.798 16.5063C114.363 15.8607 114.109 15.1098 114.063 14.3324C114.037 14.1324 114.113 13.9319 114.263 13.7976C114.41 13.6672 114.601 13.5958 114.798 13.5976H116.711C117.186 13.5428 117.643 13.8093 117.828 14.2498C117.962 14.5002 118.12 14.7376 118.298 14.9585C118.5 15.2137 118.75 15.4281 119.033 15.5889C119.396 15.7881 119.785 15.9346 120.189 16.0237C120.76 16.1502 121.344 16.2085 121.928 16.1976C122.46 16.1994 122.991 16.1572 123.515 16.0716C123.981 16.0046 124.432 15.8655 124.855 15.6585C125.208 15.4863 125.522 15.2454 125.781 14.9498C126.023 14.6541 126.149 14.2798 126.133 13.8976C126.149 13.5311 126.01 13.1741 125.75 12.915C125.418 12.615 125.022 12.3923 124.594 12.2628C123.965 12.0502 123.323 11.8771 122.672 11.7454C121.907 11.5845 121.028 11.3715 120.024 11.1236C119.209 10.9349 118.412 10.6758 117.641 10.3497C117.017 10.0853 116.445 9.71315 115.95 9.24966C115.51 8.81574 115.17 8.29008 114.954 7.7105C114.721 7.03092 114.611 6.31568 114.628 5.59741C114.621 4.80913 114.808 4.03128 115.172 3.33214C115.535 2.63908 116.048 2.03472 116.672 1.56253C117.357 1.04818 118.127 0.65686 118.946 0.405985C119.87 0.112935 120.838 -0.0179369 121.807 0.0190204V0.00162836ZM146.829 0.271201C147.229 0.280331 147.555 0.606427 147.564 1.006V2.94517C147.569 3.1417 147.488 3.33083 147.342 3.46257C147.208 3.60475 147.02 3.68519 146.825 3.68432H141.92V18.6281C141.911 19.0277 141.585 19.3538 141.185 19.3629H138.977C138.779 19.3616 138.59 19.2816 138.451 19.1412C138.312 19.0051 138.237 18.8177 138.242 18.6238V3.69736H133.337C132.938 3.68823 132.612 3.36214 132.603 2.96257V1.02339C132.612 0.623819 132.938 0.297724 133.337 0.288593L146.829 0.271201ZM158.96 0.271201C159.202 0.254679 159.441 0.338158 159.621 0.50164C159.793 0.707297 159.923 0.945563 160.003 1.20166L166.677 18.4325C166.698 18.4942 166.709 18.5586 166.708 18.6238C166.713 18.8203 166.632 19.0094 166.486 19.1412C166.352 19.2834 166.164 19.3638 165.969 19.3629H164.008C163.732 19.3921 163.456 19.309 163.242 19.1325C163.115 19.009 163.015 18.8612 162.947 18.6977L161.773 15.6759H153.155L151.981 18.7194C151.91 18.8812 151.81 19.0286 151.686 19.1542C151.472 19.3308 151.196 19.4138 150.92 19.3847H148.959C148.56 19.3755 148.234 19.0494 148.225 18.6499C148.225 18.5851 148.235 18.5203 148.255 18.4586L154.929 1.21905C155.007 0.962086 155.138 0.723819 155.312 0.519032C155.488 0.35555 155.724 0.272071 155.964 0.288593L158.96 0.271201ZM160.46 12.241L157.46 4.46695L154.46 12.241H160.46ZM181.465 0.271201C181.864 0.280331 182.19 0.606427 182.199 1.006V2.94517C182.19 3.34475 181.864 3.67084 181.465 3.67997H176.56V18.6238C176.551 19.0234 176.225 19.3494 175.825 19.3586H173.617C173.421 19.3594 173.233 19.279 173.099 19.1368C172.953 19.0051 172.872 18.816 172.877 18.6194V3.69736H167.973C167.573 3.68823 167.247 3.36214 167.238 2.96257V1.02339C167.247 0.623819 167.573 0.297724 167.973 0.288593L181.465 0.271201ZM199.265 15.9498C199.664 15.9589 199.991 16.285 200 16.6846V18.6238C199.991 19.0234 199.664 19.3494 199.265 19.3586H187.299C186.9 19.3494 186.574 19.0234 186.565 18.6238V1.02339C186.574 0.623819 186.9 0.297724 187.299 0.288593H199.039C199.234 0.291636 199.42 0.371639 199.556 0.510338C199.698 0.644689 199.779 0.832082 199.778 1.02774V2.96691C199.769 3.36649 199.443 3.69258 199.043 3.70171H190.243V8.04963H198.448C198.847 8.05877 199.173 8.38486 199.182 8.78444V10.7062C199.183 10.9019 199.103 11.0893 198.961 11.2236C198.825 11.3641 198.638 11.4441 198.443 11.4454H190.243V15.9672L199.265 15.9498ZM33.3874 10.9845C32.9748 10.3501 32.4465 9.79837 31.8308 9.35836C32.0161 9.2414 32.1869 9.1027 32.3395 8.94531C32.573 8.71661 32.7839 8.46617 32.97 8.19747C33.1983 7.86137 33.3752 7.49397 33.4961 7.10614C33.6483 6.63743 33.7231 6.14698 33.7178 5.65393C33.7052 5.06087 33.5983 4.4739 33.4004 3.91476C33.1817 3.2717 32.8339 2.67995 32.3787 2.17559C31.8543 1.59949 31.2121 1.14253 30.496 0.836432C29.5734 0.44251 28.5773 0.249896 27.5742 0.271201H22.2002V3.68432H27.3047C28.036 3.62606 28.7664 3.81432 29.3786 4.21912C29.8343 4.60825 30.0799 5.19088 30.0395 5.78872C30.0786 6.38438 29.8369 6.9657 29.3873 7.35832C28.7756 7.76441 28.0451 7.95268 27.3134 7.89311H22.2089V11.2975H27.5351C28.3169 11.2384 29.0925 11.4741 29.7091 11.9584C30.1895 12.3919 30.4552 13.0158 30.4352 13.6628C30.4612 14.2967 30.2043 14.9102 29.7351 15.3368C29.2743 15.7715 28.5395 15.9759 27.5351 15.9759H22.2089V19.4021H28.2134C29.0908 19.4177 29.9612 19.2442 30.7656 18.8934C31.4626 18.5886 32.09 18.1446 32.6091 17.589C33.0917 17.0516 33.4704 16.4294 33.7265 15.7542C33.9787 15.0976 34.1083 14.4006 34.1091 13.6976C34.1452 12.7415 33.8939 11.7962 33.3874 10.9845Z" fill="#13222D"/>
</svg>
