<svg width="200" height="50" viewBox="0 0 200 50" fill="none" xmlns="http://www.w3.org/2000/svg">
<g clip-path="url(#clip0_33583_1432)">
<path fill-rule="evenodd" clip-rule="evenodd" d="M24.8372 7.55022C34.3541 7.55022 42.0979 15.2269 42.0979 24.6609C42.0979 34.0967 34.3541 41.7722 24.8372 41.7722C15.3214 41.7722 7.57761 34.0967 7.57761 24.6609C7.57761 15.2269 15.3214 7.55022 24.8372 7.55022ZM24.8372 39.3745C33.0202 39.3745 39.6765 32.7742 39.6771 24.6609C39.6771 16.5482 33.0208 9.94729 24.8372 9.94729C16.6536 9.94729 9.99724 16.5482 9.99724 24.6609C9.99724 32.7742 16.6536 39.3745 24.8372 39.3745ZM32.2625 24.0248C32.2885 24.0225 32.3143 24.0162 32.3408 24.0168H35.1343C35.7259 24.0168 36.2042 24.4927 36.2042 25.0791C36.2042 25.6661 35.727 26.1408 35.1343 26.1408H32.3408C32.3137 26.1408 32.2879 26.1346 32.262 26.1323C32.0746 27.5104 31.5267 28.7733 30.7138 29.83C30.7362 29.8482 30.7575 29.8618 30.7764 29.8818L32.7518 31.8394C33.1698 32.2549 33.1709 32.9269 32.7518 33.3423C32.3327 33.7578 31.656 33.7578 31.2369 33.3423L29.2627 31.3835C29.2437 31.3642 29.2288 31.3419 29.2086 31.3214C28.1456 32.1272 26.8699 32.671 25.4798 32.8567C25.4798 32.8824 25.4878 32.9075 25.4878 32.932V35.7029C25.4878 36.2899 25.0083 36.7641 24.4156 36.7641C23.8251 36.7641 23.3457 36.2899 23.3457 35.7029V32.932C23.3457 32.9075 23.3526 32.8824 23.3549 32.8567C21.9624 32.671 20.6885 32.1272 19.6237 31.3214C19.6059 31.3413 19.5909 31.3636 19.572 31.3824L17.5954 33.3418C17.1775 33.7572 16.5002 33.7572 16.0805 33.3418C15.6615 32.9257 15.6615 32.2543 16.0805 31.8389L18.0571 29.8812C18.0784 29.8613 18.0996 29.8476 18.1198 29.83C17.3068 28.7739 16.7578 27.5098 16.5715 26.1317C16.5434 26.134 16.5186 26.1397 16.4939 26.1397L13.7004 26.1403C13.1088 26.1403 12.6294 25.6656 12.6294 25.0791C12.6294 24.4921 13.1088 24.0162 13.7004 24.0162L16.4956 24.0168C16.5204 24.0168 16.5462 24.0225 16.5721 24.0248C16.7584 22.6473 17.3074 21.3838 18.1203 20.3271C18.1002 20.3089 18.0789 20.2953 18.0577 20.2753L16.0811 18.3165C15.6631 17.9021 15.662 17.2314 16.0811 16.8159C16.5014 16.401 17.178 16.401 17.5972 16.8159L19.5726 18.7741C19.5915 18.7935 19.6064 18.8152 19.6243 18.8357C20.6896 18.0298 21.963 17.4867 23.3554 17.3004C23.3532 17.2747 23.3463 17.2502 23.3463 17.224V14.4548C23.3463 13.8677 23.8257 13.393 24.4162 13.393C25.0089 13.393 25.4884 13.8677 25.4884 14.4548V17.224C25.4884 17.2502 25.4803 17.2747 25.4803 17.3004C26.8705 17.4867 28.1456 18.0298 29.2092 18.8357C29.2293 18.8152 29.2443 18.7935 29.2633 18.7741L31.2375 16.8159C31.6566 16.401 32.3333 16.401 32.7524 16.8159C33.1715 17.2314 33.1715 17.9021 32.7524 18.3165L30.7758 20.2753C30.7569 20.2953 30.7356 20.3089 30.7144 20.3271C31.5273 21.3832 32.0752 22.6473 32.2625 24.0248ZM24.4162 30.5537C27.4627 30.5537 29.9405 28.098 29.9405 25.0791C29.9405 22.0602 27.4627 19.6039 24.4162 19.6039C21.372 19.6039 18.8947 22.0602 18.8947 25.0791C18.8947 28.098 21.372 30.5537 24.4162 30.5537ZM81.7967 17.8582L78.819 20.6736C76.7946 18.5504 74.516 17.4888 71.9837 17.4888C69.8466 17.4888 68.0477 18.2138 66.5832 19.6627C65.1203 21.1116 64.3886 22.8976 64.3886 25.0214C64.3886 26.5002 64.7138 27.8143 65.3615 28.9612C66.0092 30.1087 66.9247 31.0095 68.1095 31.663C69.2954 32.3172 70.6119 32.6445 72.0602 32.6445C73.2949 32.6445 74.4233 32.4157 75.4472 31.9575C76.4699 31.4999 77.593 30.6671 78.819 29.4597L81.7051 32.4468C80.0526 34.0462 78.4927 35.155 77.0222 35.7734C75.5528 36.3912 73.8759 36.7007 71.9908 36.7007C68.5138 36.7007 65.6688 35.608 63.4537 33.4208C61.2396 31.2342 60.1322 28.4321 60.1322 25.0139C60.1322 22.802 60.6358 20.8367 61.645 19.1175C62.6537 17.3989 64.0976 16.0163 65.9778 14.9708C67.858 13.9253 69.8829 13.402 72.0515 13.402C73.8965 13.402 75.6721 13.7888 77.3805 14.5617C79.0883 15.3345 80.5599 16.4335 81.7967 17.8582ZM92.8336 19.314C94.3946 19.314 95.8613 19.7007 97.2341 20.4753C98.6087 21.2494 99.6797 22.3 100.45 23.6273C101.22 24.9546 101.605 26.3868 101.605 27.925C101.605 29.4735 101.217 30.9207 100.442 32.2682C99.6672 33.6156 98.6108 34.6685 97.2726 35.427C95.9344 36.1861 94.4596 36.5658 92.8482 36.5658C90.4764 36.5658 88.452 35.729 86.7751 34.0554C85.0976 32.3817 84.2591 30.3478 84.2591 27.9555C84.2591 25.392 85.2065 23.2555 87.1019 21.5462C88.7642 20.0581 90.6753 19.314 92.8336 19.314ZM92.9019 23.1892C91.6125 23.1892 90.5393 23.6336 89.6813 24.5234C88.8228 25.4133 88.394 26.5521 88.394 27.9394C88.394 29.3669 88.8179 30.523 89.6661 31.4077C90.5127 32.2924 91.5875 32.735 92.8867 32.735C94.1859 32.735 95.2678 32.2883 96.1301 31.3933C96.9919 30.4982 97.4249 29.3473 97.4249 27.9399C97.4249 26.5326 97.0011 25.3885 96.1534 24.509C95.3057 23.6296 94.2211 23.1892 92.9019 23.1892ZM106.615 12.9796C107.343 12.9796 107.966 13.2413 108.487 13.7634C109.008 14.2862 109.268 14.9201 109.268 15.6636C109.268 16.3972 109.01 17.0231 108.495 17.5412C107.98 18.0594 107.363 18.3181 106.645 18.3181C105.907 18.3181 105.278 18.0542 104.758 17.5263C104.237 16.9989 103.977 16.358 103.977 15.6036C103.977 14.8798 104.235 14.2619 104.75 13.749C105.265 13.2361 105.887 12.9796 106.615 12.9796ZM104.54 19.7359H108.691V36.1434H104.54V19.7359ZM112.461 19.7359H116.611V21.4171C117.552 20.6304 118.405 20.0829 119.169 19.7751C119.933 19.4674 120.714 19.3135 121.515 19.3135C123.154 19.3135 124.546 19.8811 125.69 21.0171C126.651 21.9824 127.132 23.41 127.132 25.3004V36.1428H123.027V28.9578C123.027 26.9999 122.938 25.6992 122.761 25.056C122.585 24.4134 122.276 23.9241 121.836 23.5875C121.396 23.2509 120.854 23.0826 120.206 23.0826C119.366 23.0826 118.646 23.361 118.044 23.9183C117.443 24.4762 117.025 25.2468 116.793 26.2311C116.671 26.7435 116.611 27.8523 116.611 29.5594V36.1423H112.461V19.7359H112.461ZM131.601 13.9605H135.859V32.1172H142.061V36.1434H131.601V13.9605ZM152.611 19.314C154.173 19.314 155.64 19.7007 157.013 20.4753C158.386 21.2494 159.459 22.3 160.228 23.6273C160.998 24.9546 161.384 26.3868 161.384 27.925C161.384 29.4735 160.996 30.9207 160.221 32.2682C159.445 33.6156 158.389 34.6685 157.05 35.427C155.712 36.1861 154.238 36.5658 152.627 36.5658C150.255 36.5658 148.231 35.729 146.554 34.0554C144.875 32.3817 144.037 30.3478 144.037 27.9555C144.037 25.392 144.985 23.2555 146.881 21.5462C148.542 20.0581 150.454 19.314 152.611 19.314ZM152.681 23.1892C151.391 23.1892 150.318 23.6336 149.46 24.5234C148.601 25.4133 148.172 26.5521 148.172 27.9394C148.172 29.3669 148.597 30.523 149.444 31.4077C150.292 32.2924 151.366 32.735 152.665 32.735C153.964 32.735 155.046 32.2883 155.91 31.3933C156.771 30.4982 157.203 29.3473 157.203 27.9399C157.203 26.5326 156.78 25.3885 155.932 24.509C155.084 23.6296 154.001 23.1892 152.681 23.1892ZM176.983 19.7359H181.133V36.1434H176.983V34.4087C176.172 35.1729 175.36 35.7232 174.545 36.0598C173.731 36.3969 172.848 36.5652 171.895 36.5652C169.76 36.5652 167.913 35.7434 166.353 34.0997C164.793 32.456 164.015 30.4129 164.015 27.9693C164.015 25.4358 164.769 23.3604 166.278 21.741C167.786 20.1226 169.618 19.3135 171.775 19.3135C172.766 19.3135 173.699 19.4991 174.569 19.8714C175.439 20.2437 176.244 20.801 176.984 21.545V19.7359H176.983ZM172.62 23.1137C171.337 23.1137 170.27 23.5633 169.423 24.4635C168.574 25.3638 168.15 26.517 168.15 27.9244C168.15 29.3421 168.582 30.5081 169.446 31.4227C170.309 32.3379 171.372 32.7949 172.634 32.7949C173.938 32.7949 175.018 32.3454 175.877 31.4452C176.736 30.5455 177.165 29.3669 177.165 27.9088C177.165 26.4812 176.736 25.3257 175.877 24.4405C175.018 23.5564 173.933 23.1137 172.62 23.1137ZM185.329 19.7359H189.48V21.4171C190.42 20.6304 191.274 20.0829 192.037 19.7751C192.801 19.4674 193.583 19.3135 194.383 19.3135C196.022 19.3135 197.414 19.8811 198.558 21.0171C199.519 21.9824 200 23.41 200 25.3004V36.1428H195.894V28.9578C195.894 26.9999 195.806 25.6992 195.629 25.056C195.453 24.4134 195.144 23.9241 194.704 23.5875C194.263 23.2509 193.721 23.0826 193.074 23.0826C192.235 23.0826 191.514 23.361 190.912 23.9183C190.311 24.4762 189.893 25.2468 189.661 26.2311C189.539 26.7435 189.479 27.8523 189.479 29.5594V36.1423H185.328V19.7359H185.329ZM43.7055 0.0380859C46.9957 0.0380859 49.676 2.69358 49.6754 5.95651V43.3648C49.6754 46.6294 46.9957 49.2843 43.7055 49.2843H5.9677C2.67695 49.2843 0 46.6294 0 43.3648V23.0066V22.8586V5.95651C0 2.69358 2.67638 0.0380859 5.9677 0.0380859H43.7055ZM46.9507 43.3648V5.95651C46.9507 4.18161 45.4932 2.73929 43.7055 2.73929H5.9677C4.17766 2.73929 2.72364 4.18218 2.72364 5.95651V22.8586V23.0066V43.3648C2.72364 45.1403 4.17824 46.5843 5.9677 46.5843H43.7055C45.4932 46.5843 46.9507 45.1397 46.9507 43.3648Z" fill="#2A80FB"/>
</g>
<defs>
<clipPath id="clip0_33583_1432">
<rect width="200" height="49.3225" fill="white"/>
</clipPath>
</defs>
</svg>
