<svg width="200" height="41" viewBox="0 0 200 41" fill="none" xmlns="http://www.w3.org/2000/svg">
<g clip-path="url(#clip0_34398_1863)">
<path d="M109.748 30.6747V9.76678H116.663C118.61 9.76678 120.14 10.2772 121.252 11.2981C122.365 12.2993 122.922 13.6637 122.922 15.3913C122.922 17.0011 122.425 18.3066 121.431 19.3078C120.458 20.2894 119.106 20.8489 117.378 20.9864L125.753 30.6747H122.802L114.427 20.9569H112.013V30.6747H109.748ZM112.013 18.8956H116.394C119.216 18.8956 120.626 17.7275 120.626 15.3913C120.626 13.0354 119.216 11.8576 116.394 11.8576H112.013V18.8956Z" fill="#1168F1"/>
<path d="M134.073 30.9692C131.887 30.9692 130.079 30.233 128.649 28.7606C127.238 27.2686 126.532 25.4526 126.532 23.3128C126.532 21.1729 127.238 19.3667 128.649 17.8943C130.079 16.4023 131.887 15.6563 134.073 15.6563C136.239 15.6563 137.968 16.3532 139.259 17.7471V15.9508H141.344V30.6747H139.259V28.8784C137.968 30.2723 136.239 30.9692 134.073 30.9692ZM134.163 29.0551C135.315 29.0551 136.329 28.8097 137.202 28.3189C138.077 27.8281 138.762 27.1802 139.259 26.3753V20.2502C138.762 19.4453 138.077 18.7974 137.202 18.3066C136.329 17.8158 135.315 17.5704 134.163 17.5704C132.553 17.5704 131.232 18.1299 130.198 19.2489C129.185 20.3483 128.678 21.7029 128.678 23.3128C128.678 24.9226 129.185 26.287 130.198 27.406C131.232 28.5054 132.553 29.0551 134.163 29.0551Z" fill="#1168F1"/>
<path d="M153.741 30.9692C151.575 30.9692 149.848 30.2723 148.556 28.8784V30.6747H146.47V9.17786H148.556V17.7471C149.848 16.3533 151.575 15.6563 153.741 15.6563C155.927 15.6563 157.725 16.4023 159.136 17.8944C160.567 19.3668 161.282 21.1729 161.282 23.3128C161.282 25.4527 160.567 27.2686 159.136 28.7606C157.725 30.233 155.927 30.9692 153.741 30.9692ZM153.653 29.0551C155.261 29.0551 156.573 28.5054 157.586 27.406C158.619 26.287 159.136 24.9226 159.136 23.3128C159.136 21.703 158.619 20.3484 157.586 19.249C156.573 18.13 155.261 17.5704 153.653 17.5704C152.499 17.5704 151.486 17.8158 150.612 18.3066C149.737 18.7974 149.053 19.4453 148.556 20.2502V26.3754C149.053 27.1803 149.737 27.8281 150.612 28.3189C151.486 28.8097 152.499 29.0551 153.653 29.0551Z" fill="#1168F1"/>
<path d="M172.427 30.9692C170.261 30.9692 168.532 30.2723 167.241 28.8784V30.6747H165.154V9.17786H167.241V17.7471C168.532 16.3533 170.261 15.6563 172.427 15.6563C174.612 15.6563 176.411 16.4023 177.822 17.8944C179.252 19.3668 179.968 21.1729 179.968 23.3128C179.968 25.4527 179.252 27.2686 177.822 28.7606C176.411 30.233 174.612 30.9692 172.427 30.9692ZM172.337 29.0551C173.947 29.0551 175.259 28.5054 176.272 27.406C177.305 26.287 177.822 24.9226 177.822 23.3128C177.822 21.703 177.305 20.3484 176.272 19.249C175.259 18.13 173.947 17.5704 172.337 17.5704C171.185 17.5704 170.171 17.8158 169.298 18.3066C168.423 18.7974 167.738 19.4453 167.241 20.2502V26.3754C167.738 27.1803 168.423 27.8281 169.298 28.3189C170.171 28.8097 171.185 29.0551 172.337 29.0551Z" fill="#1168F1"/>
<path d="M184.914 12.1226C184.457 12.1226 184.069 11.9754 183.751 11.6809C183.453 11.3668 183.305 10.9938 183.305 10.5619C183.305 10.13 183.453 9.7668 183.751 9.47233C184.069 9.15822 184.457 9.00116 184.914 9.00116C185.351 9.00116 185.718 9.15822 186.016 9.47233C186.314 9.7668 186.464 10.13 186.464 10.5619C186.464 10.9938 186.314 11.3668 186.016 11.6809C185.718 11.9754 185.351 12.1226 184.914 12.1226ZM183.841 30.6747V15.9508H185.927V30.6747H183.841Z" fill="#1168F1"/>
<path d="M196.991 30.822C195.759 30.822 194.726 30.4588 193.89 29.7324C193.076 29.006 192.669 27.9557 192.669 26.5815V17.8944H188.884V15.9508H192.669V11.8576H194.755V15.9508H199.404V17.8944H194.755V26.4048C194.755 27.2882 194.973 27.9361 195.41 28.3484C195.868 28.7606 196.453 28.9668 197.168 28.9668C197.964 28.9668 198.699 28.7803 199.375 28.4072L200 30.1741C199.166 30.606 198.162 30.822 196.991 30.822Z" fill="#1168F1"/>
<path d="M39.6681 25.0405C40.8801 26.2773 42.3405 26.8957 44.0493 26.8957C45.758 26.8957 47.2085 26.2773 48.4006 25.0405C49.5928 23.8037 50.1888 22.3313 50.1888 20.6233C50.1888 18.9153 49.5928 17.4429 48.4006 16.2061C47.2085 14.9693 45.758 14.3509 44.0493 14.3509C42.3405 14.3509 40.8801 14.9693 39.6681 16.2061C38.476 17.4429 37.8799 18.9153 37.8799 20.6233C37.8799 22.3313 38.476 23.8037 39.6681 25.0405Z" fill="#1168F1"/>
<path fill-rule="evenodd" clip-rule="evenodd" d="M9.81595 0C4.39475 0 0 4.39475 0 9.81595V30.6748C0 36.0961 4.39475 40.4908 9.81595 40.4908H90.7975C96.2188 40.4908 100.613 36.0961 100.613 30.6748V9.81595C100.613 4.39475 96.2188 0 90.7975 0H9.81595ZM11.778 28.2798C13.9238 30.3804 16.5069 31.4307 19.527 31.4307C21.6928 31.4307 23.6498 30.9104 25.3983 29.8699C27.1469 28.8294 28.488 27.4454 29.4218 25.7178L25.2493 23.4798C23.9777 25.7571 22.0702 26.8957 19.527 26.8957C17.8182 26.8957 16.3578 26.2773 15.1458 25.0405C13.9536 23.8037 13.3575 22.3313 13.3575 20.6233C13.3575 18.9153 13.9536 17.4429 15.1458 16.2061C16.3578 14.9693 17.8182 14.3509 19.527 14.3509C22.0702 14.3509 23.9777 15.4896 25.2493 17.7669L29.4218 15.5288C28.488 13.8012 27.1469 12.4172 25.3983 11.3767C23.6498 10.3362 21.6928 9.81595 19.527 9.81595C16.5069 9.81595 13.9238 10.8761 11.778 12.9963C9.65196 15.0969 8.58896 17.6393 8.58896 20.6233C8.58896 23.6074 9.65196 26.1595 11.778 28.2798ZM44.0492 31.4307C47.0693 31.4307 49.6423 30.3706 51.7683 28.2503C53.9142 26.1301 54.9871 23.5877 54.9871 20.6233C54.9871 17.6589 53.9142 15.1166 51.7683 12.9963C49.6423 10.8761 47.0693 9.81595 44.0492 9.81595C41.0291 9.81595 38.446 10.8761 36.3001 12.9963C34.1741 15.0969 33.1112 17.6393 33.1112 20.6233C33.1112 23.6074 34.1741 26.1595 36.3001 28.2798C38.446 30.3804 41.0291 31.4307 44.0492 31.4307ZM65.1069 10.1693H60.3681V31.0773H65.1069V10.1693ZM86.7274 31.0773H90.8105V10.1693H86.042V23.0969L75.7596 10.1693H71.6764V31.0773H76.4153V18.1497L86.7274 31.0773Z" fill="#1168F1"/>
</g>
<defs>
<clipPath id="clip0_34398_1863">
<rect width="200" height="40.4908" fill="white"/>
</clipPath>
</defs>
</svg>
