<svg width="200" height="71" viewBox="0 0 200 71" fill="none" xmlns="http://www.w3.org/2000/svg">
<g clip-path="url(#clip0_33542_1296)">
<path d="M50.6697 59.0192C50.6496 59.468 50.4968 59.9831 50.2026 60.5672C49.9083 61.1513 49.388 61.7712 48.638 62.4252C47.8862 63.08 46.8298 63.6598 45.4634 64.1609C44.0978 64.663 42.3892 65.007 40.3417 65.1921L39.9471 65.2261C39.8458 65.6627 39.7882 66.0652 39.7742 66.4362C39.7428 67.2456 39.9192 67.8262 40.2893 68.1807C40.6657 68.5343 41.2262 68.7115 41.9666 68.7115C43.6019 68.7115 45.2023 67.828 46.7625 66.0599H48.4983C47.7814 67.0972 46.7198 68.1213 45.3088 69.1376C43.8944 70.1522 42.246 70.6603 40.3583 70.6603C39.0478 70.6603 37.939 70.3093 37.0318 69.6039C36.1246 68.9001 35.6968 67.8664 35.7448 66.5C35.8025 64.8315 36.3263 63.2075 37.3094 61.6315C38.2961 60.053 39.6101 58.7713 41.2506 57.7838C42.8938 56.7937 44.6514 56.3021 46.5425 56.3021C48.0626 56.3021 49.133 56.5588 49.7651 57.0713C50.3938 57.5865 50.6976 58.2352 50.6697 59.0192ZM47.2157 58.9546C47.2279 58.5949 47.1161 58.2657 46.8752 57.9636C46.6333 57.6642 46.298 57.514 45.8606 57.514C45.094 57.514 44.3851 57.7785 43.7259 58.3076C43.0693 58.8359 42.5079 59.4619 42.0452 60.1822C41.5815 60.9016 41.2009 61.6342 40.8962 62.3754C40.5888 63.1193 40.3985 63.5751 40.3304 63.7514C42.5594 63.3795 44.2515 62.7526 45.4145 61.869C46.5757 60.9846 47.1807 60.0146 47.2157 58.9546Z" fill="#4983C3"/>
<path d="M73.399 59.0865C73.3815 59.5335 73.2183 59.9264 72.9048 60.2651C72.5931 60.603 72.1819 60.7715 71.6667 60.7715C71.2773 60.7715 70.9718 60.6956 70.7517 60.5428C70.5343 60.39 70.3658 60.1778 70.2506 59.9054C70.1353 59.633 69.993 59.2288 69.8297 58.6936C69.7328 58.3216 69.5713 58.0335 69.3425 57.8248C69.1155 57.6188 68.6851 57.5149 68.0539 57.5149C67.4872 57.5149 66.9712 57.6615 66.5041 57.9575C66.0413 58.2518 65.803 58.6385 65.7838 59.1188C65.7724 59.4462 65.8519 59.757 66.0291 60.0521C66.2046 60.3472 66.4212 60.6249 66.6787 60.8859C66.938 61.1496 67.3405 61.5198 67.8888 62.0009C68.9278 62.8722 69.6804 63.61 70.1432 64.2107C70.6068 64.8105 70.8242 65.5527 70.7902 66.4362C70.7648 67.1574 70.5352 67.8402 70.0943 68.4845C69.6586 69.1271 68.9514 69.6519 67.9761 70.057C67.0009 70.4604 65.7672 70.6612 64.2707 70.6612C62.1194 70.6612 60.6211 70.2657 59.7795 69.4746C58.9308 68.6836 58.5248 67.917 58.551 67.1749C58.5711 66.6833 58.7562 66.2511 59.1063 65.8801C59.4573 65.5107 59.9139 65.3222 60.4701 65.3222C61.5815 65.3222 62.1936 66.0381 62.3045 67.4682C62.3612 68.0803 62.5149 68.5631 62.7681 68.9185C63.0256 69.2721 63.5696 69.4502 64.4113 69.4502C65.1429 69.4502 65.7497 69.2642 66.2308 68.8923C66.7171 68.5221 66.9712 68.0471 66.9878 67.4674C67.0009 67.1609 66.931 66.8623 66.7826 66.5681C66.6394 66.2721 66.3216 65.9124 65.8335 65.488C64.9762 64.745 64.2707 64.0893 63.7215 63.5218C63.1627 62.9552 62.7515 62.4104 62.4773 61.8839C62.1997 61.36 62.0731 60.81 62.0914 60.2311C62.1124 59.7177 62.3036 59.1615 62.6616 58.5608C63.023 57.961 63.677 57.4337 64.6339 56.9814C65.5873 56.5265 66.8682 56.3021 68.4738 56.3021C69.4552 56.3021 70.2838 56.3921 70.9526 56.5728C71.6222 56.7518 72.1347 56.9823 72.4901 57.2599C72.8472 57.5384 73.0882 57.8327 73.22 58.1444C73.3492 58.4561 73.4112 58.7695 73.399 59.0865Z" fill="#4983C3"/>
<path d="M92.8597 56.7771L92.3445 58.284H89.0896L86.3245 66.3725C86.1149 66.9496 86.0093 67.3713 86.0006 67.6324C85.9927 67.8629 86.0591 68.0724 86.2092 68.2636C86.3524 68.4557 86.5401 68.5509 86.7689 68.5509C87.4045 68.5509 87.972 68.2409 88.4723 67.6236C88.9735 67.0081 89.4301 66.3402 89.8379 65.619H91.3798C90.7188 66.974 89.9898 68.0279 89.1918 68.7875C88.3955 69.5462 87.6568 70.0482 86.9802 70.2936C86.3009 70.5398 85.6775 70.6629 85.1231 70.6629C84.1828 70.6629 83.4642 70.3905 82.9569 69.8439C82.4549 69.2974 82.22 68.5727 82.2532 67.6673C82.2715 67.0439 82.468 66.1987 82.8364 65.1283L85.2104 58.2849H82.1484L82.6758 56.7779H85.7229L87.4106 51.7847H91.3047L89.6187 56.7779H92.8597V56.7771Z" fill="#4983C3"/>
<path d="M116.872 66.2573C116.533 66.9016 116.155 67.491 115.745 68.0253C115.332 68.5605 114.876 69.0276 114.384 69.4327C113.885 69.837 113.394 70.1417 112.901 70.3495C112.406 70.5564 111.899 70.6603 111.374 70.6603C110.23 70.6603 109.509 70.3146 109.209 69.6213C108.913 68.9281 108.781 68.1013 108.821 67.1408C107.908 68.1772 107.016 69.0224 106.141 69.6772C105.266 70.3329 104.282 70.6603 103.192 70.6603C102.548 70.6603 102.017 70.4831 101.602 70.1277C101.193 69.7733 100.895 69.2957 100.716 68.6958C100.534 68.0951 100.457 67.4508 100.481 66.7645C100.534 65.2899 100.969 63.7349 101.779 62.0961C102.594 60.4607 103.668 59.0856 104.999 57.9698C106.333 56.8583 107.748 56.3013 109.24 56.3013C109.93 56.3013 110.464 56.4375 110.847 56.7116C111.231 56.984 111.491 57.2887 111.624 57.6284C111.76 57.9654 111.877 58.3426 111.97 58.7582L112.65 56.7116H116.268L112.862 66.6973C112.618 67.4176 112.494 67.855 112.486 68.007C112.483 68.1493 112.524 68.2715 112.614 68.3684C112.703 68.4662 112.809 68.5142 112.925 68.5142C113.634 68.5142 114.423 67.7616 115.284 66.2564H116.872V66.2573ZM111.002 59.7256C111.021 59.1912 110.937 58.7311 110.746 58.3487C110.56 57.9663 110.199 57.7768 109.663 57.7768C108.844 57.7768 108.035 58.2492 107.232 59.193C106.428 60.1359 105.763 61.278 105.24 62.6138C104.716 63.9505 104.44 65.0786 104.407 65.9962C104.358 67.3163 104.751 67.9782 105.582 67.9782C106.16 67.9782 106.759 67.7136 107.385 67.1836C108.008 66.6545 108.595 65.9464 109.14 65.0637C109.708 64.1452 110.153 63.2189 110.479 62.2794C110.798 61.3408 110.975 60.4887 111.002 59.7256Z" fill="#4983C3"/>
<path d="M136.575 56.7771L136.062 58.284H132.806L130.041 66.3725C129.834 66.9496 129.728 67.3713 129.718 67.6324C129.71 67.8629 129.778 68.0724 129.923 68.2636C130.069 68.4557 130.255 68.5509 130.484 68.5509C131.12 68.5509 131.689 68.2409 132.191 67.6236C132.692 67.0081 133.149 66.3402 133.556 65.619H135.093C134.433 66.974 133.708 68.0279 132.906 68.7875C132.113 69.5462 131.373 70.0482 130.691 70.2936C130.015 70.5398 129.393 70.6629 128.84 70.6629C127.898 70.6629 127.178 70.3905 126.675 69.8439C126.171 69.2974 125.933 68.5727 125.966 67.6673C125.989 67.0439 126.185 66.1987 126.55 65.1283L128.925 58.2849H125.865L126.393 56.7779H129.441L131.126 51.7847H135.023L133.334 56.7779H136.575V56.7771Z" fill="#4983C3"/>
<path d="M158.77 59.0192C158.752 59.468 158.598 59.984 158.308 60.5672C158.01 61.1513 157.489 61.7712 156.74 62.4261C155.992 63.08 154.934 63.6598 153.566 64.1609C152.205 64.663 150.494 65.007 148.446 65.1921L148.056 65.2261C147.949 65.6627 147.89 66.0652 147.879 66.4362C147.85 67.2456 148.022 67.8262 148.395 68.1807C148.77 68.5343 149.327 68.7115 150.073 68.7115C151.709 68.7115 153.308 67.8288 154.864 66.0599H156.602C155.887 67.0972 154.825 68.1213 153.411 69.1376C152 70.1522 150.349 70.6603 148.461 70.6603C147.152 70.6603 146.043 70.3102 145.135 69.6039C144.225 68.9001 143.799 67.8664 143.847 66.5026C143.908 64.8315 144.431 63.2092 145.413 61.6315C146.4 60.053 147.711 58.7713 149.352 57.7838C150.994 56.7946 152.757 56.3021 154.647 56.3021C156.164 56.3021 157.236 56.5588 157.867 57.0713C158.496 57.5865 158.799 58.2352 158.77 59.0192ZM155.321 58.9555C155.332 58.5958 155.218 58.2649 154.979 57.9645C154.738 57.6642 154.399 57.514 153.961 57.514C153.199 57.514 152.488 57.7794 151.828 58.3076C151.174 58.8359 150.613 59.4619 150.149 60.1822C149.685 60.9016 149.304 61.6342 148.999 62.3754C148.693 63.1193 148.504 63.5751 148.435 63.7514C150.66 63.3795 152.358 62.7526 153.519 61.869C154.682 60.9855 155.282 60.0146 155.321 58.9555Z" fill="#4983C3"/>
<path d="M14.2246 44.5535C12.1938 44.5535 10.3044 44.1842 8.55641 43.4438C6.81632 42.7052 5.31283 41.6932 4.03898 40.4115C2.77298 39.1316 1.78288 37.6193 1.06781 35.874C0.357099 34.1313 0 32.269 0 30.2861V30.2067C0 28.2248 0.357099 26.3694 1.06868 24.6389C1.78288 22.9084 2.77385 21.3892 4.03985 20.0822C5.31283 18.7734 6.83029 17.7431 8.60094 16.9897C10.3698 16.2362 12.3291 15.8599 14.4664 15.8599C15.7586 15.8599 16.9399 15.9673 18.0121 16.1785C19.0817 16.3898 20.0578 16.6806 20.9265 17.0508C21.7953 17.4201 22.602 17.8689 23.3442 18.3962C24.0811 18.9262 24.7699 19.5077 25.4064 20.1416L21.5203 24.6188C20.4359 23.6418 19.334 22.8752 18.2112 22.3208C17.0884 21.7647 15.8241 21.4888 14.4263 21.4888C13.2607 21.4888 12.1868 21.714 11.1949 22.1619C10.204 22.6124 9.35181 23.2323 8.6411 24.0243C7.92516 24.8179 7.36812 25.7355 6.97522 26.7806C6.58058 27.824 6.38064 28.9389 6.38064 30.1272V30.2067C6.38064 31.395 6.58058 32.5178 6.97522 33.576C7.36899 34.6316 7.92167 35.5571 8.62364 36.349C9.31863 37.1418 10.1638 37.7686 11.1583 38.2314C12.1484 38.6941 13.238 38.9246 14.4272 38.9246C16.0075 38.9246 17.3486 38.6348 18.4495 38.0541C19.5435 37.4727 20.6384 36.6799 21.7158 35.6741L25.6003 39.5978C24.8904 40.3635 24.1448 41.0515 23.3843 41.6583C22.6125 42.2651 21.7769 42.789 20.8672 43.2247C19.9565 43.6595 18.9542 43.9904 17.875 44.2148C16.7898 44.44 15.5735 44.5535 14.2246 44.5535Z" fill="#4983C3"/>
<path d="M40.3809 16.3375H53.067C56.576 16.3375 59.2731 17.2744 61.1502 19.1489C62.7332 20.7353 63.5242 22.85 63.5242 25.492V25.5706C63.5242 27.8162 62.9785 29.6471 61.8819 31.0589C60.7853 32.4733 59.3525 33.5097 57.5862 34.1707L64.3598 44.0778H57.223L51.2816 35.2009H51.2004H46.4865V44.0778H40.3809V16.3375ZM52.6672 29.8121C54.175 29.8121 55.3284 29.4559 56.1369 28.74C56.9419 28.0284 57.3453 27.0767 57.3453 25.8884V25.8089C57.3453 24.4888 56.9218 23.497 56.0749 22.8352C55.2315 22.1768 54.0545 21.8459 52.5476 21.8459H46.4865V29.8121H52.6672Z" fill="#4983C3"/>
<path d="M92.4175 44.5535C90.2758 44.5535 88.3043 44.1763 86.5118 43.4237C84.7141 42.6711 83.1643 41.6548 81.8547 40.3731C80.5459 39.0931 79.5305 37.5862 78.8023 35.8548C78.075 34.1234 77.7109 32.269 77.7109 30.2861V30.2067C77.7109 28.2248 78.082 26.3694 78.8241 24.6389C79.561 22.9093 80.5887 21.3892 81.894 20.0831C83.201 18.7734 84.7613 17.7423 86.5703 16.9897C88.3803 16.2362 90.3561 15.8599 92.4935 15.8599C94.6334 15.8599 96.6014 16.2362 98.3991 16.9897C100.197 17.7431 101.751 18.7612 103.057 20.0429C104.366 21.3237 105.385 22.8307 106.106 24.5603C106.835 26.29 107.202 28.1462 107.202 30.1281V30.2067C107.202 32.1886 106.826 34.0449 106.09 35.7762C105.348 37.5058 104.326 39.025 103.017 40.3312C101.709 41.64 100.151 42.6702 98.3406 43.4229C96.5289 44.1763 94.5575 44.5535 92.4175 44.5535ZM92.4943 38.9255C93.7097 38.9255 94.8351 38.7029 95.8628 38.2523C96.8921 37.8027 97.7722 37.1828 98.4987 36.3891C99.2286 35.5972 99.797 34.6787 100.2 33.6362C100.613 32.5929 100.818 31.4762 100.818 30.287V30.2076C100.818 29.0184 100.613 27.8965 100.2 26.8391C99.797 25.7836 99.2129 24.8572 98.4611 24.0653C97.705 23.2725 96.8162 22.6456 95.7816 22.1829C94.7565 21.7201 93.6346 21.4896 92.4184 21.4896C91.1768 21.4896 90.0427 21.7149 89.0281 22.1628C88.0083 22.6133 87.1396 23.2332 86.4123 24.0251C85.685 24.8196 85.121 25.7364 84.7097 26.7815C84.302 27.8249 84.0925 28.9398 84.0925 30.129V30.2076C84.0925 31.3959 84.302 32.5195 84.7097 33.5769C85.121 34.6325 85.7007 35.5579 86.4559 36.3507C87.2068 37.1426 88.0895 37.7695 89.1076 38.2331C90.123 38.6959 91.251 38.9255 92.4943 38.9255Z" fill="#4983C3"/>
<path d="M174.44 16.3375H185.258C187.423 16.3375 189.411 16.6868 191.225 17.387C193.031 18.0863 194.59 19.059 195.9 20.2997C197.205 21.5412 198.214 23.001 198.931 24.6792C199.642 26.3564 200.001 28.1742 200.001 30.1291V30.2076C200.001 32.1643 199.643 33.9873 198.931 35.6759C198.215 37.368 197.205 38.8339 195.9 40.0755C194.589 41.3188 193.031 42.2949 191.225 43.0091C189.411 43.7215 187.423 44.0778 185.258 44.0778H174.44V16.3375ZM185.258 38.5694C186.5 38.5694 187.637 38.372 188.666 37.9765C189.695 37.5793 190.574 37.0117 191.301 36.2722C192.029 35.531 192.597 34.6596 193.004 33.6547C193.415 32.6523 193.621 31.5286 193.621 30.2871V30.2076C193.621 28.9923 193.415 27.8695 193.004 26.8392C192.597 25.8089 192.029 24.9236 191.301 24.1832C190.574 23.4446 189.695 22.8701 188.666 22.4597C187.637 22.0511 186.5 21.8451 185.258 21.8451H180.541V38.5685H185.258V38.5694Z" fill="#4983C3"/>
<path d="M118.673 16.3375H125.208L130.958 35.1206L137.177 16.2581H142.413L148.638 35.1206L154.38 16.3375H160.759L151.288 44.2777H145.977L139.716 26.1241L133.455 44.2777H128.145L118.673 16.3375Z" fill="#4983C3"/>
<path d="M146.063 6.32039C146.063 9.81106 143.231 12.6417 139.737 12.6425C136.245 12.6425 133.416 9.81106 133.416 6.32039C133.416 2.82885 136.245 2.01991e-07 139.737 2.01991e-07C143.231 -0.000872901 146.063 2.82885 146.063 6.32039ZM121.959 2.01991e-07C118.467 2.01991e-07 115.636 2.82885 115.636 6.32039C115.636 9.81106 118.467 12.6425 121.959 12.6425C125.447 12.6417 128.281 9.81106 128.281 6.32039C128.281 2.82885 125.447 -0.000872901 121.959 2.01991e-07ZM157.517 2.01991e-07C154.023 2.01991e-07 151.194 2.82885 151.194 6.32039C151.194 9.81106 154.023 12.6425 157.517 12.6425C161.007 12.6417 163.841 9.81106 163.841 6.32039C163.841 2.82885 161.007 -0.000872901 157.517 2.01991e-07Z" fill="#4983C3"/>
</g>
<defs>
<clipPath id="clip0_33542_1296">
<rect width="200" height="70.6611" fill="white"/>
</clipPath>
</defs>
</svg>
