<svg width="200" height="39" viewBox="0 0 200 39" fill="none" xmlns="http://www.w3.org/2000/svg">
<path d="M16.6315 0L0 9.6187V28.8178L16.6315 38.4365L33.2631 28.8178V9.6187L16.6315 0ZM16.6315 0L0 9.6187V28.8178L16.6315 38.4365L33.2631 28.8178V9.6187L16.6315 0Z" fill="white"/>
<path d="M23.1845 30.8871H20.8086L17.9728 28.2813V26.94L20.9236 24.1426V19.6973L24.7557 17.2064L29.1244 20.502L23.1845 30.8871ZM13.3742 23.9126L13.7958 19.7356L12.3779 16.0184H20.8469L19.429 19.7356L19.8122 23.9126H16.5549H13.3742ZM15.3286 28.2813L12.4928 30.9255H10.0786L4.1004 20.5403L8.50738 17.283L12.3779 19.7356V24.1809L15.3286 26.9783V28.2813ZM10.0402 8.31577H23.1462L24.7174 14.9837H8.50738L10.0402 8.31577ZM16.6315 0L0 9.6187V28.8178L16.6315 38.4365L33.2631 28.8178V9.6187L16.6315 0Z" fill="#03316C"/>
<path d="M51.9258 28.0897C47.5188 28.0897 44.2998 24.6408 44.2998 20.4254C44.2998 16.21 47.5571 12.6461 51.9641 12.6461C54.7616 12.6461 56.4861 13.6808 57.8656 15.1753L55.7579 17.4363C54.7233 16.325 53.6119 15.5969 51.9258 15.5969C49.4732 15.5969 47.6721 17.7429 47.6721 20.3487C47.6721 23.0312 49.5115 25.1389 52.1174 25.1389C53.7269 25.1389 54.8765 24.3725 55.9495 23.2995L57.9806 25.3305C56.4861 26.94 54.7999 28.0897 51.9258 28.0897Z" fill="#002E73"/>
<path d="M64.3803 28.0897H60.9697V12.6844H64.3803V16.2866C65.3001 14.1023 67.0245 12.5694 69.6304 12.6844V16.2866H69.4388C66.488 16.2866 64.4187 18.2027 64.4187 22.1498L64.3803 28.0897Z" fill="#002E73"/>
<path d="M87.3729 12.6461L79.9003 32.2284H76.4513L78.0991 28.0897L71.6611 12.6461H75.2634L79.632 24.0659L83.8474 12.6461H87.3729Z" fill="#002E73"/>
<path d="M97.375 15.5969C95.0757 15.5969 93.083 17.4746 93.083 20.3487C93.083 23.2612 95.114 25.1006 97.375 25.1006C99.7126 25.1006 101.59 23.2612 101.59 20.3487C101.59 17.4363 99.6743 15.5969 97.375 15.5969ZM98.1414 28.0514C95.7272 28.0514 94.156 26.8251 93.1596 25.4455V32.2284H89.749V12.6461H93.1596V15.4053C94.271 13.8724 95.8038 12.6461 98.1414 12.6461C101.629 12.6461 105.039 15.4053 105.039 20.3487C105.039 25.2539 101.667 28.0514 98.1414 28.0514Z" fill="#002E73"/>
<path d="M112.474 15.8651V23.1462C112.474 24.4492 113.125 24.9857 114.313 24.9857H115.654V28.0131H113.317C110.864 28.0131 109.101 26.9017 109.101 23.6827V15.8651H107.224V12.9527H109.101V8.89062H112.512V12.9527H115.693V15.8651H112.474Z" fill="#002E73"/>
<path d="M126.346 15.5969C123.625 15.5969 121.862 17.7429 121.862 20.3487C121.862 22.9929 123.74 25.1389 126.346 25.1389C129.067 25.1389 130.83 22.9929 130.83 20.3871C130.906 17.7812 129.028 15.5969 126.346 15.5969ZM126.346 28.0897C121.862 28.0897 118.528 24.6408 118.528 20.4254C118.528 16.1717 121.901 12.6461 126.423 12.6461C130.944 12.6461 134.278 16.0951 134.278 20.3487C134.278 24.5641 130.944 28.0897 126.346 28.0897Z" fill="#002E73"/>
<path d="M166.698 15.5969C163.978 15.5969 162.215 17.7429 162.215 20.3487C162.215 22.9929 164.093 25.1389 166.698 25.1389C169.419 25.1389 171.182 22.9929 171.182 20.3871C171.259 17.7812 169.381 15.5969 166.698 15.5969ZM166.698 28.0897C162.215 28.0897 158.881 24.6408 158.881 20.4254C158.881 16.1717 162.253 12.6461 166.775 12.6461C171.297 12.6461 174.631 16.0951 174.631 20.3487C174.631 24.5641 171.259 28.0897 166.698 28.0897Z" fill="#002E73"/>
<path d="M194.788 12.6461C198.007 12.6461 200 14.6772 200 18.3177V28.0514H196.589V19.3141C196.589 16.9381 195.478 15.7118 193.6 15.7118C191.761 15.7118 190.42 17.0148 190.42 19.3907V28.0897H187.009V19.3141C187.009 17.0148 185.859 15.7118 184.02 15.7118C182.142 15.7118 180.839 17.1297 180.839 19.429V28.0897H177.429V12.6461H180.839V15.1753C181.797 13.8724 183.062 12.6461 185.323 12.6461C187.469 12.6461 188.925 13.6808 189.73 15.252C190.995 13.6808 192.527 12.6461 194.788 12.6461Z" fill="#002E73"/>
<path d="M140.526 24.9473V26.7101L140.411 26.8634L138.916 27.7064H138.724L137.23 26.8634L137.153 26.7101V24.9473L137.23 24.794L138.724 23.9509H138.916L140.411 24.794L140.526 24.9473Z" fill="#002E73"/>
<path d="M150.796 28.0513C146.389 27.9364 143.246 24.4491 143.285 20.2337C143.361 16.0184 146.695 12.5311 151.102 12.6461C153.9 12.7227 155.624 13.7957 156.965 15.3286L154.819 17.5512C153.823 16.4399 152.712 15.6352 151.025 15.6352C148.573 15.5968 146.733 17.6662 146.695 20.3104C146.618 22.9929 148.42 25.1389 151.025 25.1772C152.635 25.2155 153.823 24.4874 154.896 23.4144L156.889 25.4838C155.432 27.0166 153.708 28.128 150.796 28.0513Z" fill="#002E73"/>
</svg>
