<svg width="200" height="52" viewBox="0 0 200 52" fill="none" xmlns="http://www.w3.org/2000/svg">
<g clip-path="url(#clip0_34254_1276)">
<path fill-rule="evenodd" clip-rule="evenodd" d="M107.272 22.4887C107.45 21.4781 107.717 20.5388 108.077 19.6709C108.788 17.9529 109.834 16.6136 111.218 15.6542C112.6 14.6951 114.339 14.2155 116.433 14.2155C118.488 14.2155 120.177 14.6558 121.501 15.5344C122.824 16.4138 123.821 17.6428 124.494 19.2214C124.907 20.1931 125.192 21.2829 125.351 22.4887H107.272ZM125.057 10.7383C122.785 9.21994 119.91 8.46001 116.433 8.46001C113.786 8.46001 111.474 8.93023 109.499 9.86892C107.523 10.8085 105.884 12.0673 104.58 13.6458C103.276 15.2254 102.298 17.0031 101.646 18.9814C100.994 20.9599 100.668 23.0086 100.668 25.1265V26.2058C100.668 28.2841 100.994 30.3123 101.646 32.2906C102.298 34.2692 103.276 36.048 104.58 37.6264C105.884 39.2058 107.552 40.4739 109.588 41.4332C111.622 42.3923 114.023 42.8721 116.789 42.8721C119.357 42.8721 121.639 42.4421 123.634 41.583C125.629 40.724 127.289 39.4754 128.613 37.836C129.936 36.1977 130.836 34.2792 131.31 32.0808H125.087C124.731 33.44 123.832 34.6195 122.39 35.618C120.947 36.6173 119.08 37.1165 116.789 37.1165C114.537 37.1165 112.689 36.6277 111.247 35.6479C109.805 34.669 108.738 33.3097 108.047 31.5713C107.51 30.2215 107.184 28.7319 107.064 27.1051H131.844V24.4072C131.844 21.6495 131.279 19.0622 130.154 16.6436C129.028 14.2255 127.329 12.2576 125.057 10.7383ZM96.3689 9.53926H89.3753L76.336 25.3774V0H69.6388V41.7928H76.336V26.7453H80.2481L91.7459 41.7928H99.3915L84.9946 23.3138L96.3689 9.53926ZM59.9791 25.7262C57.8845 24.1281 55.0597 23.1479 51.5037 22.7885L48.3032 22.4288C46.4853 22.2291 45.1813 21.7995 44.3914 21.1399C43.6006 20.4805 43.206 19.5915 43.206 18.4718C43.206 17.1933 43.7396 16.134 44.8063 15.2947C45.8732 14.4551 47.4337 14.0355 49.4886 14.0355C51.5822 14.0355 53.1722 14.4759 54.2596 15.3545C55.3459 16.2342 55.9088 17.2729 55.9488 18.4718H62.1124C62.0332 15.2346 60.8383 12.7767 58.5269 11.0979C56.2154 9.41941 53.2021 8.57987 49.4886 8.57987C47.0382 8.57987 44.885 8.98023 43.0283 9.77896C41.1706 10.5788 39.7094 11.7181 38.6424 13.1963C37.5754 14.6754 37.0421 16.474 37.0421 18.5919C37.0421 21.3103 37.9999 23.4585 39.9168 25.0365C41.8327 26.6159 44.4108 27.5845 47.651 27.9444L50.8517 28.2438C53.0242 28.4838 54.5855 28.9541 55.5337 29.6531C56.4822 30.3526 56.9562 31.3221 56.9562 32.5605C56.9562 33.9197 56.324 35.0483 55.0597 35.9477C53.7947 36.8471 51.9973 37.2965 49.6662 37.2965C47.0586 37.2965 45.1813 36.7872 44.0356 35.7677C42.8891 34.7486 42.2578 33.6397 42.139 32.4406H36.0345C36.1132 35.6778 37.3385 38.2062 39.7094 40.0244C42.0799 41.8426 45.399 42.7522 49.6662 42.7522C52.313 42.7522 54.654 42.3219 56.6896 41.4632C58.7241 40.6041 60.305 39.3949 61.431 37.836C62.5572 36.2773 63.1203 34.479 63.1203 32.4406C63.1203 29.5628 62.0729 27.325 59.9791 25.7262ZM146.66 0.0669673H140.318V9.53926H134.983V14.575H140.318V30.4023C140.318 33.3604 140.782 35.6985 141.71 37.4164C142.638 39.1354 144.001 40.354 145.8 41.0735C147.597 41.7928 149.801 42.1527 152.409 42.1527H157.15V36.2773H151.817C150.156 36.2773 148.882 35.8183 147.994 34.8986C147.104 33.9795 146.66 32.6804 146.66 31.0019V14.575H157.15V9.53926H146.66V0.0669673ZM200 14.575V9.53926H189.51V0.0669673H183.168V9.53926H177.833V14.575H183.168V30.4023C183.168 33.3604 183.632 35.6985 184.56 37.4164C185.488 39.1354 186.851 40.354 188.65 41.0735C190.447 41.7928 192.651 42.1527 195.259 42.1527H200V36.2773H194.667C193.006 36.2773 191.732 35.8183 190.844 34.8986C189.954 33.9795 189.51 32.6804 189.51 31.0019V14.575H200ZM161.595 14.755H166.336V41.7928H173.033V9.53926H161.595V14.755ZM46.6401 4.8823H52.9362V0.0557582H46.6401V4.8823ZM166.623 4.8823H172.919V0.0557582H166.623V4.8823ZM6.60401 22.4887C6.7816 21.4781 7.04955 20.5388 7.40871 19.6709C8.11991 17.9529 9.16612 16.6136 10.5499 15.6542C11.9322 14.6951 13.6706 14.2155 15.7656 14.2155C17.8196 14.2155 19.5086 14.6558 20.833 15.5344C22.1562 16.4138 23.1536 17.6428 23.8258 19.2214C24.239 20.1931 24.524 21.2829 24.6831 22.4887H6.60401ZM24.389 10.7383C22.1164 9.21994 19.2421 8.46001 15.7656 8.46001C13.1177 8.46001 10.8062 8.93023 8.83112 9.86892C6.85491 10.8085 5.21541 12.0673 3.91177 13.6458C2.60785 15.2254 1.62983 17.0031 0.978014 18.9814C0.326195 20.9599 0 23.0086 0 25.1265V26.2058C0 28.2841 0.326195 30.3123 0.978014 32.2906C1.62983 34.2692 2.60785 36.048 3.91177 37.6264C5.21541 39.2058 6.88446 40.4739 8.91977 41.4332C10.9545 42.3923 13.3546 42.8721 16.121 42.8721C18.6891 42.8721 20.9708 42.4421 22.9665 41.583C24.9613 40.724 26.6206 39.4754 27.945 37.836C29.2682 36.1977 30.1676 34.2792 30.6418 32.0808H24.4186C24.0631 33.44 23.1637 34.6195 21.7218 35.618C20.2788 36.6173 18.4123 37.1165 16.121 37.1165C13.869 37.1165 12.0212 36.6277 10.5794 35.6479C9.13656 34.669 8.0699 33.3097 7.37887 31.5713C6.84183 30.2215 6.51622 28.7319 6.39631 27.1051H31.1754V24.4072C31.1754 21.6495 30.6123 19.0622 29.4859 16.6436C28.3599 14.2255 26.6606 12.2576 24.389 10.7383ZM46.6401 51.2821H52.9362V46.6073H46.6401V51.2821Z" fill="#5857FB"/>
</g>
<defs>
<clipPath id="clip0_34254_1276">
<rect width="200" height="51.2821" fill="white"/>
</clipPath>
</defs>
</svg>
