<svg width="200" height="81" viewBox="0 0 200 81" fill="none" xmlns="http://www.w3.org/2000/svg">
<g clip-path="url(#clip0_33542_1469)">
<path d="M17.904 24.102C8.5645 24.102 0.297852 32.2154 0.297852 41.6308C0.297852 51.2755 8.33531 59.0064 19.2046 59.0064C26.9357 59.0064 31.9879 55.7159 34.5145 50.7398L27.3181 46.7591C26.0934 49.515 23.7211 51.1995 19.7404 51.1995C14.3057 51.1995 11.2445 47.6785 10.8607 43.2381H34.6666C34.6666 31.757 27.2421 24.102 17.904 24.102ZM10.8607 37.8034C11.3965 34.0531 13.6939 30.9907 17.7507 30.9907C21.5781 30.9907 23.9504 33.9758 24.1797 37.8034L10.8607 37.8034ZM64.7282 24.102H74.2196L60.0847 59.0064H50.5161L36.3813 24.102H46.9454L55.7189 46.759L64.7282 24.102ZM93.6098 24.102C84.2703 24.102 76.0037 32.2154 76.0037 41.6308C76.0037 51.2755 84.0411 59.0064 94.9106 59.0064C102.641 59.0064 107.694 55.7159 110.22 50.7398L103.024 46.7591C101.799 49.515 99.4271 51.1995 95.4463 51.1995C90.0116 51.1995 86.9504 47.6785 86.5666 43.2381H110.372C110.372 31.757 102.948 24.102 93.6098 24.102H93.6098ZM86.5666 37.8034C87.1023 34.0531 89.3998 30.9907 93.4565 30.9907C97.284 30.9907 99.6562 33.9758 99.8868 37.8034H86.5666ZM141.221 38.5695C141.221 34.4357 139.538 32.9816 136.322 32.9816C131.423 32.9816 128.209 36.3493 128.209 42.1666V59.0064H117.722V24.0062H128.209V30.3789C130.505 26.3222 134.868 24.102 140.15 24.102C147.192 24.102 151.632 28.1587 151.632 36.2721V59.0064H141.221V38.5695ZM199.673 46.6378C199.11 49.7786 197.902 52.9193 196.291 55.0948C194.518 57.43 192.263 58.8 188.961 58.8C184.772 58.8 181.308 56.2224 181.308 51.4707C181.359 49.7358 181.574 48.0097 181.952 46.3157L185.174 28.0306C185.659 25.1309 185.578 24.8887 184.692 24.8887H174.864C174.22 24.8887 174.14 24.9699 174.06 25.3732L168.34 57.8334C165.924 71.3654 158.273 80.7901 149.411 80.7901C144.578 80.7901 140.632 77.8904 140.632 73.702C140.632 70.48 142.967 68.3046 145.867 68.3046C148.445 68.3046 150.54 69.9954 150.54 72.2508C150.54 75.876 146.915 76.0372 146.915 78.2126C146.915 79.1792 147.963 79.9034 149.17 79.9034C153.036 79.9034 154.97 73.3797 156.984 62.0218L163.428 25.3732C163.508 25.1309 163.428 24.8887 162.863 24.8887H160.043C159.48 24.8887 159.48 24.6477 159.48 24.4066C159.48 24.0845 159.641 23.9221 160.206 23.9221H162.943C163.588 23.9221 163.75 23.6811 163.83 23.3589L164.876 16.9151C166.809 6.04173 175.106 0 185.337 0C192.666 0 198.143 3.06083 198.143 8.13476C198.143 11.6788 195.484 14.0965 192.022 14.0965C188.559 14.0965 186.705 12.0822 186.705 9.74567C186.705 6.20161 190.088 5.63844 190.088 3.46425C190.088 1.85333 187.994 0.886757 185.256 0.886757C180.1 0.886757 177.684 4.51077 176.638 10.9545L174.382 23.3589C174.301 23.6811 174.462 23.9222 175.027 23.9222H195.888C196.291 23.9222 196.451 24.1643 196.371 24.5665L191.781 50.664C191.527 51.8017 191.392 52.9627 191.377 54.1282C191.377 55.337 191.94 56.1412 192.988 56.1412C194.277 56.1412 195.325 55.0948 196.129 53.806C197.499 51.7929 198.384 49.2953 198.869 46.3956C198.949 45.9935 199.029 45.8311 199.351 45.8311C199.673 45.8311 199.754 46.0734 199.673 46.6378V46.6378Z" fill="#334663"/>
</g>
<defs>
<clipPath id="clip0_33542_1469">
<rect width="200" height="80.7901" fill="white"/>
</clipPath>
</defs>
</svg>
