<svg width="200" height="40" viewBox="0 0 200 40" fill="none" xmlns="http://www.w3.org/2000/svg">
<path d="M12.5713 20.5714L20.5713 29.7143L23.1455 26.7724L17.8521 20.7232L20.733 17.4307L26.0262 23.4801L28.5713 20.5714L20.5713 11.4286L12.5713 20.5714Z" fill="#377DFF"/>
<path d="M20 0L0 20L20 40L22.8161 37.1839L5.66092 20.0287L19.8851 5.8046L37.0402 22.9598L40 20L20 0Z" fill="#377DFF"/>
<path d="M60.8534 33.0811H46.8369V11.8025H60.8534V15.5083H50.9913V20.4994H59.3889V24.2052H50.9913V29.3753H60.8534V33.0811Z" fill="#1D2435"/>
<path d="M79.711 11.8025L72.6579 33.0811H69.5498L62.5264 11.8025H66.83L71.1038 25.6695L75.3774 11.8025H79.711Z" fill="#1D2435"/>
<path d="M96.6262 17.0928C96.8652 18.2684 96.9844 20.0513 96.9844 22.442C96.9844 24.8328 96.8652 26.6163 96.6262 27.792C96.3866 28.9676 95.7791 30.0433 94.8029 31.0192C93.3086 32.5138 91.4157 33.2611 89.1245 33.2611C86.8128 33.2611 84.9107 32.5138 83.4164 31.0192C82.4396 30.0433 81.8371 28.972 81.6079 27.8068C81.3788 26.641 81.2646 24.8531 81.2646 22.442C81.2646 20.0317 81.3788 18.2431 81.6079 17.0776C81.8371 15.9121 82.4396 14.8414 83.4164 13.8649C84.9107 12.3706 86.8128 11.6237 89.1245 11.6237C91.4157 11.6237 93.3086 12.3706 94.8029 13.8649C95.7791 14.8414 96.3866 15.9171 96.6262 17.0928ZM92.8303 22.442C92.8303 20.4698 92.7557 19.095 92.6062 18.3177C92.4567 17.541 92.1826 16.9236 91.7843 16.465C91.1268 15.7079 90.2401 15.3295 89.1245 15.3295C88.0286 15.3295 87.1321 15.7079 86.435 16.465C86.0361 16.9236 85.7671 17.541 85.628 18.3177C85.4886 19.095 85.4187 20.4698 85.4187 22.442C85.4187 24.4146 85.4886 25.7846 85.628 26.5515C85.7668 27.3187 86.0361 27.9314 86.435 28.3894C87.152 29.1661 88.0485 29.5549 89.1245 29.5549C90.2199 29.5549 91.1069 29.1664 91.7843 28.3894C92.1826 27.9108 92.4567 27.2887 92.6062 26.5215C92.7557 25.7546 92.8303 24.3947 92.8303 22.442Z" fill="#1D2435"/>
<path d="M115.245 33.0811H101.229V11.8025H115.245V15.5083H105.383V20.4994H113.78V24.2052H105.383V29.3753H115.245V33.0811Z" fill="#1D2435"/>
<path d="M133.056 26.805C133.056 28.8177 132.319 30.3964 130.846 31.542C129.371 32.6879 127.478 33.2607 125.167 33.2607C123.473 33.2607 122.009 33.0464 120.774 32.6181C119.538 32.19 118.413 31.4674 117.396 30.4514L120.087 27.7613C121.282 28.9568 122.985 29.5546 125.197 29.5546C126.432 29.5546 127.373 29.3257 128.021 28.867C128.669 28.409 128.992 27.7515 128.992 26.8948C128.992 26.1579 128.773 25.5703 128.335 25.1315C127.956 24.773 127.319 24.5337 126.423 24.4142L123.882 24.0257C122.089 23.7672 120.714 23.1789 119.758 22.2624C118.742 21.2664 118.234 19.8717 118.234 18.0784C118.234 16.1463 118.901 14.5869 120.236 13.4014C121.57 12.216 123.374 11.6233 125.645 11.6233C128.514 11.6233 130.805 12.4499 132.519 14.1035L129.889 16.7039C128.893 15.728 127.438 15.2396 125.525 15.2396C124.47 15.2396 123.663 15.4935 123.105 16.0015C122.547 16.5095 122.268 17.1521 122.268 17.9291C122.268 18.5671 122.468 19.0751 122.866 19.4535C123.324 19.8717 123.972 20.1407 124.809 20.2605L127.349 20.649C129.161 20.9082 130.517 21.4662 131.413 22.3225C132.509 23.3382 133.056 24.8328 133.056 26.805Z" fill="#1D2435"/>
<path d="M150.659 15.5083H145.1V33.0811H140.946V15.5083H135.387V11.8025H150.659V15.5083Z" fill="#1D2435"/>
<path d="M168.38 33.0811H164.047L162.792 29.3156H155.231L153.946 33.0811H149.612L157.353 11.8025H160.61L168.38 33.0811ZM161.687 25.819L159.087 18.0786L156.396 25.819H161.687Z" fill="#1D2435"/>
<path d="M182.607 15.5083H177.048V33.0811H172.894V15.5083H167.335V11.8025H182.607V15.5083Z" fill="#1D2435"/>
<path d="M200 33.0811H185.983V11.8025H200V15.5083H190.138V20.4994H198.535V24.2052H190.138V29.3753H200V33.0811Z" fill="#1D2435"/>
</svg>
