<?xml version="1.0" standalone="yes"?>
<svg xmlns="http://www.w3.org/2000/svg" width="360" height="83">
<path style="fill:#fefefe; stroke:none;" d="M0 0L0 83L360 83L360 0L0 0z"/>
<path style="fill:#9dc743; stroke:none;" d="M16 22L16 58C25.8222 53.7676 34.4504 47.2556 44 42.5139C54.7695 37.1665 69.9661 32.231 78 23C70.7694 18.2307 55.7218 5.81197 47 5.8372C37.3864 5.865 24.9024 18.274 16 22z"/>
<path style="fill:#a0a5a4; stroke:none;" d="M16 23L17 24L16 23z"/>
<path style="fill:#44a482; stroke:none;" d="M77 24L72 30L73 28L72 28L58 38C44.9264 39.3377 25.088 49.6272 16 59L20 59C20.3194 61.8467 21.1479 62.0802 24 62C27.3998 67.5627 38.5357 73.8652 45 74L45 76C56.3487 74.5449 68.3466 64.9082 78 59L77 24z"/>
<path style="fill:#a0a5a4; stroke:none;" d="M78 24L79 25L78 24z"/>
<path style="fill:#9dc743; stroke:none;" d="M78 25L78 58L79 58L78 25z"/>
<path style="fill:#a0a5a4; stroke:none;" d="M71 27L71 28L72 30L74 27L71 27M70 28L71 29L70 28M68 29L69 30L68 29M107 29L107 30L120 30L120 31L109 31L109 40L110 40L110 32L121 31L107 29M137 52L137 51L126 50L126 42L125 42L125 51L136 51L136 52L123 52L123 30L136 30L136 31L125 31L125 40L126 40L126 32L137 31C126.287 22.8836 121.999 32.9137 122 42C122 44.803 121.082 49.9752 123.603 51.9722C126.685 54.4127 133.616 53.0002 137 52M139 29L139 53C143.57 53 149.261 54.2241 152 50L142 50L142 51L151 51L151 52L140 52C140 45.5569 137.999 35.2814 142 30L139 29M155 29C153.712 33.3578 151.579 48.7852 155.603 51.9722C158.223 54.0471 163.855 53 167 53L167 50L158 50L157 29L155 29M173 29L173 30L182 32L173 29M185 29L185 30L188 31L185 29M207 31L209 33L210 33L210 29L207 31M220 53L224 50L223 50L221 52L221 30L233 30L233 31L223 31L223 32L234 32L234 29C230.643 29 224.389 27.8213 221.603 30.0278C217.532 33.2525 220 48.1397 220 53M237 29C234.974 35.853 234.974 46.147 237 53L239 53C241.026 46.147 241.026 35.853 239 29L237 29M243 29C243 35.232 240.308 49.31 246 53L246 52C241.999 46.7186 244 36.4431 244 30L247 31L243 29M255 29L254 43L255 43L255 30L257 30L257 52L254 51L254 52L257 53C259.026 46.147 259.026 35.853 257 29L255 29M267 29L266 31L267 29z"/>
<path style="fill:#515353; stroke:none;" d="M268 29L261 52L262 52C266.746 44.3848 270.521 48.1391 276 52C274.956 44.9319 272.77 34.4112 268 29z"/>
<path style="fill:#a0a5a4; stroke:none;" d="M269 29L270 30L269 29M279 29L279 30L282 32L283 32L279 29M290 29L290 44L289 44L285 35L284 35L291 46L293 30L290 29M297 31L297 32L306 30L297 31M327 53L327 52L314 52L314 30L327 30C315.514 25.1803 312.999 32.3046 313 42C313 44.6934 312.228 49.1245 314.028 51.3966C316.37 54.3545 323.65 53 327 53M67 30L68 31L67 30M77 30L78 31L77 30z"/>
<path style="fill:#515353; stroke:none;" d="M107 30L107 52L109 52L109 42L115 42L115 40L109 40L109 31L120 31L107 30M123 30L123 52L136 52L136 51L125 51L125 42L131 42L131 40L125 40L125 31L136 31L123 30M140 30L140 52L151 52L151 51L142 51L142 30L140 30M155 30L155 52L166 52L166 51L157 51L157 30L155 30z"/>
<path style="fill:#a0a5a4; stroke:none;" d="M171 30L169 34L170 34L171 30z"/>
<path style="fill:#515353; stroke:none;" d="M172.228 31.0285C164.818 35.512 169.339 58.5281 179.682 51.0471C185.457 46.8698 183.142 24.4255 172.228 31.0285M185 30L192 52L194 52L197 42L200 52C206.608 49.8592 208.453 36.2777 209 30L208 30L202 48L199 37L196 37L193 48L185 30M221 30L221 52L223 52L223 42L229 41L229 40L223 40L223 31L233 31L221 30M237 30L237 52L239 52L239 30L237 30M244 30L244 52L246 52L245 36L257 52L257 30L255 30L255 46L254 46L246 30L244 30M279 30L279 52L281 52L281 36L293 52L293 30L291 30L291 46L282 30L279 30M310 46C307.966 47.2568 305.643 50.4625 303.015 50.0795C297.112 49.2191 297.023 32.982 303.015 32.1752C305.653 31.82 307.935 34.7601 310 36C308.64 31.311 301.793 26.964 298.028 32.4336C295.886 35.5445 296.349 44.4133 297.318 47.9414C299.326 55.2537 308.762 51.7987 310 46z"/>
<path style="fill:#a0a5a4; stroke:none;" d="M307 30L308 31L307 30z"/>
<path style="fill:#515353; stroke:none;" d="M314 30L314 52L327 52L327 51L316 51L316 42L322 42L322 40L316 40L316 31L327 31L314 30z"/>
<path style="fill:#a0a5a4; stroke:none;" d="M65 31L63 32L63 33L65 31M172 50L173 50C171.794 43.5018 170.118 35.4708 177 32C168.577 30.2818 170.88 45.2978 172 50M185.333 31.6667L185.667 32.3333L185.333 31.6667M270.333 31.6667L270.667 32.3333L270.333 31.6667M302 31L302 32L305 32L302 31M308 31L309 32L308 31M316 33L327 32C323.612 30.5785 318.554 30.077 316 33z"/>
<path style="fill:#fefefe; stroke:none;" d="M174.313 33.0864C169.929 35.5644 171.001 53.2135 177.698 48.9529C181.886 46.2884 180.938 29.3416 174.313 33.0864z"/>
<path style="fill:#a0a5a4; stroke:none;" d="M178 32L179 33L178 32M188.333 32.6667L188.667 33.3333L188.333 32.6667M206.333 32.6667L206.667 33.3333L206.333 32.6667M247 32L248 33L247 32M300 32L301 33L300 32M306 32L307 33L306 32M309 32L310 33L309 32M179 33L180 34L179 33M182 33L182 49L183 49L182 33M265.333 33.6667L265.667 34.3333L265.333 33.6667M268 33L267 37L268 37L268 33M283 33L284 34L283 33M296 33L296 49L297 49L296 33M299.333 33.6667L299.667 34.3333L299.333 33.6667M208.333 34.6667L208.667 35.3333L208.333 34.6667M248 34L249 35L248 34M271.333 34.6667L271.667 35.3333L271.333 34.6667M307.333 34.6667L307.667 35.3333L307.333 34.6667M186.333 35.6667L186.667 36.3333L186.333 35.6667M205 35L205 38L206 38L205 35z"/>
<path style="fill:#fefefe; stroke:none;" d="M268 35L265 45L271 45L268 35z"/>
<path style="fill:#a0a5a4; stroke:none;" d="M54 37L54 38L58 36L54 37M189.333 36.6667L189.667 37.3333L189.333 36.6667M196 36L196 37L199 37L196 36M245 36L245 38L247 36L245 36M249 36L250 37L249 36M264.333 36.6667L264.667 37.3333L264.333 36.6667M269.333 36.6667L269.667 37.3333L269.333 36.6667M281 36L279 52L279 53C284.158 51.8947 281.768 40.5828 283 36L281 36M308 36L309 37L308 36M316 36L317 37L316 36M207 37L207 40L208 40L207 37M247 37L248 38L247 37M272.333 37.6667L272.667 38.3333L272.333 37.6667M53 38L54 39L53 38M187.333 38.6667L187.667 39.3333L187.333 38.6667M195 38L195 41L196 41L195 38M223.333 38.6667L223.667 39.3333L223.333 38.6667M250 38L251 39L250 38M266.333 38.6667L266.667 39.3333L266.333 38.6667M283.333 38.6667L283.667 39.3333L283.333 38.6667M51 39L52 40L51 39M190 39L190 42L191 42L190 39M199.333 39.6667L199.667 40.3333L199.333 39.6667M204.333 39.6667L204.667 40.3333L204.333 39.6667M270.333 39.6667L270.667 40.3333L270.333 39.6667M316 39L317 40L316 39M49 40L50 41L49 40M115.333 40.6667L115.667 41.3333L115.333 40.6667M248 40L249 41L248 40M251 40L252 41L251 40M263.333 40.6667L263.667 41.3333L263.333 40.6667M284 40L285 41L284 40M188.333 41.6667L188.667 42.3333L188.333 41.6667M206.333 41.6667L206.667 42.3333L206.333 41.6667M228 41L229 42L228 41M249 41L250 42L249 41M265.333 41.6667L265.667 42.3333L265.333 41.6667M273.333 41.6667L273.667 42.3333L273.333 41.6667M109 42L107 52L107 53C111.307 52.077 110.84 45.1934 109 42M191 42L191 45L192 45L191 42M194 42L194 45L195 45L194 42M197 42L198 43L197 42M203 42L203 45L204 45L203 42M223 42L224 43L223 42M252 42L253 43L252 42M285 42L286 43L285 42M316 42L317 43L316 42z"/>
<path style="fill:#9dc743; stroke:none;" d="M55 43L56 44L55 43z"/>
<path style="fill:#a0a5a4; stroke:none;" d="M56.6667 43.3333L57.3333 43.6667L56.6667 43.3333M196 43L196 46L197 46L196 43M200.333 43.6667L200.667 44.3333L200.333 43.6667M250 43L251 44L250 43M262.333 43.6667L262.667 44.3333L262.333 43.6667M271.333 43.6667L271.667 44.3333L271.333 43.6667M189 44L189 47L190 47L189 44M198.333 44.6667L198.667 45.3333L198.333 44.6667M205.333 44.6667L205.667 45.3333L205.333 44.6667M253 44L255 46L255 44L253 44M264 44L265 45L264 44M274.333 44.6667L274.667 45.3333L274.333 44.6667M286 44L287 45L286 44M251 45L252 46L251 45M265.667 45.3333L266.333 45.6667L265.667 45.3333M270 45L271 46L270 45M308 45L309 46L308 45M193 46L192 48L194 48L193 46M202 46L201 48L203 48L202 46M261.333 46.6667L261.667 47.3333L261.333 46.6667M287 46L288 47L287 46M307.333 46.6667L307.667 47.3333L307.333 46.6667M316.333 46.6667L316.667 47.3333L316.333 46.6667M195 47L195 50L196 50L195 47M223 47L224 48L223 47M252 47L253 48L252 47M264 47L264 48L273 48L264 47M275.333 47.6667L275.667 48.3333L275.333 47.6667M169.333 48.6667L169.667 49.3333L169.333 48.6667M179 48L180 49L179 48M190.333 48.6667L190.667 49.3333L190.333 48.6667M199.333 48.6667L199.667 49.3333L199.333 48.6667M204.333 48.6667L204.667 49.3333L204.333 48.6667M263.333 48.6667L263.667 49.3333L263.333 48.6667M288 48L289 49L288 48M299 48L300 49L299 48M16 49L16 53L17 53L16 49M178 49L179 50L178 49M253 49L254 50L253 49M260 49C260.191 51.4797 261.216 54.1768 263 51L260 49M273 49L273 52L274 52L273 49M300 49L301 50L300 49M306 49L307 50L306 49M309 49L310 50L309 49M316 49L327 51L327 50L316 49M170 50L171 51L170 50M174 50L174 51L178 51L174 50M181 50L182 51L181 50M276.333 50.6667L276.667 51.3333L276.333 50.6667M289 50L290 51L289 50M297 50L298 51L297 50M301 50L301 51L306 51L301 50M171 51L172 52L171 51M180 51L181 52L180 51M191 51C192.556 52.8129 193.444 52.8129 195 51L191 51M203 51L200 52L200 53L203 51M298 51L299 52L298 51M307 51L308 52L307 51M172 52L172 53L175 53L172 52M176 52L176 53L180 53L176 52M274.667 52.3333L275.333 52.6667L274.667 52.3333M291.667 52.3333L292.333 52.6667L291.667 52.3333M300 52L300 53L307 53L300 52M77 57L78 58L77 57M78 58L79 59L78 58M16 59L17 60L16 59z"/>
<path style="fill:#515353; stroke:none;" d="M18.6667 59.3333L19.3333 59.6667L18.6667 59.3333z"/>
<path style="fill:#a0a5a4; stroke:none;" d="M77 59L78 60L77 59M18 60L19 61L18 60z"/>
<path style="fill:#515353; stroke:none;" d="M21 60L23 62L21 60z"/>
<path style="fill:#a0a5a4; stroke:none;" d="M75 60L76 61L75 60M73 61L74 62L73 61z"/>
<path style="fill:#9dc743; stroke:none;" d="M74 61L75 62L74 61M21 62L22 63L21 62z"/>
<path style="fill:#515353; stroke:none;" d="M23 62L24 63L23 62z"/>
<path style="fill:#a0a5a4; stroke:none;" d="M72 62L73 63L72 62M23 63L24 64L23 63M70 63L71 64L70 63M25 64L26 65L25 64z"/>
<path style="fill:#515353; stroke:none;" d="M27 64L28 65L27 64z"/>
<path style="fill:#a0a5a4; stroke:none;" d="M68 64L69 65L68 64z"/>
<path style="fill:#515353; stroke:none;" d="M29 65L30 66L29 65z"/>
<path style="fill:#a0a5a4; stroke:none;" d="M66 65L67 66L66 65z"/>
<path style="fill:#9dc743; stroke:none;" d="M67 65L68 66L67 65M28 66L29 67L28 66z"/>
<path style="fill:#a0a5a4; stroke:none;" d="M64.6667 66.3333L65.3333 66.6667L64.6667 66.3333M30 67L31 68L30 67M63 67L64 68L63 67z"/>
<path style="fill:#515353; stroke:none;" d="M34 68L35 69L34 68z"/>
<path style="fill:#a0a5a4; stroke:none;" d="M61 68L62 69L61 68z"/>
<path style="fill:#9dc743; stroke:none;" d="M33 69L34 70L33 69z"/>
<path style="fill:#515353; stroke:none;" d="M36 69L37 70L36 69z"/>
<path style="fill:#9dc743; stroke:none;" d="M60 69L61 70L60 69z"/>
<path style="fill:#a0a5a4; stroke:none;" d="M35 70L36 71L35 70z"/>
<path style="fill:#515353; stroke:none;" d="M38 70L39 71L38 70z"/>
<path style="fill:#a0a5a4; stroke:none;" d="M58 70L59 71L58 70z"/>
<path style="fill:#9dc743; stroke:none;" d="M37 71L38 72L37 71M56 71L57 72L56 71z"/>
<path style="fill:#a0a5a4; stroke:none;" d="M39 72L40 73L39 72M54 72L55 73L54 72z"/>
<path style="fill:#9dc743; stroke:none;" d="M40 73L41 74L40 73z"/>
<path style="fill:#515353; stroke:none;" d="M43 73L44 74L43 73z"/>
<path style="fill:#9dc743; stroke:none;" d="M53 73L54 74L53 73z"/>
<path style="fill:#a0a5a4; stroke:none;" d="M42 74L43 75L42 74z"/>
<path style="fill:#515353; stroke:none;" d="M44 74L45 75L44 74z"/>
<path style="fill:#a0a5a4; stroke:none;" d="M51 74L52 75L51 74M44 75L45 76L44 75z"/>
<path style="fill:#515353; stroke:none;" d="M46 75L47 76L46 75z"/>
<path style="fill:#a0a5a4; stroke:none;" d="M49 75L50 76L49 75z"/>
<path style="fill:#9dc743; stroke:none;" d="M45 76L46 77L45 76z"/>
<path style="fill:#a0a5a4; stroke:none;" d="M46.6667 76.3333L47.3333 76.6667L46.6667 76.3333z"/>
<path style="fill:#9dc743; stroke:none;" d="M48 76L49 77L48 76z"/>
</svg>
