<?xml version="1.0" standalone="yes"?>
<svg xmlns="http://www.w3.org/2000/svg" width="360" height="83">
<path style="fill:#fcfdfd; stroke:none;" d="M0 0L0 83L360 83L360 0L0 0z"/>
<path style="fill:#61c6c6; stroke:none;" d="M13 10L13 71L14 71L14 30L13 10z"/>
<path style="fill:#02306a; stroke:none;" d="M14 10L14 70L24 70L24 43L46 43L46 35C31.5156 35 20.6707 36.1843 25 18C30.9428 19.7566 41.8203 20.4729 47.8519 18.6821C50.9385 17.7657 52.0613 13.1433 49.3966 11.0278C46.9519 9.08692 41.9073 10 39 10L14 10z"/>
<path style="fill:#0b5f83; stroke:none;" d="M50 10L51 11L50 10z"/>
<path style="fill:#02306a; stroke:none;" d="M57 10L57 52C57.0004 57.5553 56.2792 65.4171 61.2276 69.2724C66.1106 73.0767 73.5014 71.0245 79 70L77 63C72.7997 63.951 68.835 63.882 67.4336 58.9807C63.39 44.8384 67 24.7284 67 10L57 10z"/>
<path style="fill:#61c6c6; stroke:none;" d="M67 10L67 60L68 60C68 45.9506 72.4087 22.8896 67 10z"/>
<path style="fill:#06b2b0; stroke:none;" d="M193 10L193 27C186.734 25.1478 173.632 24.8779 172 33C161.537 38.9384 162.86 62.2547 172.105 68.9823C180.025 74.7455 188 70.7618 195 66L196 71L203 71L203 10L193 10z"/>
<path style="fill:#0b5f83; stroke:none;" d="M25 18L26 19L25 18M50 18L51 19L50 18M24 19L24 34L25 34L24 19z"/>
<path style="fill:#61c6c6; stroke:none;" d="M94 26L94 27L107 26L94 26M140 25L140 26L149 26L140 25M181 25L181 26L191 26L181 25M192.333 25.6667L192.667 26.3333L192.333 25.6667M226 25L226 26L236 26L226 25M260 31C259.084 25.5087 253.044 24.304 250 29L251 29L259 27L259 32L274 26C268.3 23.6314 264.038 27.1827 260 31z"/>
<path style="fill:#0b5f83; stroke:none;" d="M96 26L97 28L96 28L94 27L93 27L94 29L93 29L83 37L82 40L82 41L85 40L82 60L89 67C91.0188 70.4453 93.1861 70.7025 97 70C97.9438 75.663 112.719 69.5493 116 68L114 61C109.705 61.7158 90.6226 67.5098 93 58L91 59L92 56L90 54L96 53L96 52L92 52L92 51L101 50C111.569 51.9668 120.417 39.0817 113.347 30.1335C109.148 24.8178 101.925 26.7292 96 26z"/>
<path style="fill:#02306a; stroke:none;" d="M97.6667 26.3333L98.3333 26.6667L97.6667 26.3333M100 26L100 27L104 27L100 26z"/>
<path style="fill:#61c6c6; stroke:none;" d="M108.667 26.3333L109.333 26.6667L108.667 26.3333M121 32L122 32L122 27L130 27L131 32L136 27L131 31C129.794 23.7753 121.539 25.0773 121 32M137.667 26.3333L138.333 26.6667L137.667 26.3333z"/>
<path style="fill:#0b5f83; stroke:none;" d="M130 32L130 27L122 27C122 39.8301 120.896 53.2075 122.059 65.9807C122.431 70.0676 127.802 73.3974 130.972 69.3966C137.304 61.4071 127.55 45.9247 134.653 37.2137C139.227 31.6034 146.04 33.2445 147.941 40.0039C150.45 48.9226 149.624 60.9661 148 70L158 68L155 69C159.848 60.0851 158 48.9055 158 39L157 39L156 65L155 65L154 31L155 31L155 38C158.699 32.8864 153.456 27.2222 148 26.2284C140.704 24.8994 135.796 28.2187 130 32z"/>
<path style="fill:#61c6c6; stroke:none;" d="M150.667 26.3333L151.333 26.6667L150.667 26.3333M178.667 26.3333L179.333 26.6667L178.667 26.3333M223.667 26.3333L224.333 26.6667L223.667 26.3333z"/>
<path style="fill:#06b2b0; stroke:none;" d="M245 68L243 61C232.588 63.9695 223.395 66.424 220 53C227.546 51.5983 237.417 52.0566 242.272 44.956C252.084 30.607 232.427 21.5458 221.001 28.2284C207.886 35.8986 205.211 60.655 219.004 69.1458C227.29 74.2471 236.738 71.1824 245 68z"/>
<path style="fill:#61c6c6; stroke:none;" d="M237.667 26.3333L238.333 26.6667L237.667 26.3333z"/>
<path style="fill:#06b2b0; stroke:none;" d="M259 32L259 27L251 27L252 70L261 70C261 56.3459 255.925 32.4784 276 35C277.69 21.2808 266.319 27.0213 259 32z"/>
<path style="fill:#61c6c6; stroke:none;" d="M275.667 26.3333L276.333 26.6667L275.667 26.3333M92 27L93 28L92 27z"/>
<path style="fill:#02306a; stroke:none;" d="M95.6667 27.3333L96.3333 27.6667L95.6667 27.3333z"/>
<path style="fill:#61c6c6; stroke:none;" d="M111 27L112 28L111 27z"/>
<path style="fill:#06b2b0; stroke:none;" d="M136 27L137 28L136 27M148 27L149 28L148 27z"/>
<path style="fill:#61c6c6; stroke:none;" d="M152 27L153 28L152 27M176 27L177 28L176 27M221 27L222 28L221 27M239 27L240 28L239 27M277.333 27.6667L277.667 28.3333L277.333 27.6667M90 28L91 29L90 28z"/>
<path style="fill:#02306a; stroke:none;" d="M92.6667 28.3333L93.3333 28.6667L92.6667 28.3333z"/>
<path style="fill:#61c6c6; stroke:none;" d="M112 28L113 29L112 28z"/>
<path style="fill:#06b2b0; stroke:none;" d="M153 28L155 30L153 28z"/>
<path style="fill:#61c6c6; stroke:none;" d="M154 28L155 29L154 28M174 28L175 29L174 28M219.667 28.3333L220.333 28.6667L219.667 28.3333M241 28L242 29L241 28M89 29L90 30L89 29z"/>
<path style="fill:#02306a; stroke:none;" d="M91 29L92 30L91 29z"/>
<path style="fill:#61c6c6; stroke:none;" d="M113 29L114 30L113 29M173 29L174 30L173 29M218 29L219 30L218 29M242 29L243 30L242 29z"/>
<path style="fill:#06b2b0; stroke:none;" d="M151 30L151 33L152 33L151 30M153 30L154 31L153 30M155 30L156 31L155 30z"/>
<path style="fill:#61c6c6; stroke:none;" d="M217 30L218 31L217 30z"/>
<path style="fill:#02306a; stroke:none;" d="M87 33L90 32L87 33z"/>
<path style="fill:#61c6c6; stroke:none;" d="M114 31L115 32L114 31z"/>
<path style="fill:#06b2b0; stroke:none;" d="M130 31L131 32L130 31M154 31L155 65L156 65L158 35L157 35L156 38L155 38L154 31z"/>
<path style="fill:#61c6c6; stroke:none;" d="M156 31L157 32L156 31M216 31L217 32L216 31M243 31L244 32L243 31M276 31L276 34L277 34L276 31z"/>
<path style="fill:#06b2b0; stroke:none;" d="M156 32L157 33L156 32z"/>
<path style="fill:#61c6c6; stroke:none;" d="M170 32L171 33L170 32z"/>
<path style="fill:#0b5f83; stroke:none;" d="M171 32L172 33L171 32z"/>
<path style="fill:#61c6c6; stroke:none;" d="M215 32L216 33L215 32M229 32L229 33L232 33L229 32M251 32L251 71L262 71L262 40L261 40L261 70L252 70C252 59.0894 255.211 42.036 251 32M85 33L86 34L85 33z"/>
<path style="fill:#02306a; stroke:none;" d="M86 33L84 38L85 38L86 33M96 33L97 34L96 33z"/>
<path style="fill:#61c6c6; stroke:none;" d="M96 35L99 34L96 35z"/>
<path style="fill:#fcfdfd; stroke:none;" d="M91 46C93.656 45.6626 96.4111 45.3598 98.9992 44.6451C113.062 40.7618 99.6129 26.1168 93.0502 39.0417C91.9449 41.2184 91.4959 43.6353 91 46z"/>
<path style="fill:#61c6c6; stroke:none;" d="M103.667 33.3333L104.333 33.6667L103.667 33.3333M115 33L116 34L115 33M139 33L139 34L144 34L139 33M169 33L170 34L169 33M182 33L182 34L185 34L182 33z"/>
<path style="fill:#fcfdfd; stroke:none;" d="M185.001 33.4985C172.199 35.9097 171.951 66.034 185.996 63.7022C196.477 61.962 197.316 31.1789 185.001 33.4985z"/>
<path style="fill:#61c6c6; stroke:none;" d="M190.667 33.3333L191.333 33.6667L190.667 33.3333M214 33L215 34L214 33M225 35L228 34L225 35z"/>
<path style="fill:#fcfdfd; stroke:none;" d="M220 46C222.368 45.8116 224.682 45.5268 227.002 44.9807C242.813 41.2578 229.334 26.3094 222.442 38.1049C221.048 40.4914 220.558 43.3341 220 46z"/>
<path style="fill:#61c6c6; stroke:none;" d="M233 33L234 34L233 33M244 33L244 36L245 36L244 33z"/>
<path style="fill:#0b5f83; stroke:none;" d="M25 34L25 35L47 36C41.7186 31.9988 31.4431 34 25 34z"/>
<path style="fill:#61c6c6; stroke:none;" d="M46 34L47 35L46 34z"/>
<path style="fill:#02306a; stroke:none;" d="M94 34L93 36L94 34z"/>
<path style="fill:#61c6c6; stroke:none;" d="M105 34L106 35L105 34M137 34L138 35L137 34M145 34L146 35L145 34M157 34L158 35L157 34M180 34L181 35L180 34M192 34L193 35L192 34M234 34L235 35L234 34M266 34L266 35L273 35L266 34z"/>
<path style="fill:#0b5f83; stroke:none;" d="M84 35L85 36L84 35M94 35L95 36L94 35z"/>
<path style="fill:#61c6c6; stroke:none;" d="M135 35L136 36L135 35M146 35L147 36L146 35z"/>
<path style="fill:#06b2b0; stroke:none;" d="M150 35L151 36L150 35z"/>
<path style="fill:#61c6c6; stroke:none;" d="M168 35L169 36L168 35M179 35L180 36L179 35M213 35L214 36L213 35M235.333 35.6667L235.667 36.3333L235.333 35.6667M265 35L266 36L265 35M274.667 35.3333L275.333 35.6667L274.667 35.3333M46.3333 36.6667L46.6667 37.3333L46.3333 36.6667M83 36L84 37L83 36M94 36L95 37L94 36M106 36L106 40L107 40L106 36M134 36L135 37L134 36z"/>
<path style="fill:#06b2b0; stroke:none;" d="M152.333 36.6667L152.667 37.3333L152.333 36.6667z"/>
<path style="fill:#02306a; stroke:none;" d="M92 37L93 38L92 37z"/>
<path style="fill:#61c6c6; stroke:none;" d="M93 37L94 38L93 37M147.333 37.6667L147.667 38.3333L147.333 37.6667M167 37L168 38L167 37M212 37L213 38L212 37M222 37L223 38L222 37M263 37L264 38L263 37z"/>
<path style="fill:#0b5f83; stroke:none;" d="M46 38L46 43L47 43L46 38z"/>
<path style="fill:#02306a; stroke:none;" d="M83.3333 38.6667L83.6667 39.3333L83.3333 38.6667z"/>
<path style="fill:#61c6c6; stroke:none;" d="M133 38L134 39L133 38M177 38L178 39L177 38M221.333 38.6667L221.667 39.3333L221.333 38.6667M262.333 38.6667L262.667 39.3333L262.333 38.6667M82 39L83 40L82 39z"/>
<path style="fill:#02306a; stroke:none;" d="M86 39L87 40L86 39M91 39L90 44L91 44L91 39z"/>
<path style="fill:#61c6c6; stroke:none;" d="M92 39L93 40L92 39M166 39L167 40L166 39M211 39L212 40L211 39M235 39L236 40L235 39M244 39L244 42L245 42L244 39z"/>
<path style="fill:#02306a; stroke:none;" d="M84 40L82 59L83 59L84 40z"/>
<path style="fill:#0b5f83; stroke:none;" d="M91 40L92 41L91 40z"/>
<path style="fill:#61c6c6; stroke:none;" d="M132 40L132 71L133 71L132 40M158 40L158 67L159 67L158 40M176 40L177 41L176 40M81.3333 41.6667L81.6667 42.3333L81.3333 41.6667M91 41L91 44L92 44L91 41M105 41L106 42L105 41M115 41L116 42L115 41M220 41L220 44L221 44L220 41M234 41L235 42L234 41M104 42L105 43L104 42z"/>
<path style="fill:#06b2b0; stroke:none;" d="M148 42L148 64L149 64L148 42z"/>
<path style="fill:#61c6c6; stroke:none;" d="M210 42L210 45L211 45L210 42M233 42L234 43L233 42z"/>
<path style="fill:#0b5f83; stroke:none;" d="M24 43L24 70L14 70L14 71C16.7031 70.9997 21.1287 71.7688 23.3966 69.9722C27.3886 66.8098 25.8129 47.3202 24 43z"/>
<path style="fill:#61c6c6; stroke:none;" d="M25 43L25 44L47 44L25 43z"/>
<path style="fill:#0b5f83; stroke:none;" d="M81 43L81 57L82 57L81 43z"/>
<path style="fill:#61c6c6; stroke:none;" d="M102 43L103 44L102 43z"/>
<path style="fill:#06b2b0; stroke:none;" d="M114 43L115 44L114 43z"/>
<path style="fill:#61c6c6; stroke:none;" d="M165.333 43.6667L165.667 44.3333L165.333 43.6667M232 43L233 44L232 43M243 43L244 44L243 43z"/>
<path style="fill:#02306a; stroke:none;" d="M89.3333 44.6667L89.6667 45.3333L89.3333 44.6667z"/>
<path style="fill:#61c6c6; stroke:none;" d="M100 44L101 45L100 44M175 44L175 56L176 56L175 44M229.667 44.3333L230.333 44.6667L229.667 44.3333M94 45L94 46L99 46L94 45z"/>
<path style="fill:#02306a; stroke:none;" d="M100 45L101 46L100 45z"/>
<path style="fill:#61c6c6; stroke:none;" d="M113 45L114 46L113 45M224 45L224 46L228 46L224 45M242 45L243 46L242 45z"/>
<path style="fill:#02306a; stroke:none;" d="M95 46L95 47L98 47L95 46z"/>
<path style="fill:#61c6c6; stroke:none;" d="M112 46L113 47L112 46M220 46L220 47L223 47L220 46M241 46L242 47L241 46M80 47L80 53L81 53L80 47z"/>
<path style="fill:#02306a; stroke:none;" d="M91.6667 47.3333L92.3333 47.6667L91.6667 47.3333z"/>
<path style="fill:#61c6c6; stroke:none;" d="M111 47L112 48L111 47M240 47L241 48L240 47z"/>
<path style="fill:#02306a; stroke:none;" d="M85 48L86 49L85 48z"/>
<path style="fill:#61c6c6; stroke:none;" d="M110 48L111 49L110 48z"/>
<path style="fill:#06b2b0; stroke:none;" d="M153 48L153 56L154 56L153 48z"/>
<path style="fill:#61c6c6; stroke:none;" d="M108 49L109 50L108 49M237 49L238 50L237 49z"/>
<path style="fill:#02306a; stroke:none;" d="M101.667 50.3333L102.333 50.6667L101.667 50.3333z"/>
<path style="fill:#61c6c6; stroke:none;" d="M106 50L107 51L106 50M234.667 50.3333L235.333 50.6667L234.667 50.3333z"/>
<path style="fill:#02306a; stroke:none;" d="M92 51L92 52L98 52L92 51z"/>
<path style="fill:#06b2b0; stroke:none;" d="M102 51L103 52L102 51z"/>
<path style="fill:#61c6c6; stroke:none;" d="M103 51L104 52L103 51M230 51L230 52L233 52L230 51z"/>
<path style="fill:#02306a; stroke:none;" d="M90 52L91 53L90 52z"/>
<path style="fill:#61c6c6; stroke:none;" d="M96 52L96 53L100 53L96 52M222 52L222 53L228 53L222 52M91 53L91 56L92 56L91 53M220 53L220 56L221 56L220 53z"/>
<path style="fill:#02306a; stroke:none;" d="M90.3333 54.6667L90.6667 55.3333L90.3333 54.6667z"/>
<path style="fill:#61c6c6; stroke:none;" d="M210 55L210 58L211 58L210 55z"/>
<path style="fill:#02306a; stroke:none;" d="M88 56L89 57L88 56z"/>
<path style="fill:#61c6c6; stroke:none;" d="M165.333 56.6667L165.667 57.3333L165.333 56.6667M81 57L82 58L81 57z"/>
<path style="fill:#02306a; stroke:none;" d="M91.3333 57.6667L91.6667 58.3333L91.3333 57.6667z"/>
<path style="fill:#61c6c6; stroke:none;" d="M92 57L93 58L92 57M221.333 57.6667L221.667 58.3333L221.333 57.6667M176 58L177 59L176 58z"/>
<path style="fill:#02306a; stroke:none;" d="M92 59L93 60L92 59z"/>
<path style="fill:#61c6c6; stroke:none;" d="M93 59L94 60L93 59M192 59L193 60L192 59M211.333 59.6667L211.667 60.3333L211.333 59.6667M222 59L223 60L222 59z"/>
<path style="fill:#0b5f83; stroke:none;" d="M67 60L68 61L67 60z"/>
<path style="fill:#61c6c6; stroke:none;" d="M82 60L83 61L82 60z"/>
<path style="fill:#02306a; stroke:none;" d="M83 60L85 65L86 65L83 60M86.6667 60.3333L87.3333 60.6667L86.6667 60.3333z"/>
<path style="fill:#61c6c6; stroke:none;" d="M112.667 60.3333L113.333 60.6667L112.667 60.3333M166.333 60.6667L166.667 61.3333L166.333 60.6667M177 60L178 61L177 60M242 60L243 61L242 60z"/>
<path style="fill:#02306a; stroke:none;" d="M89 61L91 63L89 61M93 61L95 63L93 61z"/>
<path style="fill:#61c6c6; stroke:none;" d="M111 61L112 62L111 61z"/>
<path style="fill:#0b5f83; stroke:none;" d="M167 61L168 62L167 61z"/>
<path style="fill:#61c6c6; stroke:none;" d="M178 61L179 62L178 61M191 61L192 62L191 61M223 61L224 62L223 61M240 61L241 62L240 61z"/>
<path style="fill:#0b5f83; stroke:none;" d="M57 62L57 65L58 65L57 62M68 62L69 63L68 62z"/>
<path style="fill:#61c6c6; stroke:none;" d="M77 62L78 63L77 62M83 62L84 63L83 62M96 62L97 63L96 62M109 62L110 63L109 62M114 62L115 63L114 62M179 62L180 63L179 62M189 62L190 63L189 62M212 62L213 63L212 62M225 62L226 63L225 62M238 62L239 63L238 62M243 62L244 63L243 62z"/>
<path style="fill:#0b5f83; stroke:none;" d="M69 63L70 64L69 63z"/>
<path style="fill:#61c6c6; stroke:none;" d="M70 63L71 64L70 63M73.6667 63.3333L74.3333 63.6667L73.6667 63.3333z"/>
<path style="fill:#0b5f83; stroke:none;" d="M75 63L76 64L75 63M77 63L78 64L77 63z"/>
<path style="fill:#61c6c6; stroke:none;" d="M98 63L99 64L98 63M106 63L107 64L106 63z"/>
<path style="fill:#06b2b0; stroke:none;" d="M114 63L115 64L114 63z"/>
<path style="fill:#61c6c6; stroke:none;" d="M167 63L168 64L167 63M180 63L181 64L180 63M188 63L189 64L188 63M203 63L203 68L204 68L203 63M226.667 63.3333L227.333 63.6667L226.667 63.3333M235.667 63.3333L236.333 63.6667L235.667 63.3333M78.3333 64.6667L78.6667 65.3333L78.3333 64.6667M84 64L85 65L84 64M115 64L116 65L115 64z"/>
<path style="fill:#06b2b0; stroke:none;" d="M153 64L152 66L154 66L153 64z"/>
<path style="fill:#61c6c6; stroke:none;" d="M182 64L182 65L186 65L182 64M213 64L214 65L213 64M231 64L232 65L231 64M244.333 64.6667L244.667 65.3333L244.333 64.6667M57 65L58 66L57 65z"/>
<path style="fill:#0b5f83; stroke:none;" d="M73 65L74 66L73 65z"/>
<path style="fill:#02306a; stroke:none;" d="M86 65L88 67L86 65z"/>
<path style="fill:#06b2b0; stroke:none;" d="M148 65L148 69L149 69L148 65M150 65L151 66L150 65M156 65L155 69L158 65L156 65z"/>
<path style="fill:#61c6c6; stroke:none;" d="M168 65L169 66L168 65M214 65L215 66L214 65z"/>
<path style="fill:#0b5f83; stroke:none;" d="M58 66L59 67L58 66M76 66L77 67L76 66M78 66L79 67L78 66z"/>
<path style="fill:#61c6c6; stroke:none;" d="M116.333 66.6667L116.667 67.3333L116.333 66.6667M193 66L194 69L195 69L195 66L193 66M215 66L216 67L215 66M245 66L246 67L245 66M58 67L59 68L58 67M79 67L79 70L80 70L79 67z"/>
<path style="fill:#02306a; stroke:none;" d="M88 67L89 68L88 67z"/>
<path style="fill:#06b2b0; stroke:none;" d="M151 67L154 69L154 68L151 67z"/>
<path style="fill:#61c6c6; stroke:none;" d="M216 67L217 68L216 67z"/>
<path style="fill:#0b5f83; stroke:none;" d="M59 68L60 69L59 68z"/>
<path style="fill:#61c6c6; stroke:none;" d="M88 68L89 69L88 68z"/>
<path style="fill:#02306a; stroke:none;" d="M90 68L91 69L90 68z"/>
<path style="fill:#61c6c6; stroke:none;" d="M114 68L115 69L114 68M158 68L158 71L159 71L158 68M171 68L172 69L171 68M191 68L192 69L191 68M217 68L218 69L217 68M243 68L244 69L243 68z"/>
<path style="fill:#0b5f83; stroke:none;" d="M60 69L61 70L60 69z"/>
<path style="fill:#61c6c6; stroke:none;" d="M89 69L90 70L89 69z"/>
<path style="fill:#02306a; stroke:none;" d="M93 69L94 70L93 69z"/>
<path style="fill:#61c6c6; stroke:none;" d="M113 69L114 70L113 69M172 69L173 70L172 69M190 69L191 70L190 69M241 69L242 70L241 69M24 70L25 71L24 70M61 70L62 71L61 70z"/>
<path style="fill:#0b5f83; stroke:none;" d="M62 70L63 71L62 70M76.6667 70.3333L77.3333 70.6667L76.6667 70.3333z"/>
<path style="fill:#61c6c6; stroke:none;" d="M78 70L79 71L78 70M91 70L92 71L91 70z"/>
<path style="fill:#02306a; stroke:none;" d="M95.6667 70.3333L96.3333 70.6667L95.6667 70.3333z"/>
<path style="fill:#61c6c6; stroke:none;" d="M110 70L111 71L110 70z"/>
<path style="fill:#06b2b0; stroke:none;" d="M122 70L123 71L122 70M131 70L132 71L131 70z"/>
<path style="fill:#61c6c6; stroke:none;" d="M148 70L149 71L148 70z"/>
<path style="fill:#06b2b0; stroke:none;" d="M149 70L149 71L158 71L149 70z"/>
<path style="fill:#61c6c6; stroke:none;" d="M188.667 70.3333L189.333 70.6667L188.667 70.3333M195 70L196 71L195 70M198 70L199 71L198 70M200.667 70.3333L201.333 70.6667L200.667 70.3333M203 70L204 71L203 70M220.667 70.3333L221.333 70.6667L220.667 70.3333M238.667 70.3333L239.333 70.6667L238.667 70.3333M63 71L64 72L63 71z"/>
<path style="fill:#0b5f83; stroke:none;" d="M64 71L64 72L67 72L64 71M69 71L69 72L74 72L69 71z"/>
<path style="fill:#61c6c6; stroke:none;" d="M74.6667 71.3333L75.3333 71.6667L74.6667 71.3333M94 71L95 72L94 71z"/>
<path style="fill:#06b2b0; stroke:none;" d="M95 71L96 72L95 71z"/>
<path style="fill:#61c6c6; stroke:none;" d="M106.667 71.3333L107.333 71.6667L106.667 71.3333M176.667 71.3333L177.333 71.6667L176.667 71.3333M185.667 71.3333L186.333 71.6667L185.667 71.3333M223 71L223 72L226 72L223 71M234 71L234 72L237 72L234 71M68.6667 72.3333L69.3333 72.6667L68.6667 72.3333z"/>
</svg>
