<svg width="200" height="52" viewBox="0 0 200 52" fill="none" xmlns="http://www.w3.org/2000/svg">
<g clip-path="url(#clip0_33542_1340)">
<path d="M145.326 13.2552C143.28 12.1265 141.023 11.4916 138.413 11.4916C135.802 11.4916 133.474 12.1265 131.287 13.3258C129.171 14.5251 127.407 16.2888 126.208 18.4757C124.938 20.6627 124.303 23.2729 124.303 26.2358C124.303 29.2694 124.938 31.9501 126.138 34.1371C127.337 36.3946 129.03 38.0877 131.217 39.2164C133.404 40.4157 135.873 40.9801 138.695 40.9801C141.164 40.9801 143.351 40.6274 145.256 39.8514C147.16 39.0754 148.854 37.8761 150.406 36.2535L147.302 32.5145C146.032 33.7138 144.762 34.6309 143.422 35.1247C142.081 35.6891 140.67 35.9007 139.118 35.9007C136.508 35.9007 134.462 35.1953 132.91 33.7843C131.358 32.3734 130.441 30.3981 130.229 27.7173H151.605L151.675 26.1653C151.675 23.1318 151.111 20.5216 149.982 18.2641C148.924 16.0771 147.372 14.4545 145.326 13.2552ZM130.37 23.6962C130.653 22.2147 131.146 20.9448 131.852 19.8866C132.557 18.8284 133.545 17.9113 134.674 17.347C135.802 16.712 137.072 16.4299 138.413 16.4299C140.529 16.4299 142.222 17.0648 143.492 18.4052C144.762 19.7455 145.538 21.5092 145.75 23.7667L130.37 23.6962ZM174.674 13.2552C172.698 12.1265 170.37 11.4916 167.76 11.4916C165.15 11.4916 162.822 12.1265 160.635 13.3258C158.519 14.5251 156.755 16.2888 155.556 18.4757C154.286 20.6627 153.651 23.2729 153.651 26.2358C153.651 29.2694 154.286 31.9501 155.414 34.1371C156.614 36.3946 158.307 38.0877 160.494 39.2164C162.681 40.4157 165.15 40.9801 167.972 40.9801C170.441 40.9801 172.628 40.6274 174.533 39.8514C176.437 39.0754 178.131 37.8761 179.683 36.2535L176.578 32.5145C175.309 33.7138 174.039 34.6309 172.769 35.1247C171.429 35.6891 170.018 35.9007 168.466 35.9007C165.855 35.9007 163.81 35.1953 162.257 33.7843C160.705 32.3734 159.788 30.3981 159.577 27.7173H180.952L181.023 26.1653C181.023 23.1318 180.459 20.5216 179.33 18.2641C178.201 16.0771 176.649 14.4545 174.674 13.2552ZM159.647 23.6962C159.929 22.2147 160.423 20.9448 161.129 19.8866C161.834 18.8284 162.822 17.9113 163.951 17.347C165.079 16.712 166.349 16.4299 167.69 16.4299C169.806 16.4299 171.499 17.0648 172.769 18.4052C174.039 19.7455 174.815 21.5092 175.026 23.7667L159.647 23.6962ZM189.418 17.9113L189.277 12.2676H183.774V40.3452H189.559V26.8002C189.559 24.6133 189.982 22.7791 190.899 21.4387C191.817 20.0983 192.945 19.1106 194.356 18.5463C195.767 17.9819 197.319 17.6997 198.942 17.6997L200 17.7702V11.9149C195.062 11.8443 191.534 13.8902 189.418 17.9113ZM50.0882 17.9113L49.9471 12.2676H44.4444V40.3452H50.2293V26.8002C50.2293 24.6133 50.6526 22.7791 51.5697 21.4387C52.4868 20.0983 53.6155 19.1106 55.0265 18.5463C56.4374 17.9819 57.9894 17.6997 59.612 17.6997L60.6702 17.7702V11.9149C55.7319 11.8443 52.2046 13.8902 50.0882 17.9113ZM24.0564 27.8584H32.0988C32.0988 27.8584 30.194 31.5269 26.3139 33.8549C24.5503 34.9131 22.4339 35.6186 19.8942 35.6186C16.8607 35.6186 14.0388 34.6309 11.7813 32.9378C8.11287 30.257 5.78483 25.742 5.78483 20.5921C5.78483 16.4299 7.12522 12.6909 9.59436 9.93955C10.7937 8.52862 12.2751 7.54096 13.9683 6.76495C15.7319 5.91839 17.7778 5.49511 19.9647 5.49511H21.7284C26.1023 5.70675 31.1111 8.31698 33.933 13.8196L38.5185 10.5745C34.7795 3.80199 28.2892 0.486289 21.7284 0.204102H19.6825C17.0018 0.204102 14.4621 0.768475 12.2046 1.68558C12.0635 1.75613 11.8519 1.82668 11.7108 1.89722C11.6402 1.89722 11.5697 1.96777 11.4991 1.96777C4.65608 5.14237 0 12.197 0 20.5921C0 27.7173 3.38624 33.8549 8.53615 37.4528C8.67725 37.5233 8.81834 37.5939 8.88889 37.6644L8.95944 37.735C11.9929 39.7103 15.6614 40.9096 19.612 40.9096C22.5044 40.9096 25.3263 40.4157 27.7249 39.1459L28.1481 38.9343H28.2187C28.2892 38.8637 28.4303 38.8637 28.5009 38.7932C33.5097 35.9008 35.5556 31.7385 35.5556 31.7385V40.2041H40.8466V22.5674H24.0564V27.8584ZM115.556 13.4669C113.58 12.1265 111.182 11.4916 108.501 11.4916C106.243 11.4916 104.268 11.9854 102.504 12.9731C100.811 13.9607 99.4003 15.3011 98.3421 17.0648L98.201 12.2676H92.6984V51.421H98.4832V35.8302C99.5414 37.4528 100.882 38.7932 102.575 39.6397C104.268 40.5568 106.173 40.9801 108.43 40.9801C111.041 40.9801 113.298 40.3452 115.344 39.0048C117.39 37.735 118.942 35.9008 120.071 33.7138C121.199 31.4563 121.764 28.9872 121.764 26.2358C121.764 23.4845 121.199 21.0154 120.141 18.7579C119.153 16.5709 117.601 14.8073 115.556 13.4669ZM114.709 31.3152C113.933 32.7967 112.875 33.8549 111.534 34.7015C110.194 35.4775 108.713 35.9007 107.09 35.9007C105.467 35.9007 103.986 35.548 102.646 34.772C101.305 33.996 100.317 32.9378 99.612 31.4563C98.9065 30.0454 98.4832 28.3522 98.4832 26.3769C98.4832 24.4722 98.9065 22.7085 99.6825 21.2976C100.459 19.8161 101.517 18.6873 102.928 17.9113C104.268 17.1353 105.82 16.7826 107.443 16.7826C109.065 16.7826 110.547 17.1353 111.817 17.9113C113.086 18.6873 114.074 19.8161 114.78 21.2976C115.485 22.7791 115.838 24.4722 115.838 26.3769C115.838 28.2112 115.485 29.9043 114.709 31.3152ZM83.1041 27.0824C83.1041 29.0577 82.7513 30.6803 82.1164 31.9501C81.4815 33.22 80.6349 34.2076 79.5062 34.772C78.448 35.4069 77.1781 35.6891 75.8377 35.6891C73.7919 35.6891 72.2399 35.0542 71.1111 33.7843C69.9824 32.5145 69.418 30.6097 69.418 28.0701V12.2676H63.6332V28.8461C63.6332 31.5269 64.0564 33.7138 64.903 35.548C65.7496 37.3822 66.9489 38.7226 68.4303 39.6397C69.9824 40.5568 71.746 40.9801 73.7213 40.9801C75.7672 40.9801 77.6014 40.5568 79.1534 39.7103C80.7055 38.8637 82.0459 37.5939 83.0335 35.9007L83.2451 40.2747H88.7478V12.2676H83.1041V27.0824Z" fill="url(#paint0_linear_33542_1340)"/>
</g>
<defs>
<linearGradient id="paint0_linear_33542_1340" x1="10.3111" y1="-24.2326" x2="141.528" y2="44.1978" gradientUnits="userSpaceOnUse">
<stop stop-color="#22CEF3"/>
<stop offset="0.273" stop-color="#3E92F4"/>
<stop offset="0.711" stop-color="#3658F4"/>
<stop offset="1" stop-color="#4A17F9"/>
</linearGradient>
<clipPath id="clip0_33542_1340">
<rect width="200" height="51.2169" fill="white" transform="translate(0 0.204102)"/>
</clipPath>
</defs>
</svg>
