<svg width="200" height="68" viewBox="0 0 200 68" fill="none" xmlns="http://www.w3.org/2000/svg">
<path d="M69.0578 45.2713C68.6546 46.4808 68.0331 47.5559 67.1764 48.5302C65.6813 50.21 62.0865 50.1092 61.045 47.3207C60.6922 46.3968 60.5915 45.4393 60.5579 44.465C60.5579 44.1122 60.5915 43.7763 60.6083 43.4235C60.6586 41.6765 60.961 39.9799 61.6665 38.3672C62.2377 37.0906 63.0608 36.0659 64.4047 35.5451C65.4462 35.142 66.5212 35.1252 67.5795 35.4779C68.5706 35.7971 69.125 36.553 69.4609 37.4937C69.7801 38.4176 69.8977 39.3751 69.8641 40.3326C69.8305 42.0124 69.5785 43.6755 69.0578 45.2713ZM75.9451 36.4522C75.2732 33.3613 73.4757 31.2952 70.4016 30.4216C68.537 29.8841 66.622 29.8169 64.707 30.0353C60.4067 30.5392 57.383 32.807 55.6192 36.7378C54.8968 38.3336 54.5441 40.047 54.3257 41.7773C54.0401 43.9442 54.0401 46.0944 54.4937 48.2278C55.0816 50.9659 56.5935 52.9649 59.1804 54.1072C60.5411 54.7119 61.9857 54.8967 63.5144 54.9807C64.1527 54.9807 64.8918 54.9975 65.6141 54.9303C67.7979 54.7287 69.7633 53.9728 71.4767 52.5785C73.0726 51.2851 74.0973 49.6053 74.8532 47.7406C75.5923 45.96 75.9787 44.1122 76.1635 42.1972C76.3482 40.2822 76.365 38.3504 75.9451 36.4522Z" fill="#2699FB"/>
<path d="M102.772 30.052C101.848 30.052 101.059 30.7575 100.975 31.6814L99.1436 51.1002C98.9253 53.0992 100.471 54.8294 102.47 54.863L108.853 54.947C110.466 54.9638 111.826 53.788 112.045 52.1921L112.28 50.3947C112.364 49.8236 111.91 49.3196 111.339 49.3196L105.409 49.3532L106.988 31.4463C107.056 30.6903 106.468 30.052 105.712 30.052H102.772Z" fill="#2699FB"/>
<path d="M116.53 31.2111L114.716 53.5695C114.649 54.3087 115.254 54.9638 115.993 54.947L119.52 54.9302C120.075 54.9302 120.545 54.4935 120.595 53.9391L121.587 41.29L127.046 53.0656C127.583 54.2415 128.759 54.9806 130.036 54.9806H132.69C133.362 54.9806 133.916 54.4599 133.967 53.7879L135.512 31.4294C135.563 30.6903 134.975 30.0688 134.236 30.0688H130.456C129.902 30.0688 129.431 30.4887 129.381 31.0431L128.272 42.8187L123.3 31.8998C122.746 30.6903 121.536 29.9344 120.209 29.968L117.79 30.0352C117.135 30.052 116.597 30.5559 116.53 31.2111Z" fill="#2699FB"/>
<path d="M80.8164 29.7833C79.8757 29.8505 79.1366 30.5896 79.0694 31.5303L77.6919 50.9491C77.5743 52.5953 78.7166 54.0568 80.3292 54.3424C85.3351 55.2495 95.4141 55.7198 97.2619 45.5065C97.3795 44.8681 97.4467 44.2298 97.4803 43.5747C97.833 37.2921 99.4961 28.4227 80.8164 29.7833ZM91.5169 42.1636C91.5169 42.2812 91.0801 50.0756 84.7304 49.4709C84.1928 49.4205 83.7897 48.9333 83.8233 48.3958L84.7472 35.8979C84.7808 35.3939 85.2007 34.9908 85.7047 34.974C91.836 34.6716 91.7185 38.3168 91.5169 42.1636Z" fill="#2699FB"/>
<path d="M157.45 53.1665L152.427 32.471C152.075 31.0432 150.798 30.0353 149.32 30.0521L145.96 30.0689C145.355 30.0689 144.835 30.4384 144.633 31.0096L136.99 51.7554C136.419 53.3009 137.561 54.9303 139.207 54.9303H141.693C142.315 54.9303 142.869 54.5272 143.054 53.9224L144.549 49.1685H149.807L150.832 53.1497C151.1 54.1912 152.041 54.9303 153.116 54.9303H156.073C156.997 54.9471 157.668 54.0736 157.45 53.1665ZM149.202 43.8603L145.708 43.9107C145.54 43.9107 145.406 43.7427 145.473 43.5915L147.774 36.2842C147.858 36.0323 148.211 36.0659 148.261 36.3178L149.454 43.5915C149.471 43.7259 149.353 43.8603 149.202 43.8603Z" fill="#2699FB"/>
<path d="M160.894 31.2111L159.886 45.0025C159.499 50.3443 163.733 54.8967 169.091 54.8967C173.896 54.8967 177.894 51.2179 178.297 46.4471L179.389 33.5629C179.557 31.6311 178.028 29.9849 176.096 29.9849H174.551C173.879 29.9849 173.308 30.5056 173.24 31.1775L171.745 46.5647C171.611 48.0094 170.385 49.1181 168.923 49.1181C167.26 49.1181 165.95 47.6902 166.101 46.044L167.193 33.5797C167.361 31.6479 165.849 30.0017 163.901 30.0017H162.204C161.515 29.9849 160.944 30.5224 160.894 31.2111Z" fill="#2699FB"/>
<path d="M182.043 31.8831L181.673 34.1172C181.606 34.5036 181.909 34.8564 182.312 34.8564H187.2L185.974 50.8819C185.705 53.0153 187.368 54.8967 189.518 54.8967H191.366C191.685 54.8967 191.954 54.6615 192.004 54.3423L193.735 34.8564H197.296C198.438 34.8564 199.412 34.0332 199.597 32.9078L199.984 30.6568C200.051 30.2704 199.748 29.9009 199.345 29.9009H184.344C183.219 29.9177 182.228 30.7408 182.043 31.8831Z" fill="#2699FB"/>
<path d="M25.5338 66.3194C24.2907 64.354 23.8876 61.9519 24.4587 59.7009L27.8688 45.8591C27.9696 45.4392 27.6504 45.0528 27.2136 45.0696L22.3253 45.3048C21.4518 45.3552 20.6791 45.9431 20.4271 46.7831L16.7651 58.6426C16.3956 59.8521 15.0013 60.4064 13.8926 59.7849L12.6664 59.0962C10.5498 57.9203 9.50829 55.451 10.1298 53.116L16.5468 28.6073C16.9499 27.0787 18.361 26.0372 19.94 26.1212L23.9548 26.306C24.8115 26.3396 25.433 27.1627 25.2314 28.0026L22.6949 38.1152C22.6109 38.4511 22.8965 38.7703 23.2493 38.7199L28.1207 38.4175C29.0614 38.2663 29.8342 37.5776 30.0693 36.6537L35.1928 17.0334C35.2432 16.8318 35.1424 16.6302 34.9408 16.5462C32.0851 15.5047 29.0111 14.9504 25.7858 14.9672C11.6417 15.1352 0.118065 26.6587 0.0172752 40.8029C-0.0835143 54.9638 11.1377 66.521 25.1643 66.9578C25.5002 66.9578 25.7018 66.5882 25.5338 66.3194Z" fill="#2699FB"/>
<path d="M51.9743 40.9877C51.9743 33.0421 48.3963 25.9196 42.7856 21.1657C42.6177 21.0314 42.3825 21.0985 42.3153 21.3001C39.846 29.5481 31.2956 59.2978 31.5812 65.2947C31.598 65.4963 31.5644 66.1682 31.934 66.2186C32.1355 66.2522 32.6731 66.1011 32.8915 66.0339C43.8943 63.027 51.9743 52.948 51.9743 40.9877Z" fill="#2699FB"/>
<path d="M40.955 18.1085C40.5519 19.9227 39.544 20.309 39.544 20.309L39.628 19.3012L38.4857 20.9474C38.4689 20.981 38.4185 20.9642 38.4185 20.9306L38.5361 18.9316L37.9649 19.7715C37.9649 19.7715 37.4106 18.8308 38.2169 17.1678C38.2337 17.1342 38.1833 17.1006 38.1665 17.1174C37.713 17.5709 36.4027 19.1332 37.4442 21.065C37.461 21.0818 37.4946 21.0986 37.5114 21.065L38.0321 20.2923L37.8138 22.6104C37.8138 22.644 37.8642 22.6608 37.881 22.6272L39.1576 20.6786L39.0736 21.6025C39.0736 21.6361 39.1072 21.6529 39.124 21.6361C41.1398 20.7626 41.0894 18.7468 41.0222 18.0917C41.0222 18.0749 40.9718 18.0749 40.955 18.1085Z" fill="#2699FB"/>
<path d="M42.9703 15.2696C45.5909 9.155 43.4911 6.46729 43.4911 6.46729C43.4911 6.46729 40.165 7.2736 38.418 13.6905L36.9566 14.1777C36.8894 14.1945 36.839 14.2449 36.8054 14.3121L36.0495 16.4622C35.9823 16.6302 36.1334 16.7982 36.3182 16.7646L38.7708 16.2103L38.838 16.6638C38.8716 16.815 38.9724 16.9494 39.1235 16.9998L40.333 17.4197C40.4842 17.4701 40.6522 17.4365 40.753 17.3358L41.0889 17.0334L42.668 18.982C42.7856 19.1164 43.0039 19.0828 43.0543 18.9148L43.8102 16.7646C43.827 16.6974 43.827 16.6302 43.7934 16.563L42.9703 15.2696ZM41.1393 13.1866C40.5178 12.9682 40.1818 12.2795 40.4002 11.6579C40.6186 11.0364 41.3073 10.7004 41.9288 10.9188C42.5504 11.1372 42.8863 11.8259 42.668 12.4475C42.4496 13.069 41.7777 13.405 41.1393 13.1866Z" fill="#2699FB"/>
<path opacity="0.05" d="M50.3445 32.2526C50.3445 32.2526 44.8683 27.2131 41.1055 25.6677L41.6598 23.7527C41.6598 23.7527 49.9413 27.9019 50.3445 32.2526Z" fill="black"/>
<path opacity="0.05" d="M33.5629 23.5007L34.5204 19.8387C34.5204 19.8387 19.0492 14.9336 11.6748 19.6035C11.6748 19.5867 21.2834 18.7636 33.5629 23.5007Z" fill="black"/>
</svg>
