<svg width="156" height="32" viewBox="0 0 512 103" xmlns="http://www.w3.org/2000/svg"><g fill="none" fill-rule="evenodd"><path d="M459.226 34.927c2.359 0 4.291.372 5.877.959h12.066l11.13 27.922 11.227-27.922H512l-27.73 66.687h-12.378L482.16 77.24l-16.054-38.016-1.505 7.887c-2.584-1.158-5.25-1.24-6.54-1.246h-.273c-7.964 0-11.226 7.1-11.226 18.998v15.832h-11.706v-44.81h11.706v10.555c2.303-8.156 7.58-11.514 12.665-11.514Zm-83.382 0c12.762 0 22.74 9.115 22.74 23.22l-.002.384a57.707 57.707 0 0 1-.159 3.289l-.03.357h-34.16c.768 5.949 5.758 9.595 12.379 9.595 4.51 0 9.115-1.919 11.226-5.757 2.783 1.535 6.045 3.262 8.924 4.798-4.03 7.676-12.666 10.842-20.918 10.842-12.762 0-23.22-9.403-23.22-23.508 0-14.105 10.458-23.22 23.22-23.22Zm-133.085 0c12.761 0 22.74 9.115 22.74 23.22l-.003.384a57.709 57.709 0 0 1-.158 3.289l-.03.357h-34.16c.768 5.949 5.758 9.595 12.378 9.595 4.51 0 9.116-1.919 11.227-5.757 2.782 1.535 6.045 3.262 8.923 4.798-4.03 7.676-12.666 10.842-20.917 10.842-12.762 0-23.22-9.403-23.22-23.508 0-14.105 10.458-23.22 23.22-23.22Zm-47.976 0c12.761 0 22.74 9.115 22.74 23.22l-.003.384a57.709 57.709 0 0 1-.158 3.289l-.03.357h-34.16c.768 5.949 5.758 9.595 12.378 9.595 4.51 0 9.116-1.919 11.227-5.757 2.782 1.535 6.045 3.262 8.923 4.798-4.03 7.676-12.666 10.842-20.917 10.842-12.762 0-23.22-9.403-23.22-23.508 0-14.105 10.458-23.22 23.22-23.22Zm230.764 0c3.167 0 5.565.671 7.389 1.63l-2.015 10.555c-2.584-1.158-5.25-1.24-6.54-1.246h-.273c-7.964 0-11.226 7.1-11.226 18.998v15.832h-11.707v-44.81h11.707v10.555c2.302-8.156 7.58-11.514 12.665-11.514Zm-97.295-20.342c11.61 0 18.998 6.908 18.998 17.943 0 4.797-2.11 10.363-8.731 12.857C346.77 47.4 350.8 55.076 350.8 60.834c0 10.639-7.524 19.68-20.15 19.859l-.384.003h-27.922V14.585h25.907Zm-174.92 0c14.68 0 21.013 10.65 21.013 21.397 0 10.64-6.207 20.996-20.576 21.202l-.438.003h-14.584v23.509h-12.282V14.585h26.866Zm139.13 20.342c3.166 0 5.565.671 7.388 1.63l-2.015 10.555c-2.584-1.158-5.25-1.24-6.54-1.246h-.273c-7.964 0-11.226 7.1-11.226 18.998v15.832H268.09v-44.81h11.706v10.555c2.303-8.156 7.58-11.514 12.666-11.514Zm36.845 16.503h-14.68v18.327h14.968c5.374 0 8.348-4.606 8.348-9.115 0-4.275-2.915-9.114-8.467-9.21l-.169-.002Zm46.633-6.716c-6.08 0-10.842 3.385-11.775 9.318l-.027.18h23.028c-.863-6.14-5.469-9.498-11.226-9.498Zm-133.085 0c-6.08 0-10.843 3.385-11.775 9.318l-.028.18h23.029c-.864-6.14-5.47-9.498-11.226-9.498Zm-47.976 0c-6.08 0-10.843 3.385-11.775 9.318l-.028.18h23.029c-.864-6.14-5.47-9.498-11.226-9.498Zm-41.74-19.19h-14.392v20.725h14.009c6.332 0 9.307-5.373 9.307-10.267 0-4.75-2.727-10.346-8.74-10.457l-.184-.002Zm173.865 0h-12.377v15.64h12.761c4.414 0 7.1-3.55 7.1-7.965 0-4.652-2.63-7.613-7.333-7.675h-.15Z" fill="#000" fill-rule="nonzero"/><path d="M47.976 0c.902 0 1.798.025 2.687.074v22.371a25.599 25.599 0 0 0-3.07-.184c-13.851 0-25.105 11.115-25.329 24.912l-.003.42v40.892C8.877 79.972 0 65.011 0 47.976 0 21.48 21.48 0 47.976 0Zm-.384 30.705c.944 0 1.87.077 2.771.226l.3.052v16.61l.001.282a25.21 25.21 0 0 0 4.854 14.633 16.813 16.813 0 0 1-7.926 1.972c-9.327 0-16.887-7.561-16.887-16.888 0-9.327 7.56-16.887 16.887-16.887Z" fill="#000"/><path d="M30.704 66.473a25.237 25.237 0 0 0 16.888 6.45 25.21 25.21 0 0 0 14.2-4.351 25.214 25.214 0 0 0 14.202 4.352 25.225 25.225 0 0 0 15.903-5.613C84.46 84.178 67.593 95.952 47.976 95.952a47.865 47.865 0 0 1-17.272-3.203V66.473Zm45.29-35.768c9.327 0 16.888 7.56 16.888 16.887 0 9.327-7.561 16.888-16.888 16.888-2.865 0-5.562-.713-7.925-1.972a25.217 25.217 0 0 0 4.855-14.916 25.214 25.214 0 0 0-4.856-14.916 16.813 16.813 0 0 1 7.926-1.971Zm-14.2 7.744a16.809 16.809 0 0 1 2.686 9.143c0 3.37-.987 6.508-2.687 9.143a16.809 16.809 0 0 1-2.687-9.143c0-3.276.933-6.333 2.547-8.922l.14-.22ZM59.106 1.298c14.28 3.392 26.086 13.167 32.24 26.144a25.226 25.226 0 0 0-15.353-5.181 25.211 25.211 0 0 0-14.2 4.352c-.753-.51-1.533-.98-2.34-1.409l-.347-.18V1.297Z" fill="#00E6A5"/></g></svg>