<svg width="201" height="69" viewBox="0 0 201 69" fill="none" xmlns="http://www.w3.org/2000/svg">
<path d="M33.6762 19.3462L17.1182 9.90107L31.8105 1.50544C32.9766 0.805804 34.3758 0.805804 35.5419 1.50544L50.2343 9.90107L33.6762 19.3462Z" fill="#A6CE39"/>
<path d="M50.1172 28.9078L33.6758 19.3461L50.1172 9.90106L66.5587 19.3461L50.1172 28.9078Z" fill="#8DC63F"/>
<path d="M66.5596 38.4695L50.1182 28.9078L66.5596 19.3461V38.4695Z" fill="#72BF44"/>
<path d="M50.1172 67.038L33.6758 57.4763L50.1172 47.9146L66.5587 57.4763L50.1172 67.038Z" fill="#00993E"/>
<path d="M33.6758 57.4763L17.2344 47.9146L31.9267 39.519C33.0928 38.8194 34.4921 38.8194 35.6581 39.519L50.3505 47.9146L33.6758 57.4763Z" fill="#00A844"/>
<path d="M17.1182 28.9078L33.6762 19.3461L17.1182 9.90106L0.676758 19.3461L17.1182 28.9078Z" fill="#8DC63F"/>
<path d="M0.676758 38.4695L17.1182 28.9078L0.676758 19.3461V38.4695Z" fill="#72BF44"/>
<path d="M17.1182 67.038L33.6762 57.4763L17.1182 47.9146L0.676758 57.4763L17.1182 67.038Z" fill="#00993E"/>
<path d="M96.2933 42.5507C96.7597 43.1338 96.8763 44.4164 96.1767 45.4659C96.1767 45.4659 93.9611 47.6814 90.1131 47.6814C85.4489 47.6814 84.1662 44.4164 84.9825 39.7522L88.4807 21.0952C86.9648 21.3285 85.0991 21.3285 83.5832 21.2118C83.2334 19.9292 83.2334 18.7631 83.2334 17.4805C86.2652 17.1306 89.7633 16.1978 93.3781 14.3321H96.6431L95.477 20.6288L91.9788 39.7522L91.7456 40.685C91.2792 42.9006 92.0954 43.7168 93.3781 43.7168C94.894 43.7168 96.2933 42.5507 96.2933 42.5507Z" fill="#2F3C3F"/>
<path d="M134.307 45.8157C134.307 45.8157 132.092 48.0312 128.244 48.0312C123.579 48.0312 122.297 44.7662 123.23 40.102L123.696 37.6533C119.965 43.95 114.834 48.0312 109.703 48.0312C103.99 48.0312 102.24 43.8334 103.523 36.9536L106.555 21.0952C105.039 21.3284 103.173 21.3284 101.657 21.2118C101.308 20.0458 101.308 18.8797 101.308 17.597C104.339 17.2472 107.838 16.3144 111.452 14.4487H114.717L113.551 20.7454L110.636 35.9042C109.82 39.9854 110.869 42.2009 113.784 42.2009C118.565 42.2009 124.046 34.7381 126.028 24.3602L127.894 14.6819H134.89L130.109 39.8688L129.876 40.8016C129.41 43.0171 130.226 43.8334 131.509 43.8334C133.024 43.8334 134.307 42.6673 134.307 42.6673C134.89 43.4836 134.89 44.7662 134.307 45.8157Z" fill="#2F3C3F"/>
<path d="M170.338 14.9151C169.755 26.9255 161.942 41.7345 150.165 47.4482C147.366 47.9146 145.384 47.9146 143.285 47.9146L142.702 21.2118C141.186 21.445 139.554 21.445 138.038 21.3284C137.805 20.0458 137.805 18.8797 137.921 17.597C140.953 17.2472 144.568 16.3144 148.183 14.4487H149.582L149.932 37.1868C149.932 39.0525 149.699 41.3847 149.465 42.6673C157.161 38.2363 162.409 28.4414 163.808 19.3461C162.175 18.8797 160.31 18.6465 158.91 18.5299C159.26 17.2472 160.076 16.0812 160.659 14.7985H164.158H170.338V14.9151Z" fill="#2F3C3F"/>
<path d="M200.656 27.6251C200.073 39.519 190.977 48.1478 180.833 48.1478C173.253 48.1478 169.172 42.6673 169.522 34.7381C170.105 22.8443 179.2 14.2155 189.228 14.2155C196.924 14.2155 201.005 19.6959 200.656 27.6251ZM176.868 32.6392C176.168 38.9359 178.384 43.0171 182.698 43.0171C188.295 43.0171 193.076 36.837 193.543 28.558C193.776 23.0775 191.56 19.3461 187.596 19.3461C182.232 19.3461 177.568 24.8266 176.868 32.6392Z" fill="#2F3C3F"/>
<path d="M92.2119 7.21911C92.2119 4.77039 94.4274 2.78809 96.8762 2.78809C98.9751 2.78809 100.491 4.30396 100.491 6.28627C100.491 8.73499 98.2754 10.7173 95.8267 10.7173C93.7278 10.7173 92.2119 9.08481 92.2119 7.21911Z" fill="#2F3C3F"/>
<path d="M92.5625 56.1937C92.2126 56.5435 91.6296 56.7767 91.0466 57.2431C91.513 57.7095 91.7462 58.2926 91.7462 58.9922C91.7462 60.7413 90.1137 62.0239 88.0148 62.1406C87.5484 62.1406 87.082 62.1406 86.6156 61.9073C86.2657 62.0239 85.9159 62.2572 85.9159 62.607C85.9159 62.9568 86.2657 63.3066 87.082 63.4232L89.5307 63.6564C90.93 63.773 91.3964 64.4727 91.3964 65.4055C91.3964 67.5044 89.2975 68.7871 86.7322 68.7871C84.6333 68.7871 83.3506 67.8542 83.3506 66.6882C83.3506 65.5221 84.5166 64.8225 85.5661 64.4727C84.8665 64.2395 84.4 63.773 84.4 63.0734C84.4 62.1406 85.2163 61.6741 85.7993 61.4409C85.0997 60.9745 84.8665 60.2749 84.8665 59.342C84.8665 57.3597 86.6156 56.077 88.3646 56.077C88.9477 56.077 89.4141 56.1937 89.8805 56.3103C90.4635 55.9604 91.513 55.3774 92.096 55.2608C92.4458 55.6106 92.5625 55.8438 92.5625 56.1937ZM89.8805 65.8719C89.8805 65.4055 89.6473 65.0557 88.9477 65.0557L87.082 64.8225C86.1491 65.0557 84.8665 65.5221 84.8665 66.455C84.8665 67.1546 85.6827 67.621 86.9654 67.621C88.7145 67.5044 89.8805 66.8048 89.8805 65.8719ZM88.4812 57.2431C87.3152 57.3597 86.499 58.176 86.499 59.342C86.499 60.3915 87.1986 60.9745 88.248 60.8579C89.4141 60.7413 90.2303 59.8084 90.2303 58.759C90.2303 57.8261 89.5307 57.2431 88.4812 57.2431Z" fill="#566466"/>
<path d="M98.9754 59.2254C98.6256 59.2254 98.3924 59.342 98.0426 59.342C98.0426 58.8756 98.0426 58.2925 98.0426 57.8261C96.6433 58.2925 95.4773 59.925 95.244 62.0239L94.7776 64.9391H93.1451L93.8448 59.8084C93.9614 59.1088 93.9614 58.4091 94.078 57.8261C93.6116 57.9427 93.2617 57.9427 92.7953 57.9427C92.6787 57.7095 92.6787 57.3597 92.6787 57.1265C93.3783 57.0099 94.3112 56.7767 95.244 56.3102H95.5939C95.5939 56.3102 95.8271 57.5929 95.5939 59.2254C96.4101 57.4763 97.6928 56.3102 99.3252 56.3102L99.092 57.7095L98.9754 59.2254Z" fill="#566466"/>
<path d="M107.371 59.6918C107.371 62.8402 105.155 65.0557 102.474 65.0557C100.491 65.0557 99.3252 63.6564 99.3252 61.5575C99.3252 58.4092 101.541 56.1937 104.223 56.1937C106.322 56.1937 107.371 57.5929 107.371 59.6918ZM101.074 61.0911C100.958 62.7236 101.657 63.8897 102.94 63.8897C104.572 63.8897 105.855 62.1406 105.855 59.925C105.855 58.4092 105.155 57.3597 103.989 57.3597C102.357 57.3597 101.191 58.9922 101.074 61.0911Z" fill="#566466"/>
<path d="M117.05 64.4727C117.05 64.4727 116.467 65.0557 115.534 65.0557C114.368 65.0557 114.018 64.2394 114.135 63.0734L114.251 62.1405C113.435 63.8896 112.152 65.0557 110.753 65.0557C109.237 65.0557 108.771 64.0062 109.004 62.1405L109.587 57.8261C109.121 57.9427 108.654 57.9427 108.188 57.9427C108.071 57.7095 108.071 57.3597 108.071 57.1265C108.771 57.0099 109.704 56.7767 110.637 56.3102H111.453L111.22 57.7095L110.637 62.0239C110.52 63.19 110.753 63.8896 111.686 63.8896C112.969 63.8896 114.485 61.7907 114.951 58.9922L115.301 56.5435H116.933L116 63.3066V63.5398C115.884 64.1228 116.117 64.356 116.467 64.356C116.817 64.356 117.283 64.0062 117.283 64.0062C117.167 64.0062 117.167 64.2394 117.05 64.4727Z" fill="#566466"/>
<path d="M126.378 59.1088C126.378 62.1405 124.163 65.0557 121.131 65.0557C120.548 65.0557 120.198 64.9391 119.848 64.8225L119.265 68.5539H117.633L118.216 64.3561L118.915 59.5752C119.032 58.759 119.032 58.0593 119.149 57.5929C118.799 57.7095 118.332 57.7095 117.866 57.7095C117.749 57.4763 117.749 57.1265 117.749 56.8933C118.449 56.7767 119.382 56.5435 120.315 56.077H120.665C120.665 56.077 120.781 57.1265 120.665 58.5258C121.481 57.0099 122.763 56.077 124.163 56.077C125.562 56.1936 126.378 57.3597 126.378 59.1088ZM121.248 63.8896C123.463 63.8896 124.746 61.5575 124.746 59.4586C124.746 58.1759 124.279 57.4763 123.346 57.4763C121.947 57.4763 120.548 59.2254 120.198 62.0239L119.965 63.6564C120.315 63.773 120.781 63.8896 121.248 63.8896Z" fill="#566466"/>
</svg>
