<svg width="200" height="41" viewBox="0 0 200 41" fill="none" xmlns="http://www.w3.org/2000/svg">
<g clip-path="url(#clip0_34288_1276)">
<path d="M79.9867 40.01H72.3848L57.8478 13.7368L54.0469 6.88505L57.8478 0L61.6488 6.85171L79.9867 39.9767V40.01ZM166.658 0H200V5.78478H166.658V0Z" fill="#099BD8"/>
<path d="M30.8911 34.2752V39.9933H0V0H5.7181V34.2752H30.8744H30.8911ZM49.179 15.7539L52.9466 22.639L43.2942 39.9933H35.6923L49.1623 15.7539H49.179ZM116.329 0.0833542V39.8266L110.578 34.0752L90.4059 13.9035L84.6545 8.15204V0L110.578 25.9231V0.0833542H116.329ZM84.6545 19.2215L90.4059 24.9729V40.01H84.6545V19.2048V19.2215ZM159.99 20.0884C159.99 30.2242 152.438 38.7764 142.369 40.01H123.764V15.7706H129.532V34.2419H141.969C149.787 33.1083 155.205 25.8398 154.055 18.0212C153.072 11.2195 147.387 6.10153 140.518 5.80145H123.748V0H140.118C151.104 0.133367 159.957 9.0856 159.957 20.0884H159.99ZM172.41 34.2419V21.4554H193.315V15.6873H166.642V40.0267H199.967V34.2586H172.41V34.2419Z" fill="#161920"/>
</g>
<defs>
<clipPath id="clip0_34288_1276">
<rect width="200" height="40.01" fill="white"/>
</clipPath>
</defs>
</svg>
