<svg width="200" height="78" viewBox="0 0 200 78" fill="none" xmlns="http://www.w3.org/2000/svg">
<g clip-path="url(#clip0_33542_1539)">
<path d="M197.096 74.2286C195.463 74.2286 194.132 72.8977 194.132 71.2643V47.0053C194.132 38.9594 190.805 26.4972 173.805 26.6787C157.35 26.8602 153.781 39.6853 153.478 47.0053V71.2643C153.478 72.8977 152.148 74.2286 150.514 74.2286C148.881 74.2286 147.55 72.8977 147.55 71.2643V47.0053C147.55 39.1409 149.97 32.7283 154.809 27.8886C159.589 23.1699 165.88 20.8105 173.745 20.8105C181.609 20.8105 187.961 23.1699 192.68 27.8886C197.52 32.7283 199.939 39.1409 199.939 47.0053V71.2643C200 72.9582 198.729 74.2286 197.096 74.2286Z" fill="#026270"/>
<path d="M2.66183 0.604858C4.17423 0.604858 5.38415 1.81478 5.38415 3.26669V58.1971C5.50514 65.6986 10.0423 68.2395 12.8252 68.6629C14.64 68.9654 25.7713 68.9049 30.9135 68.8444C32.3049 68.8444 33.5148 69.9939 33.5148 71.3853C33.5148 72.8372 32.3654 73.9866 30.974 73.9866C26.2553 73.9866 16.5154 74.0471 14.5796 73.9261C12.0387 73.8051 7.32002 72.5952 4.41621 69.9333C1.45191 67.332 0 64.1257 0 60.375V3.26669C0 1.81478 1.14943 0.604858 2.66183 0.604858Z" fill="#026270"/>
<path d="M75.8014 49.9092C76.4064 49.9092 76.9508 49.6067 77.1928 49.0622C79.9756 43.3756 80.4596 26.4972 60.4959 26.1947C55.3537 26.1342 48.3967 28.6145 44.7064 32.7283C42.0446 35.6321 40.0482 40.1693 39.5038 45.0695C38.5358 53.9019 41.2581 59.1046 44.8274 62.7948C47.5497 65.6381 51.724 68.179 58.9835 68.7839C64.2466 69.2074 73.4421 68.8444 78.1003 68.6024C79.7336 68.542 81.0646 69.8124 81.0646 71.4458C81.0646 73.0187 79.7941 74.2891 78.2212 74.2891H59.5884C51.724 74.1681 45.4324 71.6877 40.7137 66.9086C35.9345 62.0084 33.5146 55.5958 33.5146 47.6708C33.5146 39.6853 36.0555 33.3332 40.8347 28.3121C44.6459 24.3193 52.0869 21.113 60.0724 21.113C66.7875 21.113 73.563 22.9884 78.2212 27.2231C83.5449 32.0628 84.6943 39.3223 84.0289 43.9805C83.6054 47.3078 81.851 51.6031 79.7336 54.1439C79.2497 54.6884 78.5842 54.9908 77.8583 54.9908C73.442 54.9908 56.0797 55.1118 48.3967 55.1118C46.5818 55.1118 45.3719 53.3574 45.9163 51.6635C46.2793 50.6351 47.2473 49.9092 48.3362 49.9092H75.8014Z" fill="#026270"/>
<path d="M115.668 26.7997C106.836 26.9207 101.815 30.5505 99.1527 34.7852C96.9144 38.294 95.2205 43.7991 95.2205 49.6672C95.2205 55.5353 97.1564 61.8269 100.665 65.4567C104.053 68.9655 110.889 71.9298 116.213 71.7483C124.622 71.4458 129.159 69.5099 131.881 66.5456C135.511 62.6134 135.39 51.1796 135.39 43.8596L135.027 3.26674C135.027 1.45185 136.418 -5.0813e-05 138.233 -0.0605469C140.048 -0.0605469 141.56 1.39136 141.56 3.20624L141.319 49.8487C141.016 64.6702 138.959 67.7555 135.148 71.3853C131.821 74.5916 125.287 77.1324 116.939 77.1324C108.59 77.1324 101.875 74.7126 96.8539 69.8124C91.7117 64.7912 89.1709 57.8947 89.1709 49.1227C89.1709 41.9842 90.7438 36.2371 93.8896 31.7604C96.6724 27.6466 100.544 24.6823 105.384 22.807C109.982 20.9921 114.821 20.3871 119.903 20.9921C122.504 21.2946 126.557 22.5045 129.34 24.3799C130.127 24.9243 130.55 25.8318 130.55 26.7392C130.55 26.7997 130.55 26.7997 130.55 26.8602C130.55 29.401 127.828 30.8529 125.65 29.522C122.444 27.6466 118.572 26.7392 115.668 26.7997Z" fill="#64D0E4"/>
</g>
<defs>
<clipPath id="clip0_33542_1539">
<rect width="200" height="77.193" fill="white"/>
</clipPath>
</defs>
</svg>
