<svg width="200" height="27" viewBox="0 0 200 27" fill="none" xmlns="http://www.w3.org/2000/svg">
<g clip-path="url(#clip0_33542_1553)">
<path d="M4.56074 10.947C4.13724 11.1588 3.78107 11.4843 3.53214 11.8871C3.28322 12.2899 3.15137 12.754 3.15137 13.2275C3.15137 13.701 3.28322 14.1652 3.53214 14.568C3.78107 14.9707 4.13724 15.2962 4.56074 15.508L25.205 25.831C25.5938 26.0254 26.0257 26.1172 26.4599 26.0976C26.8941 26.0781 27.316 25.9479 27.6857 25.7194C28.0554 25.4909 28.3606 25.1717 28.5722 24.7921C28.7839 24.4125 28.895 23.9851 28.895 23.5505V2.90538C28.895 2.47077 28.7839 2.04338 28.5722 1.66378C28.3606 1.28419 28.0554 0.96499 27.6857 0.736504C27.316 0.508018 26.8941 0.377826 26.4599 0.35829C26.0257 0.338755 25.5938 0.430524 25.205 0.624885L4.56074 10.947Z" fill="#F7D27C"/>
<path d="M24.3351 10.947C24.7586 11.1588 25.1148 11.4843 25.3637 11.8871C25.6126 12.2899 25.7445 12.754 25.7445 13.2275C25.7445 13.701 25.6126 14.1652 25.3637 14.568C25.1148 14.9707 24.7586 15.2962 24.3351 15.508L3.68995 25.831C3.30123 26.0254 2.86927 26.1172 2.4351 26.0976C2.00093 26.0781 1.57896 25.9479 1.20926 25.7194C0.839554 25.4909 0.534394 25.1717 0.32275 24.7921C0.111107 24.4125 7.07435e-06 23.9851 0 23.5505L0 2.90538C7.07435e-06 2.47077 0.111107 2.04338 0.32275 1.66378C0.534394 1.28419 0.839554 0.96499 1.20926 0.736504C1.57896 0.508018 2.00093 0.377826 2.4351 0.35829C2.86927 0.338755 3.30123 0.430524 3.68995 0.624885L24.3351 10.947Z" fill="#8452FF"/>
<path d="M38.6871 19.9414C38.6206 19.9421 38.5546 19.9295 38.493 19.9044C38.4315 19.8793 38.3755 19.8422 38.3285 19.7952C38.2814 19.7482 38.2442 19.6923 38.219 19.6308C38.1938 19.5693 38.1811 19.5033 38.1817 19.4368V5.75127C38.1812 5.68485 38.194 5.619 38.2192 5.55757C38.2445 5.49614 38.2817 5.44035 38.3288 5.39346C38.3758 5.34657 38.4317 5.30953 38.4933 5.28448C38.5548 5.25943 38.6207 5.24689 38.6871 5.24759H40.6376C40.7039 5.24713 40.7697 5.25983 40.8311 5.28496C40.8926 5.31008 40.9484 5.34714 40.9954 5.39398C41.0424 5.44082 41.0796 5.49652 41.105 5.55785C41.1303 5.61917 41.1432 5.68492 41.143 5.75127V17.4429H47.796C47.8656 17.4403 47.9349 17.4519 47.9997 17.4772C48.0646 17.5024 48.1235 17.5407 48.1729 17.5897C48.2214 17.6397 48.2593 17.6988 48.2846 17.7637C48.3098 17.8286 48.3217 17.8979 48.3197 17.9675V19.436C48.3208 19.5024 48.3083 19.5684 48.2831 19.6299C48.2578 19.6914 48.2204 19.7472 48.1729 19.7938C48.1235 19.8427 48.0646 19.881 47.9997 19.9063C47.9349 19.9315 47.8656 19.9432 47.796 19.9405L38.6871 19.9414Z" fill="#230B59"/>
<path d="M50.8623 19.9413C50.7959 19.9419 50.73 19.9293 50.6685 19.9041C50.607 19.879 50.5512 19.8418 50.5042 19.7948C50.4573 19.7479 50.4201 19.692 50.395 19.6305C50.3698 19.5691 50.3572 19.5032 50.3577 19.4368V5.77205C50.3553 5.70243 50.3671 5.63304 50.3923 5.5681C50.4175 5.50316 50.4557 5.44403 50.5045 5.39429C50.551 5.34674 50.6067 5.30919 50.6682 5.28396C50.7298 5.25872 50.7958 5.24632 50.8623 5.24752H60.0954C60.1646 5.24457 60.2337 5.25603 60.2983 5.28118C60.3628 5.30632 60.4214 5.34459 60.4704 5.39358C60.5194 5.44257 60.5577 5.50119 60.5828 5.56574C60.608 5.6303 60.6194 5.69937 60.6165 5.76858V7.1572C60.618 7.22352 60.6058 7.28945 60.5807 7.35086C60.5556 7.41227 60.5181 7.46784 60.4706 7.51412C60.4208 7.5634 60.3614 7.60194 60.2962 7.62733C60.2309 7.65273 60.1611 7.66444 60.0911 7.66176H53.1897V11.3778H59.6334C59.772 11.3727 59.9071 11.4215 60.0103 11.5141C60.0599 11.5611 60.0987 11.6183 60.1242 11.6817C60.1497 11.7451 60.1612 11.8132 60.1579 11.8815V13.1841C60.1613 13.2523 60.1498 13.3205 60.1243 13.3839C60.0988 13.4473 60.0599 13.5045 60.0103 13.5514C59.9074 13.6446 59.7721 13.6939 59.6334 13.6887H53.1897V17.5271H60.2639C60.3334 17.5238 60.4028 17.535 60.4678 17.5599C60.5327 17.5849 60.5918 17.6231 60.6412 17.6721C60.6906 17.7211 60.7293 17.7798 60.7548 17.8446C60.7803 17.9093 60.792 17.9786 60.7893 18.0482V19.4333C60.7906 19.4998 60.7782 19.5659 60.753 19.6274C60.7278 19.689 60.6902 19.7447 60.6425 19.7911C60.5926 19.8401 60.5331 19.8783 60.4679 19.9036C60.4026 19.9288 60.3329 19.9405 60.263 19.9379L50.8623 19.9413Z" fill="#230B59"/>
<path d="M63.917 19.9413C63.8506 19.9419 63.7847 19.9292 63.7232 19.9041C63.6617 19.8789 63.6059 19.8418 63.5589 19.7948C63.5119 19.7478 63.4748 19.692 63.4496 19.6305C63.4245 19.569 63.4118 19.5032 63.4124 19.4367V5.77202C63.41 5.7024 63.4218 5.63301 63.447 5.56807C63.4722 5.50313 63.5104 5.44399 63.5592 5.39426C63.6057 5.34671 63.6614 5.30916 63.7229 5.28392C63.7844 5.25869 63.8505 5.24629 63.917 5.24749H65.5322C65.61 5.24051 65.6884 5.24896 65.763 5.27236C65.8375 5.29576 65.9066 5.33364 65.9665 5.38383C66.0313 5.44535 66.0908 5.51216 66.1445 5.58357L72.1896 14.9878V5.77202C72.1844 5.63304 72.2337 5.49751 72.3268 5.39426C72.3739 5.34483 72.4311 5.30614 72.4945 5.28082C72.5579 5.25549 72.626 5.24412 72.6942 5.24749H74.4571C74.5262 5.24481 74.5952 5.25644 74.6596 5.28168C74.7241 5.30692 74.7826 5.3452 74.8315 5.39413C74.8804 5.44306 74.9187 5.50158 74.944 5.56601C74.9692 5.63045 74.9808 5.6994 74.9781 5.76855V19.4168C74.9807 19.4864 74.9689 19.5558 74.9437 19.6208C74.9185 19.6857 74.8803 19.7449 74.8314 19.7945C74.7849 19.8421 74.7292 19.8796 74.6676 19.9049C74.6061 19.9301 74.5401 19.9425 74.4736 19.9413H72.8375C72.7611 19.9489 72.684 19.9396 72.6115 19.9143C72.5391 19.8889 72.473 19.8481 72.418 19.7945C72.3624 19.7244 72.2989 19.6608 72.2287 19.6052L66.2044 10.4112V19.4367C66.2055 19.5032 66.193 19.5692 66.1678 19.6307C66.1425 19.6922 66.1051 19.748 66.0576 19.7945C66.0079 19.8433 65.9488 19.8815 65.8838 19.9067C65.8189 19.9319 65.7495 19.9437 65.6799 19.9413H63.917Z" fill="#230B59"/>
<path d="M78.7568 19.9414C78.6904 19.942 78.6246 19.9293 78.5631 19.9042C78.5016 19.879 78.4457 19.8419 78.3988 19.7949C78.3518 19.7479 78.3147 19.6921 78.2895 19.6306C78.2644 19.5691 78.2517 19.5033 78.2523 19.4368V5.7721C78.2498 5.70247 78.2615 5.63305 78.2867 5.56809C78.312 5.50314 78.3502 5.44402 78.3991 5.39434C78.4455 5.34671 78.5012 5.30911 78.5627 5.28386C78.6243 5.25862 78.6903 5.24627 78.7568 5.24757H83.8806C85.0789 5.20559 86.2719 5.42735 87.3751 5.89716C88.2579 6.30015 88.9868 6.9776 89.4533 7.82854C89.9491 8.79485 90.1976 9.869 90.1767 10.9549C90.2056 11.5709 90.2201 12.1168 90.2201 12.5927C90.2201 13.0686 90.2056 13.6074 90.1767 14.2089C90.1918 15.3236 89.9477 16.4265 89.4637 17.4308C89.0215 18.2715 88.3073 18.9373 87.4377 19.3196C86.3435 19.7691 85.1661 19.9802 83.9839 19.9388L78.7568 19.9414ZM81.1693 17.5272H83.8771C84.5305 17.5517 85.1816 17.4374 85.7876 17.1919C86.2686 16.9768 86.6532 16.5919 86.868 16.1107C87.124 15.4884 87.2493 14.8201 87.2362 14.1472C87.2501 13.7278 87.2596 13.3604 87.2666 13.0461C87.2735 12.7317 87.2744 12.4165 87.2666 12.1012C87.2588 11.786 87.2492 11.4264 87.2362 11.0209C87.2873 10.0948 86.9786 9.18471 86.3747 8.48073C86.0157 8.17949 85.6008 7.95209 85.1537 7.81156C84.7066 7.67103 84.2362 7.62014 83.7694 7.6618H81.1641L81.1693 17.5272Z" fill="#230B59"/>
<path d="M93.5137 19.9413C93.4472 19.9419 93.3814 19.9293 93.3199 19.9041C93.2584 19.879 93.2026 19.8418 93.1556 19.7948C93.1086 19.7479 93.0715 19.692 93.0463 19.6305C93.0212 19.5691 93.0085 19.5032 93.0091 19.4368V5.77205C93.0067 5.70243 93.0185 5.63304 93.0437 5.5681C93.0689 5.50316 93.1071 5.44403 93.1559 5.39429C93.2024 5.34674 93.2581 5.30919 93.3196 5.28396C93.3811 5.25872 93.4472 5.24632 93.5137 5.24752H102.752C102.821 5.24457 102.89 5.25603 102.955 5.28118C103.019 5.30632 103.078 5.34459 103.127 5.39358C103.176 5.44257 103.214 5.50119 103.239 5.56574C103.265 5.6303 103.276 5.69937 103.273 5.76858V7.1572C103.275 7.22352 103.262 7.28945 103.237 7.35086C103.212 7.41227 103.175 7.46784 103.127 7.51412C103.077 7.5634 103.018 7.60194 102.953 7.62733C102.887 7.65273 102.818 7.66444 102.748 7.66176H95.8428V11.3778H102.288C102.427 11.3727 102.562 11.4215 102.665 11.5141C102.715 11.5611 102.754 11.6183 102.779 11.6817C102.805 11.7451 102.816 11.8132 102.813 11.8815V13.1841C102.816 13.2523 102.805 13.3205 102.779 13.3839C102.754 13.4473 102.715 13.5045 102.665 13.5514C102.562 13.6446 102.427 13.6939 102.288 13.6887H95.8428V17.5271H102.917C102.987 17.5238 103.056 17.535 103.121 17.5599C103.186 17.5849 103.245 17.6231 103.294 17.6721C103.344 17.7211 103.382 17.7798 103.408 17.8446C103.433 17.9093 103.445 17.9786 103.442 18.0482V19.4333C103.444 19.4998 103.431 19.5659 103.406 19.6274C103.381 19.689 103.343 19.7447 103.296 19.7911C103.246 19.8401 103.186 19.8783 103.121 19.9036C103.056 19.9288 102.986 19.9405 102.916 19.9379L93.5137 19.9413Z" fill="#230B59"/>
<path d="M106.57 19.9413C106.504 19.9416 106.438 19.9288 106.377 19.9036C106.315 19.8784 106.26 19.8412 106.213 19.7943C106.166 19.7474 106.129 19.6916 106.103 19.6302C106.078 19.5689 106.065 19.5031 106.066 19.4367V5.77115C106.063 5.70165 106.075 5.63238 106.1 5.56758C106.126 5.50277 106.164 5.4438 106.213 5.39425C106.259 5.3465 106.315 5.30877 106.376 5.28338C106.438 5.25799 106.504 5.24548 106.57 5.24662H112.007C113.438 5.1674 114.853 5.58253 116.015 6.42247C116.511 6.8376 116.903 7.36361 117.158 7.95799C117.413 8.55238 117.525 9.19848 117.485 9.84408C117.519 10.7655 117.25 11.6728 116.718 12.4259C116.2 13.117 115.487 13.6365 114.67 13.917L117.735 19.2691C117.774 19.3404 117.795 19.4198 117.798 19.501C117.799 19.5601 117.788 19.6188 117.764 19.673C117.741 19.7273 117.706 19.7758 117.662 19.8154C117.58 19.8955 117.471 19.9409 117.357 19.9422H115.447C115.347 19.9491 115.248 19.9359 115.154 19.9033C115.06 19.8708 114.974 19.8196 114.9 19.7528C114.785 19.6412 114.686 19.5141 114.607 19.3751L111.905 14.399H108.987V19.4359C108.99 19.5681 108.941 19.6961 108.851 19.7928C108.804 19.8424 108.746 19.8813 108.683 19.9068C108.619 19.9323 108.551 19.9438 108.483 19.9404L106.57 19.9413ZM108.983 12.0273H111.942C112.629 12.081 113.311 11.8752 113.853 11.4507C114.068 11.2403 114.236 10.986 114.345 10.705C114.454 10.4241 114.5 10.1231 114.483 9.82237C114.499 9.51944 114.453 9.21631 114.346 8.93225C114.24 8.64819 114.075 8.38941 113.863 8.17235C113.325 7.73097 112.636 7.51666 111.942 7.57488H108.983V12.0273Z" fill="#230B59"/>
<path d="M120.863 19.9414C120.799 19.9437 120.735 19.9329 120.675 19.9094C120.616 19.8859 120.561 19.8504 120.516 19.805C120.471 19.7594 120.435 19.705 120.412 19.6453C120.389 19.5856 120.378 19.5218 120.379 19.4577V5.75125C120.376 5.68399 120.387 5.61678 120.41 5.55365C120.434 5.49052 120.47 5.43278 120.516 5.38391C120.561 5.33875 120.616 5.30336 120.675 5.27991C120.735 5.25647 120.799 5.24546 120.863 5.24757H121.912C121.981 5.24242 122.049 5.25081 122.114 5.27227C122.18 5.29373 122.24 5.32783 122.292 5.37262C122.358 5.42903 122.408 5.50139 122.438 5.58278L126.888 14.063L131.362 5.58625C131.404 5.50974 131.457 5.4391 131.518 5.37609C131.567 5.33073 131.625 5.29617 131.689 5.27463C131.752 5.25309 131.819 5.24506 131.886 5.25104H132.914C132.982 5.24583 133.05 5.25528 133.113 5.27875C133.177 5.30221 133.234 5.33914 133.282 5.387C133.33 5.43485 133.367 5.4925 133.39 5.55597C133.414 5.61945 133.423 5.68725 133.418 5.75473V19.4577C133.42 19.5218 133.409 19.5856 133.386 19.6453C133.362 19.705 133.327 19.7594 133.282 19.805C133.233 19.8516 133.175 19.8877 133.112 19.9111C133.049 19.9345 132.982 19.9448 132.914 19.9414H131.883C131.819 19.9438 131.755 19.933 131.695 19.9095C131.635 19.8861 131.581 19.8505 131.535 19.805C131.49 19.7596 131.454 19.7053 131.431 19.6455C131.407 19.5858 131.396 19.5219 131.398 19.4577V9.13031L127.892 15.9735C127.843 16.105 127.755 16.2186 127.64 16.2992C127.515 16.3792 127.369 16.4192 127.22 16.4138H126.571C126.417 16.4234 126.265 16.3832 126.136 16.2992C126.024 16.2134 125.935 16.1016 125.876 15.9735L122.37 9.13031V19.4577C122.372 19.5217 122.361 19.5854 122.338 19.645C122.314 19.7046 122.279 19.7587 122.233 19.8039C122.188 19.8492 122.134 19.8847 122.074 19.9082C122.015 19.9317 121.951 19.9427 121.887 19.9405L120.863 19.9414Z" fill="#230B59"/>
<path d="M136.062 19.9413C135.952 19.9379 135.847 19.8925 135.769 19.8144C135.69 19.7363 135.645 19.6314 135.642 19.521C135.642 19.4439 135.649 19.3669 135.662 19.2909L140.868 5.70954C140.916 5.58074 140.995 5.46567 141.098 5.37433C141.225 5.28126 141.381 5.23633 141.538 5.24754H142.967C143.122 5.23844 143.275 5.28323 143.401 5.37433C143.509 5.46314 143.593 5.57869 143.642 5.70954L148.827 19.2909C148.854 19.3648 148.868 19.4425 148.869 19.521C148.866 19.6314 148.821 19.7363 148.743 19.8144C148.664 19.8925 148.56 19.9379 148.449 19.9413H147.378C147.312 19.9472 147.245 19.939 147.182 19.9171C147.118 19.8953 147.061 19.8603 147.012 19.8146C146.946 19.748 146.892 19.67 146.854 19.5844L145.693 16.6031H138.808L137.654 19.5844C137.627 19.6735 137.576 19.7533 137.506 19.8146C137.455 19.8598 137.395 19.8943 137.33 19.9161C137.266 19.9379 137.197 19.9464 137.129 19.9413H136.062ZM139.42 14.7985H145.085L142.251 7.34653L139.42 14.7985Z" fill="#230B59"/>
<path d="M151.595 19.9405C151.529 19.9447 151.463 19.9347 151.401 19.9112C151.34 19.8877 151.284 19.8512 151.238 19.8042C151.152 19.7094 151.106 19.5847 151.111 19.4568V5.75125C151.104 5.61703 151.15 5.48542 151.238 5.3839C151.284 5.33678 151.34 5.30015 151.401 5.27647C151.463 5.2528 151.529 5.24264 151.595 5.24669H156.718C158.062 5.17347 159.389 5.56677 160.476 6.36001C160.949 6.76259 161.321 7.27041 161.563 7.84274C161.804 8.41508 161.908 9.036 161.866 9.6557C161.907 10.6008 161.622 11.5314 161.057 12.2905C160.495 12.9841 159.727 13.4803 158.863 13.7069L162.096 19.2909C162.134 19.3618 162.155 19.4406 162.158 19.5211C162.158 19.577 162.146 19.6323 162.122 19.6831C162.099 19.7339 162.064 19.779 162.022 19.8155C161.94 19.895 161.831 19.9398 161.717 19.9405H160.705C160.61 19.9484 160.514 19.9357 160.424 19.9033C160.335 19.871 160.253 19.8197 160.184 19.7529C160.077 19.6339 159.979 19.5077 159.889 19.3752L156.85 14.043H153.175V19.4594C153.178 19.5236 153.167 19.5876 153.143 19.6473C153.12 19.7071 153.084 19.7614 153.039 19.8068C152.99 19.8533 152.932 19.8894 152.869 19.9128C152.806 19.9363 152.739 19.9466 152.672 19.9431L151.595 19.9405ZM153.168 12.2584H156.632C157.47 12.3218 158.302 12.0875 158.983 11.5966C159.252 11.3489 159.461 11.0437 159.596 10.7039C159.73 10.3642 159.786 9.99844 159.76 9.63399C159.784 9.27215 159.728 8.90942 159.595 8.57187C159.463 8.23432 159.257 7.93033 158.993 7.68176C158.312 7.18159 157.474 6.94328 156.632 7.01047H153.168V12.2584Z" fill="#230B59"/>
<path d="M165.347 19.9414C165.281 19.9456 165.215 19.9356 165.154 19.9121C165.092 19.8885 165.036 19.852 164.99 19.805C164.905 19.7098 164.86 19.5853 164.865 19.4577V5.75124C164.858 5.61726 164.903 5.48568 164.99 5.3839C165.036 5.33712 165.092 5.30077 165.154 5.27726C165.215 5.25375 165.281 5.24362 165.347 5.24756H166.389C166.457 5.24221 166.525 5.25156 166.588 5.27497C166.652 5.29838 166.709 5.33529 166.757 5.38316C166.805 5.43103 166.842 5.48872 166.866 5.55226C166.889 5.61581 166.899 5.68369 166.894 5.75124V10.9575L172.5 5.58624C172.588 5.50683 172.683 5.43642 172.785 5.37608C172.948 5.28494 173.133 5.2416 173.32 5.25103H174.449C174.559 5.2545 174.664 5.29978 174.742 5.37768C174.82 5.45558 174.866 5.56026 174.869 5.67048C174.872 5.76858 174.841 5.8647 174.782 5.94317L168.295 12.2827L175.201 19.2301C175.271 19.312 175.308 19.4163 175.307 19.5237C175.304 19.634 175.258 19.7389 175.18 19.817C175.102 19.8951 174.997 19.9405 174.887 19.944H173.719C173.527 19.9565 173.336 19.9088 173.172 19.8076L172.9 19.6079L166.896 13.6887V19.4603C166.898 19.5244 166.887 19.5882 166.864 19.6479C166.84 19.7076 166.805 19.762 166.76 19.8076C166.711 19.8542 166.653 19.8904 166.59 19.9138C166.527 19.9372 166.459 19.9475 166.392 19.944L165.347 19.9414Z" fill="#230B59"/>
<path d="M177.958 19.9413C177.893 19.9456 177.827 19.9356 177.765 19.912C177.703 19.8885 177.648 19.852 177.601 19.805C177.516 19.7098 177.471 19.5852 177.476 19.4576V5.75122C177.469 5.61724 177.514 5.48565 177.601 5.38387C177.648 5.3371 177.704 5.30074 177.765 5.27724C177.827 5.25373 177.893 5.2436 177.958 5.24753H186.629C186.694 5.2436 186.76 5.25373 186.822 5.27724C186.883 5.30074 186.939 5.3371 186.986 5.38387C187.073 5.48565 187.118 5.61724 187.111 5.75122V6.54844C187.118 6.61365 187.111 6.67978 187.09 6.74186C187.068 6.80393 187.033 6.86033 186.987 6.90681C186.94 6.9533 186.884 6.98865 186.822 7.01021C186.76 7.03177 186.694 7.03897 186.629 7.03128H179.491V11.6287H186.167C186.232 11.6248 186.298 11.6349 186.36 11.6585C186.421 11.682 186.477 11.7183 186.524 11.7651C186.612 11.8666 186.657 11.9982 186.65 12.1324V12.9088C186.655 13.0366 186.609 13.1612 186.524 13.2562C186.477 13.3032 186.422 13.3397 186.36 13.3632C186.298 13.3867 186.232 13.3967 186.167 13.3925H179.491V18.1576H186.796C186.861 18.1499 186.927 18.1571 186.989 18.1786C187.051 18.2001 187.108 18.2354 187.154 18.2818C187.2 18.3282 187.236 18.3845 187.257 18.4464C187.279 18.5084 187.286 18.5744 187.278 18.6396V19.4585C187.283 19.5861 187.238 19.7106 187.153 19.8059C187.107 19.8529 187.051 19.8894 186.99 19.9129C186.928 19.9364 186.862 19.9464 186.796 19.9422L177.958 19.9413Z" fill="#230B59"/>
<path d="M193.89 19.9414C193.826 19.9437 193.763 19.9328 193.703 19.9093C193.643 19.8859 193.589 19.8504 193.544 19.805C193.499 19.7597 193.463 19.7056 193.44 19.6459C193.417 19.5863 193.406 19.5225 193.408 19.4585V7.11555H189.378C189.314 7.11747 189.25 7.1063 189.191 7.08271C189.131 7.05913 189.078 7.02363 189.032 6.97841C188.987 6.93318 188.952 6.87918 188.928 6.81973C188.904 6.76028 188.893 6.69663 188.895 6.6327V5.75124C188.892 5.6839 188.902 5.61659 188.926 5.55343C188.949 5.49027 188.986 5.43259 189.032 5.3839C189.078 5.33857 189.132 5.30307 189.192 5.27961C189.252 5.25616 189.316 5.24525 189.38 5.24756H199.496C199.564 5.24221 199.631 5.25156 199.695 5.27497C199.759 5.29838 199.816 5.33529 199.864 5.38316C199.912 5.43103 199.949 5.48872 199.973 5.55226C199.996 5.61581 200.006 5.68369 200.001 5.75124V6.62836C200.003 6.6925 199.992 6.75642 199.968 6.81616C199.945 6.87591 199.91 6.93021 199.864 6.97573C199.815 7.02244 199.758 7.0587 199.694 7.08229C199.631 7.10588 199.564 7.11631 199.496 7.11294H195.487V19.4577C195.49 19.5218 195.479 19.5857 195.455 19.6455C195.432 19.7052 195.396 19.7595 195.351 19.805C195.302 19.8516 195.245 19.8876 195.181 19.9111C195.118 19.9345 195.051 19.9448 194.984 19.9414H193.89Z" fill="#230B59"/>
</g>
<defs>
<clipPath id="clip0_33542_1553">
<rect width="200" height="26.455" fill="white"/>
</clipPath>
</defs>
</svg>
