<svg width="200" height="51" viewBox="0 0 200 51" fill="none" xmlns="http://www.w3.org/2000/svg">
<path d="M7.62308 6.87036L24.1165 22.255L0.138672 43.8766L7.62308 6.87036Z" fill="#FFE5AC"/>
<path d="M51.0049 6.73169L58.6279 44.1537H0L51.0049 6.73169Z" fill="#FFE5AC"/>
<path d="M75.9354 20.2C75.4821 19.0933 75.0287 17.9933 74.5754 16.9C74.1354 15.8067 73.6887 14.7133 73.2354 13.62C73.1287 13.3667 72.9887 13.0133 72.8154 12.56C72.6554 12.0933 72.4821 11.56 72.2954 10.96C72.1221 10.36 71.9621 9.74 71.8154 9.1C71.8421 9.84667 71.8621 10.5533 71.8754 11.22C71.8887 11.8733 71.8887 12.5 71.8754 13.1C71.8754 13.3933 71.8754 13.6933 71.8754 14C71.8754 14.3067 71.8687 14.6133 71.8554 14.92C71.8554 15.2133 71.8554 15.5133 71.8554 15.82C71.8554 16.1133 71.8554 16.4133 71.8554 16.72C71.8554 17.08 71.8421 17.4267 71.8154 17.76C71.8021 18.0933 71.7821 18.3467 71.7554 18.52C71.9821 18.4933 72.2554 18.48 72.5754 18.48C72.9087 18.4667 73.1421 18.46 73.2754 18.46V20H68.7154V18.68C69.0221 18.6667 69.2754 18.6267 69.4754 18.56C69.6887 18.4933 69.8487 18.34 69.9554 18.1C70.0754 17.86 70.1354 17.4733 70.1354 16.94L70.2554 9.28C70.2687 8.92 70.2821 8.57333 70.2954 8.24C70.3087 7.90667 70.3221 7.65333 70.3354 7.48C70.1221 7.49333 69.8554 7.50667 69.5354 7.52C69.2154 7.52 68.9821 7.52667 68.8354 7.54V6H73.2554L76.2754 13.74C76.3954 14.0467 76.5287 14.4067 76.6754 14.82C76.8221 15.22 76.9621 15.6133 77.0954 16C77.2287 16.3733 77.3287 16.6733 77.3954 16.9H77.4154C77.5887 16.4333 77.7487 15.98 77.8954 15.54C78.0421 15.1 78.1954 14.6733 78.3554 14.26C78.8754 12.8733 79.3887 11.4933 79.8954 10.12C80.4154 8.74667 80.9354 7.37333 81.4554 6H86.0754V7.32C85.7821 7.33333 85.5221 7.37333 85.2954 7.44C85.0687 7.50667 84.8954 7.66 84.7754 7.9C84.6687 8.12667 84.6221 8.51333 84.6354 9.06L84.9354 16.72C84.9621 17.08 84.9621 17.4267 84.9354 17.76C84.9087 18.0933 84.8821 18.3467 84.8554 18.52C85.0821 18.4933 85.3554 18.48 85.6754 18.48C86.0087 18.4667 86.2421 18.46 86.3754 18.46V20H80.8154V18.68C81.1221 18.6667 81.3821 18.6267 81.5954 18.56C81.8221 18.4933 81.9887 18.34 82.0954 18.1C82.2154 17.86 82.2621 17.4733 82.2354 16.94L82.0754 12.7C82.0754 12.54 82.0621 12.2667 82.0354 11.88C82.0087 11.48 81.9821 11.0467 81.9554 10.58C81.9421 10.1 81.9287 9.65333 81.9154 9.24C81.8754 9.33333 81.8354 9.42667 81.7954 9.52C81.7554 9.6 81.7221 9.68667 81.6954 9.78L77.7954 20.2H75.9354ZM87.8532 18.7C88.2265 18.7 88.4932 18.6267 88.6532 18.48C88.8132 18.3333 88.9132 18.1267 88.9532 17.86C89.0065 17.58 89.0332 17.2667 89.0332 16.92V13.6C89.0332 13.36 89.0399 13.0867 89.0532 12.78C89.0665 12.46 89.0865 12.1533 89.1132 11.86C88.8999 11.8733 88.6465 11.8867 88.3532 11.9C88.0732 11.9 87.8599 11.9067 87.7132 11.92V10.4C88.3265 10.4 88.8465 10.3667 89.2732 10.3C89.6999 10.2333 90.0332 10.1533 90.2732 10.06C90.5265 9.96667 90.6999 9.88 90.7932 9.8H91.8732V16.78C91.8732 16.9667 91.8665 17.2333 91.8532 17.58C91.8399 17.9133 91.8199 18.2333 91.7932 18.54C92.0065 18.5133 92.2399 18.5 92.4932 18.5C92.7599 18.4867 92.9599 18.48 93.0932 18.48V20H87.8532V18.7ZM90.3532 8.22C89.8999 8.22 89.5265 8.06 89.2332 7.74C88.9399 7.42 88.7932 7.03333 88.7932 6.58C88.7932 6.12667 88.9465 5.74 89.2532 5.42C89.5599 5.1 89.9199 4.94 90.3332 4.94C90.7599 4.94 91.1132 5.1 91.3932 5.42C91.6865 5.74 91.8332 6.12667 91.8332 6.58C91.8332 7.03333 91.6999 7.42 91.4332 7.74C91.1665 8.06 90.8065 8.22 90.3532 8.22ZM98.2562 20.32C97.4562 20.32 96.7495 20.1133 96.1362 19.7C95.5362 19.2867 95.0628 18.7 94.7162 17.94C94.3828 17.18 94.2162 16.2867 94.2162 15.26C94.2162 14.18 94.4228 13.22 94.8362 12.38C95.2495 11.54 95.8295 10.88 96.5762 10.4C97.3228 9.92 98.1895 9.68 99.1762 9.68C99.5362 9.68 99.8562 9.72 100.136 9.8C100.43 9.86667 100.703 9.94667 100.956 10.04V8.72C100.956 8.53333 100.963 8.26667 100.976 7.92C100.99 7.57333 101.01 7.25333 101.036 6.96C100.823 6.97333 100.57 6.98667 100.276 7C99.9828 7.01333 99.7628 7.02 99.6162 7.02V5.5C100.243 5.5 100.763 5.46667 101.176 5.4C101.603 5.33333 101.936 5.25333 102.176 5.16C102.43 5.06667 102.603 4.98 102.696 4.9H103.776V16.78C103.776 16.9667 103.77 17.2333 103.756 17.58C103.743 17.9133 103.723 18.2333 103.696 18.54C103.923 18.5133 104.163 18.5 104.416 18.5C104.67 18.4867 104.863 18.48 104.996 18.48V20H101.196C101.183 19.8533 101.163 19.7 101.136 19.54C101.123 19.38 101.103 19.2267 101.076 19.08C100.636 19.5333 100.183 19.8533 99.7162 20.04C99.2495 20.2267 98.7628 20.32 98.2562 20.32ZM99.2962 18.5C99.6428 18.5 99.9628 18.4133 100.256 18.24C100.55 18.0533 100.783 17.82 100.956 17.54C100.956 17.34 100.956 17.14 100.956 16.94C100.956 16.74 100.956 16.54 100.956 16.34V11.54C100.823 11.4333 100.623 11.3467 100.356 11.28C100.09 11.2 99.8162 11.16 99.5362 11.16C98.9228 11.1733 98.4428 11.3667 98.0962 11.74C97.7495 12.1133 97.5028 12.5867 97.3562 13.16C97.2228 13.7333 97.1562 14.3333 97.1562 14.96C97.1562 15.52 97.2228 16.0733 97.3562 16.62C97.5028 17.1667 97.7295 17.62 98.0362 17.98C98.3562 18.3267 98.7762 18.5 99.2962 18.5ZM111.87 20C111.844 19.8133 111.824 19.66 111.81 19.54C111.81 19.4067 111.804 19.2533 111.79 19.08C111.337 19.5333 110.857 19.8533 110.35 20.04C109.844 20.2267 109.33 20.32 108.81 20.32C107.957 20.32 107.29 20.0667 106.81 19.56C106.33 19.0533 106.09 18.42 106.09 17.66C106.09 17.02 106.25 16.4733 106.57 16.02C106.904 15.5667 107.337 15.2 107.87 14.92C108.417 14.6267 109.017 14.4067 109.67 14.26C110.337 14.1 111.004 14.0067 111.67 13.98V12.94C111.67 12.5933 111.624 12.28 111.53 12C111.45 11.72 111.304 11.5 111.09 11.34C110.89 11.18 110.604 11.1067 110.23 11.12C109.977 11.1333 109.73 11.1867 109.49 11.28C109.25 11.3733 109.044 11.5067 108.87 11.68C108.977 11.8 109.044 11.9333 109.07 12.08C109.097 12.2133 109.11 12.3333 109.11 12.44C109.11 12.7067 109.004 12.9867 108.79 13.28C108.577 13.56 108.237 13.6933 107.77 13.68C107.37 13.6667 107.064 13.5267 106.85 13.26C106.637 12.9933 106.53 12.68 106.53 12.32C106.53 11.7867 106.717 11.3267 107.09 10.94C107.477 10.54 107.99 10.2333 108.63 10.02C109.27 9.79333 109.977 9.68 110.75 9.68C111.924 9.68 112.83 9.98667 113.47 10.6C114.124 11.2 114.45 12.1667 114.45 13.5C114.45 13.9533 114.45 14.34 114.45 14.66C114.45 14.98 114.444 15.3 114.43 15.62C114.43 15.94 114.43 16.3267 114.43 16.78C114.43 16.9667 114.424 17.2333 114.41 17.58C114.397 17.9133 114.377 18.2333 114.35 18.54C114.577 18.5133 114.817 18.5 115.07 18.5C115.324 18.4867 115.517 18.48 115.65 18.48V20H111.87ZM111.65 15.4C111.277 15.44 110.924 15.5067 110.59 15.6C110.257 15.6933 109.964 15.82 109.71 15.98C109.47 16.14 109.277 16.3333 109.13 16.56C108.997 16.7867 108.93 17.04 108.93 17.32C108.944 17.6933 109.064 17.96 109.29 18.12C109.517 18.28 109.777 18.36 110.07 18.36C110.377 18.36 110.664 18.2933 110.93 18.16C111.197 18.0267 111.437 17.8533 111.65 17.64C111.65 17.5067 111.65 17.38 111.65 17.26C111.65 17.1267 111.65 16.9933 111.65 16.86C111.65 16.62 111.65 16.38 111.65 16.14C111.65 15.8867 111.65 15.64 111.65 15.4ZM121.399 20.32C120.825 20.32 120.265 20.2467 119.719 20.1C119.172 19.9533 118.745 19.7667 118.439 19.54L118.479 20.14H116.959L116.879 16.7H118.179C118.219 17.1 118.379 17.4667 118.659 17.8C118.939 18.1333 119.305 18.4 119.759 18.6C120.212 18.7867 120.719 18.88 121.279 18.88C121.505 18.88 121.719 18.8467 121.919 18.78C122.132 18.7133 122.305 18.6067 122.439 18.46C122.585 18.3 122.659 18.1067 122.659 17.88C122.659 17.6267 122.565 17.42 122.379 17.26C122.205 17.1 121.945 16.9467 121.599 16.8C121.265 16.6533 120.845 16.4867 120.339 16.3C119.925 16.14 119.505 15.9733 119.079 15.8C118.665 15.6267 118.279 15.42 117.919 15.18C117.572 14.9267 117.292 14.62 117.079 14.26C116.865 13.8867 116.759 13.4333 116.759 12.9C116.759 12.5133 116.832 12.1333 116.979 11.76C117.125 11.3733 117.352 11.0267 117.659 10.72C117.965 10.4 118.352 10.1467 118.819 9.96C119.299 9.77333 119.865 9.68 120.519 9.68C120.879 9.68 121.285 9.74 121.739 9.86C122.205 9.96667 122.599 10.1333 122.919 10.36V9.78H124.439V13.32H123.139C123.059 12.8533 122.892 12.4533 122.639 12.12C122.399 11.7867 122.085 11.5333 121.699 11.36C121.312 11.1733 120.879 11.08 120.399 11.08C120.065 11.08 119.759 11.16 119.479 11.32C119.212 11.48 119.079 11.7533 119.079 12.14C119.079 12.4467 119.185 12.6933 119.399 12.88C119.612 13.0533 119.905 13.2 120.279 13.32C120.652 13.44 121.065 13.58 121.519 13.74C122.199 13.9667 122.799 14.2333 123.319 14.54C123.852 14.8467 124.272 15.22 124.579 15.66C124.885 16.0867 125.039 16.6133 125.039 17.24C125.039 17.9333 124.865 18.5067 124.519 18.96C124.172 19.4133 123.719 19.7533 123.159 19.98C122.612 20.2067 122.025 20.32 121.399 20.32Z" fill="black"/>
<path d="M74.7927 29.4365C74.4994 29.4498 74.2461 29.4898 74.0327 29.5565C73.8194 29.6231 73.6527 29.7765 73.5327 30.0165C73.4261 30.2431 73.3727 30.6298 73.3727 31.1765V38.8365C73.3727 39.1965 73.3661 39.5431 73.3527 39.8765C73.3394 40.2098 73.3194 40.4631 73.2927 40.6365C73.5061 40.6098 73.7727 40.5965 74.0927 40.5965C74.4261 40.5831 74.6594 40.5765 74.7927 40.5765V42.1165H69.0527V40.7965C69.3594 40.7831 69.6127 40.7431 69.8127 40.6765C70.0261 40.6098 70.1861 40.4565 70.2927 40.2165C70.4127 39.9765 70.4727 39.5898 70.4727 39.0565V31.3965C70.4727 31.0365 70.4794 30.6898 70.4927 30.3565C70.5194 30.0231 70.5394 29.7698 70.5527 29.5965C70.3394 29.6098 70.0727 29.6231 69.7527 29.6365C69.4327 29.6365 69.1994 29.6431 69.0527 29.6565V28.1165H74.7927V29.4365ZM76.3923 42.1165V40.8165C76.7656 40.8165 77.0323 40.7431 77.1923 40.5965C77.3523 40.4498 77.4523 40.2431 77.4923 39.9765C77.5456 39.6965 77.5723 39.3831 77.5723 39.0365V35.6765C77.5723 35.4365 77.5789 35.1698 77.5923 34.8765C77.6056 34.5698 77.6256 34.2698 77.6523 33.9765C77.4389 33.9898 77.1856 34.0031 76.8923 34.0165C76.6123 34.0165 76.3989 34.0231 76.2523 34.0365V32.5165C76.8656 32.5165 77.3856 32.4831 77.8123 32.4165C78.2389 32.3498 78.5723 32.2698 78.8123 32.1765C79.0656 32.0831 79.2389 31.9965 79.3323 31.9165H80.3123C80.3389 32.0898 80.3523 32.2165 80.3523 32.2965C80.3523 32.3765 80.3523 32.4565 80.3523 32.5365C80.3656 32.6031 80.3923 32.7298 80.4323 32.9165C80.6989 32.7031 81.0056 32.5165 81.3523 32.3565C81.6989 32.1831 82.0456 32.0498 82.3923 31.9565C82.7389 31.8498 83.0456 31.7965 83.3123 31.7965C84.5389 31.7965 85.4056 32.1498 85.9123 32.8565C86.4323 33.5498 86.6923 34.6698 86.6923 36.2165V38.8965C86.6923 39.0831 86.6856 39.3498 86.6723 39.6965C86.6589 40.0298 86.6389 40.3498 86.6123 40.6565C86.8389 40.6298 87.0789 40.6165 87.3323 40.6165C87.5856 40.6031 87.7789 40.5965 87.9123 40.5965V42.1165H82.6723V40.8165C83.0456 40.8165 83.3123 40.7431 83.4723 40.5965C83.6456 40.4498 83.7523 40.2431 83.7923 39.9765C83.8456 39.6965 83.8723 39.3831 83.8723 39.0365L83.8523 36.1965C83.8523 35.3298 83.7256 34.6898 83.4723 34.2765C83.2323 33.8498 82.8189 33.6365 82.2323 33.6365C81.8989 33.6365 81.5656 33.7098 81.2323 33.8565C80.9123 34.0031 80.6389 34.1765 80.4123 34.3765C80.4123 34.5631 80.4123 34.7565 80.4123 34.9565C80.4123 35.1431 80.4123 35.3298 80.4123 35.5165V38.8965C80.4123 39.0831 80.4056 39.3498 80.3923 39.6965C80.3789 40.0298 80.3589 40.3498 80.3323 40.6565C80.5456 40.6298 80.7789 40.6165 81.0323 40.6165C81.2989 40.6031 81.4989 40.5965 81.6323 40.5965V42.1165H76.3923ZM92.5341 42.1765L89.3741 35.2365C89.2275 34.9031 89.1208 34.6498 89.0541 34.4765C89.0008 34.3031 88.9608 34.1565 88.9341 34.0365C88.9208 33.9031 88.8941 33.7565 88.8541 33.5965L88.1141 33.6365V32.1165H92.7941V33.3965C92.5141 33.4098 92.3275 33.4898 92.2341 33.6365C92.1408 33.7831 92.1075 33.9765 92.1341 34.2165C92.1608 34.4431 92.2208 34.6898 92.3141 34.9565L93.3541 37.5165C93.4608 37.7698 93.5675 38.0298 93.6741 38.2965C93.7808 38.5631 93.8875 38.8298 93.9941 39.0965H94.0141C94.1208 38.8165 94.2208 38.5365 94.3141 38.2565C94.4208 37.9765 94.5208 37.6965 94.6141 37.4165L95.4741 34.9765C95.5941 34.6431 95.7008 34.3765 95.7941 34.1765C95.9008 33.9765 96.0141 33.7698 96.1341 33.5565L94.8941 33.6365V32.1165H98.6941V33.3965C98.3875 33.4498 98.1141 33.6231 97.8741 33.9165C97.6341 34.1965 97.4275 34.5165 97.2541 34.8765C97.0808 35.2231 96.9408 35.5298 96.8341 35.7965L94.2741 42.1765H92.5341ZM104.081 42.4365C103.108 42.4365 102.248 42.2231 101.501 41.7965C100.755 41.3565 100.175 40.7431 99.7615 39.9565C99.3482 39.1565 99.1415 38.2165 99.1415 37.1365C99.1415 36.2031 99.3482 35.3298 99.7615 34.5165C100.175 33.7031 100.755 33.0498 101.501 32.5565C102.261 32.0498 103.141 31.7965 104.141 31.7965C104.701 31.7965 105.248 31.8765 105.781 32.0365C106.315 32.1831 106.795 32.4431 107.221 32.8165C107.661 33.1898 108.008 33.6965 108.261 34.3365C108.528 34.9765 108.655 35.7765 108.641 36.7365L102.081 36.8565C102.081 37.5765 102.168 38.2231 102.341 38.7965C102.528 39.3698 102.828 39.8231 103.241 40.1565C103.655 40.4898 104.208 40.6565 104.901 40.6565C105.168 40.6565 105.468 40.6098 105.801 40.5165C106.148 40.4231 106.495 40.2698 106.841 40.0565C107.201 39.8298 107.535 39.5298 107.841 39.1565L108.741 39.9965C108.261 40.6765 107.748 41.1965 107.201 41.5565C106.655 41.9031 106.108 42.1365 105.561 42.2565C105.028 42.3765 104.535 42.4365 104.081 42.4365ZM102.201 35.4565H105.881C105.868 34.8965 105.788 34.4565 105.641 34.1365C105.508 33.8031 105.321 33.5631 105.081 33.4165C104.841 33.2698 104.561 33.1965 104.241 33.1965C103.655 33.1965 103.195 33.4098 102.861 33.8365C102.528 34.2498 102.308 34.7898 102.201 35.4565ZM114.703 42.4365C114.13 42.4365 113.57 42.3631 113.023 42.2165C112.477 42.0698 112.05 41.8831 111.743 41.6565L111.783 42.2565H110.263L110.183 38.8165H111.483C111.523 39.2165 111.683 39.5831 111.963 39.9165C112.243 40.2498 112.61 40.5165 113.063 40.7165C113.517 40.9031 114.023 40.9965 114.583 40.9965C114.81 40.9965 115.023 40.9631 115.223 40.8965C115.437 40.8298 115.61 40.7231 115.743 40.5765C115.89 40.4165 115.963 40.2231 115.963 39.9965C115.963 39.7431 115.87 39.5365 115.683 39.3765C115.51 39.2165 115.25 39.0631 114.903 38.9165C114.57 38.7698 114.15 38.6031 113.643 38.4165C113.23 38.2565 112.81 38.0898 112.383 37.9165C111.97 37.7431 111.583 37.5365 111.223 37.2965C110.877 37.0431 110.597 36.7365 110.383 36.3765C110.17 36.0031 110.063 35.5498 110.063 35.0165C110.063 34.6298 110.137 34.2498 110.283 33.8765C110.43 33.4898 110.657 33.1431 110.963 32.8365C111.27 32.5165 111.657 32.2631 112.123 32.0765C112.603 31.8898 113.17 31.7965 113.823 31.7965C114.183 31.7965 114.59 31.8565 115.043 31.9765C115.51 32.0831 115.903 32.2498 116.223 32.4765V31.8965H117.743V35.4365H116.443C116.363 34.9698 116.197 34.5698 115.943 34.2365C115.703 33.9031 115.39 33.6498 115.003 33.4765C114.617 33.2898 114.183 33.1965 113.703 33.1965C113.37 33.1965 113.063 33.2765 112.783 33.4365C112.517 33.5965 112.383 33.8698 112.383 34.2565C112.383 34.5631 112.49 34.8098 112.703 34.9965C112.917 35.1698 113.21 35.3165 113.583 35.4365C113.957 35.5565 114.37 35.6965 114.823 35.8565C115.503 36.0831 116.103 36.3498 116.623 36.6565C117.157 36.9631 117.577 37.3365 117.883 37.7765C118.19 38.2031 118.343 38.7298 118.343 39.3565C118.343 40.0498 118.17 40.6231 117.823 41.0765C117.477 41.5298 117.023 41.8698 116.463 42.0965C115.917 42.3231 115.33 42.4365 114.703 42.4365ZM123.77 42.4365C123.37 42.4365 122.984 42.3898 122.61 42.2965C122.25 42.2031 121.917 42.0298 121.61 41.7765C121.317 41.5098 121.084 41.1231 120.91 40.6165C120.737 40.1098 120.65 39.4365 120.65 38.5965L120.69 33.7765H119.33V32.1165C119.744 32.1031 120.144 31.9631 120.53 31.6965C120.917 31.4298 121.244 31.0831 121.51 30.6565C121.79 30.2298 121.977 29.7831 122.07 29.3165H123.55L123.53 32.1165H126.07V33.6565L123.53 33.7165L123.51 38.6365C123.51 38.9431 123.537 39.2498 123.59 39.5565C123.657 39.8498 123.777 40.0965 123.95 40.2965C124.124 40.4831 124.377 40.5765 124.71 40.5765C124.897 40.5765 125.15 40.5098 125.47 40.3765C125.804 40.2431 126.157 39.9098 126.53 39.3765L127.49 40.2765C127.13 40.8098 126.757 41.2231 126.37 41.5165C125.984 41.8098 125.61 42.0231 125.25 42.1565C124.904 42.2898 124.597 42.3698 124.33 42.3965C124.064 42.4231 123.877 42.4365 123.77 42.4365ZM128.072 42.1165V40.8165C128.445 40.8165 128.712 40.7431 128.872 40.5965C129.032 40.4498 129.132 40.2431 129.172 39.9765C129.225 39.6965 129.252 39.3831 129.252 39.0365V35.6765C129.252 35.4365 129.259 35.1698 129.272 34.8765C129.285 34.5698 129.305 34.2698 129.332 33.9765C129.119 33.9898 128.865 34.0031 128.572 34.0165C128.292 34.0165 128.079 34.0231 127.932 34.0365V32.5165C128.545 32.5165 129.065 32.4831 129.492 32.4165C129.919 32.3498 130.252 32.2698 130.492 32.1765C130.745 32.0831 130.919 31.9965 131.012 31.9165H131.992C132.019 32.0498 132.032 32.2165 132.032 32.4165C132.045 32.6165 132.059 32.7831 132.072 32.9165C132.525 32.5698 133.012 32.2965 133.532 32.0965C134.065 31.8965 134.565 31.7965 135.032 31.7965C135.645 31.7965 136.152 31.9098 136.552 32.1365C136.952 32.3498 137.272 32.6765 137.512 33.1165C137.992 32.7165 138.519 32.3965 139.092 32.1565C139.679 31.9165 140.239 31.7965 140.772 31.7965C141.852 31.7965 142.665 32.1098 143.212 32.7365C143.772 33.3498 144.052 34.4231 144.052 35.9565V38.8965C144.052 39.0831 144.045 39.3498 144.032 39.6965C144.019 40.0298 143.999 40.3498 143.972 40.6565C144.185 40.6298 144.419 40.6165 144.672 40.6165C144.939 40.6031 145.139 40.5965 145.272 40.5965V42.1165H140.212V40.8165C140.519 40.8165 140.739 40.7431 140.872 40.5965C141.019 40.4498 141.112 40.2431 141.152 39.9765C141.192 39.6965 141.212 39.3831 141.212 39.0365V35.9765C141.199 35.1098 141.052 34.5098 140.772 34.1765C140.505 33.8431 140.145 33.6698 139.692 33.6565C139.345 33.6431 139.019 33.7031 138.712 33.8365C138.419 33.9698 138.152 34.1298 137.912 34.3165C137.979 34.5831 138.025 34.8765 138.052 35.1965C138.079 35.5165 138.092 35.8565 138.092 36.2165C138.092 36.6698 138.092 37.1165 138.092 37.5565C138.092 37.9965 138.092 38.4431 138.092 38.8965C138.092 39.0831 138.085 39.3498 138.072 39.6965C138.059 40.0298 138.039 40.3498 138.012 40.6565C138.225 40.6298 138.459 40.6165 138.712 40.6165C138.965 40.6031 139.165 40.5965 139.312 40.5965V42.1165H134.152V40.8165C134.499 40.8165 134.745 40.7431 134.892 40.5965C135.052 40.4498 135.152 40.2431 135.192 39.9765C135.232 39.6965 135.252 39.3831 135.252 39.0365L135.232 35.9165C135.232 35.0498 135.105 34.4565 134.852 34.1365C134.599 33.8165 134.245 33.6498 133.792 33.6365C133.459 33.6365 133.145 33.7098 132.852 33.8565C132.572 34.0031 132.319 34.1765 132.092 34.3765C132.092 34.5498 132.092 34.7165 132.092 34.8765C132.092 35.0365 132.092 35.2031 132.092 35.3765V38.8965C132.092 39.0831 132.085 39.3498 132.072 39.6965C132.059 40.0298 132.039 40.3498 132.012 40.6565C132.225 40.6298 132.445 40.6165 132.672 40.6165C132.899 40.6031 133.079 40.5965 133.212 40.5965V42.1165H128.072ZM151.21 42.4365C150.237 42.4365 149.377 42.2231 148.63 41.7965C147.884 41.3565 147.304 40.7431 146.89 39.9565C146.477 39.1565 146.27 38.2165 146.27 37.1365C146.27 36.2031 146.477 35.3298 146.89 34.5165C147.304 33.7031 147.884 33.0498 148.63 32.5565C149.39 32.0498 150.27 31.7965 151.27 31.7965C151.83 31.7965 152.377 31.8765 152.91 32.0365C153.444 32.1831 153.924 32.4431 154.35 32.8165C154.79 33.1898 155.137 33.6965 155.39 34.3365C155.657 34.9765 155.784 35.7765 155.77 36.7365L149.21 36.8565C149.21 37.5765 149.297 38.2231 149.47 38.7965C149.657 39.3698 149.957 39.8231 150.37 40.1565C150.784 40.4898 151.337 40.6565 152.03 40.6565C152.297 40.6565 152.597 40.6098 152.93 40.5165C153.277 40.4231 153.624 40.2698 153.97 40.0565C154.33 39.8298 154.664 39.5298 154.97 39.1565L155.87 39.9965C155.39 40.6765 154.877 41.1965 154.33 41.5565C153.784 41.9031 153.237 42.1365 152.69 42.2565C152.157 42.3765 151.664 42.4365 151.21 42.4365ZM149.33 35.4565H153.01C152.997 34.8965 152.917 34.4565 152.77 34.1365C152.637 33.8031 152.45 33.5631 152.21 33.4165C151.97 33.2698 151.69 33.1965 151.37 33.1965C150.784 33.1965 150.324 33.4098 149.99 33.8365C149.657 34.2498 149.437 34.7898 149.33 35.4565ZM157.232 42.1165V40.8165C157.605 40.8165 157.872 40.7431 158.032 40.5965C158.192 40.4498 158.292 40.2431 158.332 39.9765C158.385 39.6965 158.412 39.3831 158.412 39.0365V35.6765C158.412 35.4365 158.419 35.1698 158.432 34.8765C158.445 34.5698 158.465 34.2698 158.492 33.9765C158.279 33.9898 158.025 34.0031 157.732 34.0165C157.452 34.0165 157.239 34.0231 157.092 34.0365V32.5165C157.705 32.5165 158.225 32.4831 158.652 32.4165C159.079 32.3498 159.412 32.2698 159.652 32.1765C159.905 32.0831 160.079 31.9965 160.172 31.9165H161.152C161.179 32.0898 161.192 32.2165 161.192 32.2965C161.192 32.3765 161.192 32.4565 161.192 32.5365C161.205 32.6031 161.232 32.7298 161.272 32.9165C161.539 32.7031 161.845 32.5165 162.192 32.3565C162.539 32.1831 162.885 32.0498 163.232 31.9565C163.579 31.8498 163.885 31.7965 164.152 31.7965C165.379 31.7965 166.245 32.1498 166.752 32.8565C167.272 33.5498 167.532 34.6698 167.532 36.2165V38.8965C167.532 39.0831 167.525 39.3498 167.512 39.6965C167.499 40.0298 167.479 40.3498 167.452 40.6565C167.679 40.6298 167.919 40.6165 168.172 40.6165C168.425 40.6031 168.619 40.5965 168.752 40.5965V42.1165H163.512V40.8165C163.885 40.8165 164.152 40.7431 164.312 40.5965C164.485 40.4498 164.592 40.2431 164.632 39.9765C164.685 39.6965 164.712 39.3831 164.712 39.0365L164.692 36.1965C164.692 35.3298 164.565 34.6898 164.312 34.2765C164.072 33.8498 163.659 33.6365 163.072 33.6365C162.739 33.6365 162.405 33.7098 162.072 33.8565C161.752 34.0031 161.479 34.1765 161.252 34.3765C161.252 34.5631 161.252 34.7565 161.252 34.9565C161.252 35.1431 161.252 35.3298 161.252 35.5165V38.8965C161.252 39.0831 161.245 39.3498 161.232 39.6965C161.219 40.0298 161.199 40.3498 161.172 40.6565C161.385 40.6298 161.619 40.6165 161.872 40.6165C162.139 40.6031 162.339 40.5965 162.472 40.5965V42.1165H157.232ZM173.79 42.4365C173.39 42.4365 173.003 42.3898 172.63 42.2965C172.27 42.2031 171.936 42.0298 171.63 41.7765C171.336 41.5098 171.103 41.1231 170.93 40.6165C170.756 40.1098 170.67 39.4365 170.67 38.5965L170.71 33.7765H169.35V32.1165C169.763 32.1031 170.163 31.9631 170.55 31.6965C170.936 31.4298 171.263 31.0831 171.53 30.6565C171.81 30.2298 171.996 29.7831 172.09 29.3165H173.57L173.55 32.1165H176.09V33.6565L173.55 33.7165L173.53 38.6365C173.53 38.9431 173.556 39.2498 173.61 39.5565C173.676 39.8498 173.796 40.0965 173.97 40.2965C174.143 40.4831 174.396 40.5765 174.73 40.5765C174.916 40.5765 175.17 40.5098 175.49 40.3765C175.823 40.2431 176.176 39.9098 176.55 39.3765L177.51 40.2765C177.15 40.8098 176.776 41.2231 176.39 41.5165C176.003 41.8098 175.63 42.0231 175.27 42.1565C174.923 42.2898 174.616 42.3698 174.35 42.3965C174.083 42.4231 173.896 42.4365 173.79 42.4365ZM182.691 42.4365C182.118 42.4365 181.558 42.3631 181.011 42.2165C180.465 42.0698 180.038 41.8831 179.731 41.6565L179.771 42.2565H178.251L178.171 38.8165H179.471C179.511 39.2165 179.671 39.5831 179.951 39.9165C180.231 40.2498 180.598 40.5165 181.051 40.7165C181.505 40.9031 182.011 40.9965 182.571 40.9965C182.798 40.9965 183.011 40.9631 183.211 40.8965C183.425 40.8298 183.598 40.7231 183.731 40.5765C183.878 40.4165 183.951 40.2231 183.951 39.9965C183.951 39.7431 183.858 39.5365 183.671 39.3765C183.498 39.2165 183.238 39.0631 182.891 38.9165C182.558 38.7698 182.138 38.6031 181.631 38.4165C181.218 38.2565 180.798 38.0898 180.371 37.9165C179.958 37.7431 179.571 37.5365 179.211 37.2965C178.865 37.0431 178.585 36.7365 178.371 36.3765C178.158 36.0031 178.051 35.5498 178.051 35.0165C178.051 34.6298 178.125 34.2498 178.271 33.8765C178.418 33.4898 178.645 33.1431 178.951 32.8365C179.258 32.5165 179.645 32.2631 180.111 32.0765C180.591 31.8898 181.158 31.7965 181.811 31.7965C182.171 31.7965 182.578 31.8565 183.031 31.9765C183.498 32.0831 183.891 32.2498 184.211 32.4765V31.8965H185.731V35.4365H184.431C184.351 34.9698 184.185 34.5698 183.931 34.2365C183.691 33.9031 183.378 33.6498 182.991 33.4765C182.605 33.2898 182.171 33.1965 181.691 33.1965C181.358 33.1965 181.051 33.2765 180.771 33.4365C180.505 33.5965 180.371 33.8698 180.371 34.2565C180.371 34.5631 180.478 34.8098 180.691 34.9965C180.905 35.1698 181.198 35.3165 181.571 35.4365C181.945 35.5565 182.358 35.6965 182.811 35.8565C183.491 36.0831 184.091 36.3498 184.611 36.6565C185.145 36.9631 185.565 37.3365 185.871 37.7765C186.178 38.2031 186.331 38.7298 186.331 39.3565C186.331 40.0498 186.158 40.6231 185.811 41.0765C185.465 41.5298 185.011 41.8698 184.451 42.0965C183.905 42.3231 183.318 42.4365 182.691 42.4365Z" fill="black"/>
</svg>
