<svg width="200" height="54" viewBox="0 0 200 54" fill="none" xmlns="http://www.w3.org/2000/svg">
<path d="M64.3732 1.5458C63.601 1.54383 62.836 1.69401 62.1218 1.98777C61.4077 2.28152 60.7584 2.7131 60.2111 3.25784C59.6637 3.80259 59.2291 4.44982 58.932 5.16258C58.6348 5.87534 58.481 6.63965 58.4794 7.41186C58.481 8.18407 58.6348 8.94838 58.932 9.66114C59.2291 10.3739 59.6637 11.0211 60.2111 11.5659C60.7584 12.1106 61.4077 12.5422 62.1218 12.836C62.836 13.1297 63.601 13.2799 64.3732 13.2779C65.1453 13.2796 65.9101 13.1292 66.624 12.8353C67.3379 12.5415 67.9869 12.1098 68.534 11.5651C69.0811 11.0204 69.5156 10.3733 69.8126 9.66065C70.1096 8.94803 70.2633 8.18389 70.265 7.41186C70.2616 5.85305 69.6392 4.3594 68.5348 3.25936C67.4303 2.15932 65.9342 1.54295 64.3754 1.5458H64.3732ZM129.198 26.5708V18.1635H121.126V1.5458L111.366 7.15495V39.3327C111.366 47.117 115.935 51.8484 124.629 51.8484C126.256 51.8484 127.757 51.6621 129.198 51.2275V43.1949C128.461 43.3764 127.704 43.4599 126.945 43.4432C123.128 43.4432 121.126 41.9489 121.126 38.1509V26.5686H129.198V26.5708ZM38.3656 26.5065C41.9944 26.5065 43.8099 28.626 43.8099 32.8607V51.4159H53.5681V30.6813C53.5681 22.6486 49.6289 17.4163 41.8082 17.4163C37.1153 17.4163 33.9874 19.0369 30.7333 22.7107C28.8579 19.1611 25.6037 17.4163 20.9751 17.4163C16.9716 17.4163 13.0302 19.2853 11.2147 22.5223H11.0905V18.1635H1.51855V51.4159H11.2789V32.9828C11.2789 29.0606 13.2807 26.5087 17.2221 26.5087C20.8487 26.5087 22.6642 28.6881 22.6642 32.9849V51.4159H32.3604V32.8607C32.3604 28.9365 34.5505 26.5087 38.3656 26.5087V26.5065ZM198.481 41.3922C198.481 35.6011 194.039 32.302 185.593 30.5593C182.654 29.9363 181.215 28.9386 181.215 27.5063C181.215 26.2004 182.716 25.0786 184.718 25.0786C187.533 25.0786 189.535 26.1383 190.787 28.2535L197.856 24.083C195.666 20.0346 191.162 17.3585 184.968 17.3585C181.466 17.3585 178.462 18.354 175.897 20.345C173.394 22.2761 172.144 24.8302 172.144 27.881C172.144 33.2975 176.083 36.9092 184.03 38.6519C188.284 39.5874 189.348 40.583 189.348 41.891C189.348 43.197 187.721 44.3188 185.281 44.3188C181.654 44.3188 179.151 42.9487 177.775 40.2725L170.581 44.5051C173.27 49.6111 178.149 52.1652 185.156 52.1652C193.414 52.1652 198.481 47.8064 198.481 41.3922ZM142.154 34.7297C142.154 32.302 142.966 30.2467 144.531 28.6903C146.094 27.0696 148.033 26.2625 150.348 26.2625C152.662 26.2625 154.666 27.0696 156.229 28.6903C157.791 30.2467 158.605 32.302 158.605 34.7297C158.605 39.7116 155.102 43.2591 150.41 43.2591C148.097 43.2591 146.094 42.452 144.531 40.8934C142.966 39.2749 142.154 37.2217 142.154 34.7297ZM132.143 34.8539C132.143 39.8358 133.895 43.9463 137.397 47.2454C140.902 50.5446 145.218 52.1652 150.35 52.1652C155.415 52.1652 159.731 50.4825 163.298 47.1834C166.865 43.8221 168.616 39.6474 168.616 34.6677C168.616 29.7479 166.865 25.7016 163.36 22.4003C159.857 19.1012 155.541 17.4184 150.472 17.4184C145.406 17.4184 141.026 19.1012 137.461 22.4645C133.895 25.7615 132.143 29.9363 132.143 34.8539ZM106.457 51.4181V30.7434C106.457 27.0097 105.455 23.8946 103.391 21.3427C101.389 18.7907 98.3857 17.5447 94.3822 17.5447C92.9436 17.5447 91.1923 17.6068 88.2507 19.2874C86.8738 20.0472 85.7285 21.1658 84.9366 22.5245H84.8724V18.1635H75.1762V51.4159H84.9366V32.9828C84.9366 29.3111 87.0004 26.5087 90.9418 26.5087C94.7569 26.5087 96.7587 29.0606 96.7587 32.9849V51.4159H106.457V51.4181ZM59.492 51.4181H69.3144V18.1635H59.4941V51.4159L59.492 51.4181Z" fill="black"/>
</svg>
