<svg width="200" height="63" viewBox="0 0 200 63" fill="none" xmlns="http://www.w3.org/2000/svg">
<g clip-path="url(#clip0_33542_1342)">
<path d="M6.0559 51.9703V24.083L0.28125 28.3084V62.5337L13.9432 52.8154V46.4774L6.0559 51.9703Z" fill="url(#paint0_linear_33542_1342)"/>
<path d="M23.0986 34.9281L10 44.5056V10.2802L23.0986 0.702759V34.9281Z" fill="url(#paint1_linear_33542_1342)"/>
<path d="M58.8728 24.5055C60.3366 24.4962 61.7877 24.7776 63.1419 25.3335C64.4961 25.8893 65.7264 26.7086 66.7615 27.7436C67.7966 28.7787 68.6158 30.0091 69.1717 31.3632C69.7275 32.7174 70.009 34.1685 69.9996 35.6323V46.7591H66.0559V35.6323C66.0681 34.7086 65.8863 33.7926 65.5224 32.9435C65.1585 32.0943 64.6205 31.331 63.9433 30.7027C62.6265 29.4288 60.8735 28.7049 59.0416 28.6788C57.2097 28.6526 55.4367 29.3261 54.0841 30.5619C52.8019 31.7773 52.0441 33.4446 51.9714 35.2098V46.7591H47.6052V35.2098C47.5981 34.3303 47.4063 33.4622 47.0424 32.6615C46.6785 31.8609 46.1505 31.1455 45.4926 30.5619C44.8971 29.9377 44.1729 29.4506 43.3703 29.1344C42.5677 28.8182 41.7059 28.6805 40.8447 28.7309C39.9556 28.7256 39.0744 28.8972 38.2522 29.2358C37.4301 29.5743 36.6835 30.0729 36.0559 30.7027C34.7807 32.0257 34.0731 33.7948 34.0841 35.6323V46.7591H29.7179V35.6323C29.7105 34.1689 29.9929 32.7184 30.5489 31.3647C31.1049 30.011 31.9235 28.7807 32.9574 27.745C33.9732 26.6845 35.1997 25.8484 36.5581 25.2904C37.9166 24.7325 39.3767 24.4652 40.8447 24.5055C42.6141 24.4759 44.3633 24.8849 45.9362 25.6959C47.5091 26.5069 48.8567 27.6948 49.8588 29.1534C50.8974 27.7398 52.2466 26.5834 53.8024 25.7731C55.3047 24.7989 57.0888 24.3529 58.8728 24.5055Z" fill="#394A52"/>
<path d="M82.8168 46.8013C81.3494 46.8107 79.8948 46.528 78.5378 45.9695C77.1809 45.411 75.9486 44.588 74.913 43.5484C73.8773 42.5088 73.059 41.2735 72.5056 39.9144C71.9523 38.5553 71.675 37.0996 71.69 35.6323C71.682 33.4427 72.3202 31.2993 73.5247 29.4707C74.7291 27.6421 76.4464 26.2095 78.4613 25.3524C80.4763 24.4953 82.6993 24.2518 84.852 24.6523C87.0048 25.0529 88.9914 26.0797 90.5633 27.6041L90.7041 27.745C92.2681 29.3012 93.3342 31.2873 93.7667 33.4509C94.1993 35.6144 93.9789 37.8577 93.1335 39.8957C92.2881 41.9337 90.856 43.6743 89.019 44.8964C87.182 46.1185 85.0231 46.7668 82.8168 46.7591V46.8013ZM77.8872 40.4633C79.2036 41.7536 80.9735 42.4764 82.8168 42.4764C84.6601 42.4764 86.43 41.7536 87.7464 40.4633C89.0313 39.1726 89.7527 37.4254 89.7527 35.6041C89.7527 33.7829 89.0313 32.0357 87.7464 30.745C86.43 29.4547 84.6601 28.7319 82.8168 28.7319C80.9735 28.7319 79.2036 29.4547 77.8872 30.745C76.6023 32.0357 75.8809 33.7829 75.8809 35.6041C75.8809 37.4254 76.6023 39.1726 77.8872 40.4633Z" fill="#394A52"/>
<path d="M98.7326 27.6042C100.289 26.0401 102.275 24.9741 104.438 24.5415C106.602 24.1089 108.845 24.3293 110.883 25.1747C112.921 26.0201 114.662 27.4523 115.884 29.2893C117.106 31.1263 117.754 33.2851 117.747 35.4915V46.7591H113.803V35.4915C113.782 33.6544 113.053 31.8964 111.767 30.5842C110.481 29.2721 108.738 28.5072 106.902 28.4492C105.064 28.4382 103.295 29.1458 101.972 30.4211C101.295 31.0493 100.757 31.8127 100.393 32.6618C100.029 33.5109 99.8472 34.4269 99.8594 35.3506V46.6182H95.4932V35.3506C95.5062 32.4417 96.671 29.6564 98.7326 27.6042Z" fill="#394A52"/>
<path d="M122.958 43.5196C121.921 42.4848 121.098 41.2554 120.536 39.902C119.975 38.5486 119.686 37.0976 119.686 35.6323C119.686 34.167 119.975 32.7161 120.536 31.3627C121.098 30.0092 121.921 28.7799 122.958 27.745C123.974 26.6845 125.201 25.8484 126.559 25.2905C127.917 24.7325 129.378 24.4652 130.846 24.5056H142.113V28.4492H130.846C129.002 28.4489 127.232 29.1714 125.915 30.4618C124.598 31.7522 123.84 33.5074 123.803 35.3506C123.85 37.2037 124.606 38.9681 125.917 40.2789C127.228 41.5897 128.992 42.3465 130.846 42.3929H142.113V46.7591H130.846C129.378 46.7934 127.92 46.5233 126.562 45.9657C125.205 45.4082 123.978 44.5753 122.958 43.5196Z" fill="#394A52"/>
<path d="M164.789 28.745H153.803C151.996 28.741 150.259 29.4476 148.968 30.7123C147.677 31.977 146.935 33.6985 146.902 35.5056V36.0689C147.029 37.4623 147.568 38.7862 148.451 39.8718C149.091 40.6284 149.89 41.2351 150.79 41.6489C151.691 42.0627 152.671 42.2734 153.662 42.2661H164.648V46.6323H153.522C152.058 46.6417 150.607 46.3603 149.252 45.8044C147.898 45.2485 146.668 44.4293 145.633 43.3942C144.598 42.3591 143.779 41.1288 143.223 39.7746C142.667 38.4204 142.385 36.9694 142.395 35.5056C142.387 34.042 142.669 32.5913 143.225 31.2375C143.781 29.8837 144.6 28.6535 145.634 27.6182C146.649 26.5552 147.875 25.7164 149.233 25.1561C150.592 24.5957 152.053 24.3261 153.522 24.3647H164.648V28.7309L164.789 28.745ZM151.691 36.914C151.285 36.5005 151.057 35.9442 151.057 35.3647C151.057 34.7852 151.285 34.2289 151.691 33.8154C152.096 33.3884 152.652 33.1359 153.24 33.1112H159.014V37.4774H153.24C152.954 37.5233 152.661 37.4942 152.389 37.393C152.117 37.2918 151.877 37.1219 151.691 36.8999V36.914Z" fill="#87A330"/>
<path d="M166.901 46.759V35.3505C166.92 32.4426 168.083 29.659 170.139 27.6027C172.196 25.5465 174.979 24.3831 177.887 24.3646V28.59C176.964 28.5778 176.048 28.7596 175.198 29.1235C174.349 29.4874 173.586 30.0254 172.958 30.7027C172.28 31.3309 171.742 32.0943 171.379 32.9434C171.015 33.7925 170.833 34.7085 170.845 35.6322V46.759H166.901Z" fill="#87A330"/>
<path d="M200.113 35.9844V46.759H195.775V44.3787C193.669 45.9281 191.122 46.7622 188.507 46.759C186.844 46.7668 185.199 46.4219 183.679 45.7469C182.159 45.072 180.8 44.0824 179.69 42.8435C177.819 40.738 176.836 37.9898 176.946 35.1751C177.056 32.3604 178.252 29.6976 180.282 27.7449C181.918 26.137 183.992 25.0468 186.244 24.6105C188.497 24.1741 190.828 24.411 192.946 25.2914C195.065 26.1719 196.877 27.6569 198.156 29.5612C199.436 31.4654 200.126 33.7043 200.141 35.9985L200.113 35.9844ZM183.549 40.5055C184.866 41.7958 186.636 42.5186 188.479 42.5186C190.322 42.5186 192.092 41.7958 193.409 40.5055C194.689 39.2028 195.42 37.4584 195.451 35.6323C195.501 34.698 195.362 33.7632 195.042 32.8842C194.721 32.0051 194.226 31.2001 193.586 30.5176C192.946 29.8351 192.175 29.2893 191.318 28.913C190.461 28.5367 189.538 28.3379 188.602 28.3284C187.666 28.3188 186.739 28.4989 185.874 28.8576C185.01 29.2164 184.228 29.7464 183.574 30.4157C182.92 31.0851 182.409 31.8799 182.071 32.7522C181.732 33.6245 181.574 34.5563 181.606 35.4914C181.586 36.4171 181.748 37.3377 182.084 38.2004C182.42 39.0632 182.923 39.8513 183.564 40.5196L183.549 40.5055Z" fill="#87A330"/>
</g>
<defs>
<linearGradient id="paint0_linear_33542_1342" x1="-7.28213" y1="54.9703" x2="14.7601" y2="32.914" gradientUnits="userSpaceOnUse">
<stop stop-color="#87A330"/>
<stop offset="0.18" stop-color="#8BA631"/>
<stop offset="0.35" stop-color="#96B133"/>
<stop offset="0.51" stop-color="#A7C136"/>
<stop offset="0.65" stop-color="#97B233"/>
<stop offset="0.82" stop-color="#8BA731"/>
<stop offset="0.99" stop-color="#87A330"/>
</linearGradient>
<linearGradient id="paint1_linear_33542_1342" x1="2.26761" y1="36.8859" x2="30.7746" y2="8.37882" gradientUnits="userSpaceOnUse">
<stop stop-color="#CCCCCC"/>
<stop offset="0.15" stop-color="#D0D0D0"/>
<stop offset="0.28" stop-color="#DBDBDB"/>
<stop offset="0.42" stop-color="#EEEEEE"/>
<stop offset="0.51" stop-color="white"/>
<stop offset="0.59" stop-color="#F0F0F0"/>
<stop offset="0.72" stop-color="#DCDCDC"/>
<stop offset="0.86" stop-color="#D0D0D0"/>
<stop offset="0.99" stop-color="#CCCCCC"/>
</linearGradient>
<clipPath id="clip0_33542_1342">
<rect width="200" height="61.9718" fill="white" transform="translate(0 0.421021)"/>
</clipPath>
</defs>
</svg>
