<?xml version="1.0" standalone="no"?>
<!DOCTYPE svg PUBLIC "-//W3C//DTD SVG 20010904//EN"
 "http://www.w3.org/TR/2001/REC-SVG-20010904/DTD/svg10.dtd">
<svg version="1.0" xmlns="http://www.w3.org/2000/svg"
 width="360.000000pt" height="83.000000pt" viewBox="0 0 360.000000 83.000000"
 preserveAspectRatio="xMidYMid meet">

<g transform="translate(0.000000,83.000000) scale(0.100000,-0.100000)"
fill="#000000" stroke="none">
<path d="M543 820 c-65 -13 -82 -27 -95 -75 -9 -31 -17 -45 -29 -45 -10 0 -21
-4 -24 -10 -3 -5 -41 -10 -83 -10 -42 0 -88 -6 -102 -13 -34 -17 -49 -66 -49
-166 -1 -83 -1 -84 33 -116 21 -20 61 -40 105 -55 76 -24 108 -47 50 -35 -27
5 -118 44 -149 62 -4 3 4 -319 8 -324 1 -1 15 -9 32 -18 24 -13 90 -15 425
-15 l397 0 29 29 29 29 0 151 0 150 -44 -25 c-38 -21 -127 -54 -148 -54 -5 0
-8 4 -8 9 0 5 30 18 68 30 142 44 167 75 166 209 -1 87 -2 95 -27 120 -24 23
-37 27 -105 30 -42 2 -81 8 -87 13 -5 5 -19 9 -31 9 -17 0 -23 8 -28 38 -3 21
-14 46 -24 55 -36 33 -205 47 -309 27z m249 -70 c24 -30 23 -36 -14 -54 -38
-20 -191 -22 -231 -3 -29 13 -36 47 -14 65 21 18 50 21 146 18 84 -3 97 -6
113 -26z m68 -262 c49 -45 90 -87 90 -93 0 -6 -19 -30 -43 -53 l-43 -42 -67
68 c-37 37 -67 73 -67 81 0 7 -21 -6 -46 -28 -35 -31 -55 -41 -80 -41 -21 0
-34 5 -33 13 2 15 173 177 188 177 6 0 51 -37 101 -82z m-251 46 c17 -14 31
-30 31 -36 0 -5 -23 -31 -51 -56 l-51 -46 22 -18 c12 -10 31 -18 42 -18 25 0
68 23 92 49 l20 22 72 -72 c61 -60 71 -75 63 -91 -5 -10 -14 -18 -18 -18 -5 0
-37 27 -72 60 -34 33 -65 57 -68 54 -3 -3 22 -31 57 -63 34 -32 62 -63 62 -68
0 -6 -7 -16 -16 -23 -13 -11 -24 -4 -79 50 -36 35 -67 62 -69 59 -3 -3 21 -32
54 -64 33 -33 60 -65 60 -72 0 -23 -22 -25 -36 -4 -8 12 -21 21 -28 21 -8 0
-16 9 -19 20 -3 11 -17 24 -31 30 -14 5 -26 16 -26 25 0 9 -11 20 -25 25 -14
5 -25 16 -25 24 0 13 -28 36 -44 36 -3 0 -21 -14 -41 -32 l-36 -31 -40 39
c-21 21 -39 42 -39 46 0 5 37 47 81 93 91 94 109 101 158 59z m-55 -211 c5
-11 -3 -27 -23 -47 -30 -29 -31 -29 -51 -11 l-20 18 27 29 c30 32 58 36 67 11z
m54 -58 c4 -26 -41 -70 -63 -61 -27 10 -29 36 -4 62 27 29 63 28 67 -1z m51
-44 c8 -14 4 -24 -19 -46 -29 -28 -30 -28 -50 -10 l-20 18 27 29 c31 33 48 35
62 9z m51 -46 c10 -12 9 -20 -4 -40 -23 -35 -43 -41 -67 -19 -19 17 -19 18 8
46 30 32 45 35 63 13z"/>
<path d="M1330 545 c0 -83 4 -135 10 -135 6 0 10 44 10 113 l1 112 30 -35 c16
-19 53 -70 81 -112 29 -43 57 -78 62 -78 15 0 12 263 -3 268 -7 2 -11 -32 -13
-102 l-3 -105 -77 104 c-43 58 -82 105 -88 105 -6 0 -10 -50 -10 -135z"/>
<path d="M1610 545 l0 -135 86 0 c54 0 83 4 79 10 -3 6 -38 10 -76 10 l-70 0
3 53 3 52 58 3 c76 4 73 22 -4 22 l-60 0 3 48 3 47 68 3 c94 4 84 22 -13 22
l-80 0 0 -135z"/>
<path d="M1873 668 c-13 -6 -32 -31 -44 -55 -57 -118 32 -240 150 -204 69 20
104 97 82 179 -16 59 -60 92 -119 91 -26 0 -57 -5 -69 -11z m118 -18 c28 -16
49 -63 49 -114 0 -58 -37 -104 -92 -113 -33 -5 -41 -2 -73 30 -30 30 -35 42
-35 81 0 51 20 99 47 115 23 13 79 14 104 1z"/>
<path d="M1552 301 c-8 -4 -12 -19 -10 -32 4 -30 45 -33 62 -6 9 15 7 21 -8
33 -23 16 -26 17 -44 5z"/>
<path d="M1320 145 l0 -135 30 0 c30 0 30 1 30 55 l0 55 55 0 c52 0 55 1 55
25 0 24 -3 25 -56 25 -54 0 -55 0 -52 28 3 26 6 27 66 30 59 3 63 5 60 25 -3
21 -9 22 -95 25 l-93 3 0 -136z"/>
<path d="M1680 212 c-24 -8 -25 -11 -28 -105 l-3 -97 31 0 30 0 0 81 0 80 27
-3 c32 -4 40 -26 42 -105 1 -50 3 -53 26 -53 25 0 25 1 25 79 0 98 -15 121
-80 127 -25 1 -56 0 -70 -4z"/>
<path d="M1908 214 c-19 -6 -23 -22 -10 -39 4 -5 25 -10 47 -10 30 0 41 -4 43
-17 3 -15 -4 -18 -35 -18 -51 0 -83 -23 -83 -60 0 -55 62 -81 149 -64 l31 7 0
77 c0 97 -15 120 -80 125 -25 2 -53 1 -62 -1z m82 -139 c0 -21 -5 -25 -30 -25
-23 0 -30 5 -30 19 0 20 12 29 43 30 12 1 17 -7 17 -24z"/>
<path d="M2128 213 l-28 -4 0 -100 0 -99 30 0 30 0 0 80 c0 70 2 80 18 80 32
0 42 -22 42 -92 l0 -68 30 0 30 0 0 70 c0 124 -31 151 -152 133z"/>
<path d="M2354 186 c-38 -38 -45 -85 -20 -135 31 -59 160 -74 149 -18 -4 19
-10 22 -37 19 -40 -5 -66 18 -66 58 0 39 26 63 61 58 22 -3 30 0 35 15 8 24
-10 37 -54 37 -25 0 -43 -9 -68 -34z"/>
<path d="M2553 201 c-37 -23 -53 -69 -42 -120 10 -45 37 -70 82 -78 55 -8 87
3 87 31 0 22 -3 23 -43 19 -34 -4 -46 -1 -61 16 l-19 21 73 0 73 0 -6 41 c-3
23 -14 50 -24 61 -29 29 -82 33 -120 9z m85 -53 c3 -15 -4 -18 -32 -18 -34 0
-47 15 -29 34 13 13 58 1 61 -16z"/>
<path d="M1540 110 l0 -100 30 0 30 0 0 100 0 100 -30 0 -30 0 0 -100z"/>
</g>
</svg>
