<svg width="200" height="90" viewBox="0 0 200 90" fill="none" xmlns="http://www.w3.org/2000/svg">
<path d="M152.174 15.7842H152.174C150.055 15.7842 148.338 17.5018 148.338 19.6205V70.7714C148.338 72.8902 150.055 74.6077 152.174 74.6077C154.293 74.6077 156.011 72.8902 156.011 70.7714V19.6205C156.011 17.5018 154.293 15.7842 152.174 15.7842Z" fill="black"/>
<path d="M47.3148 35.7333H47.3148C45.1961 35.7333 43.4785 37.4509 43.4785 39.5696V70.7716C43.4785 72.8904 45.1961 74.6079 47.3148 74.6079C49.4336 74.6079 51.1512 72.8904 51.1512 70.7716V39.5696C51.1512 37.4509 49.4336 35.7333 47.3148 35.7333Z" fill="black"/>
<path d="M47.3148 15.7842H47.3148C45.1961 15.7842 43.4785 17.5018 43.4785 19.6205V26.7816C43.4785 28.9004 45.1961 30.6179 47.3148 30.6179H47.3148C49.4336 30.6179 51.1512 28.9004 51.1512 26.7816V19.6205C51.1512 17.5018 49.4336 15.7842 47.3148 15.7842Z" fill="#2871C6"/>
<path fill-rule="evenodd" clip-rule="evenodd" d="M62.1489 15.7842C60.0303 15.7842 58.3125 17.5018 58.3125 19.6205V53.3802C58.3125 53.5646 58.3256 53.746 58.3507 53.9235C58.3254 54.3357 58.3125 54.7515 58.3125 55.1704C58.3125 66.1877 67.2438 75.1193 78.2614 75.1193C89.2787 75.1193 98.2101 66.1877 98.2101 55.1704C98.2101 44.1528 89.2787 35.2215 78.2614 35.2215C73.6316 35.2215 69.3703 36.7986 65.9852 39.4448V19.6205C65.9852 17.5018 64.2676 15.7842 62.1489 15.7842ZM65.9849 55.1704C65.9849 48.3904 71.4812 42.8942 78.2612 42.8942C85.0412 42.8942 90.5374 48.3904 90.5374 55.1704C90.5374 61.9502 85.0412 67.4466 78.2612 67.4466C71.4812 67.4466 65.9849 61.9502 65.9849 55.1704Z" fill="black"/>
<path fill-rule="evenodd" clip-rule="evenodd" d="M0 53.636C0 43.466 8.24438 35.2216 18.4143 35.2216C28.5842 35.2216 36.8287 43.466 36.8287 53.636V53.8858C36.8287 53.8878 36.8287 53.8898 36.8287 53.8916V56.7051V70.7713C36.8287 72.8902 35.1111 74.6078 32.9922 74.6078C31.1576 74.6078 29.6238 73.3198 29.2453 71.5987C29.2158 71.6204 29.1858 71.642 29.156 71.6633V70.7713V53.8916V53.6358C29.156 47.7033 24.3469 42.8942 18.4143 42.8942C12.4818 42.8942 7.67264 47.7033 7.67264 53.636V53.8916V70.7713V71.6633C7.64276 71.642 7.61296 71.6204 7.58322 71.5987C7.20493 73.3198 5.67104 74.6078 3.83631 74.6078C1.71758 74.6078 0 72.8902 0 70.7713V56.7049V53.8916V53.636Z" fill="black"/>
<path fill-rule="evenodd" clip-rule="evenodd" d="M106.65 15.7842C104.531 15.7842 102.813 17.5018 102.813 19.6205V53.3802C102.813 53.5653 102.827 53.7473 102.852 53.9255C102.827 54.3373 102.814 54.7522 102.814 55.1704C102.814 66.1877 111.745 75.1193 122.763 75.1193C133.78 75.1193 142.711 66.1877 142.711 55.1704C142.711 44.1528 133.78 35.2215 122.763 35.2215C118.133 35.2215 113.871 36.7988 110.486 39.4453V19.6205C110.486 17.5018 108.768 15.7842 106.65 15.7842ZM110.487 55.1704C110.487 48.3904 115.983 42.8942 122.763 42.8942C129.543 42.8942 135.039 48.3904 135.039 55.1704C135.039 61.9502 129.543 67.4466 122.763 67.4466C115.983 67.4466 110.487 61.9502 110.487 55.1704Z" fill="black"/>
<path fill-rule="evenodd" clip-rule="evenodd" d="M181.074 35.2216C170.622 35.2216 162.148 43.6949 162.148 54.1473V56.1936C162.148 66.646 170.622 75.1193 181.074 75.1193C184.383 75.1193 187.493 74.2704 190.199 72.7784C190.277 72.7542 190.355 72.7273 190.432 72.6973C192.264 71.9896 193.176 69.9304 192.468 68.0982L192.418 67.9693C191.71 66.1373 189.651 65.2258 187.819 65.9336C187.621 66.0102 187.434 66.1024 187.258 66.2087L187.256 66.2049C185.46 67.3164 183.342 67.9582 181.074 67.9582C175.455 67.9582 170.756 64.0187 169.588 58.7509H194.43C197.506 58.7509 200 56.2573 200 53.1811C200 53.0473 199.984 52.9176 199.952 52.7933C199.258 42.9729 191.071 35.2216 181.074 35.2216ZM192.56 51.5898C191.392 46.3222 186.693 42.3827 181.074 42.3827C175.455 42.3827 170.756 46.3222 169.588 51.5898H192.56Z" fill="black"/>
</svg>
