<svg width="200" height="32" viewBox="0 0 200 32" fill="none" xmlns="http://www.w3.org/2000/svg">
<path d="M9.72864 4.26672H2.77688C2.55026 4.26672 2.33284 4.35638 2.17209 4.51613C2.01135 4.67588 1.92034 4.89274 1.91895 5.11936V28.6155C1.92173 28.8414 2.01329 29.0571 2.17383 29.216C2.33438 29.3749 2.551 29.4642 2.77688 29.4647H5.57312C5.79897 29.4647 6.01568 29.3754 6.17604 29.2164C6.33641 29.0574 6.42743 28.8414 6.42929 28.6155V19.6972H9.78337C14.0201 19.6972 18.9894 17.6671 18.9894 11.9634C18.9894 6.25975 13.9671 4.26672 9.73571 4.26672H9.72864ZM6.3834 8.12038H9.61743C12.4596 8.12038 14.2213 9.64913 14.2213 12.1082C14.2213 14.5673 12.3572 15.9248 8.89895 15.9248H6.3834V8.12038Z" fill="#20194B"/>
<path d="M38.3282 18.7122C39.6698 18.3397 44.0778 16.7086 44.0778 11.6669C44.1068 10.5408 43.8483 9.42599 43.3266 8.42767C42.8048 7.42935 42.0372 6.58054 41.0962 5.96143C39.3149 4.82726 37.241 4.23823 35.1295 4.26673H28.2077C27.9813 4.26673 27.764 4.35645 27.6036 4.51625C27.4431 4.67605 27.3525 4.89292 27.3516 5.11938V28.6156C27.3534 28.8414 27.4445 29.0574 27.6048 29.2164C27.7652 29.3755 27.9819 29.4647 28.2077 29.4647H31.004C31.2298 29.4642 31.4465 29.3749 31.607 29.216C31.7676 29.0571 31.8591 28.8414 31.8619 28.6156V19.1571H33.4507L40.3354 29.0728C40.4152 29.1856 40.5211 29.2775 40.644 29.3408C40.7669 29.4041 40.9032 29.4369 41.0415 29.4364H44.4432C44.6016 29.4389 44.7575 29.3964 44.8928 29.314C45.0281 29.2315 45.1372 29.1124 45.2076 28.9704C45.2877 28.8253 45.3242 28.6601 45.3126 28.4947C45.301 28.3293 45.2419 28.1708 45.1423 28.0383L38.3282 18.7122ZM31.8142 8.12039H35.0112C37.6592 8.12039 39.3627 9.57324 39.3627 11.8469C39.3627 15.0633 35.8215 15.4164 34.2927 15.4164H31.8213L31.8142 8.12039Z" fill="#20194B"/>
<path d="M65.2142 3.83777C62.6335 3.83742 60.1107 4.60238 57.9648 6.03591C55.8189 7.46944 54.1463 9.50714 53.1586 11.8913C52.1708 14.2755 51.9123 16.899 52.4157 19.4301C52.919 21.9612 54.1617 24.2862 55.9865 26.111C57.8113 27.9358 60.1363 29.1785 62.6674 29.6819C65.1985 30.1852 67.8221 29.9267 70.2062 28.939C72.5904 27.9512 74.6281 26.2787 76.0616 24.1328C77.4951 21.9869 78.2601 19.464 78.2598 16.8834C78.2808 15.191 77.9682 13.5111 77.3399 11.9396C76.7116 10.3681 75.7799 8.93568 74.598 7.72426C73.416 6.51284 72.0071 5.5461 70.4515 4.87925C68.896 4.2124 67.2243 3.8585 65.5319 3.83777H65.2142ZM65.2142 25.9517C60.4602 25.9517 56.8272 22.0363 56.8272 16.8551C56.8272 11.674 60.4143 7.75145 65.2142 7.75145C70.014 7.75145 73.6011 11.6651 73.6011 16.8551C73.6011 22.0451 70.0034 25.95 65.2142 25.95" fill="#20194B"/>
<path d="M99.9359 4.26671H88.1931C87.9666 4.26671 87.7494 4.35643 87.5889 4.51623C87.4285 4.67603 87.3378 4.8929 87.3369 5.11936V28.6155C87.3367 28.7281 87.3587 28.8397 87.4016 28.9437C87.4445 29.0478 87.5075 29.1424 87.5871 29.2221C87.6666 29.3018 87.761 29.365 87.865 29.4081C87.969 29.4513 88.0805 29.4735 88.1931 29.4735H90.9893C91.2169 29.4735 91.4351 29.3831 91.596 29.2222C91.7569 29.0613 91.8473 28.8431 91.8473 28.6155V19.0088H99.9818C100.209 19.0083 100.427 18.9178 100.588 18.757C100.749 18.5962 100.839 18.3782 100.84 18.1508V16.0536C100.839 15.8264 100.749 15.6086 100.588 15.4481C100.427 15.2876 100.209 15.1975 99.9818 15.1975H91.8473V8.12037H99.9818C100.209 8.11991 100.427 8.02937 100.588 7.86857C100.749 7.70778 100.839 7.48983 100.84 7.26243V5.11936C100.839 4.89212 100.749 4.67436 100.588 4.51384C100.427 4.35333 100.209 4.26318 99.9818 4.26318" fill="#20194B"/>
<path d="M115.358 4.26672H112.609C112.496 4.26579 112.384 4.28711 112.28 4.32948C112.175 4.37185 112.08 4.43442 112 4.51362C111.919 4.59282 111.856 4.68709 111.812 4.79103C111.768 4.89497 111.745 5.00654 111.744 5.11936V28.6155C111.743 28.7294 111.765 28.8423 111.808 28.9477C111.851 29.053 111.915 29.1488 111.995 29.2293C112.076 29.3098 112.172 29.3735 112.277 29.4166C112.382 29.4597 112.495 29.4815 112.609 29.4805H115.358C115.584 29.4778 115.801 29.3865 115.961 29.2262C116.122 29.0659 116.213 28.8493 116.216 28.6226V5.11936C116.216 5.00677 116.193 4.8953 116.15 4.79131C116.107 4.68732 116.044 4.59285 115.964 4.51333C115.885 4.4338 115.79 4.37077 115.686 4.32785C115.582 4.28493 115.47 4.26295 115.358 4.26319" fill="#20194B"/>
<path d="M142.718 4.26671H127.743C127.516 4.26671 127.299 4.35637 127.138 4.51612C126.977 4.67587 126.886 4.89274 126.885 5.11936V7.183C126.885 7.41039 126.976 7.62834 127.137 7.78913C127.297 7.94993 127.515 8.04047 127.743 8.04093H132.998V28.6155C132.998 28.8431 133.088 29.0613 133.249 29.2222C133.41 29.3831 133.628 29.4735 133.856 29.4735H136.652C136.766 29.4747 136.878 29.4533 136.983 29.4107C137.088 29.3681 137.183 29.305 137.264 29.2252C137.344 29.1454 137.408 29.0504 137.452 28.9458C137.495 28.8411 137.517 28.7289 137.517 28.6155V8.12037H142.774C143.001 8.1199 143.219 8.02931 143.38 7.86846C143.54 7.70762 143.63 7.48967 143.63 7.26243V5.11936C143.63 4.89228 143.54 4.67451 143.38 4.51395C143.219 4.35339 143.001 4.26318 142.774 4.26318" fill="#20194B"/>
<path d="M190.206 14.0889L190.057 14.0324C187.681 13.2398 185.71 12.4101 185.71 10.6307C185.71 8.85124 187.182 7.68614 189.436 7.68614C191.121 7.74786 192.747 8.32316 194.096 9.33493C194.273 9.46331 194.491 9.51946 194.708 9.49189C194.924 9.46433 195.121 9.35512 195.26 9.18665L196.771 7.32249C196.845 7.22912 196.9 7.12123 196.93 7.00571C196.96 6.8902 196.966 6.76961 196.947 6.65167C196.931 6.53287 196.889 6.41901 196.824 6.31765C196.76 6.2163 196.675 6.12977 196.575 6.06382C194.415 4.57204 191.847 3.78463 189.222 3.80953C185.261 3.80953 181.279 5.97203 181.279 10.8178C181.279 15.1693 184.707 16.7722 188.222 18.0555C191.249 19.1359 193.403 20.068 193.403 22.2923C193.403 25.8229 189.674 26.0206 188.938 26.0206C187.839 26.0213 186.752 25.7961 185.744 25.3588C184.735 24.9214 183.828 24.2815 183.077 23.4785C182.918 23.3298 182.708 23.247 182.491 23.247C182.273 23.247 182.063 23.3298 181.904 23.4785L180.114 25.2032C180.025 25.2817 179.954 25.3782 179.906 25.4863C179.858 25.5943 179.834 25.7114 179.835 25.8297C179.836 25.9479 179.862 26.0646 179.912 26.1718C179.962 26.2791 180.034 26.3744 180.124 26.4513C182.484 28.6839 185.624 29.9048 188.873 29.8531C193.309 29.8531 198.081 27.4116 198.081 22.0434C198.081 17.1429 194.352 15.5206 190.206 14.0677" fill="#20194B"/>
<path d="M167.953 1.96476L163.778 8.3481C163.73 8.41055 163.698 8.48397 163.686 8.5617V8.60936C163.684 8.67137 163.7 8.7326 163.732 8.78589C163.764 8.86017 163.818 8.92348 163.885 8.96825C163.953 9.01302 164.032 9.03735 164.113 9.03833H166.387V20.1244C166.387 21.5993 165.805 23.0146 164.767 24.062C163.729 25.1095 162.319 25.7043 160.844 25.7169H160.466C159.731 25.7176 159.004 25.5735 158.325 25.2927C157.646 25.0119 157.029 24.6001 156.509 24.0807C155.989 23.5613 155.577 22.9445 155.296 22.2657C155.014 21.5868 154.87 20.8592 154.87 20.1244V10.6677V9.82036C154.869 9.60326 154.782 9.39538 154.628 9.2422C154.475 9.08902 154.266 9.00302 154.049 9.00302H151.412C151.194 9.00349 150.986 9.09018 150.833 9.24407C150.679 9.39796 150.593 9.60649 150.593 9.82389V20.1244C150.595 22.7287 151.631 25.2257 153.472 27.0672C155.314 28.9087 157.811 29.9442 160.415 29.9466H160.796C163.4 29.9442 165.897 28.9087 167.739 27.0672C169.58 25.2257 170.616 22.7287 170.618 20.1244V9.04716H172.576C172.658 9.04454 172.737 9.01965 172.806 8.97517C172.875 8.93069 172.93 8.8683 172.966 8.79472C172.979 8.73657 172.979 8.67634 172.966 8.61819V8.5617C172.958 8.48291 172.926 8.40849 172.874 8.3481L168.615 1.96476C168.576 1.91505 168.527 1.87487 168.47 1.84733C168.413 1.81978 168.351 1.8056 168.288 1.80588C168.224 1.80504 168.16 1.81892 168.102 1.84646C168.044 1.874 167.993 1.91446 167.953 1.96476Z" fill="url(#paint0_linear_33556_1276)"/>
<defs>
<linearGradient id="paint0_linear_33556_1276" x1="151.922" y1="25.5192" x2="172.048" y2="5.39301" gradientUnits="userSpaceOnUse">
<stop stop-color="#23194C"/>
<stop offset="0.06" stop-color="#232079"/>
<stop offset="0.15" stop-color="#2429B2"/>
<stop offset="0.22" stop-color="#252FDC"/>
<stop offset="0.28" stop-color="#2534F5"/>
<stop offset="0.31" stop-color="#2535FF"/>
<stop offset="0.42" stop-color="#402DED"/>
<stop offset="0.65" stop-color="#821ABF"/>
<stop offset="0.77" stop-color="#9C10A4"/>
<stop offset="0.92" stop-color="#B90485"/>
<stop offset="1" stop-color="#C4007A"/>
</linearGradient>
</defs>
</svg>
