<svg width="200" height="37" viewBox="0 0 200 37" fill="none" xmlns="http://www.w3.org/2000/svg">
<path d="M152.904 25.2168C154.659 25.2168 156.121 26.0072 156.121 27.9241C156.121 29.0361 155.558 29.9072 154.606 30.2699C155.665 30.4843 155.933 31.5566 156.013 32.4952C156.066 33.0976 156.094 34.4096 156.469 34.7602H154.298C154.057 34.2807 154.057 33.3241 154.003 32.8024C153.869 31.4891 153.466 31.0193 152.099 31.0193H150.236V34.7602H148.158V25.2156H152.904V25.2168ZM150.236 29.506H152.22C153.199 29.506 154.07 29.3313 154.07 28.1518C154.07 27.053 153.199 26.865 152.313 26.865H150.236V29.506ZM167.956 30.0012C167.956 32.9771 166.065 34.9879 163.264 34.9879C160.435 34.9879 158.546 32.9903 158.546 30.0012C158.546 26.9723 160.422 24.9891 163.277 24.9891C166.065 24.9891 167.956 27.0132 167.956 30.0012ZM160.664 29.9614C160.664 32.012 161.656 33.2458 163.277 33.259C164.859 33.259 165.838 31.9988 165.838 29.9614C165.838 27.9506 164.846 26.706 163.252 26.706C161.659 26.706 160.664 27.9771 160.664 29.9614ZM175.1 25.2168C176.775 25.2168 178.142 25.9265 178.142 27.6144C178.142 28.5397 177.62 29.2373 176.842 29.5855C177.834 29.8675 178.585 30.5915 178.585 31.9181C178.585 33.7807 177.148 34.7602 175.354 34.7602H170.582V25.2156H175.1V25.2168ZM172.621 29.0771H174.523C175.289 29.0771 176.105 28.9289 176.105 27.9638C176.105 27 175.328 26.8385 174.523 26.8385H172.621V29.0771ZM172.621 33.0976H174.727C175.624 33.0976 176.495 32.9229 176.495 31.7976C176.495 30.6482 175.558 30.4964 174.62 30.4964H172.622L172.621 33.0988V33.0976ZM190.233 30.0012C190.233 32.9771 188.344 34.9879 185.542 34.9879C182.713 34.9879 180.823 32.9903 180.823 30.0012C180.823 26.9723 182.7 24.9891 185.556 24.9891C188.344 24.9891 190.233 27.0132 190.233 30.0012ZM182.941 29.9614C182.941 32.012 183.933 33.2458 185.556 33.259C187.136 33.259 188.116 31.9988 188.116 29.9614C188.116 27.9506 187.123 26.706 185.53 26.706C183.938 26.706 182.941 27.9771 182.941 29.9614ZM199.965 27H197.092V34.7614H194.986V27H192.113V25.2168H199.956L199.965 27ZM45.4219 34.759H43.3135V25.2168H45.4219V34.759ZM48.4773 25.2168H50.6087L54.534 31.6096V25.2168H56.5448V34.7614H54.4556L50.5014 28.3542V34.7614H48.4773V25.2168ZM60.7689 25.2168L62.9135 31.9181L65.0858 25.2156H67.2569L64.0797 34.7602H61.7062L58.5846 25.2156H60.7689V25.2168ZM76.4255 26.9313H71.3448V29.0108H76.0099V30.659H71.3448V33.0048H76.5147V34.7614H69.2677V25.2156H76.4243V26.9313H76.4255ZM84.24 28.0578C84.1593 27.1325 83.5424 26.6361 82.4303 26.6361C81.4653 26.6361 80.8882 27.0385 80.8882 27.7229C80.8882 28.5542 81.9075 28.6205 83.8111 29.159C85.5135 29.6373 86.599 30.2976 86.599 31.894C86.599 34.1446 84.6147 34.9759 82.6737 34.9759C80.0882 34.9759 78.5556 33.7313 78.5315 31.5711H80.6087C80.6496 32.8578 81.4942 33.3675 82.7665 33.3675C83.8665 33.3675 84.5376 32.8891 84.5376 32.094C84.5376 31.3434 83.893 31.2096 81.9231 30.647C80.3689 30.2048 78.8797 29.8156 78.8797 27.8699C78.8797 26.1409 80.3279 25.0144 82.5532 25.0144C84.5629 25.0144 86.1846 25.9265 86.2255 28.0578H84.24ZM96.1568 27H93.2834V34.7614H91.1773V27H88.305V25.2168H96.1448L96.1544 27H96.1568ZM98.4617 25.2168H101.451L103.676 31.7711L105.847 25.2168H108.765V34.759H106.795V27.9771L104.458 34.7602H102.829L100.457 28.0446V34.7602H98.4593L98.4617 25.2156V25.2168ZM118.983 26.9313H113.903V29.0108H118.568V30.659H113.904V33.0048H119.075V34.7614H111.83V25.2156H118.988L118.985 26.9313H118.983ZM121.718 25.2168H123.85L127.775 31.6096V25.2168H129.786V34.7614H127.694L123.74 28.3542V34.7614H121.716L121.718 25.2168ZM139.946 27H137.074V34.7614H134.968V27H132.095V25.2168H139.936L139.946 27Z" fill="#AFB6B9"/>
<path d="M53.4871 0.506024C56.4389 0.506024 60.2401 1.70241 60.2401 6.08795C60.2401 8.13614 59.1497 9.94337 57.4473 10.7145C59.363 11.194 60.0533 13.7193 60.2136 15.394L60.3991 17.388C60.4521 18.053 60.5051 18.8771 60.8774 19.4361H55.1329C54.8931 18.9036 54.8413 18.2386 54.7871 17.6542L54.7076 16.5904C54.5473 14.4096 54.2015 12.7602 51.4907 12.7602H49.0473V19.4349H43.3027V0.506024H53.4871ZM49.0473 8.77349H52.2377C53.5666 8.77349 54.6039 8.29518 54.6039 6.80602C54.6039 5.53012 53.7003 4.89157 51.922 4.89157H49.0497L49.0473 8.77349ZM81.775 9.96988C81.775 15.8976 77.9437 19.8867 72.257 19.8867C66.4618 19.8867 62.5786 15.9253 62.5786 9.94458C62.5786 3.93494 66.4341 0 72.3088 0C77.9714 0 81.775 4.01446 81.775 9.96988ZM68.481 9.86145C68.481 13.2386 69.8642 15.1795 72.257 15.1795C74.622 15.1795 75.8955 13.2916 75.8955 9.70241C75.8955 6.54337 74.5389 4.65181 72.2256 4.65181C69.8931 4.65181 68.481 6.61928 68.481 9.86145ZM93.9762 0.506024C97.1148 0.506024 100.703 1.33012 100.703 5.23855C100.703 7.1 99.7726 8.18916 98.3377 9.03976C100.464 9.78434 101.634 11.2422 101.634 13.6928C101.634 18.1325 98.0714 19.4373 94.375 19.4373H84.4341V0.506024H93.9762ZM90.069 7.73735H93.3389C94.4292 7.73735 95.0931 7.20602 95.0931 6.3012C95.0931 5.31807 94.4292 4.81205 93.0726 4.81205H90.069V7.73735ZM90.069 14.9422H93.657C95.1196 14.9422 95.8594 14.3566 95.8594 13.1867C95.8594 12.0169 95.0883 11.3795 93.657 11.3795H90.069V14.9422ZM122.849 9.96988C122.849 15.8976 119.02 19.8867 113.33 19.8867C107.535 19.8867 103.653 15.9253 103.653 9.94458C103.653 3.93494 107.509 0 113.385 0C119.047 0 122.849 4.01446 122.849 9.96988ZM109.556 9.86145C109.556 13.2386 110.938 15.1795 113.33 15.1795C115.697 15.1795 116.969 13.2916 116.969 9.70241C116.969 6.54337 115.614 4.65181 113.3 4.65181C110.968 4.65181 109.556 6.61928 109.556 9.86145ZM134.493 19.8867C128.698 19.8867 125.003 15.5265 125.003 9.91687C125.003 4.36385 128.857 0.026506 134.599 0.026506C139.226 0.026506 142.921 3.24337 143.187 7.49518H137.551C137.232 5.79398 136.141 4.83614 134.493 4.83614C131.755 4.83614 130.855 7.5747 130.855 9.91084C130.855 13.0482 132.238 14.9843 134.493 14.9843C136.194 14.9843 137.258 13.9217 137.551 11.9542H143.267C142.922 17.2012 139.093 19.8867 134.493 19.8867ZM163.658 19.4361H157.787L156.856 16.7554H150.768L149.838 19.4361H143.962L150.951 0.506024H156.696L163.658 19.4361ZM154.562 9.43976C154.163 8.13614 154.11 7.81807 153.844 6.56747C153.526 7.86988 153.42 8.29036 153.046 9.46506C153.046 9.46506 152.647 10.7687 152.01 12.6819H155.573C155.23 11.5916 154.567 9.43855 154.567 9.43855H154.562V9.43976ZM174.477 6.24819C174.451 5.10482 173.547 4.44096 172.058 4.44096C170.836 4.44096 170.144 4.86626 170.144 5.60964C170.144 6.78072 173.387 7.23253 174.185 7.44458C177.345 8.26988 180.696 9.49277 180.696 13.4277C180.696 17.3626 177.479 19.8614 172.427 19.8614C167.136 19.8614 163.893 17.2819 163.84 13.0542H169.662C169.768 14.8892 170.911 15.5 172.612 15.5C174.075 15.5 174.979 14.8892 174.979 13.9337C174.978 13.7856 174.944 13.6394 174.88 13.506C174.815 13.3726 174.722 13.2553 174.606 13.1627C173.835 12.5241 170.565 11.7253 169.263 11.2735C166.556 10.341 164.585 9.27831 164.585 6.03253C164.585 2.46988 167.669 0.103614 172.244 0.103614C177.083 0.103614 179.874 2.33735 179.928 6.24458L174.477 6.24819ZM200 19.4361H194.205V11.9675H188.728V19.4361H182.906V0.506024H188.728V6.85904H194.205V0.506024H200V19.4361Z" fill="#4B5959"/>
<path d="M11.6072 23.2169H0V34.8254H11.6072V23.2169Z" fill="#FF8900"/>
<path d="M11.6072 23.2169L0 34.8241V23.2169H11.6072Z" fill="#FFA700"/>
<path d="M23.2168 23.2169H11.6084V34.8254H23.2144V23.2169H23.2168Z" fill="#FFB83A"/>
<path d="M23.2166 23.2169L11.6094 34.8241V23.2169H23.2154H23.2166Z" fill="#FFCA49"/>
<path d="M23.2168 11.6072H11.6084V23.2144H23.2144V11.6072H23.2168Z" fill="#B8BA3C"/>
<path d="M23.2166 11.6072L11.6094 23.2156V11.6072H23.2154H23.2166Z" fill="#CACB4B"/>
<path d="M34.8228 11.6072H23.2168V23.2144H34.824V11.6072H34.8228Z" fill="#71BB3E"/>
<path d="M34.823 11.6072L23.2158 23.2156V11.6072H34.823Z" fill="#8DCC4E"/>
<path d="M34.8228 0H23.2168V11.6072H34.824V0H34.8228Z" fill="#4C9D33"/>
<path d="M34.8228 0L23.2168 11.6072V0H34.824H34.8228Z" fill="#5FB640"/>
</svg>
