<svg width="200" height="49" viewBox="0 0 200 49" fill="none" xmlns="http://www.w3.org/2000/svg">
<path d="M175.552 45.7721C169.854 45.7721 164.523 43.5662 160.479 39.5221C156.434 35.478 154.229 30.1471 154.229 24.2647C154.229 18.3824 156.434 13.0515 160.479 9.00738C164.523 4.96327 169.854 2.75739 175.552 2.75739C181.251 2.75739 186.765 4.96327 190.809 9.00738C194.854 13.0515 197.059 18.5662 197.059 24.2647C197.059 29.9633 194.854 35.478 190.809 39.5221C186.765 43.5662 181.434 45.7721 175.552 45.7721ZM175.552 12.8677C172.611 12.8677 169.854 13.9706 167.648 16.1765C165.626 18.3824 164.523 21.1397 164.523 24.2647C164.523 30.5147 169.302 35.6618 175.552 35.6618C178.493 35.6618 181.251 34.5589 183.456 32.353C185.479 30.1471 186.765 27.3897 186.765 24.2647C186.765 21.1397 185.662 18.3824 183.456 16.1765C181.434 13.9706 178.677 12.8677 175.552 12.8677Z" fill="#2E50B6"/>
<path d="M100.551 45.5882C100.184 45.5882 100 45.4044 100 45.0367V3.49263C100 3.12499 100.368 2.94116 100.551 2.94116H109.559C109.743 2.94116 110.11 3.12499 110.11 3.30881V3.49263V45.0367C110.11 45.4044 109.743 45.5882 109.559 45.5882H100.551Z" fill="#2E50B6"/>
<path d="M75.3676 45.5882C75.1838 45.5882 74.8162 45.4044 74.8162 45.2206L69.1176 25.3677C69.1176 25.3677 69.1176 25.3676 69.1176 25.1838C68.9338 24.8162 68.5662 24.4485 68.1985 24.4485C67.6471 24.4485 67.2794 24.8162 67.2794 25.1838L61.5809 44.8529V45.0368C61.3971 45.2206 61.2132 45.4044 61.0294 45.4044H52.9412C52.5735 45.4044 52.3897 45.2206 52.3897 44.8529L40.625 3.125C40.625 3.125 40.625 3.125 40.625 2.94118C40.625 2.57353 40.9926 2.38971 41.1765 2.38971H50.5515C50.7353 2.38971 50.9191 2.57353 51.1029 2.75736L56.25 22.9779C56.25 23.5294 56.8015 23.8971 57.1691 23.8971C57.5368 23.8971 57.9044 23.5294 58.0882 23.1618L63.7868 2.75736C63.7868 2.57353 64.1544 2.38971 64.3382 2.38971H72.0588C72.2426 2.38971 72.6103 2.57353 72.6103 2.75736L78.3088 23.1618C78.3088 23.7132 78.8603 24.0809 79.2279 24.0809C79.5956 24.0809 80.1471 23.7132 80.1471 23.3456L85.2941 3.125C85.2941 3.125 85.2941 3.125 85.2941 2.94118C85.2941 2.75736 85.6618 2.57353 85.8456 2.57353H95.0368C95.2206 2.57353 95.5882 2.75736 95.5882 2.94118C95.5882 2.94118 95.5882 2.94118 95.5882 3.125C95.5882 3.125 95.5882 3.125 95.5882 3.30883V3.49265L83.8235 45.0368V45.2206C83.6397 45.4044 83.4559 45.5882 83.2721 45.5882H75.3676Z" fill="#2E50B6"/>
<path d="M141.912 45.4044C141.728 45.4044 141.544 45.2206 141.36 45.2206L128.492 25.7353C128.309 25.3677 127.941 25.1838 127.573 25.1838C127.022 25.1838 126.654 25.5515 126.47 26.103V44.6691C126.47 45.0368 126.103 45.2206 125.919 45.2206H117.095C116.728 45.2206 116.544 45.0368 116.544 44.6691V3.12502C116.544 2.75737 116.912 2.57355 117.095 2.57355H125.184C125.367 2.57355 125.551 2.57355 125.735 2.75737C125.735 2.75737 125.735 2.75737 125.735 2.94119L137.867 21.5074C138.051 21.875 138.419 22.0588 138.787 22.0588C139.338 22.0588 139.89 21.6912 139.89 20.9559V3.49266C139.89 3.12502 140.257 2.94119 140.441 2.94119H149.265C149.448 2.94119 149.816 3.12502 149.816 3.30884C149.816 3.30884 149.816 3.30884 149.816 3.49266C149.816 3.49266 149.816 3.49267 149.816 3.67649V45.2206C149.816 45.5883 149.448 45.7721 149.265 45.7721L141.912 45.4044Z" fill="#2E50B6"/>
<path d="M15.6252 45.5883C15.2576 45.5883 15.0738 45.4044 15.0738 45.0368V13.7868V13.2353C15.0738 12.6839 14.7061 12.3162 14.1546 12.3162H11.5811H3.49288C3.12523 12.3162 2.94141 11.9486 2.94141 11.7647V3.30886C2.94141 2.94121 3.30905 2.75739 3.49288 2.75739H36.7649C37.1326 2.75739 37.3164 3.12503 37.3164 3.30886V11.7647C37.3164 12.1324 36.9488 12.3162 36.7649 12.3162H26.1032C25.5517 12.3162 25.1841 12.6839 25.1841 13.2353V45.0368C25.1841 45.4044 24.8164 45.7721 24.6326 45.7721H15.6252V45.5883Z" fill="#2E50B6"/>
</svg>
