<svg width="200" height="62" viewBox="0 0 200 62" fill="none" xmlns="http://www.w3.org/2000/svg">
<path d="M61.1262 8.95518C60.3064 17.0147 58.2569 24.9011 55.0489 32.3401C50.7696 42.1055 44.5771 50.3427 37.098 56.1444L31.101 60.7915L25.1268 56.1444C15.7925 48.8895 8.42828 37.7511 4.34398 24.7921C2.73762 19.6343 1.65044 14.329 1.09863 8.95518C6.92506 5.2243 13.3968 2.61389 20.1812 1.25809C20.2508 7.25666 21.1951 13.213 22.9844 18.9389C23.0821 19.3066 23.2085 19.7029 23.3292 20.0877C23.4268 20.3119 23.5015 20.5587 23.5762 20.777C23.7486 21.2421 23.8981 21.6845 24.0704 22.1325C24.1681 22.3738 24.2658 22.5976 24.3405 22.8159C24.6335 23.5281 24.9149 24.2462 25.2481 24.9357C25.3687 25.2287 25.5181 25.5101 25.6387 25.8203C25.6905 25.918 25.7422 26.0156 25.7882 26.1133C25.9146 26.4063 26.0582 26.6877 26.2074 26.9749C27.5762 29.7129 29.2158 32.307 31.1015 34.7183C37.7876 26.2799 41.7975 14.2055 42.0158 1.24646C48.811 2.60242 55.2928 5.21691 61.1271 8.95518H61.1262Z" fill="#1A488E"/>
<path d="M61.138 8.94976C60.3237 17.0122 58.274 24.9014 55.0606 32.3405C50.7813 42.1059 44.583 50.3259 37.1214 56.1274L31.124 60.7931V34.7128C37.8101 26.2745 41.8371 14.2001 42.0383 1.25354C48.8297 2.6032 55.3078 5.21409 61.1371 8.95092L61.138 8.94976Z" fill="#092147"/>
<path d="M137.543 42.9785C135.523 43.0266 133.523 42.5705 131.724 41.6515C130.125 40.8137 128.796 39.5388 127.893 37.975C126.978 36.3699 126.51 34.5491 126.537 32.7018V19.4442H131.707V32.6561C131.684 33.7367 131.956 34.8031 132.494 35.7407C133.001 36.6094 133.733 37.3256 134.612 37.8143C135.504 38.304 136.504 38.5608 137.521 38.5608C138.539 38.5608 139.539 38.304 140.431 37.8143C141.311 37.3259 142.043 36.6096 142.551 35.7407C143.088 34.8031 143.36 33.7367 143.338 32.6561V19.4442H148.507V32.7021C148.535 34.5523 148.058 36.3751 147.129 37.9753C146.218 39.5329 144.891 40.8059 143.297 41.6518C141.519 42.5666 139.541 43.0227 137.542 42.9788L137.543 42.9785Z" fill="#092147"/>
<path d="M197.433 25.0163C196.532 23.3092 195.171 21.8884 193.504 20.9148C193.201 20.7351 192.888 20.5721 192.568 20.4265C191.088 19.761 189.481 19.4258 187.858 19.4442H175.812V42.9957H187.875C189.85 43.0134 191.793 42.5038 193.505 41.5195C195.097 40.601 196.41 39.2666 197.302 37.6593C197.35 37.5815 197.394 37.5009 197.434 37.418C198.417 35.4967 198.905 33.3603 198.853 31.2026C198.906 29.0541 198.418 26.9267 197.433 25.0163ZM193.332 34.3218C193.333 34.3351 193.333 34.3486 193.332 34.3619C192.811 35.2853 192.054 36.0527 191.137 36.5849C190.134 37.1632 188.992 37.4548 187.834 37.4279H181.102V24.9875H187.812C188.969 24.9621 190.111 25.2536 191.114 25.8305C192.03 26.3665 192.787 27.1356 193.309 28.0593C193.31 28.0726 193.31 28.0861 193.309 28.0994C193.833 29.0525 194.107 30.1224 194.107 31.2099C194.107 32.2974 193.833 33.3673 193.309 34.3204L193.332 34.3218Z" fill="#092147"/>
<path d="M171.336 37.6707V42.9785H162.938C160.699 42.9784 158.551 42.0888 156.967 40.5052C155.384 38.9216 154.494 36.7738 154.494 34.5343V19.4442H159.802V34.5343C159.802 35.3534 160.122 36.14 160.694 36.7261C161.266 37.3121 162.045 37.6512 162.864 37.6707C162.917 37.6736 162.971 37.6736 163.024 37.6707H171.336Z" fill="#092147"/>
<path d="M86.0512 42.9785L84.4774 41.7436C78.3998 37.016 74.7695 28.6637 74.7695 19.4154H79.9393C79.9393 26.0788 82.2358 32.3113 86.0454 36.2177C88.3047 33.8063 89.9706 30.9013 90.9108 27.7334C91.7521 25.0356 92.1745 22.2246 92.1631 19.3986H97.3329C97.3437 22.7522 96.842 26.0878 95.8451 29.2898C94.2253 34.4596 91.307 38.8654 87.6309 41.7262L86.0512 42.9785Z" fill="#092147"/>
<path d="M120.666 32.9317C119.024 27.6991 116.071 23.2067 112.32 20.2942L110.711 19.0419L109.086 20.2942C102.917 25.1023 99.2402 33.5753 99.2402 42.9785H104.502C104.499 41.5442 104.605 40.1117 104.818 38.6933H116.645C116.849 40.1126 116.95 41.5447 116.95 42.9785H122.217C122.216 39.5724 121.694 36.1866 120.668 32.9387L120.666 32.9317ZM105.921 34.08C106.879 31.0298 108.517 28.2368 110.711 25.9113C112.899 28.2408 114.534 31.0326 115.496 34.08H105.921Z" fill="#092147"/>
</svg>
