<svg width="200" height="46" viewBox="0 0 200 46" fill="none" xmlns="http://www.w3.org/2000/svg">
<g clip-path="url(#clip0_33542_1414)">
<path fill-rule="evenodd" clip-rule="evenodd" d="M34.4824 12.4138L41.379 8.27588V24.8276L34.4824 28.9655V12.4138Z" fill="#40C4FF"/>
<path fill-rule="evenodd" clip-rule="evenodd" d="M34.4826 12.4138L41.3791 8.27586L27.586 0L20.6895 4.13793L34.4826 12.4138Z" fill="#80D8FF"/>
<path fill-rule="evenodd" clip-rule="evenodd" d="M20.6896 45.5172V37.2414L6.89648 28.9655V37.2414L20.6896 45.5172Z" fill="#304FFE"/>
<path fill-rule="evenodd" clip-rule="evenodd" d="M20.6895 45.5172V37.2414L34.4826 28.9655V37.2414L20.6895 45.5172Z" fill="#40C4FF"/>
<path fill-rule="evenodd" clip-rule="evenodd" d="M29.8895 9.65518L20.6895 15.1724V4.13794L29.8895 9.65518Z" fill="url(#paint0_linear_33542_1414)"/>
<path fill-rule="evenodd" clip-rule="evenodd" d="M16.0965 23.4483L6.89648 28.9655V17.931L16.0965 23.4483Z" fill="url(#paint1_linear_33542_1414)"/>
<path fill-rule="evenodd" clip-rule="evenodd" d="M34.4831 28.9655L25.2832 34.4828V23.4483L34.4831 28.9655Z" fill="url(#paint2_linear_33542_1414)"/>
<path fill-rule="evenodd" clip-rule="evenodd" d="M11.4902 9.65518L20.6901 15.1724V4.13794L11.4902 9.65518Z" fill="url(#paint3_linear_33542_1414)"/>
<path fill-rule="evenodd" clip-rule="evenodd" d="M6.89648 28.9655L16.0965 34.4828V23.4483L6.89648 28.9655Z" fill="url(#paint4_linear_33542_1414)"/>
<path fill-rule="evenodd" clip-rule="evenodd" d="M25.2832 23.4483L34.4831 28.9655V17.931L25.2832 23.4483Z" fill="url(#paint5_linear_33542_1414)"/>
<path fill-rule="evenodd" clip-rule="evenodd" d="M6.89655 12.4138L0 8.27586L13.7931 0L20.6897 4.13793L6.89655 12.4138Z" fill="#80D8FF"/>
<path fill-rule="evenodd" clip-rule="evenodd" d="M6.89655 12.4138L0 8.27588V24.8276L6.89655 28.9655V12.4138Z" fill="#304FFE"/>
<path d="M57.5055 30.0183V23.379L52.4141 15.4989H55.838L59.0174 20.5492L62.1968 15.4989H65.6208L60.3959 23.379V30.0183H57.5055ZM76.4985 15.1724C81.1709 15.1724 84.4192 18.3506 84.4192 22.7695C84.4192 27.1885 81.1709 30.3448 76.4985 30.3448C71.8262 30.3448 68.5778 27.1885 68.5778 22.7695C68.5778 18.3506 71.8262 15.1724 76.4985 15.1724ZM76.4707 27.7762C79.4002 27.7762 81.4733 25.7082 81.4733 22.7695C81.4733 19.8308 79.4002 17.7411 76.4707 17.7411C73.5413 17.7411 71.4682 19.8308 71.4682 22.7695C71.4682 25.7082 73.5413 27.7762 76.4707 27.7762ZM89.6997 15.4989H92.5307V24.6198C92.5307 25.73 92.901 26.4048 93.2276 26.7749C93.6414 27.2755 94.4036 27.7762 95.536 27.7762C96.6684 27.7762 97.4306 27.2755 97.8444 26.7749C98.1711 26.4048 98.5413 25.73 98.5413 24.6198V15.4989H101.372V24.3804C101.372 25.7518 101.155 27.1449 100.283 28.2551C99.2381 29.6265 97.4088 30.3448 95.536 30.3448C93.6632 30.3448 91.8339 29.6265 90.7886 28.2551C89.9175 27.1449 89.6997 25.7518 89.6997 24.3804V15.4989ZM110.377 15.4989V21.1151H116.825V15.4989H119.715V30.0183H116.825V23.5532H110.377V30.0183H107.487V15.4989H110.377ZM132.638 15.1724C137.311 15.1724 140.559 18.3506 140.559 22.7695C140.559 27.1885 137.311 30.3448 132.638 30.3448C127.966 30.3448 124.718 27.1885 124.718 22.7695C124.718 18.3506 127.966 15.1724 132.638 15.1724ZM132.666 27.7762C135.595 27.7762 137.669 25.7082 137.669 22.7695C137.669 19.8308 135.595 17.7411 132.666 17.7411C129.737 17.7411 127.663 19.8308 127.663 22.7695C127.663 25.7082 129.737 27.7762 132.666 27.7762ZM145.284 15.4989H149.152C151.22 15.4989 153.021 15.7166 154.666 16.9139C156.467 18.2417 157.512 20.3532 157.512 22.7695C157.512 25.1858 156.489 27.2755 154.533 28.6252C152.798 29.8224 151.175 30.0183 149.108 30.0183H145.284V15.4989ZM148.174 17.937V27.5803H149.063C149.797 27.5803 151.398 27.5367 152.687 26.6225C153.866 25.7953 154.533 24.3151 154.533 22.7695C154.533 21.2457 153.888 19.7655 152.71 18.8948C151.509 18.0241 150.042 17.937 149.063 17.937H148.174ZM163.07 15.4989H165.961V27.5803H170.852V30.0183H163.07V15.4989ZM183.636 15.4989V17.937H178.189V21.1804H183.358V23.6185H178.189V27.5803H183.636V30.0183H175.299V15.4989H183.636ZM189.195 15.4989H193.486C195.531 15.4989 196.576 16.0214 197.266 16.5874C198.399 17.5234 198.733 18.7642 198.733 19.8526C198.733 21.2675 198.155 22.5083 196.999 23.2702C196.621 23.5314 196.087 23.7709 195.376 23.9015L200 30.0183H196.398L192.441 24.1844H192.085V30.0183H189.195V15.4989ZM191.974 17.8064V22.1818H192.846C193.436 22.1818 195.865 22.1165 195.865 19.9832C195.865 17.8281 193.46 17.8064 192.894 17.8064H191.974Z" fill="#212121"/>
</g>
<defs>
<linearGradient id="paint0_linear_33542_1414" x1="20.6895" y1="15.1724" x2="20.6895" y2="4.13794" gradientUnits="userSpaceOnUse">
<stop stop-color="#40C4FF"/>
<stop offset="1" stop-color="#2979FF"/>
</linearGradient>
<linearGradient id="paint1_linear_33542_1414" x1="8.29884" y1="28.9655" x2="15.436" y2="24.6854" gradientUnits="userSpaceOnUse">
<stop stop-color="#40C4FF"/>
<stop offset="1" stop-color="#80D8FF"/>
</linearGradient>
<linearGradient id="paint2_linear_33542_1414" x1="25.2832" y1="23.4483" x2="25.2832" y2="34.4828" gradientUnits="userSpaceOnUse">
<stop stop-color="#2979FF"/>
<stop offset="1" stop-color="#304FFE"/>
</linearGradient>
<linearGradient id="paint3_linear_33542_1414" x1="20.6901" y1="15.1724" x2="20.6901" y2="4.13794" gradientUnits="userSpaceOnUse">
<stop stop-color="#2979FF"/>
<stop offset="1" stop-color="#304FFE"/>
</linearGradient>
<linearGradient id="paint4_linear_33542_1414" x1="16.0965" y1="34.4828" x2="16.0965" y2="23.4483" gradientUnits="userSpaceOnUse">
<stop stop-color="#2979FF"/>
<stop offset="1" stop-color="#40C4FF"/>
</linearGradient>
<linearGradient id="paint5_linear_33542_1414" x1="33.0807" y1="28.9655" x2="25.9437" y2="24.6854" gradientUnits="userSpaceOnUse">
<stop stop-color="#2979FF"/>
<stop offset="1" stop-color="#40C4FF"/>
</linearGradient>
<clipPath id="clip0_33542_1414">
<rect width="200" height="45.5172" fill="white"/>
</clipPath>
</defs>
</svg>
