<svg width="200" height="45" viewBox="0 0 200 45" fill="none" xmlns="http://www.w3.org/2000/svg">
<path d="M199.981 16.6919H194.895V36.4243H199.981V16.6919Z" fill="black"/>
<path d="M199.981 7.24658H194.895V12.6003H199.981V7.24658Z" fill="black"/>
<path d="M189.618 7.51465V12.1418H176.616V20.2106H187.705V24.8377H176.616V36.4247H171.339V7.51465H189.618Z" fill="black"/>
<path d="M157.151 24.4554L166.559 36.4248H160.401L153.747 27.9735L151.721 30.0768V36.463H146.635V7.3999H151.721V23.6905L159.407 15.6218H165.565L157.151 24.4554Z" fill="black"/>
<path d="M140.516 30.8031L142.008 35.0861C139.713 36.4245 137.265 37.0746 134.55 37.0746C131.148 37.0363 128.509 36.0421 126.711 34.0536C124.914 32.065 123.996 29.2734 123.996 25.717C123.996 22.1988 124.914 19.4837 126.711 17.4952C128.509 15.5067 131.148 14.5125 134.55 14.5125C135.774 14.5125 136.806 14.5888 137.686 14.7418C138.566 14.8948 139.484 15.1625 140.401 15.545V20.3251C139.484 19.8661 138.566 19.5602 137.763 19.369C136.921 19.1778 136.041 19.1013 135.048 19.1013C131.185 19.1396 129.274 21.3193 129.274 25.6787C129.274 30.1912 131.148 32.4474 134.933 32.4474C136.769 32.4474 138.604 31.9121 140.516 30.8031Z" fill="black"/>
<path d="M118.605 20.0188C119.408 21.7396 119.828 23.6135 119.828 25.755C119.828 27.8965 119.408 29.8085 118.605 31.5294C117.802 33.2501 116.54 34.5886 114.934 35.5829C113.289 36.5771 111.301 37.0743 109.006 37.0743C106.635 37.0743 104.647 36.5771 103.002 35.5829C101.358 34.5886 100.134 33.2501 99.293 31.5294C98.4517 29.8085 98.0693 27.8965 98.0693 25.755C98.0693 23.6518 98.49 21.7396 99.293 20.0188C100.134 18.298 101.358 16.9595 103.002 15.9653C104.647 14.971 106.635 14.4739 109.006 14.4739C111.339 14.4739 113.327 14.971 114.934 15.9653C116.54 16.9595 117.802 18.298 118.605 20.0188ZM114.589 25.755C114.589 23.6518 114.092 21.9691 113.136 20.7454C112.18 19.5216 110.804 18.9099 109.006 18.9099C107.171 18.9099 105.794 19.5216 104.8 20.7454C103.844 21.9691 103.347 23.6135 103.347 25.755C103.347 27.8965 103.844 29.5408 104.8 30.7645C105.756 31.9883 107.171 32.6001 109.006 32.6001C110.804 32.6001 112.18 31.9883 113.136 30.7645C114.092 29.5408 114.589 27.8583 114.589 25.755Z" fill="black"/>
<path d="M94.7417 32.1033V36.5391C93.5562 36.8069 92.4472 36.9597 91.4912 36.9597C89.388 36.9215 87.8583 36.5009 86.9023 35.6214C85.9463 34.7419 85.4492 33.4034 85.4492 31.5679V7.36133H90.5352V29.8853C90.5352 30.803 90.6882 31.4531 90.9941 31.7973C91.3001 32.1415 91.8355 32.3326 92.6385 32.3326C93.4416 32.3326 94.1298 32.2561 94.7417 32.1033Z" fill="black"/>
<path d="M78.2217 24.2641C79.1395 25.4114 79.5601 26.7881 79.5601 28.4706C79.5601 31.1475 78.7189 33.1361 77.0745 34.4745C75.4301 35.8129 72.6386 36.4247 68.738 36.4247H57.7246V7.51465H68.738C72.2561 7.51465 74.7419 8.16474 76.2332 9.46494C77.7246 10.7651 78.4511 12.6771 78.4511 15.2775C78.4511 16.8454 78.1452 18.1456 77.4951 19.2164C76.8451 20.2871 75.8125 21.1284 74.4359 21.7402C76.042 22.2756 77.304 23.117 78.2217 24.2641ZM72.9827 31.1857C73.824 30.5356 74.2065 29.5031 74.2065 28.0882C74.2065 26.6734 73.7475 25.6791 72.8297 25.029C71.912 24.3789 70.5354 24.073 68.738 24.073H63.0019V32.1417H68.738C70.7265 32.1417 72.1414 31.8359 72.9827 31.1857ZM73.0592 15.6982C73.0592 14.2832 72.715 13.289 72.065 12.6771C71.4149 12.0653 70.3059 11.7594 68.738 11.7594H63.0019V19.79H68.738C71.6061 19.79 73.0592 18.4132 73.0592 15.6982Z" fill="black"/>
<path d="M41.6253 15.6596C45.2199 19.2543 45.2199 25.0669 41.6253 28.6234L28.6616 41.6253C25.0669 45.2199 19.2542 45.2199 15.6979 41.6253L2.69599 28.6616C-0.898662 25.0669 -0.898662 19.2543 2.69599 15.6979L15.6596 2.69599C19.2542 -0.898662 25.0669 -0.898662 28.6616 2.69599L41.6253 15.6596ZM31.912 25.4111C33.7094 23.6138 33.7094 20.7075 31.912 18.9101L25.4111 12.4092C23.6137 10.6118 20.7075 10.6118 18.9101 12.4092L12.4092 18.9101C10.6118 20.7075 10.6118 23.6138 12.4092 25.4111L18.9101 31.912C20.7075 33.7094 23.6137 33.7094 25.4111 31.912L31.912 25.4111Z" fill="#004BEF"/>
</svg>
