<svg width="200" height="54" viewBox="0 0 200 54" fill="none" xmlns="http://www.w3.org/2000/svg">
<path d="M12.2053 23.0051L20.0559 26.9532L27.9065 23.0051C33.6966 19.662 33.6966 14.1918 27.9065 10.8488L12.2053 2.95241C6.41522 -0.390608 1.67781 2.34462 1.67781 9.03055V24.8231C1.67535 25.5371 1.7365 26.2499 1.86052 26.953C2.77623 21.8545 7.07637 20.0438 12.2054 23.0051H12.2053Z" fill="#99DF2B"/>
<path d="M27.9072 30.9013L20.0566 26.9531L12.2061 30.9013C7.07637 33.8625 2.77623 32.0517 1.86052 26.9531C1.7365 27.6562 1.67535 28.369 1.67781 29.083V44.8758C1.67781 51.5617 6.41522 54.2968 12.2053 50.9538L27.9072 43.057C33.6972 39.7148 33.6972 34.2442 27.9072 30.9013H27.9072Z" fill="#82BFE9"/>
<path d="M12.2052 30.9013L20.0558 26.9531L12.2052 23.0049C7.0762 20.0438 2.77606 21.8545 1.86035 26.9531C2.77606 32.0517 7.0762 33.8625 12.2052 30.9013Z" fill="#4EA727"/>
<path d="M134.039 11.6541C133.578 11.6541 133.136 11.8371 132.811 12.1627C132.485 12.4883 132.302 12.9299 132.302 13.3904V22.7441C131.803 21.9521 130.261 20.6197 126.717 20.6197C120.84 20.6197 116.671 25.2457 116.671 31.4137C116.671 37.7919 121.09 42.2917 126.925 42.2917C127.978 42.3483 129.029 42.1548 129.993 41.7272C130.957 41.2996 131.806 40.6499 132.47 39.8313C132.47 39.9462 132.474 40.0637 132.478 40.1793C132.497 40.6257 132.688 41.0475 133.011 41.3562C133.334 41.665 133.764 41.8368 134.211 41.8357H136.863C137.098 41.8364 137.33 41.7895 137.546 41.6977C137.762 41.6059 137.958 41.4712 138.12 41.3017C138.282 41.1322 138.408 40.9315 138.491 40.7117C138.573 40.492 138.61 40.2578 138.6 40.0233C138.575 39.4778 138.555 38.8359 138.555 38.123V13.3904C138.555 12.9299 138.372 12.4883 138.047 12.1627C137.721 11.8371 137.28 11.6541 136.819 11.6541H134.039ZM49.5068 12.2822C49.0464 12.2822 48.6048 12.4652 48.2791 12.7908C47.9535 13.1164 47.7706 13.558 47.7705 14.0185V40.0953C47.7706 40.5558 47.9535 40.9974 48.2792 41.323C48.6048 41.6486 49.0464 41.8316 49.5068 41.8316H59.6927C65.2782 41.8316 68.9464 38.2891 68.9464 33.4541C68.9929 31.8745 68.497 30.3266 67.5412 29.068C66.5855 27.8095 65.2276 26.9162 63.6935 26.5368C64.9857 26.0629 66.098 25.1977 66.8754 24.0618C67.6527 22.9259 68.0564 21.5758 68.0303 20.1996C68.0303 15.6558 64.6521 12.2822 58.8166 12.2822H49.5068ZM54.1917 17.7392H57.6923C60.2769 17.7392 61.5691 18.9898 61.5691 20.9078C61.5691 22.9089 60.0684 24.1164 57.7764 24.1164H54.1917V17.7392ZM81.7448 20.4917C80.2737 20.4443 78.8081 20.6925 77.4347 21.2216C76.0613 21.7508 74.8079 22.55 73.7489 23.5721C72.6898 24.5942 71.8466 25.8184 71.2691 27.1722C70.6916 28.526 70.3915 29.9819 70.3867 31.4537C70.3867 32.8988 70.6713 34.3297 71.2243 35.6648C71.7773 36.9999 72.5879 38.2129 73.6097 39.2348C74.6315 40.2566 75.8446 41.0671 77.1797 41.6201C78.5148 42.1731 79.9457 42.4578 81.3908 42.4578C82.8358 42.4578 84.2667 42.1731 85.6018 41.6201C86.9369 41.0671 88.15 40.2566 89.1718 39.2348C90.1936 38.2129 91.0041 36.9999 91.5572 35.6648C92.1102 34.3297 92.3948 32.8988 92.3948 31.4537C92.3854 28.6029 91.27 25.8669 89.2834 23.8221C87.2968 21.7773 84.5942 20.5834 81.7448 20.4917ZM152.422 20.4917C150.951 20.4443 149.485 20.6925 148.112 21.2216C146.738 21.7508 145.485 22.55 144.426 23.5721C143.367 24.5942 142.524 25.8184 141.946 27.1722C141.369 28.526 141.069 29.9819 141.064 31.4537C141.063 32.8992 141.347 34.3306 141.9 35.6663C142.453 37.0019 143.263 38.2155 144.285 39.2378C145.307 40.2602 146.52 41.0711 147.856 41.6244C149.191 42.1777 150.622 42.4625 152.068 42.4625C153.513 42.4625 154.945 42.1777 156.28 41.6244C157.615 41.0711 158.829 40.2602 159.851 39.2378C160.872 38.2155 161.683 37.0019 162.236 35.6663C162.788 34.3306 163.073 32.8992 163.072 31.4537C163.063 28.6029 161.947 25.8669 159.961 23.8221C157.974 21.7773 155.271 20.5834 152.422 20.4917ZM189.101 20.4917C184.373 20.4917 181.657 22.8579 180.563 25.3006C180.455 25.5397 180.401 25.8002 180.407 26.0627C180.413 26.3252 180.478 26.5831 180.597 26.8171C180.716 27.0511 180.887 27.2553 181.095 27.4145C181.304 27.5738 181.546 27.684 181.803 27.737L183.98 28.1811C184.348 28.2589 184.731 28.2132 185.07 28.0512C185.409 27.8892 185.685 27.6199 185.856 27.285C186.157 26.7036 186.62 26.2216 187.188 25.8966C187.757 25.5716 188.407 25.4174 189.061 25.4526C191.062 25.4526 192.101 26.4959 192.101 27.705C192.101 28.4139 191.726 28.9534 190.601 29.1213L185.724 29.8694C182.306 30.3697 179.598 32.4538 179.599 36.1226C179.599 39.4143 182.224 42.4158 186.768 42.4158C187.911 42.4833 189.052 42.2495 190.077 41.7377C191.101 41.2258 191.973 40.4539 192.605 39.4992C192.605 39.7476 192.609 39.9752 192.618 40.1834C192.638 40.6296 192.83 41.0508 193.153 41.3588C193.477 41.6667 193.907 41.8376 194.354 41.8357H196.586C196.824 41.8361 197.058 41.7879 197.276 41.6939C197.494 41.5999 197.69 41.4622 197.853 41.2893C198.015 41.1164 198.14 40.912 198.22 40.6887C198.301 40.4654 198.334 40.2281 198.319 39.9913C198.291 39.5745 198.275 39.1086 198.275 38.6231V28.4972C198.275 24.2455 195.813 20.4917 189.101 20.4917H189.101ZM106.817 20.5757C105.685 20.5398 104.562 20.7879 103.55 21.2973C102.538 21.8067 101.67 22.5613 101.024 23.4922V22.8561C101.024 22.3956 100.841 21.954 100.516 21.6283C100.19 21.3027 99.7485 21.1198 99.2881 21.1198H96.6316C96.1711 21.1199 95.7295 21.3028 95.4039 21.6284C95.0783 21.954 94.8953 22.3956 94.8952 22.8561V40.0953C94.8948 40.3236 94.9393 40.5498 95.0263 40.7609C95.1134 40.972 95.2412 41.1639 95.4025 41.3256C95.5638 41.4872 95.7553 41.6155 95.9662 41.703C96.1771 41.7905 96.4032 41.8356 96.6316 41.8356H99.4961C99.7244 41.8356 99.9505 41.7905 100.161 41.703C100.372 41.6155 100.564 41.4872 100.725 41.3256C100.886 41.1639 101.014 40.972 101.101 40.7609C101.188 40.5498 101.233 40.3236 101.232 40.0953V29.9534C101.227 29.4687 101.32 28.9879 101.505 28.5402C101.691 28.0925 101.966 27.6872 102.313 27.349C102.66 27.0107 103.073 26.7466 103.525 26.5726C103.978 26.3986 104.461 26.3183 104.945 26.3367C105.389 26.3496 105.825 26.4549 106.226 26.6459C106.627 26.8368 106.984 27.1092 107.274 27.4458C107.564 27.7823 107.78 28.1755 107.91 28.6004C108.039 29.0253 108.079 29.4724 108.026 29.9134V40.0953C108.026 40.5558 108.209 40.9974 108.534 41.323C108.86 41.6486 109.302 41.8315 109.762 41.8316H112.627C113.087 41.8315 113.529 41.6486 113.854 41.323C114.18 40.9974 114.363 40.5558 114.363 40.0953V28.8292C114.363 24.2858 112.028 20.5757 106.817 20.5757V20.5757ZM177.03 20.9078C175.952 20.8678 174.883 21.1269 173.943 21.6565C173.002 22.186 172.227 22.9653 171.701 23.9083V22.8561C171.701 22.3956 171.519 21.954 171.193 21.6283C170.867 21.3027 170.426 21.1198 169.965 21.1198H167.309C166.848 21.1199 166.407 21.3028 166.081 21.6284C165.755 21.954 165.572 22.3956 165.572 22.8561V40.0953C165.572 40.5558 165.755 40.9974 166.081 41.323C166.407 41.6486 166.848 41.8315 167.309 41.8316H170.173C170.634 41.8315 171.075 41.6486 171.401 41.323C171.726 40.9974 171.909 40.5558 171.91 40.0953V32.7899C171.91 28.6621 174.2 27.1609 176.742 27.1609C176.821 27.1609 176.903 27.1594 176.982 27.1609C177.213 27.1649 177.441 27.123 177.655 27.0378C177.869 26.9525 178.063 26.8256 178.228 26.6644C178.392 26.5031 178.522 26.3108 178.611 26.0987C178.701 25.8865 178.747 25.6587 178.747 25.4286V22.56C178.747 22.1224 178.574 21.7024 178.265 21.3926C177.956 21.0827 177.536 20.9083 177.098 20.9077H177.078C177.062 20.9077 177.046 20.9077 177.03 20.9077L177.03 20.9078ZM81.3887 26.3287C83.8062 26.3287 86.0576 27.9517 86.0576 31.4537C86.0576 34.9557 83.8061 36.6227 81.3887 36.6227C79.0129 36.6227 76.7199 34.9133 76.7199 31.4537C76.7199 27.9517 79.0128 26.3287 81.3887 26.3287ZM127.717 26.3287C130.176 26.3287 132.386 27.9941 132.386 31.4537C132.386 34.8709 130.176 36.6227 127.717 36.6227C125.258 36.6227 123.052 34.8709 123.052 31.4537C123.052 27.9941 125.258 26.3287 127.717 26.3287ZM152.066 26.3287C154.483 26.3287 156.735 27.9517 156.735 31.4537C156.735 34.9557 154.483 36.6227 152.066 36.6227C149.69 36.6227 147.397 34.9133 147.397 31.4537C147.397 27.9517 149.69 26.3287 152.066 26.3287ZM54.1917 29.5373H58.3165C60.9002 29.5373 62.4012 30.9521 62.4012 32.994C62.4012 35.1206 60.8586 36.4546 58.3165 36.4546H54.1917V29.5373ZM192.105 32.7899V33.7061C192.105 36.9164 190.184 37.8307 188.309 37.8309C186.558 37.8309 185.852 36.7902 185.852 35.7065C185.852 34.2481 186.851 33.6222 188.185 33.4141L192.105 32.7899Z" fill="black"/>
</svg>
