<svg width="200" height="58" viewBox="0 0 200 58" fill="none" xmlns="http://www.w3.org/2000/svg">
<path d="M90.725 41.0628C86.5705 41.0628 83.3821 37.8744 83.3821 33.6232C83.3821 29.372 86.4738 26.1836 90.725 26.1836C94.8796 26.1836 98.068 29.372 98.068 33.6232C97.9714 37.8744 94.8796 41.0628 90.725 41.0628ZM92.0777 17.7778C90.0487 17.7778 88.1164 18.1643 86.3772 18.9372C85.8941 19.1305 85.3144 19.1305 84.8313 18.8406C84.3482 18.5507 84.0584 17.971 84.0584 17.3913V8.50244C84.0584 8.11597 83.6719 7.72949 83.2854 7.72949H75.2661C74.8796 7.72949 74.4932 8.11597 74.4932 8.50244V47.7295C74.4932 48.116 74.8796 48.5024 75.2661 48.5024H81.0632C81.3531 48.5024 81.6429 48.3092 81.7395 48.0193L81.8362 47.9227C82.0294 47.4396 82.4159 47.1498 82.899 46.9565C83.0922 46.9565 83.1888 46.8599 83.3821 46.8599C83.6719 46.8599 84.0584 46.9565 84.3482 47.1498C86.5705 48.6957 89.2758 49.4686 92.1743 49.4686C101.353 49.4686 107.826 42.9952 107.826 33.6232C107.73 24.3478 101.256 17.7778 92.0777 17.7778Z" fill="#CBA77E"/>
<path d="M147.343 41.9323V48.6956C147.343 49.082 146.956 49.4685 146.57 49.4685H140.58C134.01 49.4685 130.145 45.5072 130.145 39.0337V27.6328C130.145 26.7632 129.372 25.9902 128.502 25.9902H125.314C124.927 25.9902 124.541 25.6038 124.541 25.2173V24.4444C124.541 24.2511 124.638 24.0579 124.734 23.9613L137.778 10.1448C137.874 9.9516 138.164 9.85498 138.357 9.85498H138.744C139.13 9.85498 139.517 10.2415 139.517 10.6279V17.1014C139.517 17.9709 140.29 18.7439 141.159 18.7439H146.377C146.763 18.7439 147.15 19.1303 147.15 19.5168V25.2173C147.15 25.6038 146.763 25.9902 146.377 25.9902H141.353C140.386 25.9902 139.71 26.7632 139.71 27.6328V37.198C139.71 39.6134 141.256 41.1593 143.671 41.1593H146.473C146.956 41.1593 147.343 41.4492 147.343 41.9323Z" fill="#CBA77E"/>
<path d="M121.256 19.227V48.6956C121.256 49.0821 120.869 49.4686 120.483 49.4686H112.367C111.98 49.4686 111.594 49.0821 111.594 48.6956V28.9855C111.594 28.7923 111.69 28.599 111.787 28.5024L118.84 20.6763L120.386 18.9372C120.579 18.7439 120.869 18.7439 120.966 18.8406C121.062 18.8406 121.256 18.9372 121.256 19.227Z" fill="#CBA77E"/>
<path d="M33.5266 37.6812C31.7874 44.7344 25.7005 49.2754 18.1643 49.372H17.971C8.4058 49.372 1.5459 42.7054 1.5459 33.5266C1.5459 24.2513 8.30918 17.7778 18.0676 17.7778C25.7971 17.7778 31.6908 22.1257 33.43 29.0822C33.43 29.2754 33.43 29.4687 33.3333 29.5653C33.2367 29.6619 33.0435 29.7585 32.8502 29.7585H25.2174C25.0242 29.7585 24.7343 29.6619 24.6377 29.4687C23.3816 27.0532 20.773 25.5073 17.971 25.5073C13.6232 25.5073 10.4348 28.8889 10.4348 33.5266C10.4348 36.3286 11.5942 38.8406 13.6232 40.2899C15.6522 41.7392 18.2609 42.029 21.0628 41.0629C22.6087 40.4831 23.8647 39.2271 24.6377 37.3914C24.7343 37.1981 24.9275 37.0049 25.1208 37.0049H32.8502C33.0435 37.0049 33.2367 37.1015 33.3333 37.1981C33.5266 37.2947 33.5266 37.488 33.5266 37.6812Z" fill="#1F426C"/>
<path d="M53.4296 41.0629C49.4683 41.0629 46.4731 38.1644 46.1833 34.203C45.99 31.9808 46.8596 29.8552 48.4055 28.3093C49.9514 26.7634 52.077 26.0871 54.2026 26.2803C58.0673 26.6668 60.7726 29.662 60.7726 33.6233C60.676 37.8745 57.5842 41.0629 53.4296 41.0629ZM69.0818 18.7441H63.1881C62.8982 18.7441 62.6084 18.9373 62.5118 19.2272L62.4151 19.517C62.2219 20.0001 61.8354 20.29 61.3523 20.3866C60.8692 20.4832 60.3862 20.4832 59.9031 20.1934C57.5842 18.6475 54.8789 17.8745 51.9804 17.8745C42.8016 17.8745 36.4248 24.3479 36.4248 33.6233C36.4248 42.802 42.9949 49.4687 51.9804 49.4687C54.7823 49.4687 57.4876 48.6958 59.7098 47.2465C60.0963 46.9566 60.676 46.86 61.1591 47.0533C61.6422 47.1499 62.0287 47.5363 62.2219 48.0194C62.3185 48.3093 62.6084 48.5025 62.8982 48.5025H68.9852C69.3717 48.5025 69.7581 48.1161 69.7581 47.7296V19.517C69.8548 19.1306 69.4683 18.7441 69.0818 18.7441Z" fill="#1F426C"/>
<path d="M167.536 41.0629C163.575 41.0629 160.58 38.1644 160.29 34.203C160.096 31.9808 160.966 29.8552 162.512 28.3093C164.058 26.7634 166.183 26.0871 168.309 26.2803C172.174 26.6668 174.879 29.662 174.879 33.6233C174.782 37.8745 171.691 41.0629 167.536 41.0629ZM183.188 18.7441H177.295C177.005 18.7441 176.715 18.9373 176.618 19.2272L176.522 19.517C176.328 20.0001 175.942 20.29 175.459 20.3866C174.976 20.4832 174.493 20.4832 174.01 20.1934C171.691 18.6475 168.985 17.8745 166.087 17.8745C156.908 17.8745 150.531 24.3479 150.531 33.6233C150.531 42.802 157.101 49.4687 166.087 49.4687C168.889 49.4687 171.594 48.6958 173.816 47.2465C174.203 46.9566 174.782 46.86 175.266 47.0533C175.749 47.1499 176.135 47.5363 176.328 48.0194C176.425 48.3093 176.715 48.5025 177.005 48.5025H183.092C183.478 48.5025 183.865 48.1161 183.865 47.7296V19.517C183.961 19.1306 183.575 18.7441 183.188 18.7441Z" fill="#1F426C"/>
<path d="M198.357 8.50244V48.6957C198.357 49.0822 197.971 49.4686 197.584 49.4686H189.468C189.082 49.4686 188.695 49.0822 188.695 48.6957V17.5846C188.695 17.3913 188.792 17.1981 188.889 17.1015L197.004 8.01935C197.198 7.82611 197.391 7.72949 197.584 7.72949C197.681 7.72949 197.777 7.72949 197.874 7.82611C198.067 7.92273 198.357 8.11597 198.357 8.50244Z" fill="#1F426C"/>
<path d="M121.16 13.43L112.464 23.1884C112.174 23.4783 111.884 23.3817 111.788 23.3817C111.691 23.3817 111.401 23.1884 111.401 22.802V14.0097C111.401 13.3334 112.174 12.7537 112.657 12.7537H120.773C121.063 12.7537 121.16 12.9469 121.16 13.0435C121.256 13.0435 121.353 13.2368 121.16 13.43Z" fill="#1F426C"/>
</svg>
