<svg width="200" height="35" viewBox="0 0 200 35" fill="none" xmlns="http://www.w3.org/2000/svg">
<g clip-path="url(#clip0_33542_1434)">
<path d="M7.69278 3.9755C3.94873 6.14024 0.830962 7.96461 0.776504 8.01907C0.70843 8.08714 3.77174 9.92513 7.55663 12.1035C11.3551 14.2954 14.4865 16.0654 14.5137 16.0245C14.541 15.9973 14.5546 12.3894 14.541 8.00545L14.5001 0.0408525L7.69278 3.9755Z" fill="#00718F"/>
<path d="M15.6572 8.01908C15.6572 12.4439 15.6845 16.0654 15.7389 16.0654C15.984 16.0654 29.5442 8.11438 29.4489 8.01908C29.3945 7.96462 26.4537 6.24917 22.9411 4.22058C19.4149 2.17837 16.338 0.394843 16.1065 0.245082L15.6572 -0.0272121V8.01908Z" fill="#00718F"/>
<path d="M53.9411 7.48808C50.905 8.03267 48.3455 9.92512 47.0521 12.5391C46.1807 14.3227 45.9629 15.2485 45.9629 17.2226C45.9765 19.6596 46.5483 21.4568 47.9098 23.2811C49.1215 24.9285 51.3135 26.3036 53.4237 26.7665C55.0031 27.1069 57.6715 26.9843 59.1692 26.4942C60.4489 26.0858 61.7287 25.3097 62.7362 24.3295L63.4442 23.6351L62.1372 22.3145L60.8165 20.9939L59.8499 21.7291C58.4067 22.8319 57.6988 23.0633 55.888 23.0769C54.4585 23.0769 54.3359 23.0497 53.4782 22.6276C51.0276 21.4295 49.7205 18.3935 50.4421 15.6161C51.5994 11.1641 56.2148 9.78897 59.9996 12.7842L60.694 13.3288L62.001 11.8039L63.3216 10.2791L62.6001 9.62559C61.7832 8.87678 60.1086 8.00544 58.8832 7.67869C57.903 7.43363 54.9486 7.31109 53.9411 7.48808Z" fill="#00718F"/>
<path d="M73.6143 7.58337C73.5734 7.66506 67.1473 22.7365 65.6633 26.2491L65.4863 26.6984L67.6102 26.6576L69.7477 26.6167L70.5918 24.5745L71.4223 22.5323L75.4931 22.4915L79.5775 22.4643L80.3944 24.5201C80.8437 25.6501 81.2793 26.6031 81.3474 26.6304C81.4291 26.6712 82.423 26.6712 83.5394 26.6576L85.5952 26.6167L81.538 17.0864L77.4945 7.55614L75.5884 7.5153C74.5401 7.50168 73.6415 7.52891 73.6143 7.58337ZM76.8273 15.7522C77.4809 17.3451 78.0118 18.6794 78.0118 18.7202C78.0118 18.761 76.8682 18.7883 75.4795 18.7883C73.5054 18.7883 72.9608 18.7474 73.0152 18.6113C73.0425 18.5296 73.5462 17.277 74.1316 15.8611C74.7035 14.4316 75.2344 13.1246 75.3161 12.9476C75.3842 12.757 75.4795 12.6753 75.5476 12.7433C75.602 12.8114 76.1875 14.1593 76.8273 15.7522Z" fill="#00718F"/>
<path d="M140.735 7.92377C139.4 11.096 132.825 26.5078 132.784 26.5895C132.757 26.644 133.696 26.6712 134.867 26.6576L137.018 26.6168L137.848 24.5746L138.693 22.5323L142.763 22.4915L146.834 22.4643L147.637 24.4656C148.087 25.582 148.481 26.5215 148.536 26.5895C148.59 26.644 149.584 26.6712 150.742 26.6576L152.865 26.6168L148.822 17.0865L144.765 7.55618L142.845 7.51533L140.912 7.47449L140.735 7.92377ZM144.098 15.7522C144.737 17.3451 145.268 18.6658 145.268 18.7202C145.268 18.7611 144.125 18.7883 142.736 18.7883C140.762 18.7883 140.217 18.7475 140.272 18.6113C141.143 16.3649 142.75 12.6753 142.831 12.757C142.886 12.8115 143.458 14.1593 144.098 15.7522Z" fill="#00718F"/>
<path d="M187.815 7.92379C187.693 8.16885 185.868 12.4711 183.731 17.4949L179.864 26.6168L181.852 26.6576C182.955 26.6712 183.921 26.6712 184.003 26.6304C184.071 26.6032 184.507 25.6501 184.956 24.5201L185.773 22.4643L189.844 22.5051L193.928 22.5324L194.759 24.5746L195.603 26.6168L197.808 26.6576C199.02 26.6712 199.987 26.644 199.946 26.5759C199.905 26.5079 198.135 22.3554 195.998 17.3452C193.874 12.335 192.049 8.07355 191.954 7.85572L191.791 7.48812H189.898H188.019L187.815 7.92379ZM191.233 15.902C191.859 17.4269 192.376 18.7066 192.376 18.7339C192.376 18.7611 191.246 18.7883 189.857 18.7883C188.469 18.7883 187.339 18.7611 187.339 18.7203C187.339 18.6794 187.829 17.4405 188.442 15.9565C189.054 14.4861 189.599 13.1246 189.68 12.934C189.803 12.6209 189.817 12.6072 189.953 12.8523C190.034 12.9885 190.606 14.3635 191.233 15.902Z" fill="#00718F"/>
<path d="M89.04 17.1409V26.6848H91.0822H93.1244V23.8393V20.9939L95.7521 20.9394C98.1619 20.885 98.4478 20.8441 99.4553 20.5037C101.824 19.6869 103.254 18.2573 103.812 16.1062C104.043 15.2212 104.071 13.4241 103.866 12.5391C103.499 10.8918 102.192 9.24438 100.749 8.53642C99.1694 7.77399 98.7473 7.71953 93.7099 7.66507L89.04 7.597V17.1409ZM97.876 11.6406C99.1966 12.1035 99.782 12.934 99.7957 14.3363C99.7957 15.7114 99.0741 16.678 97.7262 17.0864C97.2361 17.2226 96.4192 17.2907 95.0714 17.2907H93.1244V14.3635V11.4363H95.2211C96.7187 11.4363 97.4675 11.4908 97.876 11.6406Z" fill="#00718F"/>
<path d="M108.373 17.1545V26.6848H110.415H112.457V17.1545V7.62423H110.415H108.373V17.1545Z" fill="#00718F"/>
<path d="M117.223 9.53029V11.4363L120.123 11.4636L123.009 11.5044L123.05 19.0878L123.077 26.6848H125.119H127.161L127.189 19.0878L127.229 11.5044L130.129 11.4636L133.016 11.4363V9.53029V7.62423H125.119H117.223V9.53029Z" fill="#00718F"/>
<path d="M155.889 17.1545V26.6848H162.696H169.503V24.7788V22.8727H164.806H160.109V15.2485V7.62423H157.999H155.889V17.1545Z" fill="#00718F"/>
<path d="M172.635 17.1545V26.6848H174.677H176.719V17.1545V7.62423H174.677H172.635V17.1545Z" fill="#00718F"/>
<path d="M0 17.1545V25.2144L0.517359 24.9149C0.789653 24.7515 3.83935 22.9816 7.28387 21.0075C10.7284 19.0197 13.6147 17.3179 13.71 17.2362C13.8325 17.1273 12.226 16.1334 7.05242 13.1382C3.29476 10.9598 0.176991 9.16268 0.108918 9.14907C0.0544588 9.12184 0 12.7297 0 17.1545Z" fill="#00718F"/>
<path d="M23.1854 13.1246C17.9982 16.1198 16.3917 17.1273 16.5142 17.2362C16.6095 17.3179 19.4959 19.0197 22.9404 21.0075C26.3849 22.9816 29.4346 24.7515 29.7205 24.9149L30.2242 25.2144V17.1681C30.2242 12.7433 30.1834 9.12184 30.1289 9.13545C30.0609 9.14907 26.9431 10.9326 23.1854 13.1246Z" fill="#00718F"/>
<path d="M7.88325 21.9741C4.24813 24.0844 1.13036 25.8952 0.953366 26.0177C0.653843 26.2219 0.817219 26.3308 7.54289 30.211C11.3414 32.403 14.4728 34.1729 14.5136 34.1457C14.5408 34.1048 14.5545 30.4969 14.5408 26.113L14.5 18.162L7.88325 21.9741Z" fill="#00718F"/>
<path d="M15.6572 26.1402C15.6572 30.565 15.6981 34.1729 15.7389 34.1729C15.984 34.1729 29.5442 26.2219 29.4489 26.1266C29.3536 26.0313 27.3114 24.8468 18.2849 19.6324L15.6572 18.1212V26.1402Z" fill="#00718F"/>
</g>
<defs>
<clipPath id="clip0_33542_1434">
<rect width="200" height="34.4452" fill="white"/>
</clipPath>
</defs>
</svg>
