<svg width="200" height="63" viewBox="0 0 200 63" fill="none" xmlns="http://www.w3.org/2000/svg">
<path d="M46.6532 25.8182C47.5139 25.8182 48.2117 25.1205 48.2117 24.2598C48.2117 23.399 47.5139 22.7013 46.6532 22.7013C45.7925 22.7013 45.0947 23.399 45.0947 24.2598C45.0947 25.1205 45.7925 25.8182 46.6532 25.8182Z" fill="url(#paint0_linear_33659_1282)"/>
<path d="M31.1694 0C13.9639 0 0 13.9639 0 31.1694C0 48.3749 13.9639 62.3387 31.1694 62.3387C48.3749 62.3387 62.3387 48.3749 62.3387 31.1694C62.3387 13.9639 48.3749 0 31.1694 0ZM45.3203 44.1982C41.6423 48.2502 36.4058 50.5879 30.9823 50.5879H30.9512C25.4342 50.5879 20.1666 48.219 16.4886 44.1046C12.7483 39.928 11.034 34.5668 11.6262 28.9875C12.5924 20.0731 19.7614 12.8729 28.6758 11.8444C29.4239 11.7508 30.2031 11.7197 30.9512 11.7197C35.2525 11.7197 39.3669 13.1223 42.7955 15.7717C43.0137 15.9275 43.1384 16.1769 43.1384 16.4574C43.1384 16.7379 43.0449 16.9873 42.8267 17.1743L40.7695 19.0133C40.5513 19.2003 40.2708 19.325 39.9591 19.325C39.7098 19.325 39.4604 19.2627 39.2734 19.1068C36.811 17.3925 33.9123 16.4886 30.9512 16.4886C26.7745 16.4886 22.7848 18.2964 20.0107 21.4134C17.2055 24.5615 15.8964 28.6446 16.3951 32.8525C17.1432 39.5539 22.5666 44.9774 29.2992 45.7255C29.8602 45.7878 30.4213 45.819 30.9823 45.819C34.9097 45.819 38.5877 44.2605 41.3929 41.4553C41.6111 41.2371 41.9228 41.0812 42.2657 41.0812C42.4838 41.0812 42.7332 41.1436 42.9202 41.2682L45.1956 42.7644C45.4138 42.9202 45.5696 43.1384 45.6008 43.4189C45.6008 43.7306 45.5073 44.0111 45.3203 44.1982ZM46.754 29.0498C44.167 29.0498 42.0475 26.9303 42.0475 24.3433C42.0475 21.7562 44.167 19.6367 46.754 19.6367C49.3411 19.6367 51.4606 21.7562 51.4606 24.3433C51.4606 26.9303 49.3411 29.0498 46.754 29.0498Z" fill="#612FC1"/>
<path d="M99.2309 27.1672C98.8319 26.5937 98.009 25.9703 96.7623 25.297C95.5404 24.5988 94.0568 24.2497 92.3113 24.2497C90.1419 24.2497 88.2967 24.9604 86.7756 26.3817C85.2795 27.7781 84.5314 29.6233 84.5314 31.9174C84.5314 34.2115 85.2795 36.0692 86.7756 37.4905C88.2967 38.8869 90.1419 39.5851 92.3113 39.5851C94.0568 39.5851 95.5404 39.2484 96.7623 38.5752C98.009 37.877 98.8319 37.2411 99.2309 36.6676V43.0262C97.1114 44.7218 94.5305 45.5696 91.4884 45.5696C87.773 45.5696 84.6187 44.2729 82.0254 41.6796C79.457 39.0614 78.1729 35.8073 78.1729 31.9174C78.1729 28.0275 79.457 24.7859 82.0254 22.1926C84.6187 19.5743 87.773 18.2652 91.4884 18.2652C94.5305 18.2652 97.1114 19.113 99.2309 20.8086V27.1672ZM120.768 36.0318V37.6775H108.201C108.251 38.251 108.55 38.7747 109.098 39.2484C109.647 39.7222 110.507 39.9591 111.679 39.9591C113.076 39.9591 114.173 39.4479 114.971 38.4256L120.506 38.9866C120.407 39.6599 120.145 40.3705 119.721 41.1186C119.297 41.8417 118.736 42.5524 118.038 43.2506C117.339 43.9238 116.429 44.4849 115.307 44.9337C114.185 45.3576 112.963 45.5696 111.642 45.5696C108.724 45.5696 106.355 44.5971 104.535 42.6521C102.74 40.7072 101.842 38.3632 101.842 35.6203C101.842 32.9024 102.702 30.6083 104.423 28.7381C106.168 26.843 108.462 25.8955 111.305 25.8955C114.173 25.8955 116.467 26.868 118.187 28.8129C119.908 30.7579 120.768 33.1642 120.768 36.0318ZM108.201 33.3761H114.41C114.36 32.8525 114.048 32.4161 113.474 32.067C112.926 31.693 112.203 31.506 111.305 31.506C110.407 31.506 109.672 31.693 109.098 32.067C108.55 32.4161 108.251 32.8525 108.201 33.3761ZM128.984 17.1431V45.1956H122.626V17.1431H128.984ZM131.246 38.837H137.605C137.605 39.3108 137.866 39.6848 138.39 39.9591C138.939 40.2085 139.662 40.3331 140.559 40.3331C141.831 40.3331 142.467 40.0713 142.467 39.5477C142.467 39.2734 142.28 39.0614 141.906 38.9118C141.532 38.7373 140.672 38.4879 139.325 38.1637C138.702 38.0141 138.203 37.8895 137.829 37.7897C133.814 36.7424 131.807 34.76 131.807 31.8426C131.807 30.0472 132.568 28.6135 134.089 27.5412C135.635 26.4441 137.467 25.8955 139.587 25.8955C142.205 25.8955 144.275 26.5189 145.796 27.7656C147.317 28.9875 148.077 30.4961 148.077 32.2914H141.719C141.719 31.8675 141.507 31.5683 141.083 31.3938C140.684 31.2192 140.26 31.1319 139.811 31.1319C138.714 31.1319 138.166 31.3688 138.166 31.8426C138.166 32.0421 138.278 32.1917 138.502 32.2914C138.752 32.3912 139.462 32.6156 140.634 32.9647C141.582 33.2639 142.392 33.5133 143.065 33.7128C146.906 34.8847 148.826 36.8796 148.826 39.6973C148.826 41.5674 148.015 43.0137 146.394 44.0361C144.774 45.0584 142.779 45.5696 140.41 45.5696C137.592 45.5696 135.36 45.0085 133.715 43.8864C132.069 42.7643 131.246 41.0812 131.246 38.837ZM156 23.3895C155.426 23.963 154.715 24.2497 153.868 24.2497C153.02 24.2497 152.309 23.963 151.736 23.3895C151.162 22.816 150.875 22.1053 150.875 21.2575C150.875 20.4097 151.162 19.699 151.736 19.1255C152.309 18.552 153.02 18.2652 153.868 18.2652C154.715 18.2652 155.426 18.552 156 19.1255C156.573 19.699 156.86 20.4097 156.86 21.2575C156.86 22.1053 156.573 22.816 156 23.3895ZM157.047 26.2695V45.1956H150.688V26.2695H157.047ZM173.419 26.2695H179.777V45.1956H173.793L173.419 42.914C171.299 44.6844 169.117 45.5696 166.873 45.5696C162.31 45.5696 160.028 42.9015 160.028 37.5653V26.2695H166.387V34.4982C166.387 36.4183 166.636 37.7523 167.135 38.5004C167.634 39.2235 168.419 39.5851 169.491 39.5851C170.588 39.5851 171.511 39.236 172.259 38.5378C173.032 37.8146 173.419 36.5928 173.419 34.8723V26.2695ZM182.42 38.837H188.779C188.779 39.3108 189.041 39.6848 189.564 39.9591C190.113 40.2085 190.836 40.3331 191.734 40.3331C193.005 40.3331 193.641 40.0713 193.641 39.5477C193.641 39.2734 193.454 39.0614 193.08 38.9118C192.706 38.7373 191.846 38.4879 190.499 38.1637C189.876 38.0141 189.377 37.8895 189.003 37.7897C184.989 36.7424 182.981 34.76 182.981 31.8426C182.981 30.0472 183.742 28.6135 185.263 27.5412C186.809 26.4441 188.642 25.8955 190.761 25.8955C193.379 25.8955 195.449 26.5189 196.97 27.7656C198.491 28.9875 199.252 30.4961 199.252 32.2914H192.893C192.893 31.8675 192.681 31.5683 192.257 31.3938C191.858 31.2192 191.435 31.1319 190.986 31.1319C189.889 31.1319 189.34 31.3688 189.34 31.8426C189.34 32.0421 189.452 32.1917 189.677 32.2914C189.926 32.3912 190.637 32.6156 191.809 32.9647C192.756 33.2639 193.567 33.5133 194.24 33.7128C198.08 34.8847 200 36.8796 200 39.6973C200 41.5674 199.189 43.0137 197.569 44.0361C195.948 45.0584 193.953 45.5696 191.584 45.5696C188.766 45.5696 186.535 45.0085 184.889 43.8864C183.243 42.7643 182.42 41.0812 182.42 38.837Z" fill="url(#paint1_linear_33659_1282)"/>
<defs>
<linearGradient id="paint0_linear_33659_1282" x1="45.2769" y1="25.8182" x2="48.2886" y2="25.8182" gradientUnits="userSpaceOnUse">
<stop stop-color="#612FC1"/>
<stop offset="1" stop-color="#E83BAF"/>
</linearGradient>
<linearGradient id="paint1_linear_33659_1282" x1="40.5" y1="45.9999" x2="203.008" y2="45.5696" gradientUnits="userSpaceOnUse">
<stop stop-color="#612FC1"/>
<stop offset="1" stop-color="#E83BAF"/>
</linearGradient>
</defs>
</svg>
