<svg width="200" height="38" viewBox="0 0 200 38" fill="none" xmlns="http://www.w3.org/2000/svg">
<g clip-path="url(#clip0_33542_1313)">
<path d="M53.9978 23.6484V27.6466C53.9978 32.4712 51.616 35.2284 47.0224 35.2284C42.4297 35.2284 40.0479 32.4712 40.0479 27.6466V11.9312C40.0479 7.10572 42.4297 4.34935 47.0224 4.34935C51.616 4.34935 53.9978 7.10572 53.9978 11.9312V14.8603H49.5742V11.6212C49.5742 9.44935 48.6224 8.65753 47.1588 8.65753C45.6615 8.65753 44.7433 9.48481 44.7433 11.6212V27.9221C44.7433 30.0939 45.696 30.8521 47.1588 30.8521C48.656 30.8521 49.5742 30.0594 49.5742 27.9221V23.6494H53.9978V23.6484ZM65.4978 34.8848C65.226 34.0912 65.056 33.643 65.056 31.1621V26.4403C65.056 23.6494 64.1033 22.6148 61.9942 22.6148H60.3606V34.9184H55.6651V4.6939H62.7424C67.6078 4.6939 69.6833 6.96844 69.6833 11.6548V14.033C69.6833 17.1348 68.6969 19.1684 66.6215 20.1675C68.9688 21.1675 69.7179 23.4421 69.7179 26.613V31.2648C69.7179 32.7466 69.7515 33.8157 70.2278 34.9184H65.4997V34.8839L65.4978 34.8848ZM60.3951 9.00026V18.2712H62.2333C63.9679 18.2712 65.0569 17.4784 65.0569 15.0666V12.103C65.0569 9.93026 64.3424 9.00026 62.6751 9.00026H60.396H60.3951ZM71.2833 11.9303C71.2833 7.10481 73.8015 4.34844 78.3951 4.34844C82.9888 4.34844 85.506 7.10481 85.506 11.9303V27.6457C85.506 32.4703 82.9879 35.2275 78.3951 35.2275C73.8015 35.2275 71.2833 32.4703 71.2833 27.6457V11.9312V11.9303ZM75.9788 27.9557C75.9788 30.1275 76.9315 30.9194 78.3951 30.9194C79.8924 30.9194 80.8106 30.0921 80.8106 27.9557V11.6548C80.8106 9.4839 79.8579 8.69117 78.3951 8.69117C76.8979 8.69117 75.9788 9.51844 75.9788 11.6548V27.9566V27.9557ZM97.7551 18.7884L96.0542 34.883H89.6233L86.2888 4.69208H90.8479L93.366 28.5075L95.6115 4.69299H100.137L102.485 28.6794L104.901 4.69299H108.983L105.649 34.8839H99.4224L97.7542 18.7884H97.7551ZM110.209 4.69299H117.626C122.321 4.69299 124.601 7.31117 124.601 12.1712V27.4384C124.601 32.2639 122.287 34.9175 117.626 34.9175H110.209V4.6939V4.69299ZM114.904 9.00026V30.5748H117.558C119.055 30.5748 119.94 29.7821 119.94 27.6457V11.9312C119.94 9.75935 119.055 9.00117 117.558 9.00117H114.904V9.00026ZM131.1 17.4094H137.531V21.7184H131.1V30.5748H139.198V34.8839H126.404V4.69299H139.198V9.00026H131.1V17.4094ZM147.261 4.34753C151.821 4.34753 154.169 7.10481 154.169 11.9294V12.8948H149.746V11.6539C149.746 9.48299 148.895 8.69026 147.398 8.69026C145.901 8.69026 145.051 9.51754 145.051 11.6539C145.051 17.8575 154.203 19.0294 154.203 27.6448C154.203 32.4703 151.821 35.2275 147.228 35.2275C142.634 35.2275 140.252 32.4703 140.252 27.6457V25.7848H144.676V27.9557C144.676 30.1275 145.629 30.8857 147.091 30.8857C148.589 30.8857 149.508 30.093 149.508 27.9557C149.508 21.7521 140.355 20.5803 140.355 11.9648C140.355 7.10481 142.702 4.34753 147.261 4.34753ZM154.373 4.69299H168.868V9.00026H163.968V34.883H159.272V9.00208H154.373V4.69299ZM169.344 11.9294C169.344 7.10481 171.862 4.34753 176.455 4.34753C181.049 4.34753 183.567 7.10481 183.567 11.9294V27.6457C183.567 32.4703 181.049 35.2275 176.455 35.2275C171.862 35.2275 169.344 32.4703 169.344 27.6457V11.9312V11.9294ZM174.04 27.9566C174.04 30.1266 174.992 30.9203 176.455 30.9203C177.952 30.9203 178.871 30.093 178.871 27.9566V11.6539C178.871 9.48299 177.919 8.69026 176.455 8.69026C174.958 8.69026 174.04 9.51754 174.04 11.6539V27.9557V27.9566ZM195.237 34.8839C194.965 34.0903 194.795 33.6421 194.795 31.1612V26.4394C194.795 23.6484 193.842 22.6139 191.732 22.6139H190.1V34.9175H185.438V4.6939H192.515C197.381 4.6939 199.456 6.96844 199.456 11.6548V14.033C199.456 17.1348 198.47 19.1684 196.394 20.1675C198.741 21.1675 199.491 23.4421 199.491 26.613V31.2648C199.491 32.7466 199.524 33.8157 200.001 34.9184H195.237V34.8839ZM190.133 9.00026V18.2712H191.971C193.706 18.2712 194.795 17.4784 194.795 15.0666V12.103C194.795 9.93026 194.081 9.00026 192.413 9.00026H190.133Z" fill="#2B2B2B"/>
<path d="M36.7473 7.86386C36.7473 3.90022 33.5491 0.661133 29.6364 0.661133C25.7227 0.661133 22.5245 3.90113 22.5245 7.86386V8.03659L13.5764 10.4493C12.4527 7.93295 9.96909 6.21022 7.11091 6.21022C3.19818 6.21022 0 9.44932 0 13.413C0 17.3766 3.19818 20.6157 7.11091 20.6157C8.18459 20.6127 9.2435 20.3653 10.2073 19.892L17.3527 27.1293C16.8617 28.1143 16.6056 29.1997 16.6045 30.3002C16.6045 34.2639 19.8027 37.503 23.7155 37.503C27.6282 37.503 30.8273 34.2984 30.8273 30.3002C30.8273 27.7848 29.5682 25.5784 27.6627 24.3039L30.1127 15.033C33.8218 14.7911 36.7473 11.6893 36.7473 7.86386ZM23.7155 23.0975C21.9464 23.0975 20.3473 23.752 19.0882 24.8202L12.4873 18.1348C13.6161 16.8215 14.2324 15.1446 14.2227 13.413V13.2748L23.1709 10.8284C23.5596 11.7134 24.1255 12.5094 24.8336 13.1673C25.5417 13.8252 26.3771 14.3311 27.2882 14.6539L25.0082 23.2357C24.6 23.1666 24.1582 23.0975 23.7155 23.0975Z" fill="#FEE000"/>
</g>
<defs>
<clipPath id="clip0_33542_1313">
<rect width="200" height="37.2727" fill="white" transform="translate(0 0.661133)"/>
</clipPath>
</defs>
</svg>
