<svg width="200" height="47" viewBox="0 0 200 47" fill="none" xmlns="http://www.w3.org/2000/svg">
<g clip-path="url(#clip0_33552_1276)">
<path d="M155.565 11.8361V25.3881C155.565 26.1951 155.668 26.914 155.872 27.5494C156.077 28.1848 156.369 28.7229 156.755 29.168C157.14 29.6133 157.608 29.9565 158.166 30.1884C158.723 30.4249 159.355 30.5409 160.066 30.5409C160.771 30.5409 161.407 30.4249 161.964 30.1884C162.523 29.9518 162.991 29.6133 163.377 29.1727C163.763 28.7321 164.055 28.1941 164.259 27.5633C164.463 26.9279 164.565 26.209 164.565 25.4021V11.8361H169.845V25.4067C169.845 26.8119 169.618 28.1013 169.167 29.2748C168.713 30.4481 168.067 31.4591 167.222 32.3079C166.377 33.1567 165.351 33.8152 164.143 34.2883C162.935 34.7614 161.575 34.998 160.066 34.998C158.547 34.998 157.182 34.7614 155.974 34.2883C154.766 33.8152 153.74 33.1567 152.895 32.3079C152.05 31.4591 151.404 30.4481 150.959 29.2748C150.513 28.1013 150.285 26.8119 150.285 25.4067V11.8361H155.565ZM177.913 11.85C178.084 11.85 178.238 11.8778 178.372 11.9288C178.507 11.9798 178.633 12.0633 178.739 12.1747C178.85 12.286 178.958 12.439 179.06 12.6385L184.916 24.2704C185.124 24.6693 185.324 25.0821 185.515 25.5134C185.71 25.9447 185.891 26.3853 186.068 26.8351C186.243 26.376 186.435 25.9262 186.63 25.4902C186.824 25.0542 187.029 24.6321 187.238 24.224L193.08 12.6385C193.182 12.439 193.289 12.286 193.401 12.1747C193.512 12.0633 193.633 11.9845 193.767 11.9288C193.902 11.8778 194.055 11.85 194.227 11.85H198.857V34.7429H194.213V21.5665C194.213 20.9265 194.245 20.2353 194.306 19.4933L188.278 31.269C188.092 31.6354 187.837 31.9137 187.522 32.1038C187.205 32.294 186.843 32.3868 186.435 32.3868H185.715C185.306 32.3868 184.948 32.294 184.628 32.1038C184.312 31.9137 184.056 31.6354 183.871 31.269L177.81 19.4794C177.852 19.8458 177.884 20.2122 177.903 20.574C177.922 20.9357 177.936 21.2697 177.936 21.5711V34.7474H173.283V11.85H177.913ZM147.634 11.8361V16.0473H141.225V34.7429H135.944V16.0473H129.54V11.8361H147.634ZM126.888 11.8361V33.2958C126.888 34.0935 126.243 34.7429 125.449 34.7429H121.576V11.8361H126.888ZM108.986 11.8361C110.561 11.8361 111.897 11.9845 112.999 12.2767C114.104 12.5689 115.004 12.9863 115.701 13.5196C116.398 14.053 116.904 14.7024 117.224 15.4675C117.54 16.2328 117.703 17.0863 117.703 18.0323C117.703 18.5471 117.628 19.0434 117.484 19.5165C117.34 19.9942 117.108 20.4394 116.797 20.8615C116.485 21.2835 116.082 21.6592 115.595 22.0025C115.107 22.3457 114.517 22.6379 113.83 22.8929C115.329 23.2593 116.44 23.853 117.16 24.6786C117.88 25.4994 118.237 26.5569 118.237 27.8463C118.237 28.8202 118.051 29.7292 117.675 30.5687C117.298 31.4081 116.751 32.1363 116.026 32.7625C115.302 33.3886 114.41 33.8755 113.347 34.2234C112.283 34.5759 111.071 34.7521 109.706 34.7521H100.617V11.8361H108.986ZM97.6171 11.8361V15.9221H88.2734V21.265H95.4298V25.1933H88.2734V30.6475H97.6171V34.7336H82.9653V11.8361H97.6171ZM68.6245 11.8361C70.3938 11.8361 72.0053 12.1236 73.4589 12.6988C74.9125 13.2739 76.1525 14.0715 77.1834 15.0872C78.2144 16.103 79.0132 17.3135 79.5844 18.7095C80.151 20.1102 80.4342 21.6314 80.4342 23.2779C80.4342 24.9336 80.151 26.4641 79.5844 27.8601C79.0178 29.2608 78.2144 30.4713 77.1834 31.4916C76.1525 32.512 74.9125 33.3097 73.4589 33.8802C72.0053 34.4507 70.3938 34.7382 68.6245 34.7382H59.7822V11.8361H68.6245ZM109.58 25.0264H105.893V30.7356H109.608C110.305 30.7356 110.876 30.6475 111.317 30.4667C111.759 30.2905 112.107 30.0586 112.358 29.7756C112.608 29.4927 112.78 29.1727 112.873 28.8155C112.965 28.4585 113.012 28.0967 113.012 27.7303C113.012 27.3129 112.957 26.9326 112.849 26.5987C112.738 26.2647 112.553 25.9818 112.287 25.7499C112.023 25.518 111.67 25.3418 111.234 25.2165C110.797 25.0867 110.244 25.0264 109.58 25.0264ZM68.6245 15.9221H65.095V30.6522H68.6245C69.6323 30.6522 70.5332 30.4806 71.3273 30.142C72.1214 29.7989 72.7855 29.3118 73.3335 28.6811C73.8815 28.0457 74.2995 27.2757 74.5921 26.3621C74.8847 25.4531 75.0286 24.4234 75.0286 23.2825C75.0286 22.1509 74.8847 21.1305 74.5921 20.2168C74.2995 19.3031 73.8815 18.5333 73.3335 17.8979C72.7855 17.2625 72.1168 16.7754 71.3273 16.4369C70.5332 16.0937 69.6323 15.9221 68.6245 15.9221ZM108.986 15.8108H105.893V21.4691H108.643C109.223 21.4691 109.752 21.4273 110.221 21.3438C110.69 21.2604 111.089 21.1119 111.414 20.9032C111.744 20.6946 111.991 20.4069 112.167 20.0406C112.339 19.6742 112.422 19.2104 112.422 18.6585C112.422 18.1112 112.358 17.6613 112.218 17.2995C112.083 16.9378 111.875 16.6456 111.591 16.4276C111.308 16.2097 110.955 16.0519 110.519 15.9546C110.091 15.8618 109.58 15.8108 108.986 15.8108Z" fill="#322E55"/>
<path d="M34.2405 28.7414C34.1429 26.6126 33.9387 24.4884 33.6321 22.3782C32.9867 17.7587 31.9928 13.7005 30.5995 9.96693C29.7358 7.6109 28.8534 5.76037 27.8132 4.13709C27.1259 3.05645 26.4478 2.23554 25.6769 1.55376C25.1568 1.10851 24.6785 0.797774 24.1722 0.575153C23.731 0.38036 23.039 0.171652 22.245 0.269049C21.618 0.33398 20.9678 0.60298 20.4152 1.01576C19.9647 1.35433 19.5607 1.77174 19.1428 2.33757C18.5251 3.20023 18.0096 4.19275 17.5731 5.37542C17.3594 5.95517 17.1644 6.53955 16.9972 7.12856L16.9229 7.38364L19.0916 7.71758L19.1335 7.49496C19.2309 6.96623 19.3425 6.4607 19.4678 5.99227C19.7697 4.88843 20.1319 4.01187 20.5638 3.31154C20.9586 2.69005 21.6087 1.92479 22.4586 1.78102C23.1319 1.66043 23.9632 1.95726 24.7946 2.62048C25.4772 3.1724 26.1273 3.89592 26.7776 4.83279C27.79 6.29837 28.6863 8.05151 29.5965 10.3426C30.9665 13.9974 31.9464 17.9814 32.5872 22.5126C33.1817 27.067 33.2791 31.1623 32.8891 35.0258C32.759 36.2548 32.5593 37.4746 32.29 38.6758L32.2343 38.917L33.7204 39.1721L33.7622 38.9495C33.9665 37.7992 34.1105 36.5563 34.208 35.1463C34.3473 33.1335 34.3566 31.0325 34.2405 28.7414Z" fill="url(#paint0_linear_33552_1276)"/>
<path d="M39.247 20.6064C37.5845 19.5674 35.8661 18.6213 34.0968 17.7679C32.9358 17.1975 31.7515 16.6641 30.5533 16.1725C30.5626 16.089 30.5673 16.0055 30.5673 15.9267C30.5673 14.7301 29.6153 13.7561 28.4496 13.7561C27.7576 13.7561 27.1122 14.1086 26.7173 14.693C22.8071 13.3063 19.1708 12.3879 15.6089 11.8871C13.0965 11.5206 11.0206 11.4232 9.0747 11.5716C7.77902 11.669 6.72482 11.8871 5.74957 12.2534C5.10405 12.5085 4.59785 12.796 4.15666 13.1485C3.77121 13.4547 3.25108 13.988 2.95386 14.7626C2.88885 14.9295 2.83776 15.1011 2.79596 15.2774L2.74023 15.5278L4.30063 15.7968L4.34243 15.5696C4.36101 15.4675 4.37958 15.3887 4.4028 15.3191C4.61643 14.6466 5.28053 14.0391 6.2697 13.6031C7.0917 13.2506 8.04837 13.0141 9.19545 12.875C10.9881 12.6709 12.9804 12.7126 15.4603 13.0048C18.9479 13.4871 22.5052 14.3823 26.3412 15.7319C26.332 15.7968 26.332 15.8571 26.332 15.9221C26.332 17.1187 27.284 18.0926 28.4496 18.0926C29.1183 18.0926 29.7314 17.7726 30.1307 17.23C33.1865 18.5564 35.9776 20.0591 38.4343 21.6963L38.6061 21.8076L39.4745 20.7548L39.247 20.6064Z" fill="url(#paint1_linear_33552_1276)"/>
<path d="M43.5006 9.38259C43.3241 8.68691 42.9665 8.04223 42.4975 7.57844C42.0331 7.10536 41.3922 6.74361 40.6909 6.55809C40.129 6.40968 39.5345 6.34474 38.8194 6.36793C37.7652 6.41431 36.6878 6.62766 35.4339 7.04044C33.5901 7.648 31.7047 8.54313 29.4988 9.86032C27.6459 10.9641 25.8579 12.1839 24.1536 13.5011C22.4445 14.7997 20.8005 16.1818 19.2261 17.6381C15.771 20.8012 12.9753 23.9318 10.6951 27.1969C9.96137 28.2311 9.28332 29.2979 8.66566 30.4064L8.54492 30.6105L9.61305 31.1392L9.71521 30.9397C10.2864 29.8637 10.9134 28.8155 11.596 27.8045C13.8299 24.6043 16.5652 21.5294 19.9553 18.4126C23.3872 15.3238 26.7309 12.8982 30.1675 11.0012C32.3317 9.8371 34.1568 9.06721 35.9122 8.57559C37.0082 8.26485 37.9649 8.11644 38.838 8.12107C39.869 8.13035 40.6584 8.39471 41.0764 8.87705C41.6012 9.4568 41.6197 10.3983 41.5361 11.0847C41.434 11.8917 41.16 12.7776 40.7095 13.7933C39.9943 15.3702 38.982 16.9981 37.5237 18.9136L37.2776 19.2196L36.9432 19.6371L39.6599 21.0146L39.7714 20.8383L39.8643 20.6992C39.9015 20.6481 39.934 20.5925 39.9711 20.5415C41.3271 18.3617 42.2653 16.4832 42.9154 14.6234C43.3426 13.4176 43.5842 12.3138 43.6492 11.2516C43.6956 10.5421 43.6445 9.94373 43.5006 9.38259Z" fill="url(#paint2_linear_33552_1276)"/>
<path d="M47.4573 28.9175C47.3459 28.3609 47.1369 27.8183 46.8024 27.2015C46.2963 26.3017 45.6229 25.4623 44.6987 24.5532C43.3288 23.2221 41.6801 21.9791 39.5067 20.6388C39.3906 20.5692 39.2791 20.4996 39.163 20.4347L38.7962 20.2167L37.9417 21.2139L38.3736 21.4875C38.5082 21.5756 38.6475 21.6591 38.7822 21.7472C40.7978 23.1154 42.307 24.3631 43.5284 25.6663C44.2808 26.4686 44.8566 27.2571 45.2375 28.0084C45.6833 28.9082 45.7947 29.7152 45.5393 30.2903C45.2467 31.0092 44.3969 31.4452 43.7328 31.6771C42.9526 31.9461 42.0284 32.1037 40.9046 32.164C39.1538 32.2475 37.2264 32.0899 34.8394 31.6724C31.2263 31.0139 27.3208 29.9239 22.8996 28.3471C18.3532 26.7005 14.754 25.1051 11.5635 23.3288C9.44123 22.1183 7.86226 21.0052 6.58515 19.8364C5.75386 19.0619 5.1455 18.3384 4.72753 17.6287C4.67645 17.536 4.62536 17.4386 4.57428 17.3412C5.2941 16.947 5.73993 16.1956 5.74457 15.3748C5.74457 14.1271 4.7136 13.116 3.44114 13.116C2.16867 13.116 1.1377 14.1317 1.1377 15.3748C1.1377 16.3997 1.84823 17.2949 2.84206 17.5592C2.93493 17.8421 3.05569 18.1297 3.19036 18.4172C3.6594 19.3587 4.29564 20.2677 5.13621 21.1999C6.45047 22.6702 8.0248 24.0523 10.0914 25.5457C13.4722 27.9713 17.3639 30.012 21.6597 31.6029C25.9926 33.1844 30.293 34.1723 34.4447 34.5341C35.5175 34.6268 36.5903 34.6732 37.6677 34.6778C38.8983 34.6778 40.0361 34.6082 41.1228 34.4644C42.4093 34.2975 43.5145 34.0146 44.5083 33.6018C45.1678 33.3143 45.6879 33.0081 46.1338 32.6325C46.691 32.1687 47.1137 31.5704 47.3272 30.9536C47.5548 30.295 47.6013 29.5947 47.4573 28.9175Z" fill="url(#paint3_linear_33552_1276)"/>
<path d="M33.0703 36.6026C32.0207 36.6026 31.1662 37.4374 31.1662 38.4624C31.1662 39.0329 31.431 39.5663 31.8861 39.9141C31.8071 40.1692 31.7236 40.4335 31.6307 40.6933C31.2591 41.7321 30.8179 42.6087 30.3164 43.2951C29.7126 44.116 29.0253 44.5938 28.3799 44.6494C27.581 44.7375 26.7776 44.2041 26.2436 43.7404C25.6259 43.1931 25.0362 42.4603 24.4417 41.5142C23.5268 40.0301 22.7466 38.2815 21.9804 36.0089C20.8472 32.5537 19.9648 28.6392 19.2822 24.043C18.6042 19.317 18.3301 15.4258 18.4184 11.8035C18.4369 11.2516 18.4741 10.6765 18.5159 10.0875C19.9091 9.76285 20.8983 8.5477 20.8983 7.13777C20.8983 5.46348 19.5005 4.09991 17.7821 4.09991C16.0639 4.09991 14.666 5.46348 14.666 7.13777C14.666 8.14884 15.1723 9.07642 16.0267 9.64226C15.9013 10.2823 15.7899 10.9269 15.6924 11.5716C15.1026 15.6715 15.1119 20.0312 15.7203 24.5254C16.3565 29.0474 17.5221 33.2587 19.1847 37.0431C20.2295 39.3854 21.2698 41.2173 22.454 42.8174C23.2204 43.8517 24.0098 44.6819 24.8689 45.3498C25.4494 45.7904 25.9789 46.0918 26.5315 46.3005C27.0238 46.4861 27.5486 46.5834 28.0501 46.5834C28.2498 46.5834 28.4448 46.5695 28.6306 46.5371C29.3319 46.4258 29.9867 46.1289 30.5393 45.6836C30.9898 45.3219 31.3891 44.8813 31.7886 44.2923C32.3645 43.425 32.8102 42.4371 33.1911 41.1942C33.284 40.8834 33.3675 40.568 33.4465 40.2712C34.3242 40.0996 34.965 39.3436 34.965 38.4578C34.9743 37.4374 34.1199 36.6026 33.0703 36.6026Z" fill="url(#paint4_linear_33552_1276)"/>
<path d="M42.3674 19.5118C42.2792 18.4915 41.7869 17.5546 40.9975 16.9053C40.2079 16.2467 39.1909 15.9313 38.1646 16.0241C36.033 16.2096 34.4447 18.0833 34.6305 20.1936C34.6723 20.6991 34.8209 21.1861 35.0578 21.6406C33.3302 23.6164 31.389 25.6107 29.1227 27.7302C25.57 31.0232 22.4817 33.5091 19.412 35.5452C17.3454 36.8856 15.6132 37.7899 13.9599 38.3975C12.8685 38.7871 11.9305 39.0004 11.0946 39.0514C10.3514 39.0886 9.33444 39.0005 8.72143 38.3882C8.22916 37.9105 7.99231 37.0572 8.05733 35.995C8.1177 35.1138 8.33597 34.163 8.73071 33.0917C8.84218 32.7948 8.96756 32.4841 9.11617 32.1502C10.031 32.2198 10.8298 31.5334 10.8994 30.6197C10.9041 30.5362 10.9041 30.4481 10.8994 30.36C10.8159 29.4509 10.0125 28.7784 9.09759 28.8619C8.18272 28.9408 7.50934 29.7384 7.58364 30.6522C7.61615 31.0093 7.76475 31.3432 8.00625 31.6076C7.84371 31.9461 7.69045 32.2847 7.54649 32.6326C7.04957 33.8245 6.76629 34.8541 6.65019 35.8791C6.58517 36.5656 6.60839 37.136 6.71985 37.6786C6.81273 38.1517 7.04493 38.8474 7.59293 39.4411C8.01553 39.9141 8.61462 40.2944 9.28336 40.5078C9.82675 40.684 10.4072 40.7721 11.1224 40.786H11.2014C12.2509 40.786 13.3515 40.6284 14.5544 40.313C16.5002 39.8074 18.4786 39.0329 20.7773 37.8688C24.5297 35.9579 28.1567 33.4117 31.5561 30.3043C33.7899 28.2543 35.838 26.0142 37.677 23.6024C39.0841 23.9086 40.5424 23.417 41.4711 22.3178C42.1352 21.5432 42.4557 20.5322 42.3674 19.5118Z" fill="url(#paint5_linear_33552_1276)"/>
</g>
<defs>
<linearGradient id="paint0_linear_33552_1276" x1="53.972" y1="63.8478" x2="21.1113" y2="5.58806" gradientUnits="userSpaceOnUse">
<stop stop-color="#FC62B3"/>
<stop offset="1" stop-color="#7754FF"/>
</linearGradient>
<linearGradient id="paint1_linear_33552_1276" x1="39.6815" y1="18.6853" x2="-17.5818" y2="10.1291" gradientUnits="userSpaceOnUse">
<stop stop-color="#FC62B3"/>
<stop offset="1" stop-color="#7754FF"/>
</linearGradient>
<linearGradient id="paint2_linear_33552_1276" x1="39.3972" y1="20.7591" x2="13.914" y2="17.292" gradientUnits="userSpaceOnUse">
<stop stop-color="#FC62B3"/>
<stop offset="1" stop-color="#7754FF"/>
</linearGradient>
<linearGradient id="paint3_linear_33552_1276" x1="35.0145" y1="14.9911" x2="6.33729" y2="36.3526" gradientUnits="userSpaceOnUse">
<stop stop-color="#FC62B3"/>
<stop offset="1" stop-color="#7754FF"/>
</linearGradient>
<linearGradient id="paint4_linear_33552_1276" x1="47.2288" y1="64.4766" x2="13.4443" y2="11.6031" gradientUnits="userSpaceOnUse">
<stop stop-color="#FC62B3"/>
<stop offset="1" stop-color="#7754FF"/>
</linearGradient>
<linearGradient id="paint5_linear_33552_1276" x1="39.9631" y1="23.2681" x2="10.5085" y2="33.8695" gradientUnits="userSpaceOnUse">
<stop stop-color="#FC62B3"/>
<stop offset="1" stop-color="#7754FF"/>
</linearGradient>
<clipPath id="clip0_33552_1276">
<rect width="200" height="46.8293" fill="white"/>
</clipPath>
</defs>
</svg>
