<?xml version="1.0" standalone="yes"?>
<svg xmlns="http://www.w3.org/2000/svg" width="360" height="110">
<path style="fill:#fefeff; stroke:none;" d="M0 0L0 110L360 110L360 0L0 0z"/>
<path style="fill:#c1b6df; stroke:none;" d="M96 3L96 4L111 5L96 3z"/>
<path style="fill:#887bb0; stroke:none;" d="M96.3333 4.66666L96.6667 5.33334L96.3333 4.66666z"/>
<path style="fill:#614d9c; stroke:none;" d="M97 4L97 45C90.8366 41.4033 84.2511 38.4343 77 38.1042C33.5166 36.1246 31.2701 104.543 75 104.996C83.4227 105.083 89.4111 102.16 97 99L97 105L110 105L109.999 65L110 5L97 4z"/>
<path style="fill:#887bb0; stroke:none;" d="M109 4L110 5L109 4z"/>
<path style="fill:#c1b6df; stroke:none;" d="M96 6L97 7L96 6z"/>
<path style="fill:#887bb0; stroke:none;" d="M109 6L110 7L109 6M96 7L96 42L97 42L96 7M109 8L109 58L110 58C110 43.9507 114.409 20.8896 109 8z"/>
<path style="fill:#c1b6df; stroke:none;" d="M72 37L72 38L80 38L72 37M67.6667 38.3333L68.3333 38.6667L67.6667 38.3333z"/>
<path style="fill:#887bb0; stroke:none;" d="M69 38L69 39L72 39L69 38M80 38L80 39L83 39L80 38z"/>
<path style="fill:#c1b6df; stroke:none;" d="M83.6667 38.3333L84.3333 38.6667L83.6667 38.3333M144.667 38.3333L145.333 38.6667L144.667 38.3333z"/>
<path style="fill:#6ac0ea; stroke:none;" d="M119 66L110 59C110 64.3329 108.702 71.617 110.514 76.6752C113.536 85.1128 130.003 98.6712 138 102.33C157.103 111.07 181.827 100.574 185.678 79C191.205 48.04 156.384 25.4596 131.015 45.5293C124.446 50.7262 121.261 58.1877 119 66z"/>
<path style="fill:#c1b6df; stroke:none;" d="M64 39L65 40L64 39z"/>
<path style="fill:#887bb0; stroke:none;" d="M65.6667 39.3333L66.3333 39.6667L65.6667 39.3333M85 39L86 40L85 39z"/>
<path style="fill:#c1b6df; stroke:none;" d="M86.6667 39.3333L87.3333 39.6667L86.6667 39.3333M142 39L143 40L142 39M163 39L164 40L163 39z"/>
<path style="fill:#887bb0; stroke:none;" d="M62 40L63 41L62 40M88 40L89 41L88 40z"/>
<path style="fill:#c1b6df; stroke:none;" d="M89 40L90 41L89 40M139 40L140 41L139 40M59 41L60 42L59 41z"/>
<path style="fill:#887bb0; stroke:none;" d="M60 41L61 42L60 41M90 41L90 42L93 43L90 41z"/>
<path style="fill:#c1b6df; stroke:none;" d="M92 41L93 42L92 41M137 41L138 42L137 41M168 41L169 42L168 41M58 42L59 43L58 42M93 42L94 43L93 42M96 42L95 44L96 42M135 42L136 43L135 42M56 43L57 44L56 43z"/>
<path style="fill:#887bb0; stroke:none;" d="M57 43L58 44L57 43M94 43L95 44L94 43M96.3333 43.6667L96.6667 44.3333L96.3333 43.6667z"/>
<path style="fill:#c1b6df; stroke:none;" d="M133 43L134 44L133 43M55 44L56 45L55 44M132 44L133 45L132 44z"/>
<path style="fill:#887bb0; stroke:none;" d="M54 45L55 46L54 45z"/>
<path style="fill:#c1b6df; stroke:none;" d="M174 45L175 46L174 45M52 46L51 48L52 46z"/>
<path style="fill:#887bb0; stroke:none;" d="M53 46L54 47L53 46z"/>
<path style="fill:#c1b6df; stroke:none;" d="M175 46L176 47L175 46z"/>
<path style="fill:#887bb0; stroke:none;" d="M52 47L53 48L52 47z"/>
<path style="fill:#c1b6df; stroke:none;" d="M176 47L177 48L176 47M50 48L51 49L50 48z"/>
<path style="fill:#887bb0; stroke:none;" d="M50 49L51 50L50 49z"/>
<path style="fill:#c1b6df; stroke:none;" d="M178 49L179 50L178 49z"/>
<path style="fill:#887bb0; stroke:none;" d="M49 50L50 51L49 50z"/>
<path style="fill:#c1b6df; stroke:none;" d="M179 50L180 51L179 50M48 51L49 52L48 51z"/>
<path style="fill:#887bb0; stroke:none;" d="M71 51L72 52L71 51z"/>
<path style="fill:#c1b6df; stroke:none;" d="M72 51L72 52L80 52L72 51z"/>
<path style="fill:#887bb0; stroke:none;" d="M80 51L81 52L80 51z"/>
<path style="fill:#c1b6df; stroke:none;" d="M125 51L126 52L125 51M149.667 51.3333L150.333 51.6667L149.667 51.3333z"/>
<path style="fill:#fefeff; stroke:none;" d="M151 51.4792C124.621 54.5628 128.663 94.7847 155 91.811C180.899 88.8867 176.573 48.4897 151 51.4792z"/>
<path style="fill:#c1b6df; stroke:none;" d="M155 51L156 52L155 51M47 52L48 53L47 52z"/>
<path style="fill:#887bb0; stroke:none;" d="M68 52L69 53L68 52z"/>
<path style="fill:#c1b6df; stroke:none;" d="M69 52L70 53L69 52z"/>
<path style="fill:#fefeff; stroke:none;" d="M70 52.6381C45.6058 59.6888 56.7607 98.2072 81 91.2106C106.53 83.8415 95.4314 45.2877 70 52.6381z"/>
<path style="fill:#c1b6df; stroke:none;" d="M82 52L83 53L82 52z"/>
<path style="fill:#887bb0; stroke:none;" d="M83 52L84 53L83 52z"/>
<path style="fill:#c1b6df; stroke:none;" d="M124 52L125 53L124 52M145 52L146 53L145 52M160 52L161 53L160 52z"/>
<path style="fill:#887bb0; stroke:none;" d="M47 53L48 54L47 53M66 53L67 54L66 53z"/>
<path style="fill:#c1b6df; stroke:none;" d="M67 53L68 54L67 53M84 53L85 54L84 53z"/>
<path style="fill:#887bb0; stroke:none;" d="M85 53L86 54L85 53z"/>
<path style="fill:#c1b6df; stroke:none;" d="M143 53L144 54L143 53M181 53L182 54L181 53M46 54L47 55L46 54z"/>
<path style="fill:#887bb0; stroke:none;" d="M64 54L65 55L64 54z"/>
<path style="fill:#c1b6df; stroke:none;" d="M65 54L66 55L65 54M86 54L87 55L86 54z"/>
<path style="fill:#887bb0; stroke:none;" d="M87 54L88 55L87 54z"/>
<path style="fill:#c1b6df; stroke:none;" d="M123 54L124 55L123 54M141 54L142 55L141 54M163 54L164 55L163 54M63 55L64 56L63 55z"/>
<path style="fill:#887bb0; stroke:none;" d="M88 55L89 56L88 55z"/>
<path style="fill:#c1b6df; stroke:none;" d="M140 55L141 56L140 55M182 55L183 56L182 55z"/>
<path style="fill:#887bb0; stroke:none;" d="M45.3333 56.6667L45.6667 57.3333L45.3333 56.6667z"/>
<path style="fill:#c1b6df; stroke:none;" d="M62 56L63 57L62 56M89 56L90 57L89 56M166 56L167 57L166 56z"/>
<path style="fill:#887bb0; stroke:none;" d="M60 57L61 58L60 57z"/>
<path style="fill:#c1b6df; stroke:none;" d="M61 57L62 58L61 57M90 57L91 58L90 57M167 57L168 58L167 57M183 57L184 58L183 57M44 58L45 59L44 58M60 58L61 59L60 58M91 58L92 59L91 58M110 58L111 59L110 58M121 58L122 59L121 58z"/>
<path style="fill:#887bb0; stroke:none;" d="M44 59L45 60L44 59z"/>
<path style="fill:#c1b6df; stroke:none;" d="M59 59L60 60L59 59z"/>
<path style="fill:#887bb0; stroke:none;" d="M92 59L93 60L92 59z"/>
<path style="fill:#c1b6df; stroke:none;" d="M111 59L112 60L111 59M184 59L185 60L184 59M217 59L216 61L217 59z"/>
<path style="fill:#887bb0; stroke:none;" d="M218 59L219 60L218 59z"/>
<path style="fill:#c1b6df; stroke:none;" d="M219 59L220 60L219 59M43 60L44 61L43 60z"/>
<path style="fill:#887bb0; stroke:none;" d="M58 60L59 61L58 60M93 60L94 61L93 60z"/>
<path style="fill:#c1b6df; stroke:none;" d="M112 60L113 61L112 60M120 60L121 61L120 60M135 60L136 61L135 60M201 60L201 61L214 62L201 60z"/>
<path style="fill:#614d9c; stroke:none;" d="M217 60L217 64L221 63L221 61L217 60z"/>
<path style="fill:#887bb0; stroke:none;" d="M220 60L221 61L220 60M43.3333 61.6667L43.6667 62.3333L43.3333 61.6667z"/>
<path style="fill:#c1b6df; stroke:none;" d="M58 61L59 62L58 61M93 61L94 62L93 61M113 61L114 62L113 61M170 61L171 62L170 61z"/>
<path style="fill:#887bb0; stroke:none;" d="M200 61L201 62L200 61z"/>
<path style="fill:#614d9c; stroke:none;" d="M201 61L201 83L204 83C204.025 75.9418 205.401 74.1725 212 72L212 71C206.744 70.8288 204.414 69.4285 204 64L212 64L212 61L201 61z"/>
<path style="fill:#887bb0; stroke:none;" d="M212.333 61.6667L212.667 62.3333L212.333 61.6667M216.333 61.6667L216.667 62.3333L216.333 61.6667z"/>
<path style="fill:#c1b6df; stroke:none;" d="M221.333 61.6667L221.667 62.3333L221.333 61.6667M57.3333 62.6667L57.6667 63.3333L57.3333 62.6667z"/>
<path style="fill:#887bb0; stroke:none;" d="M94 62L95 63L94 62z"/>
<path style="fill:#c1b6df; stroke:none;" d="M114 62L115 63L114 62M134 62L135 63L134 62M185 62L186 63L185 62M200 62L200 82L201 82L200 62M42 63L42 66L43 66L42 63M94 63L95 64L94 63M115 63L116 64L115 63M171 63L172 64L171 63M212 63L213 64L212 63M216 63L217 64L216 63z"/>
<path style="fill:#887bb0; stroke:none;" d="M220 63L221 64L220 63M56 64L57 65L56 64M95.3333 64.6667L95.6667 65.3333L95.3333 64.6667z"/>
<path style="fill:#c1b6df; stroke:none;" d="M116 64L117 65L116 64M119 64L120 65L119 64M133 64L134 65L133 64z"/>
<path style="fill:#887bb0; stroke:none;" d="M204 64L204 70L205 70L204 64z"/>
<path style="fill:#c1b6df; stroke:none;" d="M206.667 64.3333L207.333 64.6667L206.667 64.3333M209.667 64.3333L210.333 64.6667L209.667 64.3333M217 64L217 65L220 65L217 64M56.3333 65.6667L56.6667 66.3333L56.3333 65.6667M117 65L118 66L117 65z"/>
<path style="fill:#887bb0; stroke:none;" d="M42.3333 66.6667L42.6667 67.3333L42.3333 66.6667z"/>
<path style="fill:#c1b6df; stroke:none;" d="M95 66L96 67L95 66M172 66L173 67L172 66M186 66L186 70L187 70L186 66M233 66L233 67L236 67L233 66M248 66L248 67L253 67L248 66M269 66L269 67L272 67L269 66M286 66L286 67L290 67L286 66M300 66L300 67L304 67L300 66z"/>
<path style="fill:#887bb0; stroke:none;" d="M55 67L55 70L56 70L55 67z"/>
<path style="fill:#c1b6df; stroke:none;" d="M216 67L216 84L217 84L216 67z"/>
<path style="fill:#887bb0; stroke:none;" d="M217 67L217 68L220 68C220 72.9126 221.564 80.0412 217 83L217 84C223.02 82.0019 223.02 68.9982 217 67z"/>
<path style="fill:#c1b6df; stroke:none;" d="M220 67L221 68L220 67M224 67L224 83L225 83L224 67z"/>
<path style="fill:#887bb0; stroke:none;" d="M225 67L225 68L229 69L229 68L225 67z"/>
<path style="fill:#c1b6df; stroke:none;" d="M228 67L229 68L228 67M230 67L229 69L230 67z"/>
<path style="fill:#887bb0; stroke:none;" d="M231.667 67.3333L232.333 67.6667L231.667 67.3333z"/>
<path style="fill:#614d9c; stroke:none;" d="M225 68L225 83L229 83C228.104 69.0877 236 68.8344 236 83L239 83C239 69.2836 238.146 68.5151 225 68z"/>
<path style="fill:#887bb0; stroke:none;" d="M236 67L237 68L236 67z"/>
<path style="fill:#c1b6df; stroke:none;" d="M237 67L238 68L237 67M244.667 67.3333L245.333 67.6667L244.667 67.3333z"/>
<path style="fill:#887bb0; stroke:none;" d="M246.667 67.3333L247.333 67.6667L246.667 67.3333z"/>
<path style="fill:#614d9c; stroke:none;" d="M245 70C249.068 69.6363 251.659 69.8007 253 74C249.688 74.0391 238.793 77.2832 245.449 81.9684C248.161 83.8775 253.765 82.7301 257 83C255.891 78.3408 253.991 58.1919 245 70z"/>
<path style="fill:#887bb0; stroke:none;" d="M253 67L254 68L253 67z"/>
<path style="fill:#c1b6df; stroke:none;" d="M254 67L255 68L254 67M260 67L261 84L262 84L260 67z"/>
<path style="fill:#887bb0; stroke:none;" d="M261 67L262 68L261 67z"/>
<path style="fill:#614d9c; stroke:none;" d="M262 67L261 83L265 83C264.04 68.8539 272 68.7071 272 83L275 83C275 78.9597 276.777 69.5725 271.852 67.8457C269.073 66.8714 266.682 68.3897 264 67L262 67z"/>
<path style="fill:#c1b6df; stroke:none;" d="M264 67L265 68L264 67M266 67L267 68L266 67z"/>
<path style="fill:#887bb0; stroke:none;" d="M267.667 67.3333L268.333 67.6667L267.667 67.3333M272.667 67.3333L273.333 67.6667L272.667 67.3333z"/>
<path style="fill:#c1b6df; stroke:none;" d="M283 67L284 68L283 67z"/>
<path style="fill:#887bb0; stroke:none;" d="M284 67L285 68L284 67z"/>
<path style="fill:#614d9c; stroke:none;" d="M292 80C281.429 81.9396 281.469 70.342 292 70C288.087 62.0836 277.917 70.884 279.917 78C281.3 82.9224 290.718 85.9836 292 80z"/>
<path style="fill:#887bb0; stroke:none;" d="M290.667 67.3333L291.333 67.6667L290.667 67.3333z"/>
<path style="fill:#c1b6df; stroke:none;" d="M298 67L299 68L298 67z"/>
<path style="fill:#887bb0; stroke:none;" d="M299 67L300 68L299 67z"/>
<path style="fill:#614d9c; stroke:none;" d="M308 80C303.551 80.916 301.434 79.8953 298 77L309 76C308.452 65.9651 295.568 64.0361 295.111 75C294.833 81.6651 306.451 87.2266 308 80z"/>
<path style="fill:#887bb0; stroke:none;" d="M304.667 67.3333L305.333 67.6667L304.667 67.3333M96 68L96 76L97 76L96 68z"/>
<path style="fill:#c1b6df; stroke:none;" d="M132.333 68.6667L132.667 69.3333L132.333 68.6667z"/>
<path style="fill:#614d9c; stroke:none;" d="M217 68L217 83L220 83L220 68L217 68z"/>
<path style="fill:#887bb0; stroke:none;" d="M238 68L239 69L238 68M244 68L246 71L244 68z"/>
<path style="fill:#c1b6df; stroke:none;" d="M255 68L256 69L255 68z"/>
<path style="fill:#887bb0; stroke:none;" d="M264 68L264 69L267 69L264 68M274 68L275 69L274 68M282 68L283 69L282 68z"/>
<path style="fill:#c1b6df; stroke:none;" d="M292 68L292 71L293 71L292 68z"/>
<path style="fill:#887bb0; stroke:none;" d="M297 68L298 69L297 68M306 68L308 70L306 68z"/>
<path style="fill:#c1b6df; stroke:none;" d="M307 68L308 69L307 68M239.333 69.6667L239.667 70.3333L239.333 69.6667z"/>
<path style="fill:#887bb0; stroke:none;" d="M247 69L248 70L247 69M249.667 69.3333L250.333 69.6667L249.667 69.3333z"/>
<path style="fill:#c1b6df; stroke:none;" d="M256.333 69.6667L256.667 70.3333L256.333 69.6667M275 69L276 70L275 69z"/>
<path style="fill:#887bb0; stroke:none;" d="M281 69L282 70L281 69z"/>
<path style="fill:#c1b6df; stroke:none;" d="M296 69L297 70L296 69z"/>
<path style="fill:#887bb0; stroke:none;" d="M301.667 69.3333L302.333 69.6667L301.667 69.3333z"/>
<path style="fill:#c1b6df; stroke:none;" d="M55 70L55 74L56 74L55 70z"/>
<path style="fill:#887bb0; stroke:none;" d="M205 70L205 71L212 71L205 70M230.667 70.3333L231.333 70.6667L230.667 70.3333z"/>
<path style="fill:#c1b6df; stroke:none;" d="M232.667 70.3333L233.333 70.6667L232.667 70.3333z"/>
<path style="fill:#887bb0; stroke:none;" d="M234 70L235 71L234 70z"/>
<path style="fill:#c1b6df; stroke:none;" d="M244 70L245 71L244 70M246.667 70.3333L247.333 70.6667L246.667 70.3333M251 70L252 73L253 73L251 70z"/>
<path style="fill:#887bb0; stroke:none;" d="M252 70L253 71L252 70M266 70L265 72L266 70z"/>
<path style="fill:#c1b6df; stroke:none;" d="M267 70L267 71L270 71L267 70z"/>
<path style="fill:#887bb0; stroke:none;" d="M270 70L271 71L270 70M275 70C275 74.5696 276.224 80.2615 272 83L272 84C277.34 82.2278 276.896 74.5195 275 70M280 70L281 71L280 70M285 70L286 71L285 70z"/>
<path style="fill:#c1b6df; stroke:none;" d="M286 70L287 71L286 70M289.667 70.3333L290.333 70.6667L289.667 70.3333z"/>
<path style="fill:#887bb0; stroke:none;" d="M291 70L292 71L291 70z"/>
<path style="fill:#c1b6df; stroke:none;" d="M295.333 70.6667L295.667 71.3333L295.333 70.6667z"/>
<path style="fill:#887bb0; stroke:none;" d="M299 70L300 71L299 70z"/>
<path style="fill:#c1b6df; stroke:none;" d="M300 70L299 72L300 70z"/>
<path style="fill:#fefeff; stroke:none;" d="M299 73L305 73C302.546 70.7029 301.454 70.7029 299 73z"/>
<path style="fill:#c1b6df; stroke:none;" d="M303 70L304 71L303 70M308 70L309 71L308 70M212 71L211 74L212 71z"/>
<path style="fill:#887bb0; stroke:none;" d="M229 71L230 72L229 71M235 71L236 72L235 71M239 71C239 75.386 240.033 80.3854 236 83L236 84C241.171 82.2839 240.853 75.4158 239 71M256 71L256 82L257 82L256 71z"/>
<path style="fill:#c1b6df; stroke:none;" d="M266 71L267 72L266 71z"/>
<path style="fill:#887bb0; stroke:none;" d="M271 71L272 72L271 71M284 71L285 72L284 71z"/>
<path style="fill:#c1b6df; stroke:none;" d="M304 71L305 72L304 71z"/>
<path style="fill:#887bb0; stroke:none;" d="M308 71L309 72L308 71z"/>
<path style="fill:#c1b6df; stroke:none;" d="M186 72L186 77L187 77L186 72z"/>
<path style="fill:#887bb0; stroke:none;" d="M211 72L212 73L211 72z"/>
<path style="fill:#c1b6df; stroke:none;" d="M235 72L235 84L236 84L235 72z"/>
<path style="fill:#887bb0; stroke:none;" d="M264 72L265 73L264 72z"/>
<path style="fill:#c1b6df; stroke:none;" d="M271 72L271 84L272 84L271 72z"/>
<path style="fill:#887bb0; stroke:none;" d="M279 72L279 75L280 75L279 72M283 72L284 73L283 72M295 72L296 73L295 72M298 72L299 73L298 72M305.333 72.6667L305.667 73.3333L305.333 72.6667z"/>
<path style="fill:#c1b6df; stroke:none;" d="M309 72L309 76L299 76L299 77L310 77L309 72M132 73L132 76L133 76L132 73z"/>
<path style="fill:#887bb0; stroke:none;" d="M205 73L205 74L211 74L205 73z"/>
<path style="fill:#c1b6df; stroke:none;" d="M246.667 73.3333L247.333 73.6667L246.667 73.3333z"/>
<path style="fill:#887bb0; stroke:none;" d="M248 73L248 74L253 74L248 73z"/>
<path style="fill:#c1b6df; stroke:none;" d="M283 73L284 79L285 79L283 73M299 73L299 74L305 74L299 73z"/>
<path style="fill:#887bb0; stroke:none;" d="M55.3333 74.6667L55.6667 75.3333L55.3333 74.6667M204 74L204 83L200 82L200 83C205.601 83.8558 205.743 78.1558 204 74z"/>
<path style="fill:#c1b6df; stroke:none;" d="M244 74L243 76L244 74z"/>
<path style="fill:#887bb0; stroke:none;" d="M245 74L246 75L245 74z"/>
<path style="fill:#c1b6df; stroke:none;" d="M294 74L294 77L295 77L294 74z"/>
<path style="fill:#887bb0; stroke:none;" d="M42 75L42 78L43 78L42 75M244 75L245 76L244 75M249 75L249 76L253 76L249 75z"/>
<path style="fill:#c1b6df; stroke:none;" d="M95.3333 76.6667L95.6667 77.3333L95.3333 76.6667M172.333 76.6667L172.667 77.3333L172.333 76.6667z"/>
<path style="fill:#887bb0; stroke:none;" d="M243.333 76.6667L243.667 77.3333L243.333 76.6667z"/>
<path style="fill:#c1b6df; stroke:none;" d="M247 78L250 77L247 78z"/>
<path style="fill:#fefeff; stroke:none;" d="M247 78L247 79L252 80L252 76L247 78z"/>
<path style="fill:#c1b6df; stroke:none;" d="M252 76L252 80L253 80L252 76z"/>
<path style="fill:#887bb0; stroke:none;" d="M279.333 76.6667L279.667 77.3333L279.333 76.6667z"/>
<path style="fill:#c1b6df; stroke:none;" d="M56 77L57 78L56 77z"/>
<path style="fill:#887bb0; stroke:none;" d="M298 77L299 78L298 77z"/>
<path style="fill:#c1b6df; stroke:none;" d="M42.3333 78.6667L42.6667 79.3333L42.3333 78.6667z"/>
<path style="fill:#887bb0; stroke:none;" d="M56 78L57 79L56 78M95 78L96 79L95 78M109 78L109 104L110 104L109 78z"/>
<path style="fill:#c1b6df; stroke:none;" d="M110.667 78.3333L111.333 78.6667L110.667 78.3333M133 78L134 79L133 78M242.333 78.6667L242.667 79.3333L242.333 78.6667M279.333 78.6667L279.667 79.3333L279.333 78.6667z"/>
<path style="fill:#887bb0; stroke:none;" d="M283 78L284 79L283 78M295 78L296 79L295 78z"/>
<path style="fill:#c1b6df; stroke:none;" d="M299 78L300 79L299 78M247 79L248 80L247 79z"/>
<path style="fill:#887bb0; stroke:none;" d="M284 79L285 80L284 79z"/>
<path style="fill:#c1b6df; stroke:none;" d="M295 79L296 80L295 79M300 79L301 80L300 79z"/>
<path style="fill:#887bb0; stroke:none;" d="M43.3333 80.6667L43.6667 81.3333L43.3333 80.6667z"/>
<path style="fill:#c1b6df; stroke:none;" d="M57 80L58 81L57 80M94 80L93 82L94 80M113 80L114 81L113 80M134.333 80.6667L134.667 81.3333L134.333 80.6667M185.333 80.6667L185.667 81.3333L185.333 80.6667z"/>
<path style="fill:#887bb0; stroke:none;" d="M243 80L244 81L243 80z"/>
<path style="fill:#c1b6df; stroke:none;" d="M248 80L248 81L251 81L248 80z"/>
<path style="fill:#887bb0; stroke:none;" d="M251 80L252 81L251 80M264 80L265 81L264 80M280 80L281 81L280 80z"/>
<path style="fill:#c1b6df; stroke:none;" d="M286 80L286 81L290 81L286 80z"/>
<path style="fill:#887bb0; stroke:none;" d="M290 80L291 81L290 80z"/>
<path style="fill:#c1b6df; stroke:none;" d="M292 80L293 81L292 80z"/>
<path style="fill:#887bb0; stroke:none;" d="M296 80L299 83L296 80M301 80L302 81L301 80z"/>
<path style="fill:#c1b6df; stroke:none;" d="M302 80L302 81L306 81L302 80z"/>
<path style="fill:#887bb0; stroke:none;" d="M306 80L307 81L306 80z"/>
<path style="fill:#c1b6df; stroke:none;" d="M308 80L309 81L308 80z"/>
<path style="fill:#887bb0; stroke:none;" d="M57 81L58 82L57 81M94 81L95 82L94 81z"/>
<path style="fill:#c1b6df; stroke:none;" d="M114 81L115 82L114 81z"/>
<path style="fill:#887bb0; stroke:none;" d="M228 81L229 82L228 81z"/>
<path style="fill:#c1b6df; stroke:none;" d="M243 81L244 82L243 81z"/>
<path style="fill:#887bb0; stroke:none;" d="M281 81L283 83L281 81M292 81L293 82L292 81z"/>
<path style="fill:#c1b6df; stroke:none;" d="M296 81L297 82L296 81z"/>
<path style="fill:#887bb0; stroke:none;" d="M308.333 81.6667L308.667 82.3333L308.333 81.6667z"/>
<path style="fill:#c1b6df; stroke:none;" d="M43.3333 82.6667L43.6667 83.3333L43.3333 82.6667M58 82L59 83L58 82z"/>
<path style="fill:#887bb0; stroke:none;" d="M93 82L94 83L93 82z"/>
<path style="fill:#c1b6df; stroke:none;" d="M115 82L116 83L115 82M244 82L245 83L244 82z"/>
<path style="fill:#887bb0; stroke:none;" d="M246 83L246 84L257 84L246 83z"/>
<path style="fill:#c1b6df; stroke:none;" d="M257 82L258 83L257 82M265 82L266 83L265 82M281 82L282 83L281 82M292 82L293 83L292 82M297 82L298 83L297 82M59 83L61 85L59 83M92 83L93 84L92 83M116 83L117 84L116 83M169 83L170 84L169 83M184 83L185 84L184 83M200 83L201 84L200 83M204 83L205 84L204 83M220 83L221 84L220 83z"/>
<path style="fill:#887bb0; stroke:none;" d="M225 83L225 84L228 84L225 83z"/>
<path style="fill:#c1b6df; stroke:none;" d="M228 83L229 84L228 83M239 83L240 84L239 83M245 83L246 84L245 83M251 83L252 84L251 83M253 83L254 84L253 83z"/>
<path style="fill:#887bb0; stroke:none;" d="M262.667 83.3333L263.333 83.6667L262.667 83.3333z"/>
<path style="fill:#c1b6df; stroke:none;" d="M264 83L265 84L264 83M275 83L276 84L275 83M283 83L284 84L283 83z"/>
<path style="fill:#887bb0; stroke:none;" d="M284 83L284 84L290 84L284 83z"/>
<path style="fill:#c1b6df; stroke:none;" d="M290.667 83.3333L291.333 83.6667L290.667 83.3333M299 83L300 84L299 83z"/>
<path style="fill:#887bb0; stroke:none;" d="M300 83L300 84L306 84L300 83z"/>
<path style="fill:#c1b6df; stroke:none;" d="M306.667 83.3333L307.333 83.6667L306.667 83.3333z"/>
<path style="fill:#887bb0; stroke:none;" d="M44 84L45 85L44 84M59 84L60 85L59 84z"/>
<path style="fill:#c1b6df; stroke:none;" d="M91 84L88 88L91 84M117 84L118 85L117 84M44 85L45 86L44 85z"/>
<path style="fill:#887bb0; stroke:none;" d="M60 85L61 86L60 85M91 85L92 86L91 85z"/>
<path style="fill:#c1b6df; stroke:none;" d="M118 85L119 86L118 85z"/>
<path style="fill:#887bb0; stroke:none;" d="M45 86L46 87L45 86M61 86L62 87L61 86M90 86L91 87L90 86z"/>
<path style="fill:#c1b6df; stroke:none;" d="M119 86L120 87L119 86M138 86L139 87L138 86M183 86L184 87L183 86M45 87L46 88L45 87z"/>
<path style="fill:#887bb0; stroke:none;" d="M62 87L63 88L62 87M89 87L90 88L89 87z"/>
<path style="fill:#c1b6df; stroke:none;" d="M139 87L140 88L139 87z"/>
<path style="fill:#887bb0; stroke:none;" d="M46 88L47 89L46 88z"/>
<path style="fill:#c1b6df; stroke:none;" d="M64 88L65 89L64 88M87 88L88 89L87 88M121 88L122 89L121 88M164 88L165 89L164 88M182 88L183 89L182 88M46 89L47 90L46 89z"/>
<path style="fill:#887bb0; stroke:none;" d="M65 89L66 90L65 89z"/>
<path style="fill:#c1b6df; stroke:none;" d="M66 89L67 90L66 89M85 89L86 90L85 89z"/>
<path style="fill:#887bb0; stroke:none;" d="M86 89L87 90L86 89z"/>
<path style="fill:#c1b6df; stroke:none;" d="M122 89L123 90L122 89M142 89L143 90L142 89M162 89L163 90L162 89M47 90L48 91L47 90z"/>
<path style="fill:#887bb0; stroke:none;" d="M67 90L68 91L67 90z"/>
<path style="fill:#c1b6df; stroke:none;" d="M68 90L69 91L68 90M83 90L84 91L83 90z"/>
<path style="fill:#887bb0; stroke:none;" d="M84 90L85 91L84 90z"/>
<path style="fill:#c1b6df; stroke:none;" d="M123 90L124 91L123 90M144 90L145 91L144 90M160 90L161 91L160 90z"/>
<path style="fill:#887bb0; stroke:none;" d="M48 91L50 93L48 91M69.6667 91.3333L70.3333 91.6667L69.6667 91.3333z"/>
<path style="fill:#c1b6df; stroke:none;" d="M71 91L72 92L71 91M80 91L81 92L80 91z"/>
<path style="fill:#887bb0; stroke:none;" d="M81.6667 91.3333L82.3333 91.6667L81.6667 91.3333z"/>
<path style="fill:#c1b6df; stroke:none;" d="M124 91L125 92L124 91M147.667 91.3333L148.333 91.6667L147.667 91.3333M157.667 91.3333L158.333 91.6667L157.667 91.3333M180 91L181 92L180 91M48 92L49 93L48 92M125 92L126 93L125 92M179 92L180 93L179 92M49 93L50 94L49 93M126 93L127 94L126 93M50 94L51 95L50 94M127 94L128 95L127 94M51 95L52 96L51 95M52 96L53 97L52 96M129 96L130 97L129 96M53 97L55 99L53 97z"/>
<path style="fill:#887bb0; stroke:none;" d="M54 97L55 98L54 97z"/>
<path style="fill:#c1b6df; stroke:none;" d="M130 97L131 98L130 97z"/>
<path style="fill:#887bb0; stroke:none;" d="M55 98L56 99L55 98z"/>
<path style="fill:#c1b6df; stroke:none;" d="M173 98L174 99L173 98z"/>
<path style="fill:#887bb0; stroke:none;" d="M56 99L57 100L56 99z"/>
<path style="fill:#c1b6df; stroke:none;" d="M95 99L96 100L95 99z"/>
<path style="fill:#887bb0; stroke:none;" d="M96 99C96.2724 107.296 102.263 106 109 106L109 105L97 105L96 99z"/>
<path style="fill:#c1b6df; stroke:none;" d="M172 99L173 100L172 99M57 100L58 101L57 100z"/>
<path style="fill:#887bb0; stroke:none;" d="M58 100L59 101L58 100M93 100L94 101L93 100z"/>
<path style="fill:#c1b6df; stroke:none;" d="M94 100L95 101L94 100M134 100L135 101L134 100M170 100L171 101L170 100M59 101L60 102L59 101z"/>
<path style="fill:#887bb0; stroke:none;" d="M91 101L92 102L91 101z"/>
<path style="fill:#c1b6df; stroke:none;" d="M92 101L93 102L92 101M61 102L62 103L61 102z"/>
<path style="fill:#887bb0; stroke:none;" d="M62 102L63 103L62 102M89 102L90 103L89 102z"/>
<path style="fill:#c1b6df; stroke:none;" d="M90 102L91 103L90 102M138 102L139 103L138 102M167 102L168 103L167 102M63 103L64 104L63 103z"/>
<path style="fill:#887bb0; stroke:none;" d="M64 103L65 104L64 103M87 103L88 104L87 103z"/>
<path style="fill:#c1b6df; stroke:none;" d="M88 103L89 104L88 103M140 103L141 104L140 103M164 103L165 104L164 103M66 104L67 105L66 104z"/>
<path style="fill:#887bb0; stroke:none;" d="M67.6667 104.333L68.3333 104.667L67.6667 104.333M83.6667 104.333L84.3333 104.667L83.6667 104.333z"/>
<path style="fill:#c1b6df; stroke:none;" d="M85 104L86 105L85 104M110 104L111 105L110 104M161 104L162 105L161 104M69 105L69 106L72 106L69 105z"/>
<path style="fill:#887bb0; stroke:none;" d="M72 105L72 106L80 106L72 105z"/>
<path style="fill:#c1b6df; stroke:none;" d="M80.6667 105.333L81.3333 105.667L80.6667 105.333M96 105L97 106L96 105M109 105L110 106L109 105M148.667 105.333L149.333 105.667L148.667 105.333M155.667 105.333L156.333 105.667L155.667 105.333z"/>
</svg>
