<svg width="200" height="72" viewBox="0 0 200 72" fill="none" xmlns="http://www.w3.org/2000/svg">
<g clip-path="url(#clip0_33542_1317)">
<path d="M84.793 4.48343C85.3155 4.48343 85.784 4.68163 86.1443 5.04199L96.1624 14.9339C96.5227 15.2942 96.7209 15.7627 96.7209 16.2672C96.7209 16.7717 96.5227 17.2582 96.1624 17.6186L86.1443 27.5105C85.8772 27.7779 85.5368 27.9601 85.1661 28.0339C84.7954 28.1077 84.4111 28.0699 84.0619 27.9252C83.7127 27.7805 83.4143 27.5355 83.2044 27.2211C82.9946 26.9067 82.8828 26.5371 82.8831 26.1591C82.9011 25.6546 83.0993 25.1861 83.4597 24.8258L89.0993 19.4024C89.9281 18.6096 90.3786 17.5465 90.3786 16.4114C90.3852 15.8519 90.2785 15.2968 90.0648 14.7797C89.8512 14.2625 89.535 13.794 89.1353 13.4023L83.4056 7.7447C83.2259 7.56742 83.0838 7.35565 82.988 7.12212C82.8922 6.88858 82.8445 6.63808 82.8478 6.38567C82.8512 6.13325 82.9055 5.88411 83.0076 5.65321C83.1096 5.42232 83.2573 5.21442 83.4416 5.04199C83.802 4.68163 84.2885 4.48343 84.793 4.48343ZM87.8921 14.6456C88.8651 15.6186 88.8651 17.1861 87.8561 18.1591L82.2344 23.5645C81.8833 23.8982 81.6031 24.2993 81.4105 24.7438C81.2179 25.1883 81.117 25.6671 81.1136 26.1515C81.1102 26.6359 81.2046 27.116 81.3909 27.5631C81.5773 28.0102 81.852 28.4151 82.1984 28.7537C82.8927 29.437 83.8278 29.82 84.802 29.82C85.7762 29.82 86.7113 29.437 87.4056 28.7537L97.4236 18.8438C97.7641 18.5085 98.0345 18.1088 98.2191 17.668C98.4036 17.2272 98.4987 16.7541 98.4987 16.2762C98.4987 15.7984 98.4036 15.3252 98.2191 14.8845C98.0345 14.4437 97.7641 14.044 97.4236 13.7087L87.4056 3.79875C86.7091 3.11968 85.7748 2.73962 84.802 2.73962C83.8292 2.73962 82.8949 3.11968 82.1984 3.79875L82.1624 3.83479C81.8191 4.17039 81.5464 4.5712 81.3602 5.01366C81.174 5.45612 81.0781 5.93132 81.0781 6.41136C81.0781 6.8914 81.174 7.3666 81.3602 7.80906C81.5464 8.25153 81.8191 8.65233 82.1624 8.98794L87.8921 14.6456Z" fill="black"/>
<path d="M119.009 28.7537C120.451 27.3123 120.433 24.9879 118.973 23.5645L113.334 18.1591C113.098 17.932 112.91 17.6598 112.781 17.3587C112.651 17.0576 112.584 16.7337 112.582 16.4062C112.581 16.0786 112.645 15.754 112.771 15.4516C112.897 15.1492 113.082 14.8752 113.316 14.6456L119.045 8.98794C119.389 8.65233 119.661 8.25153 119.847 7.80907C120.034 7.3666 120.13 6.89141 120.13 6.41136C120.13 5.93132 120.034 5.45612 119.847 5.01366C119.661 4.5712 119.389 4.1704 119.045 3.83479L119.009 3.79875C118.315 3.11541 117.38 2.73242 116.406 2.73242C115.431 2.73242 114.496 3.11541 113.802 3.79875L103.784 13.7087C103.444 14.044 103.173 14.4437 102.989 14.8845C102.804 15.3252 102.709 15.7984 102.709 16.2762C102.709 16.7541 102.804 17.2272 102.989 17.668C103.173 18.1088 103.444 18.5085 103.784 18.8438L113.802 28.7537C115.244 30.1771 117.568 30.1771 119.009 28.7537Z" fill="black"/>
<path d="M14.8288 53.9248H5.38738V51.7086C5.38738 49.096 7.24324 47.096 10.1081 47.096C12.973 47.096 14.8288 49.096 14.8288 51.7086V53.9248ZM0 51.7086V60.3752C0 65.9248 4.55856 69.7086 10.2342 69.7086C14.7748 69.7086 18.7207 67.15 20 63.2041L14.7748 61.6545C14.5095 62.6435 13.9152 63.5125 13.0898 64.1184C12.2644 64.7244 11.2572 65.031 10.2342 64.9879C7.36937 64.9879 5.38738 62.9879 5.38738 60.3752V58.5915H20.2342V51.7086C20.2342 46.105 15.7297 42.3752 10.1081 42.3752C4.50451 42.3752 0 46.105 0 51.7086Z" fill="black"/>
<path d="M38.721 42.3753C37.4396 42.3693 36.1798 42.7051 35.0713 43.348C33.9628 43.9909 33.0458 44.9177 32.4147 46.033V43.042H27.0273V69.042H32.4147V50.087C32.4147 50.087 33.8201 47.3663 37.1355 47.3663C39.9463 47.3663 41.8562 49.2041 41.8562 52.3753V69.042H47.2616V51.8168C47.2616 46.4834 43.8922 42.3753 38.721 42.3753Z" fill="black"/>
<path d="M64.1619 63.6726L57.7655 44.1771H52.252L61.1348 70.1771H67.0808L75.9637 44.1771H70.5763L64.1619 63.6726Z" fill="black"/>
<path d="M94.1081 53.9248H84.6667V51.7086C84.6667 49.096 86.5225 47.096 89.3874 47.096C92.2523 47.096 94.1081 49.096 94.1081 51.7086V53.9248ZM79.2793 51.7086V60.3752C79.2793 65.9248 83.8378 69.7086 89.5135 69.7086C94.0541 69.7086 97.982 67.15 99.2793 63.2041L94.0541 61.6545C93.7888 62.6435 93.1945 63.5125 92.3691 64.1184C91.5437 64.7244 90.5365 65.031 89.5135 64.9879C86.6487 64.9879 84.6667 62.9879 84.6667 60.3752V58.5915H99.5135V51.7086C99.5135 46.105 95.009 42.3752 89.3874 42.3752C83.7838 42.3752 79.2793 46.105 79.2793 51.7086Z" fill="black"/>
<path d="M115.568 53.5464C112.541 52.9879 109.892 52.6455 109.892 50.5915C109.892 48.4834 111.748 47.0419 114.613 47.0419C115.236 47.0115 115.859 47.111 116.442 47.3341C117.025 47.5571 117.555 47.8988 117.999 48.3376C118.443 48.7764 118.791 49.3026 119.021 49.8829C119.25 50.4632 119.357 51.0849 119.334 51.7086H124.739C124.739 46.2131 120.181 42.3752 114.613 42.3752C108.487 42.3752 104.613 46.105 104.613 50.3212C104.613 56.5915 109.676 57.4203 113.892 58.2671C116.919 58.8797 119.568 59.2041 119.568 61.4743C119.568 64.1951 117.316 65.0419 114.613 65.0419C113.99 65.0696 113.369 64.9682 112.787 64.7442C112.205 64.5202 111.676 64.1783 111.233 63.7401C110.79 63.3019 110.442 62.7768 110.211 62.1978C109.98 61.6187 109.872 60.9982 109.892 60.3752H104.505C104.505 65.8707 109.063 69.7086 114.613 69.7086C120.181 69.7086 124.847 66.5374 124.847 61.7626C124.847 55.6005 119.784 54.3212 115.568 53.5464Z" fill="black"/>
<path d="M140.847 36.9698H135.459V43.2942H129.729V48.3032H135.459V61.9608C135.459 66.7356 139.063 69.9608 143.892 69.9608C146.306 69.9608 148.45 69.132 149.964 67.6906L146.919 63.9068C146.198 64.7897 145.063 65.2942 143.892 65.2942C142.036 65.2942 140.847 63.8527 140.847 61.9608V48.3032H149.964V43.2942H140.847V36.9698Z" fill="black"/>
<path d="M167.766 44.1771H154.955V49.1681H162.378V65.1681H154.955V70.1771H175.189V65.1681H167.766V44.1771Z" fill="black"/>
<path d="M165.369 37.9608C167.099 37.9608 168.631 36.5014 168.631 34.7897C168.631 33.06 167.099 31.5645 165.369 31.5645C163.622 31.5645 162.162 33.06 162.162 34.7897C162.162 36.5014 163.622 37.9608 165.369 37.9608Z" fill="black"/>
<path d="M195.009 60.3752C195.032 60.9989 194.925 61.6206 194.695 62.2009C194.466 62.7812 194.118 63.3074 193.674 63.7462C193.23 64.185 192.7 64.5267 192.117 64.7498C191.534 64.9728 190.911 65.0723 190.288 65.0419C189.664 65.0723 189.042 64.9728 188.459 64.7498C187.876 64.5267 187.346 64.185 186.902 63.7462C186.458 63.3074 186.11 62.7812 185.88 62.2009C185.651 61.6206 185.544 60.9989 185.567 60.3752V51.7086C185.549 51.0863 185.66 50.467 185.891 49.8892C186.123 49.3114 186.471 48.7874 186.914 48.3497C187.356 47.9121 187.884 47.5701 188.465 47.3451C189.045 47.1202 189.666 47.017 190.288 47.0419C190.91 47.017 191.53 47.1202 192.111 47.3451C192.691 47.5701 193.219 47.9121 193.662 48.3497C194.105 48.7874 194.453 49.3114 194.684 49.8892C194.916 50.467 195.026 51.0863 195.009 51.7086V60.3752ZM180.18 51.7086V60.3752C180.18 65.9248 184.738 69.7086 190.288 69.7086C195.855 69.7086 200.414 65.9248 200.414 60.3752V51.7086C200.414 46.2131 195.855 42.3752 190.288 42.3752C184.792 42.3752 180.18 46.2131 180.18 51.7086Z" fill="black"/>
</g>
<defs>
<clipPath id="clip0_33542_1317">
<rect width="200" height="70.2703" fill="white" transform="translate(0 0.933838)"/>
</clipPath>
</defs>
</svg>
