<svg width="200" height="58" viewBox="0 0 200 58" fill="none" xmlns="http://www.w3.org/2000/svg">
<g clip-path="url(#clip0_33542_1453)">
<path d="M34.4923 41.256H30.9175V31.3043L20.7725 21.1594L10.6276 31.3043V41.256H7.05273V30.628C7.05273 30.1449 7.24597 29.7584 7.53583 29.372L19.5165 17.4879C19.903 17.1981 20.2894 17.0048 20.7725 17.0048C21.2556 17.0048 21.7387 17.1981 22.0286 17.4879L34.0093 29.372C34.2991 29.6618 34.4923 30.1449 34.4923 30.628V41.256Z" fill="black"/>
<path d="M27.3432 41.256H23.7683V34.2995L20.7732 31.2077L17.778 34.2995V41.256H14.2031V32.9468L20.7732 26.1836L27.3432 32.9468V41.256Z" fill="black"/>
<path d="M36.3284 48.2126H5.21733C3.76805 48.2126 2.4154 47.6329 1.44921 46.6667C0.483031 45.7005 -0.0966797 44.3478 -0.0966797 42.8985V29.1787C-0.0966797 27.8261 0.483031 26.4734 1.44921 25.4106L17.0048 10.1449C17.971 9.17874 19.4202 8.59903 20.7729 8.59903C22.2222 8.59903 23.5748 9.17874 24.541 10.1449L40.0966 25.4106C41.0627 26.3768 41.6425 27.7295 41.6425 29.1787V42.9952C41.6425 44.3478 41.0627 45.7005 40.0966 46.7633C39.0338 47.6329 37.6811 48.2126 36.3284 48.2126ZM20.7729 12.1739C20.2898 12.1739 19.8067 12.3671 19.5168 12.657L3.96129 27.9227C3.67144 28.2126 3.4782 28.6957 3.4782 29.1787V42.9952C3.4782 43.4783 3.67144 43.8647 3.96129 44.2512C4.25115 44.5411 4.73424 44.7343 5.21733 44.7343H36.2318C36.7149 44.7343 37.198 44.5411 37.4879 44.2512C37.7777 43.9614 37.971 43.4783 37.971 42.9952V29.1787C37.971 28.6957 37.7777 28.3092 37.4879 27.9227L22.0289 12.7536C21.8357 12.5604 21.6425 12.4638 21.4492 12.3671C21.256 12.2705 20.9661 12.1739 20.7729 12.1739Z" fill="black"/>
<path d="M67.1501 20.7729V24.1546H57.9714V29.1787H66.1839V32.5604H58.068V37.7778H67.2467V41.1594H54.3965V20.7729H67.1501Z" fill="black"/>
<path d="M68.4062 36.4251H71.6913C71.7879 37.6811 73.1405 38.5507 74.7831 38.5507C76.5222 38.5507 77.3918 37.8744 77.3918 36.8116C77.3918 33.6232 68.6961 36.2319 68.6961 30.628C68.6961 28.0193 70.9183 26.0869 74.3966 26.0869C77.4884 26.0869 80.1937 27.7295 80.5802 30.7246H77.1019C76.9087 29.7584 75.9425 28.8889 74.3 28.8889C72.9473 28.8889 71.9811 29.4686 71.9811 30.4348C71.9811 33.4299 80.7734 30.7246 80.7734 36.8116C80.7734 39.5169 78.2613 41.4493 74.9763 41.4493C71.3048 41.5459 68.6961 39.6135 68.4062 36.4251Z" fill="black"/>
<path d="M88.4061 29.6618V35.6522C88.4061 37.4879 89.5655 38.2609 91.208 38.2609C91.5945 38.2609 91.981 38.2609 92.2708 38.1643V41.2561C91.6911 41.3527 91.0148 41.4493 90.4351 41.4493C87.1501 41.4493 84.9278 39.4203 84.9278 35.7488V29.7585H82.0293V26.5701H84.9278V22.6087H88.4061V26.5701H92.3675V29.7585H88.4061V29.6618Z" fill="black"/>
<path d="M109.275 26.3768V41.1594H105.894V39.1304C105.121 40.4831 103.092 41.4493 101.063 41.4493C97.0048 41.4493 93.8164 38.0676 93.8164 33.7198C93.8164 29.372 97.0048 26.0869 101.063 26.0869C103.092 26.0869 105.024 27.0531 105.894 28.4058V26.3768C105.797 26.3768 109.275 26.3768 109.275 26.3768ZM105.797 36.1353V31.5942C105.411 30.9179 104.734 30.3382 104.058 29.9517C103.382 29.5652 102.512 29.372 101.739 29.372C100.483 29.372 99.3237 29.8551 98.4541 30.7246C97.5845 31.5942 97.1014 32.7536 97.1014 33.913C97.1014 35.0725 97.5845 36.2319 98.4541 37.1014C99.3237 37.971 100.483 38.4541 101.739 38.4541C102.512 38.4541 103.382 38.2609 104.058 37.8744C104.831 37.2947 105.411 36.8116 105.797 36.1353Z" fill="black"/>
<path d="M117.488 29.6618V35.6522C117.488 37.4879 118.648 38.2609 120.29 38.2609C120.677 38.2609 121.063 38.2609 121.353 38.1643V41.2561C120.773 41.3527 120.097 41.4493 119.517 41.4493C116.232 41.4493 114.01 39.4203 114.01 35.7488V29.7585H111.111V26.5701H114.01V22.6087H117.488V26.5701H121.449V29.7585H117.488V29.6618Z" fill="black"/>
<path d="M138.068 34.8792H126.57C126.667 35.942 127.246 36.8116 128.019 37.4879C128.792 38.1642 129.855 38.4541 130.918 38.3575C132.754 38.3575 134.203 37.4879 134.493 36.2319H137.971C137.391 39.3237 134.589 41.3526 130.821 41.3526C129.758 41.3526 128.792 41.1594 127.826 40.7729C126.86 40.3865 125.99 39.8068 125.217 39.1304C124.444 38.3575 123.865 37.5845 123.478 36.6183C123.092 35.6522 122.898 34.686 122.898 33.6232C122.898 32.657 123.092 31.5942 123.478 30.7246C123.865 29.7584 124.444 28.9855 125.121 28.2125C125.797 27.5362 126.667 26.9565 127.633 26.57C128.599 26.1836 129.565 25.9903 130.628 25.9903C131.594 25.9903 132.56 26.1836 133.526 26.57C134.396 26.9565 135.266 27.4396 135.942 28.2125C136.618 28.8889 137.198 29.7584 137.488 30.628C137.874 31.4976 137.971 32.4638 137.971 33.4299C138.164 34.0096 138.164 34.4927 138.068 34.8792ZM134.396 32.0773C134.203 31.2077 133.72 30.4348 133.043 29.9517C132.367 29.4686 131.497 29.1787 130.628 29.2754C129.758 29.1787 128.792 29.4686 128.116 29.9517C127.343 30.4348 126.86 31.2077 126.667 32.0773H134.396Z" fill="black"/>
<path d="M155.556 26.3768V41.5459C155.556 45.7005 152.271 48.3092 148.019 48.3092C145.024 48.3092 140.676 47.0531 140.483 42.7053H143.961C144.058 44.3478 145.797 45.314 147.923 45.314C150.242 45.314 152.174 43.8647 152.174 41.5459V38.9372C151.401 40.1932 149.372 41.1594 147.343 41.1594C143.285 41.1594 140.097 37.8744 140.097 33.6232C140.097 29.372 143.285 26.0869 147.343 26.0869C149.372 26.0869 151.304 27.0531 152.174 28.3092V26.2802C152.077 26.3768 155.556 26.3768 155.556 26.3768ZM152.077 35.8454V31.3043C151.594 30.628 151.015 30.0483 150.338 29.6618C149.662 29.2754 148.792 29.0821 148.019 29.0821C147.44 29.0821 146.86 29.1787 146.28 29.372C145.701 29.5652 145.217 29.8551 144.734 30.3382C144.251 30.7246 143.961 31.2077 143.672 31.7874C143.478 32.3671 143.285 32.9468 143.285 33.5266C143.285 34.1063 143.382 34.686 143.672 35.2657C143.865 35.8454 144.251 36.3285 144.734 36.715C145.217 37.1014 145.701 37.4879 146.28 37.6811C146.86 37.8744 147.44 37.971 148.019 37.971C148.792 37.971 149.662 37.7778 150.338 37.3913C151.015 37.1014 151.691 36.5217 152.077 35.8454Z" fill="black"/>
<path d="M172.464 34.3961C172.464 38.6473 169.565 41.5459 165.411 41.5459C161.256 41.5459 158.357 38.6473 158.357 34.3961V26.4734H161.836V34.3961C161.836 36.8116 163.188 38.2609 165.411 38.2609C167.633 38.2609 168.985 36.715 168.985 34.3961V26.4734H172.367V34.3961H172.464Z" fill="black"/>
<path d="M184.059 26.3768V29.5652C183.479 29.372 182.803 29.2754 182.126 29.2754C181.354 29.372 180.581 29.6618 180.001 30.0483C179.421 30.4348 178.841 31.1111 178.552 31.7874V41.256H175.17V26.4734H178.552V28.5024C178.938 27.8261 179.518 27.2464 180.194 26.8599C180.87 26.4734 181.643 26.1836 182.416 26.1836C182.899 26.0869 183.479 26.1836 184.059 26.3768Z" fill="black"/>
<path d="M200.001 34.3961C200.001 38.6473 197.102 41.5459 192.948 41.5459C188.793 41.5459 185.895 38.6473 185.895 34.3961V26.4734H189.373V34.3961C189.373 36.8116 190.725 38.2609 192.948 38.2609C195.17 38.2609 196.523 36.715 196.523 34.3961V26.4734H199.904V34.3961H200.001Z" fill="black"/>
</g>
<defs>
<clipPath id="clip0_33542_1453">
<rect width="200" height="57.971" fill="white"/>
</clipPath>
</defs>
</svg>
