<svg width="200" height="32" viewBox="0 0 200 32" fill="none" xmlns="http://www.w3.org/2000/svg">
<g clip-path="url(#clip0_33542_1471)">
<path d="M20.3683 16.0255H27.9753V24.2554C26.2889 26.7908 23.8699 28.76 21.0363 29.9038C18.2024 31.0476 15.0868 31.3128 12.0985 30.6645C9.11028 30.0161 6.38942 28.4847 4.29362 26.2712C2.1978 24.0577 0.825151 21.2661 0.35606 18.263C-0.113031 15.2599 0.34341 12.1862 1.66539 9.44568C2.98735 6.7052 5.11299 4.4263 7.76287 2.90853C10.4127 1.39076 13.4628 0.705167 16.5122 0.941873C19.5615 1.17858 22.4675 2.3265 24.848 4.23475L23.7491 5.44405C22.8019 4.63787 21.7247 3.99622 20.5626 3.54612C17.2071 2.166 13.4373 2.166 10.0817 3.54612C8.47123 4.23928 6.99958 5.21503 5.73725 6.42662C4.53199 7.66995 3.55127 9.11027 2.83812 10.6844C2.15013 12.3439 1.79688 14.1215 1.79848 15.9163C1.78494 17.6791 2.12643 19.4267 2.80287 21.0565C3.47929 22.6863 4.47701 24.1651 5.73725 25.406C6.98303 26.6505 8.45795 27.6455 10.0817 28.3369C13.4373 29.7169 17.2071 29.7169 20.5626 28.3369C22.1654 27.6391 23.6198 26.6445 24.848 25.406C25.3606 24.8732 25.8432 24.3123 26.2933 23.7265V17.6379H20.3683V16.0255Z" fill="#FFB600"/>
<path fill-rule="evenodd" clip-rule="evenodd" d="M16.5079 1.00286C13.4709 0.768084 10.4332 1.44809 7.79415 2.95348C5.15511 4.45885 3.03823 6.7191 1.72171 9.43708C0.405195 12.155 -0.0493493 15.2035 0.417797 18.1819C0.884945 21.1601 2.25192 23.9289 4.33911 26.1243C6.42632 28.3197 9.13605 29.8388 12.1121 30.4818C15.0882 31.1249 18.1913 30.8618 21.0134 29.7273C23.8299 28.595 26.2348 26.6478 27.9138 24.1406V16.0248H20.4308V17.5071H26.3558V23.6535L26.3429 23.6701C25.8913 24.2554 25.4074 24.8156 24.8931 25.3479L24.8924 25.3486C23.6587 26.5876 22.1978 27.5826 20.5879 28.2806L20.5866 28.2811C17.216 29.6618 13.4293 29.6618 10.0586 28.2811L10.0579 28.2809C8.42686 27.5892 6.94531 26.5938 5.69391 25.3488C4.42792 24.1073 3.42565 22.6278 2.74608 20.9971C2.0665 19.3667 1.72339 17.6179 1.73695 15.8542C1.73539 14.0587 2.09024 12.2804 2.78131 10.6202L2.78209 10.6184C3.49819 9.04423 4.48299 7.60391 5.69321 6.36058L5.69477 6.35899C6.96246 5.14723 8.44039 4.17141 10.0577 3.47816L10.0586 3.47775C13.4291 2.09719 17.2156 2.09712 20.5861 3.47752C21.7356 3.92106 22.8028 4.55026 23.744 5.33938L24.7581 4.22788C22.3969 2.35978 19.5229 1.23594 16.5079 1.00286ZM7.73252 2.84631C10.3932 1.32859 13.4557 0.643044 16.5175 0.879737C19.5792 1.11643 22.497 2.26429 24.8873 4.17251L24.9386 4.21359L23.7551 5.51081L23.7094 5.47204C22.7675 4.67367 21.6963 4.03821 20.5408 3.59245L20.5395 3.59199C17.1992 2.22378 13.4466 2.22371 10.1063 3.59178C8.5031 4.27904 7.03812 5.24632 5.78147 6.44733C4.58175 7.68007 3.60551 9.10795 2.89548 10.6684C2.21088 12.3134 1.85938 14.0753 1.86096 15.8543V15.8548C1.84747 17.6021 2.18737 19.3344 2.86062 20.9498C3.53385 22.5652 4.52687 24.0311 5.78124 25.2611L5.78156 25.2614C7.02158 26.4951 8.48967 27.4816 10.106 28.167C13.4462 29.5351 17.1987 29.5351 20.539 28.1672C22.1342 27.4756 23.5817 26.4896 24.804 25.2621C25.3101 24.7381 25.7868 24.187 26.2318 23.6115V17.6306H20.3068V15.9013H28.0378V24.178L28.0274 24.1936C26.334 26.7289 23.9052 28.6979 21.0598 29.8418C18.2146 30.9856 15.0862 31.2508 12.0858 30.6024C9.08547 29.9541 6.35348 28.4226 4.24907 26.2092C2.14466 23.9959 0.766316 21.204 0.29528 18.2009C-0.175757 15.1978 0.282582 12.1239 1.61002 9.38342C2.93745 6.6429 5.07183 4.36404 7.73252 2.84631Z" fill="#FFB600"/>
<path d="M60.4071 15.9534C60.4071 18.9315 59.524 21.8428 57.8694 24.319C56.2149 26.7951 53.8632 28.7252 51.1118 29.8648C48.3605 31.0043 45.3328 31.3027 42.412 30.7216C39.491 30.1406 36.8081 28.7066 34.7022 26.6006C32.5964 24.4949 31.1624 21.8118 30.5814 18.891C30.0003 15.9701 30.2985 12.9425 31.4382 10.1911C32.5778 7.43974 34.5079 5.08807 36.984 3.43353C39.4602 1.77898 42.3714 0.895874 45.3495 0.895874C49.3431 0.895874 53.173 2.48229 55.9968 5.30612C58.8207 8.12996 60.4071 11.9599 60.4071 15.9534ZM58.8009 15.9534C58.7844 13.3098 57.9854 10.7304 56.5047 8.54033C55.0241 6.35028 52.9279 4.64779 50.4807 3.64757C48.0336 2.64734 45.3452 2.3942 42.7544 2.92004C40.1637 3.44589 37.7865 4.7272 35.9231 6.60233C34.0595 8.47748 32.7931 10.8625 32.2834 13.4565C31.7738 16.0505 32.0435 18.7374 33.059 21.1781C34.0745 23.6191 35.79 25.7044 37.9892 27.1716C40.1885 28.6385 42.7729 29.4215 45.4164 29.4215C47.1796 29.416 48.9245 29.0633 50.5513 28.3834C52.1782 27.7037 53.6552 26.7101 54.8981 25.4594C56.141 24.209 57.1252 22.7257 57.795 21.0947C58.4646 19.4635 58.8063 17.7166 58.8009 15.9534Z" fill="#FFB600"/>
<path fill-rule="evenodd" clip-rule="evenodd" d="M45.35 0.95748C42.3842 0.95748 39.485 1.83335 37.0189 3.47433C34.553 5.1153 32.631 7.44769 31.496 10.1765C30.361 12.9054 30.0641 15.9081 30.6427 18.8051C31.2212 21.702 32.6494 24.3629 34.7467 26.4515C36.8437 28.5401 39.5157 29.9624 42.4246 30.5387C45.3334 31.1149 48.3486 30.8191 51.0886 29.6889C53.8287 28.5585 56.1707 26.6444 57.8184 24.1884C59.4661 21.7326 60.3456 18.8453 60.3456 15.8916C60.3456 11.9308 58.7658 8.13226 55.9536 5.33157C53.1413 2.53089 49.3272 0.95748 45.35 0.95748ZM36.95 3.37164C39.4365 1.7171 42.3598 0.833984 45.35 0.833984C49.3599 0.833984 53.2057 2.4204 56.0413 5.24425C58.8767 8.06809 60.4696 11.898 60.4696 15.8916C60.4696 18.8696 59.5828 21.7808 57.9215 24.257C56.2602 26.7334 53.8988 28.6632 51.136 29.803C48.3734 30.9426 45.3334 31.2409 42.4003 30.6598C39.4675 30.0788 36.7734 28.6448 34.659 26.5388C32.5444 24.4331 31.1045 21.75 30.521 18.8292C29.9376 15.9083 30.237 12.8807 31.3814 10.1293C32.5258 7.37786 34.4638 5.02618 36.95 3.37164ZM42.7426 2.85109C45.3454 2.32497 48.0464 2.57825 50.5048 3.57899C52.9631 4.57973 55.0691 6.2831 56.5566 8.47426C58.0441 10.6654 58.8469 13.2462 58.8634 15.8912L58.8014 15.8916L58.8634 15.8914C58.8691 17.6554 58.5256 19.4033 57.8528 21.0352C57.1801 22.6671 56.1911 24.1509 54.9426 25.4023C53.6939 26.6535 52.2101 27.6476 50.5757 28.3277C48.9413 29.0079 47.1885 29.3608 45.4172 29.3663H45.417C42.7612 29.3661 40.1647 28.5828 37.9553 27.1151C35.7459 25.6473 34.0225 23.5608 33.0023 21.1187C31.9821 18.6767 31.7111 15.9883 32.223 13.393C32.7351 10.7976 34.0074 8.41139 35.8795 6.53529C37.7518 4.65917 40.1397 3.37722 42.7426 2.85109ZM58.7394 15.8917C58.7229 13.2713 57.9277 10.7143 56.4538 8.54344C54.98 6.37249 52.8937 4.68482 50.4579 3.6933C48.0221 2.70179 45.3461 2.45085 42.7672 2.97212C40.1885 3.49339 37.8225 4.76352 35.9676 6.62234C34.1126 8.48113 32.8521 10.8453 32.3447 13.4168C31.8374 15.9882 32.1061 18.6517 33.1167 21.0712C34.1275 23.4908 35.8351 25.5582 38.0241 27.0124C40.2131 28.4666 42.7855 29.2427 45.4168 29.2427C47.1718 29.2373 48.9086 28.8877 50.5279 28.2138C52.1472 27.5399 53.6175 26.555 54.8545 25.3151C56.0917 24.0754 57.0715 22.6051 57.7382 20.9883C58.4046 19.3714 58.7449 17.6396 58.7394 15.8917Z" fill="#FFB600"/>
<path d="M86.4819 14.6511C86.4819 18.3209 84.99 21.8412 82.3326 24.4416C79.6752 27.0419 76.0688 28.5105 72.3028 28.5257H69.4114V30.9491H63.3164V0.833984H72.2943C76.053 0.842653 79.6551 2.3009 82.3138 4.89001C84.9723 7.47911 86.4708 10.9885 86.4819 14.6511ZM80.9267 14.6511C80.9134 12.4263 80.0006 10.2963 78.3861 8.72313C76.7717 7.14994 74.5859 6.26041 72.3028 6.24747H69.4114V23.1204H72.3028C74.5961 23.1031 76.7896 22.2032 78.4048 20.6168C80.0203 19.0303 80.9267 16.886 80.9267 14.6511Z" fill="#FFB600"/>
<path d="M110.955 30.9408H105.943L105.116 28.5176C103.055 30.1179 100.639 30.9612 98.1728 30.9408C95.734 30.9619 93.3454 30.121 91.313 28.5257L90.4866 30.9491H85.4736L95.6942 0.833984H100.707L110.955 30.9408ZM103.318 23.2848L99.7144 12.6878L98.2076 8.25185L93.1459 23.2765C94.5723 24.6614 96.3624 25.414 98.2076 25.4042C100.064 25.4147 101.867 24.666 103.311 23.2848H103.318Z" fill="#FFB600"/>
<path d="M134.99 30.9491H128.681L126.326 27.0306C124.36 28.0299 122.174 28.5433 119.958 28.5257H117.897V30.9491H111.824V0.834076H119.958C122.681 0.824412 125.349 1.58139 127.643 3.01438C129.937 4.44739 131.759 6.49566 132.892 8.91394C134.024 11.3322 134.419 14.018 134.029 16.6498C133.638 19.2816 132.48 21.7477 130.691 23.753L134.99 30.9491ZM119.958 23.1204C122.249 23.1204 124.447 22.2317 126.067 20.6496C127.687 19.0673 128.597 16.9215 128.597 14.684C128.597 12.4465 127.687 10.3007 126.067 8.71853C124.447 7.13639 122.249 6.24755 119.958 6.24755H117.897V23.1204H119.958Z" fill="#FFB600"/>
<path d="M136.293 30.9491V0.833984H143.242V30.9491H136.293Z" fill="#FFB600"/>
<path d="M171.186 6.75369H161.68V30.9491H155.272V6.75369H145.704V0.833984H171.151L171.186 6.75369Z" fill="#FFB600"/>
<path d="M199.853 0.833984L188.891 26.1264V30.9491H183.072V26.1264L172.055 0.833984H177.874L185.935 19.4287L194.066 0.833984H199.853Z" fill="#FFB600"/>
</g>
<defs>
<clipPath id="clip0_33542_1471">
<rect width="200" height="30.2923" fill="white" transform="translate(0 0.790039)"/>
</clipPath>
</defs>
</svg>
