<svg width="200" height="44" viewBox="0 0 200 44" fill="none" xmlns="http://www.w3.org/2000/svg">
<g clip-path="url(#clip0_33542_1482)">
<path d="M64.0137 21.0861V26.2842C64.0137 27.1803 63.5291 27.7111 62.6829 27.7111C61.8368 27.7111 61.3521 27.1803 61.3521 26.2842V21.3765C61.3521 19.2746 60.3387 18.138 58.4271 18.138C56.4695 18.138 55.2368 19.515 55.2368 21.74V26.2842C55.2368 27.1803 54.7521 27.7111 53.906 27.7111C53.0598 27.7111 52.5771 27.1803 52.5771 26.2842V11.9227C52.5771 11.0284 53.0598 10.4957 53.906 10.4957C54.7521 10.4957 55.2368 11.0284 55.2368 11.9227V17.34H55.2848C56.1541 16.2496 57.4368 15.6938 59.1041 15.6938C62.2945 15.6938 64.0137 17.5803 64.0137 21.0861ZM72.1618 27.8496C70.2521 27.8496 68.7291 27.2938 67.5675 26.1823C66.4079 25.0457 65.8271 23.5957 65.8271 21.7823C65.8271 19.9688 66.4079 18.4938 67.5445 17.3803C68.6791 16.2438 70.181 15.688 72.0406 15.688C73.7098 15.688 75.1118 16.2207 76.2483 17.2611C77.3848 18.3015 77.9656 19.5823 77.9656 21.0553V21.1784C77.9656 22.1207 77.3368 22.7246 76.3925 22.7246H68.6329C68.9464 24.4419 70.3002 25.4823 72.1618 25.4823C73.3464 25.4823 74.2887 25.0957 74.9675 24.2977C75.8118 23.3053 77.3368 23.9573 77.2156 25.0457C77.2156 25.3361 77.1195 25.6034 76.9252 25.8457C75.8118 27.1746 74.2175 27.8496 72.1618 27.8496ZM68.6329 20.5977H75.3695C75.007 19.0496 73.7021 18.0592 72.0358 18.0592C70.3233 18.0592 68.9935 19.0496 68.6329 20.5977ZM91.6983 17.2611V26.2784C91.6983 27.1746 91.1887 27.7073 90.3445 27.7073C89.5464 27.7073 89.0387 27.1746 89.0387 26.2784V26.1592H88.9906C88.0464 27.2957 86.7175 27.8515 84.9752 27.8515C83.2579 27.8515 81.9041 27.2957 80.8656 26.1842C79.8252 25.0707 79.3175 23.5957 79.3175 21.7823C79.3175 19.9438 79.8252 18.4707 80.8656 17.3592C81.9041 16.2457 83.2579 15.688 84.9752 15.688C86.7175 15.688 88.0464 16.2457 88.9906 17.3803H89.0387V17.2611C89.0387 16.3919 89.5464 15.8342 90.3445 15.8342C91.1887 15.8342 91.6983 16.3919 91.6983 17.2611ZM85.5079 18.1323C84.4675 18.1323 83.6445 18.4707 82.9925 19.1457C82.3406 19.8246 82.0252 20.6938 82.0252 21.7823C82.0252 22.8707 82.3406 23.7419 82.9925 24.4188C83.6445 25.0707 84.4675 25.4092 85.5079 25.4092C87.5618 25.4092 89.0387 23.9111 89.0387 21.7823C89.0387 19.6303 87.6118 18.1323 85.5079 18.1323ZM104.996 17.1496C104.996 17.3669 104.925 17.6073 104.802 17.8746L100.525 26.6746C100.212 27.3765 99.7021 27.715 99.0021 27.715C98.3252 27.715 97.8175 27.3534 97.4541 26.6515L93.2964 18.0919C93.1252 17.7303 93.0291 17.438 93.0291 17.1746C93.0291 16.3996 93.5618 15.8419 94.3348 15.8419C94.9156 15.8419 95.3502 16.1342 95.6175 16.738L99.0271 24.138H99.0752L102.458 16.738C102.723 16.1342 103.16 15.8419 103.741 15.8419C104.514 15.8419 104.996 16.3765 104.996 17.1496ZM117.45 26.5784C117.45 30.1803 115.227 32.3573 111.552 32.3573C109.206 32.3573 107.562 31.7515 106.643 30.5207C106.473 30.2534 106.377 29.9861 106.377 29.6977C106.377 28.9477 106.885 28.463 107.658 28.463C107.971 28.463 108.239 28.5861 108.481 28.8015C109.181 29.5534 110.198 29.94 111.479 29.94C113.51 29.94 114.791 28.7053 114.791 26.6977V25.8053H114.743C113.873 26.8919 112.614 27.4477 110.971 27.4477C107.802 27.4477 106.087 25.563 106.087 22.0803V17.2688C106.087 16.3996 106.618 15.8419 107.416 15.8419C108.214 15.8419 108.746 16.3996 108.746 17.2688V21.7919C108.746 23.8938 109.762 25.0073 111.623 25.0073C113.581 25.0073 114.791 23.6534 114.791 21.4053V17.2438C114.791 16.3996 115.323 15.8419 116.121 15.8419C116.919 15.8419 117.45 16.3996 117.45 17.2438V26.5784Z" fill="#168849"/>
<path d="M128.337 12.7939C128.337 13.1804 128.142 13.3746 127.756 13.3746C127.539 13.3746 127.369 13.2785 127.248 13.0612C126.692 12.0208 125.773 11.5131 124.539 11.5131C122.629 11.5131 121.492 12.7227 121.492 14.7766V16.0573H126.935C127.344 16.0573 127.564 16.2516 127.564 16.6381C127.564 17.0246 127.344 17.2189 126.935 17.2189H121.492V27.0362C121.492 27.4958 121.275 27.7131 120.864 27.7131C120.452 27.7131 120.26 27.4958 120.26 27.0362V14.8016C120.26 12.0208 121.831 10.3516 124.444 10.3516C126.281 10.3516 127.564 11.0535 128.264 12.4554C128.311 12.5622 128.335 12.6773 128.337 12.7939ZM129.183 12.4496C129.183 12.9804 129.449 13.2477 129.981 13.2477C130.536 13.2477 130.803 12.9804 130.803 12.4496C130.803 11.8939 130.536 11.6016 129.981 11.6016C129.449 11.6016 129.183 11.8939 129.183 12.4496ZM130.609 16.6073C130.609 16.1496 130.392 15.9073 129.981 15.9073C129.569 15.9073 129.375 16.1496 129.375 16.6073V27.0304C129.375 27.4881 129.569 27.7054 129.981 27.7054C130.392 27.7054 130.609 27.4881 130.609 27.0304V16.6073ZM144.633 21.1573V27.0343C144.633 27.4919 144.416 27.7093 144.004 27.7093C143.592 27.7093 143.398 27.4919 143.398 27.0343V21.2535C143.398 18.3766 142.044 16.9266 139.337 16.9266C136.654 16.9266 134.937 18.8362 134.937 21.7612V27.0343C134.937 27.4919 134.719 27.7093 134.308 27.7093C133.896 27.7093 133.702 27.4919 133.702 27.0343V16.5881C133.702 16.1285 133.896 15.9093 134.308 15.9093C134.719 15.9093 134.937 16.1285 134.937 16.5881V18.1573H134.985C135.904 16.5631 137.427 15.765 139.579 15.765C142.867 15.765 144.633 17.6516 144.633 21.1573ZM158.898 16.6112V27.0343C158.898 27.4919 158.679 27.7093 158.269 27.7093C157.858 27.7093 157.664 27.4919 157.664 27.0343V25.34H157.616C156.625 27.0093 154.981 27.8554 152.683 27.8554C150.942 27.8554 149.516 27.2977 148.427 26.1862C147.341 25.0746 146.808 23.6227 146.808 21.8112C146.808 19.9977 147.341 18.5458 148.427 17.4343C149.516 16.3208 150.942 15.765 152.683 15.765C154.981 15.765 156.625 16.6112 157.616 18.2804H157.664V16.6112C157.664 16.1535 157.858 15.9112 158.269 15.9112C158.679 15.9112 158.898 16.1535 158.898 16.6112ZM156.309 18.2804C155.415 17.3843 154.279 16.9266 152.852 16.9266C151.425 16.9266 150.29 17.3843 149.395 18.2804C148.501 19.1746 148.066 20.3593 148.066 21.8112C148.066 23.2612 148.501 24.4458 149.395 25.34C150.29 26.2362 151.425 26.6939 152.852 26.6939C154.279 26.6939 155.415 26.2362 156.309 25.34C157.205 24.4208 157.663 23.2362 157.663 21.8112C157.663 20.3593 157.205 19.1746 156.309 18.2804ZM172.931 21.1573V27.0343C172.931 27.4919 172.714 27.7093 172.302 27.7093C171.891 27.7093 171.696 27.4919 171.696 27.0343V21.2535C171.696 18.3766 170.342 16.9266 167.635 16.9266C164.952 16.9266 163.235 18.8362 163.235 21.7612V27.0343C163.235 27.4919 163.017 27.7093 162.606 27.7093C162.194 27.7093 162 27.4919 162 27.0343V16.5881C162 16.1285 162.194 15.9093 162.606 15.9093C163.017 15.9093 163.235 16.1285 163.235 16.5881V18.1573H163.283C164.202 16.5631 165.725 15.765 167.877 15.765C171.166 15.765 172.931 17.6516 172.931 21.1573ZM185.939 25.6785C184.852 27.1285 183.279 27.8535 181.175 27.8535C179.387 27.8535 177.937 27.2977 176.8 26.1862C175.664 25.0496 175.106 23.5977 175.106 21.8093C175.106 20.0208 175.664 18.5689 176.8 17.4573C177.937 16.3208 179.387 15.765 181.175 15.765C183.037 15.765 184.537 16.3939 185.698 17.6496C185.819 17.7939 185.867 17.9419 185.867 18.0862C185.865 18.2394 185.803 18.3857 185.695 18.4941C185.586 18.6025 185.44 18.6645 185.287 18.6669C185.195 18.6641 185.106 18.6432 185.023 18.6056C184.939 18.568 184.864 18.5143 184.802 18.4477C183.885 17.4323 182.675 16.9246 181.175 16.9246C179.748 16.9246 178.589 17.3843 177.694 18.2785C176.8 19.1727 176.364 20.3573 176.364 21.8093C176.364 23.2593 176.8 24.4439 177.694 25.3381C178.589 26.2343 179.748 26.6919 181.175 26.6919C182.796 26.6919 184.077 26.0881 184.996 24.9054C185.053 24.8322 185.127 24.774 185.211 24.7358C185.296 24.6976 185.388 24.6806 185.481 24.6862C185.794 24.6862 186.06 24.9266 186.06 25.2919C186.06 25.4362 186.012 25.5573 185.939 25.6785Z" fill="#024D4C"/>
<path d="M199.024 22.2439H189.062C189.133 23.5727 189.618 24.6631 190.512 25.4842C191.408 26.2804 192.545 26.6919 193.97 26.6919C195.639 26.6919 196.945 26.0881 197.887 24.9054C197.938 24.8303 198.006 24.7689 198.086 24.7267C198.167 24.6844 198.256 24.6626 198.347 24.6631C198.758 24.6631 198.977 24.8804 198.977 25.315C198.97 25.4674 198.91 25.6124 198.806 25.7246C197.645 27.1535 196.025 27.8535 193.97 27.8535C192.108 27.8535 190.61 27.2977 189.474 26.1862C188.335 25.0746 187.779 23.6227 187.779 21.8092C187.779 20.0208 188.335 18.5689 189.474 17.4573C190.61 16.3208 192.06 15.765 193.85 15.765C195.566 15.765 196.993 16.2958 198.104 17.3823C199.218 18.4727 199.774 19.8516 199.774 21.5189C199.774 21.9304 199.483 22.2439 199.024 22.2439ZM189.087 21.1073H198.589C198.299 18.5919 196.437 16.9246 193.85 16.9246C191.239 16.9246 189.375 18.5919 189.087 21.1073Z" fill="#024D4C"/>
<path d="M2.56154 0.0822756C2.22512 0.0821492 1.89197 0.148319 1.58113 0.277004C1.27029 0.405688 0.987862 0.594365 0.749976 0.832251C0.51209 1.07014 0.323413 1.35257 0.194728 1.66341C0.0660437 1.97424 -0.000126175 2.30739 1.80621e-07 2.64381V40.0496C1.80621e-07 42.4977 3.10577 43.5515 4.59423 41.6092L33.2846 4.20151C34.575 2.51689 33.375 0.0822756 31.25 0.0822756H2.56154Z" fill="url(#paint0_linear_33542_1482)"/>
<path d="M35.7195 14.3188L14.5887 41.8726C13.4887 43.3034 11.2021 42.5284 11.2021 40.7246V13.1707C11.2021 12.1284 12.0464 11.2842 13.0887 11.2842H34.2214C35.7848 11.2842 36.6714 13.0765 35.7195 14.3188Z" fill="#024D4C"/>
</g>
<defs>
<linearGradient id="paint0_linear_33542_1482" x1="1.80621e-07" y1="21.3515" x2="33.8173" y2="21.3515" gradientUnits="userSpaceOnUse">
<stop stop-color="#3BD48A"/>
<stop offset="1" stop-color="#1CA852"/>
</linearGradient>
<clipPath id="clip0_33542_1482">
<rect width="200" height="43.2692" fill="white" transform="translate(0 0.0822754)"/>
</clipPath>
</defs>
</svg>
