<svg width="200" height="49" viewBox="0 0 200 49" fill="none" xmlns="http://www.w3.org/2000/svg">
<path d="M10.0001 47.4545V16.3636H1.81827V47.4545H10.0001ZM0.90918 6.18179C0.90918 8.90906 3.27282 11.2727 6.00009 11.2727C8.72736 11.2727 10.9092 8.90906 10.9092 6.18179C10.9092 3.27269 8.72736 0.909058 5.81827 0.909058C3.091 0.909058 0.90918 3.27269 0.90918 6.18179Z" fill="black"/>
<path d="M25.6359 29.4546C25.6359 25.8182 27.6359 23.091 31.2723 23.091C35.2723 23.091 36.9086 25.8182 36.9086 29.2728V47.4546H45.0905V27.8182C45.0905 20.9091 41.6359 15.4546 34.1814 15.4546C30.9086 15.4546 27.2723 16.9091 25.4541 20.1819V16.3637H17.4541V47.4546H25.6359V29.4546Z" fill="black"/>
<path d="M65.6365 23.0909C69.6365 23.0909 71.6365 25.8182 72.3638 28.3636L79.6365 25.8182C78.3638 20.5454 73.6365 15.2727 65.4547 15.2727C56.7274 15.2727 49.8184 22.1818 49.8184 31.8182C49.8184 41.4545 56.9093 48.3636 65.8184 48.3636C73.8184 48.3636 78.5456 43.0909 80.0002 37.8182L72.7274 35.2727C72.0002 37.6363 70.0002 40.5454 65.8184 40.5454C61.6365 40.5454 58.0002 37.4545 58.0002 31.8182C58.0002 26.1818 61.4547 23.0909 65.6365 23.0909Z" fill="black"/>
<path d="M97.9998 40.7272C93.9998 40.7272 90.3635 37.6363 90.3635 31.8182C90.3635 26 93.9998 22.9091 97.9998 22.9091C102 22.9091 105.636 25.8182 105.636 31.8182C105.636 37.8182 102 40.7272 97.9998 40.7272ZM97.9998 15.2727C88.9089 15.2727 82.1816 22.1818 82.1816 31.8182C82.1816 41.4545 89.0907 48.3636 97.9998 48.3636C107.091 48.3636 113.818 41.4545 113.818 31.8182C113.818 22.1818 106.909 15.2727 97.9998 15.2727Z" fill="black"/>
<path d="M126.728 47.4546V29.2728C126.728 25.8182 128.728 23.091 132.364 23.091C136 23.091 137.637 25.6364 137.637 28.9091V47.4546H145.819V29.2728C145.819 26 147.819 23.091 151.455 23.091C155.273 23.091 156.728 25.6364 156.728 28.9091V47.4546H164.728V27.2728C164.728 18.9091 159.455 15.4546 153.819 15.4546C149.819 15.4546 146.546 16.9091 144.182 20.7273C142.728 17.4546 139.273 15.4546 135.273 15.4546C132 15.4546 128 17.091 126.364 20.1819V16.3637H118.546V47.4546H126.728Z" fill="black"/>
<path d="M177.636 28.3636C177.818 25.4545 180.181 22.1818 184.363 22.1818C189.09 22.1818 191.09 25.2727 191.09 28.3636H177.636ZM192 36.3636C191.09 39.0909 188.909 41.0909 185.09 41.0909C181.09 41.0909 177.636 38.1818 177.454 34H199.09C199.09 33.8182 199.272 32.5454 199.272 31.4545C199.272 21.4545 193.636 15.2727 184.363 15.2727C176.545 15.2727 169.454 21.6363 169.454 31.6363C169.454 42.1818 176.727 48.1818 185.09 48.1818C192.545 48.1818 197.272 43.6363 198.909 38.3636L192 36.3636Z" fill="black"/>
<path d="M12 6.18182C12 9.63636 9.27273 12.3636 6 12.3636C2.72727 12.3636 0 9.63636 0 6.18182C0 2.72727 2.72727 0 6 0C9.27273 0 12 2.72727 12 6.18182Z" fill="#30A7FE"/>
</svg>
