<svg width="201" height="69" viewBox="0 0 201 69" fill="none" xmlns="http://www.w3.org/2000/svg">
<path d="M52.4841 13.2035L25.0977 0V68.5474H52.492L52.4841 13.2035ZM27.9009 63.5158V9.6707L50.2796 19.389L50.3073 65.3476L27.9009 63.5158Z" fill="#53B54B"/>
<path d="M31.8337 37.1586L29.4111 36.1437V34.2008L31.8337 35.2198V37.1586ZM34.76 34.6647L32.3333 33.6457V31.7066L34.76 32.7217V34.6647ZM31.8337 33.4276L29.4111 32.4125V30.4696L31.8337 31.4886V33.4276ZM37.6821 32.1588L35.2596 31.1398V29.2008L37.6821 30.2159V32.1588ZM34.76 30.9017L32.3333 29.8829V27.9439L34.76 28.959V30.9017ZM40.6045 29.8829L38.1817 28.8639V26.9249L40.6045 27.94V29.8829ZM31.8337 29.6647L29.4111 28.6498V26.7068L31.8337 27.7259V29.6647ZM37.6821 28.6259L35.2596 27.6068V25.668L37.6821 26.6831V28.6259ZM34.76 27.369L32.3333 26.3539V24.4111L34.76 25.426V27.369ZM43.5266 27.3333L41.1041 26.3182V24.3755L43.5266 25.3904V27.3333ZM40.6045 26.1358L38.1817 25.1168V23.178L40.6045 24.1929V26.1358ZM31.8337 26.1358L29.4111 25.1168V23.178L31.8337 24.1929V26.1358ZM37.6821 24.879L35.2596 23.86V21.9209L37.6821 22.936V24.879ZM46.4529 24.8592L44.0262 23.8441V21.9011L46.4529 22.9202V24.8592ZM43.5266 23.626L41.1041 22.607V20.668L43.5266 21.6831V23.626ZM34.76 23.6221L32.3333 22.6031V20.6641L34.76 21.6792V23.6221ZM40.6045 22.4247L38.1817 21.4096V19.4666L40.6045 20.4857V22.4247ZM31.8337 22.3849L29.4111 21.37V19.427L31.8337 20.446V22.3849ZM49.3751 22.3413L46.9525 21.3223V19.3835L49.3751 20.3984V22.3413ZM37.6821 21.1676L35.2596 20.1527V18.2098L37.6821 19.2288V21.1676ZM46.4529 21.0962L44.0262 20.0813V18.1384L46.4529 19.1574V21.0962ZM34.76 19.9147L32.3333 18.8956V16.9568L34.76 17.9719V19.9147ZM43.5266 19.8631L41.1041 18.8482V16.9053L43.5266 17.9204V19.8631ZM31.8337 18.6776L29.4111 17.6625V15.7198L31.8337 16.7388V18.6776ZM40.6045 18.6617L38.1817 17.6468V15.7078L40.6045 16.7229V18.6617ZM37.6821 17.4088L35.2596 16.3898V14.4509L37.6821 15.466V17.4088ZM34.76 16.1519L32.3333 15.1368V13.1941L34.76 14.209V16.1519ZM31.8337 14.9149L29.4111 13.8998V11.9609L31.8337 12.9758V14.9149Z" fill="#D1D2D4"/>
<path d="M0 32.1696V68.5448L21.9028 68.517V24.755L0 32.1696ZM19.7974 64.096L1.74461 66.134V37.1576L19.7974 31.444V64.096Z" fill="#53B54B"/>
<path d="M16.9036 49.188L18.5173 48.641V47.4951L16.9036 48.0422V49.188ZM15.032 47.4951L16.6497 46.9518V45.8059L15.032 46.3531V47.4951ZM16.9036 46.8725L18.5173 46.3253V45.1835L16.9036 45.7267V46.8725ZM13.1646 45.6751L14.7783 45.1278V43.9861L13.1646 44.5292V45.6751ZM15.032 45.0408L16.6497 44.4935V43.3516L15.032 43.8947V45.0408ZM16.9036 44.4143L18.5173 43.871V42.7251L16.9036 43.2724V44.4143ZM11.293 44.0574L12.9106 43.5141V42.3682L11.293 42.9155V44.0574ZM13.1646 43.4547L14.7783 42.9116V41.7655L13.1646 42.3127V43.4547ZM15.032 42.8202L16.6497 42.2771V41.1312L15.032 41.6784V42.8202ZM9.42555 42.2771L11.0393 41.7298V40.588L9.42555 41.1312V42.2771ZM16.9036 42.1978L18.5173 41.6506V40.5086L16.9036 41.052V42.1978ZM11.293 41.6506L12.9106 41.1074V39.9616L11.293 40.5086V41.6506ZM13.1646 41.0478L14.7783 40.5008V39.3588L13.1646 39.9061V41.0478ZM7.55398 40.5086L9.17162 39.9616V38.8157L7.55398 39.3627V40.5086ZM15.032 40.4135L16.6497 39.8704V38.7243L15.032 39.2716V40.4135ZM9.42555 39.8704L11.0393 39.3231V38.1772L9.42555 38.7243V39.8704ZM16.9036 39.791L18.5173 39.2437V38.0978L16.9036 38.6451V39.791ZM11.293 39.2437L12.9106 38.6967V37.5547L11.293 38.0978V39.2437ZM5.68652 38.7045L7.30025 38.1574V37.0116L5.68652 37.5586V38.7045ZM13.1646 38.6412L14.7783 38.0939V36.952L13.1646 37.4953V38.6412ZM7.55398 38.0978L9.17162 37.5547V36.4088L7.55398 36.9561V38.0978ZM15.032 38.0067L16.6497 37.4596V36.3176L15.032 36.8608V38.0067ZM9.42555 37.4596L11.0393 36.9163V35.7704L9.42555 36.3176V37.4596ZM16.9036 37.3802L18.5173 36.8371V35.6912L16.9036 36.2382V37.3802ZM11.293 36.8371L12.9106 36.2898V35.148L11.293 35.6912V36.8371ZM13.1646 36.2343L14.7783 35.6872V34.5453L13.1646 35.0884V36.2343ZM15.032 35.6L16.6497 35.0527V33.9108L15.032 34.4541V35.6ZM16.9036 34.9735L18.5173 34.4302V33.2843L16.9036 33.8316V34.9735Z" fill="#D1D2D4"/>
<path d="M176.721 68.533H55.8828V65.0001H178.216L176.721 68.533Z" fill="#53B54B"/>
<path d="M166.989 42.6581V41.8175V27.024C166.989 25.7354 166.989 25.7354 168.309 25.7354H171.188C172.136 25.7354 172.139 25.7353 172.139 26.7187V60.7267C172.139 61.6545 172.139 61.6744 171.216 61.6744H167.667C167.191 61.6744 166.965 61.4999 166.985 61.0043C167.005 60.5087 166.985 59.8941 166.985 59.1288C166.719 59.4143 166.588 59.557 166.442 59.7077C164.956 61.4103 162.824 62.417 160.566 62.4832C158.619 62.5705 156.731 62.3445 155.015 61.381C152.54 60.0051 151.093 57.8124 150.415 55.1519C149.491 51.5199 149.543 47.9078 151.077 44.4067C153.401 39.1213 160.236 37.0912 164.907 40.3148C165.324 40.6129 165.706 40.9575 166.045 41.3417C166.382 41.764 166.697 42.2033 166.989 42.6581ZM167.266 50.497C167.109 49.3998 166.888 48.313 166.604 47.2417C165.952 45.026 163.906 43.4931 161.596 43.4907C158.821 43.4313 156.838 44.6287 155.923 47.0038C155.008 49.3356 154.97 51.922 155.815 54.2796C157.334 58.7402 162.929 58.7046 165.106 56.3097C166.624 54.6404 167.128 52.6857 167.278 50.493L167.266 50.497Z" fill="#3A3A3C"/>
<path d="M88.062 51.4995H80.2945C79.3865 51.4995 79.2715 51.6263 79.446 52.5145C79.9297 54.9887 81.1113 56.9672 83.7203 57.5461C86.5949 58.1885 89.1841 57.5937 91.1032 55.1433C91.4204 54.7468 91.6464 54.271 91.9755 53.8824C92.1368 53.7195 92.3684 53.6469 92.594 53.6881C93.8204 54.3277 95.0285 55.0006 96.218 55.7063C96.356 55.8665 96.4008 56.0878 96.337 56.2892C94.4417 59.5841 91.7217 61.7728 87.8954 62.3438C85.1873 62.7403 82.499 62.6253 79.9654 61.3882C76.5951 59.7348 74.7197 56.9553 74.1527 53.3075C73.6451 50.0562 73.891 46.8802 75.7387 44.0174C77.8282 40.7582 80.8615 39.0731 84.7115 38.8629C86.7912 38.7023 88.8792 39.0354 90.8058 39.8343C94.1443 41.2974 95.9167 43.9659 96.5233 47.467C96.7097 48.5376 96.7097 49.6399 96.8088 50.7263C96.8604 51.3131 96.6026 51.5193 96.0158 51.5193C93.3711 51.4876 90.7185 51.4995 88.062 51.4995ZM91.3569 47.812C91.2507 46.538 90.6412 45.3572 89.6638 44.5329C87.6337 42.8795 83.8392 42.8319 81.7576 44.4338C80.7065 45.2795 80.0011 46.4817 79.7751 47.812H91.3569Z" fill="#3A3A3C"/>
<path d="M130.844 42.5887C131.514 41.9662 132.101 41.3992 132.724 40.856C134.207 39.5793 135.999 39.0559 137.878 38.9013C139.574 38.7054 141.293 38.881 142.914 39.4167C145.313 40.2169 146.969 42.4401 147.049 44.9678C147.149 50.2968 147.149 55.6297 147.204 60.9587C147.204 61.5019 146.958 61.6486 146.467 61.6447C145.218 61.6447 143.969 61.6169 142.72 61.6447C142.097 61.6447 141.927 61.4107 141.927 60.812C141.927 57.0413 141.966 53.2785 141.927 49.4998C141.896 48.321 141.763 47.1469 141.53 45.9907C141.237 44.4523 140.198 43.584 138.687 43.358C137.341 43.1038 135.951 43.222 134.667 43.699C132.684 44.492 131.403 45.9471 131.312 48.1239C131.177 51.3316 131.197 54.5433 131.158 57.755C131.158 58.8017 131.134 59.8525 131.158 60.8992C131.158 61.4583 130.943 61.6486 130.404 61.6407C129.155 61.6209 127.906 61.613 126.657 61.6407C126.067 61.6407 125.864 61.4187 125.884 60.8477V40.5626C125.884 39.6388 125.908 39.6189 126.812 39.615H130.158C130.69 39.615 130.876 39.8251 130.86 40.3287C130.829 41.082 130.844 41.7957 130.844 42.5887Z" fill="#3A3A3C"/>
<path d="M104.474 42.8584C105.052 42.224 105.481 41.6887 105.972 41.2248C107.508 39.7927 109.512 38.9664 111.611 38.9013C112.879 38.8256 114.151 38.9001 115.401 39.1234C118.728 39.738 120.738 42.113 120.794 45.4872C120.881 50.618 120.881 55.7487 120.932 60.8795C120.932 61.4465 120.758 61.6725 120.163 61.6725C118.913 61.6435 117.662 61.6435 116.412 61.6725C115.821 61.6725 115.643 61.4465 115.647 60.8795C115.647 57.196 115.687 53.5125 115.647 49.8329C115.632 48.6085 115.499 47.3881 115.25 46.1891C114.854 44.3295 113.7 43.4453 111.801 43.3263C110.623 43.197 109.431 43.3326 108.312 43.7228C105.964 44.6506 104.941 46.4745 104.898 48.9011C104.826 52.8265 104.807 56.7519 104.767 60.6773C104.767 61.6368 104.767 61.6447 103.792 61.6487H100.378C99.8582 61.6487 99.6045 61.502 99.6084 60.9271V40.3684C99.6084 39.8292 99.7829 39.6031 100.342 39.619C101.504 39.6468 102.662 39.6428 103.823 39.619C104.311 39.619 104.509 39.7974 104.497 40.2891C104.446 41.1099 104.474 41.9029 104.474 42.8584Z" fill="#3A3A3C"/>
<path d="M61.5647 42.1829V55.5054C61.5647 56.5482 61.5647 56.5482 62.5798 56.5482H72.8254C73.7651 56.5482 73.773 56.5482 73.777 57.4681V60.9494C73.777 61.449 73.6263 61.6869 73.091 61.6829H56.5529C56.0057 61.6829 55.8828 61.4172 55.8828 60.9335V28.793C55.8828 27.7462 55.8828 27.7462 56.9018 27.7462C58.1746 27.7462 59.4474 27.774 60.7162 27.7462C61.3704 27.7264 61.5607 27.9722 61.5607 28.5987C61.5568 33.1228 61.5647 37.6548 61.5647 42.1829Z" fill="#3A3A3C"/>
<path d="M180.906 68.2672C181.064 67.8707 181.144 67.609 181.259 67.379C182.408 65 183.554 62.6408 184.732 60.2895C184.954 59.8788 184.965 59.3859 184.764 58.9652C182.279 52.8246 179.805 46.6788 177.341 40.5278C177.246 40.2899 177.179 40.0362 177.06 39.6635H178.887C179.982 39.6635 181.076 39.6397 182.167 39.6833C182.456 39.7055 182.719 39.8629 182.876 40.1075C184.438 44.6158 185.965 49.1359 187.492 53.656C187.583 53.9257 187.622 54.2151 187.71 54.5918C187.781 54.5161 187.844 54.4336 187.9 54.346C189.687 50.3809 191.471 46.4159 193.253 42.4509C193.602 41.6777 193.947 40.9005 194.343 40.1551C194.476 39.9148 194.708 39.7447 194.978 39.6912C196.564 39.6555 198.15 39.6912 199.736 39.6912C199.849 39.715 199.96 39.7523 200.065 39.8022C199.902 40.1987 199.767 40.5635 199.597 40.9124C196.909 46.4028 194.219 51.8916 191.528 57.3792C189.942 60.6067 188.356 63.8184 186.833 67.0777C186.405 67.9976 185.906 68.3861 184.875 68.3068C183.602 68.1918 182.329 68.2672 180.906 68.2672Z" fill="#3A3A3C"/>
</svg>
