<svg width="200" height="58" viewBox="0 0 200 58" fill="none" xmlns="http://www.w3.org/2000/svg">
<g clip-path="url(#clip0_33542_1570)">
<path fill-rule="evenodd" clip-rule="evenodd" d="M11.8842 5.41063C8.59922 6.37681 5.21758 6.95652 1.83594 7.43961C1.83594 14.2995 2.02917 21.5459 3.67169 28.5024L11.8842 5.41063ZM37.6813 5.31401C33.2369 4.05797 28.9857 2.31884 24.9277 0C20.8698 2.31884 16.6185 4.05797 12.1741 5.31401L24.9277 31.6908L37.6813 5.31401ZM46.0871 28.5024C47.7297 21.4493 48.0195 14.2029 47.9229 7.43961C44.4446 7.05314 41.063 6.37681 37.8746 5.41063L46.0871 28.5024Z" fill="#434343"/>
<path fill-rule="evenodd" clip-rule="evenodd" d="M24.9279 57.1014C34.2032 51.6908 39.8071 44.8309 43.1887 37.3912L37.0052 20.2898L24.9279 45.4106L12.7539 20.2898L6.66699 37.4879C9.95202 44.9275 15.5559 51.7874 24.9279 57.1014Z" fill="#7DC242"/>
<path d="M63.4786 19.4203L66.4738 31.8841H66.5704L69.5656 19.4203H73.8168V36.3285H70.5318V31.401L70.8216 24.8309H70.725L67.5366 36.3285H65.3144L62.126 24.9275H62.0293L62.3192 31.401V36.3285H59.0342V19.4203H63.4786Z" fill="#434343"/>
<path d="M82.2223 36.4252C82.1257 36.232 82.0291 35.9421 81.9325 35.7489C81.8359 35.459 81.8359 35.2658 81.7392 34.9759C81.4494 35.459 81.0629 35.9421 80.5798 36.232C80.0967 36.5218 79.6136 36.715 79.0339 36.715C77.9711 36.715 77.1982 36.3286 76.5218 35.6522C75.9421 34.9759 75.5557 34.1064 75.5557 32.9469C75.5557 31.6909 75.9421 30.7247 76.7151 30.0484C77.488 29.3721 78.6475 28.9856 80.1933 28.9856H81.4494V27.9228C81.4494 27.3431 81.3528 26.86 81.1595 26.4735C80.9663 26.1836 80.5798 25.9904 80.1933 25.9904C79.8069 25.9904 79.517 26.087 79.3238 26.3769C79.3238 26.6667 79.2272 27.0532 79.2272 27.6329H76.0388V27.5363C76.0388 26.4735 76.4252 25.5073 77.1982 24.7344C78.0677 23.9614 79.1306 23.575 80.4832 23.575C81.7392 23.575 82.802 23.9614 83.6716 24.7344C84.4446 25.5073 84.9277 26.5701 84.9277 28.0194V33.1402C84.9277 33.7199 84.9277 34.2996 85.0243 34.8793C85.1209 35.459 85.2175 35.9421 85.4107 36.4252H82.2223ZM80.0967 34.1064C80.3866 34.1064 80.7731 34.0097 80.9663 33.8165C81.2562 33.6233 81.4494 33.43 81.6426 33.1402V30.9179H80.3866C79.9035 30.9179 79.517 31.1112 79.3238 31.401C79.1305 31.7875 79.0339 32.174 79.0339 32.7537C79.0339 33.1402 79.1305 33.5266 79.3238 33.8165C79.4204 34.0097 79.7103 34.1064 80.0967 34.1064Z" fill="#434343"/>
<path d="M91.1111 27.7295L92.4638 23.7682H96.1353L93.0435 29.9518L96.2319 36.3286H92.5604L91.2078 32.2706H91.1111L89.8551 36.4252H86.1836L89.372 30.0484L86.2802 23.8648H89.8551L91.1111 27.7295Z" fill="#434343"/>
<path d="M113.431 30.9179C113.527 32.8502 113.044 34.2995 112.175 35.1691C111.305 36.1353 109.952 36.6184 108.213 36.6184C106.474 36.6184 105.121 36.0387 104.059 34.9758C102.996 33.913 102.513 32.3672 102.513 30.4348V25.4106C102.513 23.4783 102.996 21.9324 104.059 20.8696C105.025 19.8068 106.377 19.2271 108.117 19.2271C109.856 19.2271 111.208 19.7101 112.175 20.6763C113.044 21.6425 113.527 23.0918 113.624 24.9275V25.0242H110.435C110.435 23.8647 110.339 23.0918 109.952 22.6087C109.566 22.1256 108.986 21.8357 108.117 21.8357C107.344 21.8357 106.861 22.1256 106.377 22.7053C105.991 23.285 105.798 24.1546 105.798 25.314V30.4348C105.798 31.5942 105.991 32.5604 106.474 33.1401C106.861 33.7198 107.537 34.0097 108.31 34.0097C109.083 34.0097 109.662 33.8164 109.952 33.3333C110.242 32.8502 110.435 32.0773 110.339 30.9179H113.431Z" fill="#434343"/>
<path d="M121.064 26.86H119.808C119.421 26.86 119.131 26.9566 118.938 27.1498C118.745 27.3431 118.552 27.5363 118.455 27.8262V36.4252H115.17V23.8648H118.262L118.358 25.5073H118.455C118.648 24.9276 118.938 24.4445 119.325 24.058C119.711 23.6716 120.097 23.575 120.581 23.575C120.774 23.575 120.87 23.575 121.064 23.575C121.257 23.575 121.354 23.6716 121.45 23.6716L121.064 26.86Z" fill="#434343"/>
<path d="M122.126 29.3721C122.126 27.6329 122.609 26.2803 123.479 25.2175C124.348 24.1547 125.604 23.575 127.247 23.575C128.889 23.575 130.049 24.1547 131.015 25.2175C131.884 26.2803 132.368 27.6329 132.368 29.3721V30.9179C132.368 32.6571 131.884 34.0097 131.015 35.0725C130.145 36.1353 128.889 36.6184 127.247 36.6184C125.604 36.6184 124.348 36.1353 123.479 35.0725C122.609 34.0097 122.126 32.6571 122.126 30.9179V29.3721ZM125.411 30.9179C125.411 31.8841 125.508 32.6571 125.797 33.2368C126.087 33.8165 126.57 34.1064 127.247 34.1064C127.923 34.1064 128.31 33.8165 128.599 33.2368C128.889 32.6571 128.986 31.8841 128.986 30.9179V29.3721C128.986 28.4059 128.889 27.6329 128.599 27.1498C128.31 26.5701 127.826 26.2803 127.247 26.2803C126.57 26.2803 126.087 26.5701 125.894 27.1498C125.604 27.7295 125.508 28.5025 125.508 29.3721V30.9179H125.411Z" fill="#434343"/>
<path d="M143.092 30.9179L144.348 23.7682H147.344L144.735 36.3286H142.03L140.29 29.5653H140.194L138.455 36.3286H135.749L133.141 23.7682H136.232L137.392 30.9179H137.488L139.228 23.7682H141.353L143.092 30.9179Z" fill="#434343"/>
<path d="M148.31 30.1449C148.31 28.2126 148.696 26.57 149.372 25.4106C150.049 24.2512 151.112 23.5749 152.464 23.5749C152.947 23.5749 153.43 23.6715 153.817 23.9613C154.203 24.1546 154.59 24.5411 154.88 24.9275V18.2609H158.165V36.4251H155.363L155.169 35.0725C154.88 35.5556 154.493 36.0386 154.01 36.2319C153.624 36.5217 153.14 36.6184 152.561 36.6184C151.208 36.6184 150.242 36.0386 149.469 34.8792C148.793 33.7198 148.406 32.2705 148.406 30.3382V30.1449H148.31ZM151.595 30.4348C151.595 31.5942 151.691 32.4638 151.981 33.0435C152.271 33.7198 152.657 34.0097 153.334 34.0097C153.72 34.0097 154.01 33.913 154.203 33.8164C154.493 33.6232 154.686 33.4299 154.88 33.1401V27.4396C154.686 27.0531 154.493 26.8599 154.203 26.6667C153.913 26.4734 153.624 26.3768 153.334 26.3768C152.754 26.3768 152.271 26.7633 151.981 27.4396C151.691 28.1159 151.595 29.0821 151.595 30.3382V30.4348Z" fill="#434343"/>
<path d="M160.967 36.4252V26.1836H159.421V23.7682H160.967V22.4155C160.967 20.9662 161.353 19.9034 162.03 19.1305C162.706 18.3575 163.769 17.9711 165.121 17.9711C165.411 17.9711 165.604 17.9711 165.894 18.0677C166.184 18.1643 166.474 18.1643 166.764 18.2609L166.474 20.773C166.281 20.773 166.184 20.6764 165.991 20.6764C165.894 20.6764 165.701 20.6764 165.508 20.6764C165.121 20.6764 164.735 20.8696 164.542 21.1595C164.348 21.4493 164.252 21.9324 164.252 22.4155V23.8648H166.281V26.2802H164.252V36.4252H160.967Z" fill="#434343"/>
<path d="M174.01 34.9759C173.623 35.5556 173.237 35.942 172.754 36.2319C172.27 36.5217 171.691 36.715 171.111 36.715C169.952 36.715 169.082 36.3285 168.502 35.4589C167.923 34.5894 167.536 33.3333 167.536 31.4976V23.8647H170.821V31.4976C170.821 32.3672 170.918 33.0435 171.111 33.43C171.304 33.8164 171.691 34.0097 172.077 34.0097C172.464 34.0097 172.754 33.9131 173.043 33.8164C173.333 33.7198 173.526 33.5266 173.72 33.2367V23.8647H177.005V36.4251H174.106L174.01 34.9759Z" fill="#434343"/>
<path d="M182.223 23.7682L182.319 25.5073C182.706 24.9276 183.092 24.4445 183.575 24.058C184.058 23.6716 184.638 23.575 185.218 23.575C186.281 23.575 187.054 23.9614 187.633 24.831C188.213 25.6039 188.503 26.86 188.503 28.5991V36.4252H185.218V28.5991C185.218 27.7295 185.121 27.1498 184.831 26.7634C184.638 26.3769 184.252 26.2803 183.672 26.2803C183.382 26.2803 183.092 26.3769 182.899 26.4735C182.609 26.6667 182.416 26.86 182.319 27.1498V36.4252H179.034V23.8648H182.223V23.7682Z" fill="#434343"/>
<path d="M190.242 30.1449C190.242 28.2126 190.629 26.57 191.305 25.4106C191.981 24.2512 193.044 23.5749 194.397 23.5749C194.88 23.5749 195.363 23.6715 195.749 23.9613C196.136 24.2512 196.522 24.5411 196.812 24.9275V18.2609H200.097V36.4251H197.295L197.102 35.0725C196.812 35.5556 196.426 36.0386 195.943 36.2319C195.556 36.5217 195.073 36.6184 194.493 36.6184C193.141 36.6184 192.175 36.0386 191.402 34.8792C190.725 33.7198 190.339 32.2705 190.339 30.3382V30.1449H190.242ZM193.527 30.4348C193.527 31.5942 193.624 32.4638 193.914 33.0435C194.204 33.7198 194.59 34.0097 195.266 34.0097C195.653 34.0097 195.943 33.913 196.136 33.8164C196.426 33.6232 196.619 33.4299 196.812 33.1401V27.4396C196.619 27.0531 196.426 26.8599 196.136 26.6667C195.846 26.4734 195.556 26.3768 195.266 26.3768C194.687 26.3768 194.204 26.7633 193.914 27.4396C193.624 28.1159 193.527 29.0821 193.527 30.3382V30.4348Z" fill="#434343"/>
<path d="M59.7106 44.541H59.1309V40.2898H59.7106V44.541Z" fill="#434343"/>
<path d="M61.0632 41.3525V41.8356C61.1598 41.6424 61.2564 41.5458 61.353 41.4492C61.4496 41.3525 61.6429 41.3525 61.8361 41.3525C62.126 41.3525 62.3192 41.4492 62.5124 41.6424C62.7057 41.8356 62.7057 42.1255 62.7057 42.6086V44.5409H62.126V42.6086C62.126 42.3187 62.126 42.1255 62.0293 42.0289C61.9327 41.9322 61.8361 41.8356 61.6429 41.8356C61.5463 41.8356 61.4496 41.8356 61.353 41.9323C61.2564 42.0289 61.1598 42.1255 61.1598 42.2221V44.5409H60.5801V41.3525H61.0632Z" fill="#434343"/>
<path d="M64.1547 40.5796V41.3525H64.6378V41.739H64.1547V43.6714C64.1547 43.8646 64.1547 43.9612 64.2513 44.0578C64.3479 44.1545 64.3479 44.1545 64.4445 44.1545H64.5411H64.6378L64.7344 44.4443C64.6377 44.4443 64.6378 44.5409 64.5411 44.5409C64.4445 44.5409 64.3479 44.5409 64.2513 44.5409C64.058 44.5409 63.8648 44.4443 63.7682 44.3477C63.6716 44.1545 63.575 43.9612 63.575 43.6714V41.739H63.1885V41.3525H63.575V40.5796H64.1547Z" fill="#434343"/>
<path d="M66.3772 44.541C65.9907 44.541 65.7009 44.4444 65.5076 44.1545C65.3144 43.8647 65.2178 43.5748 65.2178 43.1883V42.7053C65.2178 42.3188 65.3144 41.9323 65.5076 41.6425C65.7009 41.3526 65.9907 41.256 66.3772 41.256C66.7637 41.256 67.0535 41.3526 67.2468 41.6425C67.44 41.9323 67.5366 42.2222 67.5366 42.6086V42.9951H65.7009V43.0917C65.7009 43.3816 65.7975 43.5748 65.8941 43.7681C65.9907 43.9613 66.184 44.0579 66.3772 44.0579C66.5704 44.0579 66.667 44.0579 66.7637 43.9613C66.8603 43.8647 66.9569 43.8647 67.0535 43.7681L67.2468 44.1545C67.1501 44.2511 67.0535 44.3478 66.8603 44.4444C66.7637 44.541 66.5704 44.541 66.3772 44.541ZM66.2806 41.7391C66.0873 41.7391 65.9907 41.8357 65.8941 42.0289C65.7975 42.2222 65.7009 42.4154 65.7009 42.7053H66.7637V42.512C66.7637 42.3188 66.7637 42.1255 66.667 41.9323C66.5704 41.8357 66.4738 41.7391 66.2806 41.7391Z" fill="#434343"/>
<path d="M69.2755 41.8357H68.9857C68.889 41.8357 68.7924 41.8357 68.6958 41.9323C68.5992 42.0289 68.5992 42.1255 68.5026 42.2222V44.4444H67.9229V41.256H68.5026V41.7391C68.5992 41.5458 68.6958 41.4492 68.7924 41.3526C68.889 41.256 68.9857 41.256 69.1789 41.256H69.2755H69.3721L69.2755 41.8357Z" fill="#434343"/>
<path d="M70.2419 41.3525V41.8356C70.3385 41.6424 70.4351 41.5458 70.5317 41.4492C70.6284 41.3525 70.8216 41.3525 71.0148 41.3525C71.3047 41.3525 71.4979 41.4492 71.6912 41.6424C71.8844 41.8356 71.8844 42.1255 71.8844 42.6086V44.5409H71.3047V42.6086C71.3047 42.3187 71.3047 42.1255 71.2081 42.0289C71.1114 41.9322 71.0148 41.8356 70.8216 41.8356C70.725 41.8356 70.6284 41.8356 70.5317 41.9323C70.4351 42.0289 70.3385 42.1255 70.3385 42.2221V44.5409H69.7588V41.3525H70.2419Z" fill="#434343"/>
<path d="M74.2031 44.5409C74.2031 44.4443 74.2031 44.4443 74.1064 44.3477C74.1064 44.2511 74.1064 44.2511 74.1064 44.1545C74.0098 44.2511 73.9132 44.4443 73.8166 44.5409C73.72 44.6376 73.5267 44.6376 73.3335 44.6376C73.0436 44.6376 72.8504 44.5409 72.7538 44.3477C72.5606 44.1545 72.5605 43.9612 72.5605 43.6714C72.5605 43.3815 72.6572 43.0917 72.8504 42.9951C73.0436 42.8018 73.3335 42.7052 73.72 42.7052H74.2031V42.4153C74.2031 42.2221 74.2031 42.0289 74.1064 41.9323C74.0098 41.8356 73.9132 41.739 73.72 41.739C73.6234 41.739 73.4301 41.8356 73.3335 41.9323C73.2369 42.0289 73.2369 42.1255 73.2369 42.3187H72.6572C72.6572 42.0289 72.7538 41.8356 72.947 41.6424C73.1403 41.4492 73.4301 41.3525 73.72 41.3525C74.0098 41.3525 74.2997 41.4492 74.4929 41.6424C74.6861 41.8356 74.7828 42.1255 74.7828 42.4153V43.8646C74.7828 43.9612 74.7828 44.0579 74.7828 44.2511C74.7828 44.3477 74.7828 44.4443 74.8794 44.5409H74.2031ZM73.5267 44.1545C73.6233 44.1545 73.8166 44.1545 73.9132 44.0579C74.0098 43.9612 74.1064 43.8646 74.2031 43.768V43.0917H73.72C73.5267 43.0917 73.4301 43.1883 73.3335 43.2849C73.2369 43.3815 73.1403 43.5748 73.1403 43.6714C73.1403 43.768 73.1403 43.9612 73.2369 44.0579C73.3335 44.0579 73.4301 44.1545 73.5267 44.1545Z" fill="#434343"/>
<path d="M76.1361 40.5796V41.3525H76.6192V41.739H76.1361V43.6714C76.1361 43.8646 76.1361 43.9612 76.2327 44.0578C76.3293 44.1545 76.3293 44.1545 76.426 44.1545H76.5226H76.6192L76.7158 44.5409C76.6192 44.5409 76.6192 44.6376 76.5226 44.6376C76.426 44.6376 76.3293 44.6376 76.2327 44.6376C76.0395 44.6376 75.8462 44.5409 75.7496 44.4443C75.653 44.2511 75.5564 44.0579 75.5564 43.768V41.8356H75.1699V41.4492H75.5564V40.5796H76.1361Z" fill="#434343"/>
<path d="M77.8746 40.483H77.2949V39.9033H77.8746V40.483ZM77.8746 44.541H77.2949V41.3526H77.8746V44.541Z" fill="#434343"/>
<path d="M78.4541 42.7053C78.4541 42.3188 78.5507 41.9323 78.744 41.6425C78.9372 41.3526 79.2271 41.256 79.6135 41.256C80 41.256 80.2899 41.3526 80.4831 41.6425C80.6763 41.9323 80.7729 42.2222 80.7729 42.7053V43.0917C80.7729 43.4782 80.6763 43.8647 80.4831 44.1545C80.2899 44.4444 80 44.541 79.6135 44.541C79.2271 44.541 78.9372 44.4444 78.744 44.1545C78.5507 43.8647 78.4541 43.5748 78.4541 43.0917V42.7053ZM79.0338 43.0917C79.0338 43.3816 79.1304 43.5748 79.2271 43.7681C79.3237 43.9613 79.5169 44.0579 79.7101 44.0579C79.9034 44.0579 80.0966 43.9613 80.1932 43.7681C80.2899 43.5748 80.3865 43.3816 80.3865 43.0917V42.7053C80.3865 42.4154 80.2899 42.2222 80.1932 42.0289C80.0966 41.8357 79.9034 41.7391 79.7101 41.7391C79.5169 41.7391 79.3237 41.8357 79.2271 42.0289C79.1304 42.2222 79.0338 42.4154 79.0338 42.7053V43.0917Z" fill="#434343"/>
<path d="M82.029 41.3525V41.8356C82.1256 41.6424 82.2222 41.5458 82.3188 41.4492C82.4155 41.3525 82.6087 41.3525 82.8019 41.3525C83.0918 41.3525 83.285 41.4492 83.4783 41.6424C83.6715 41.8356 83.6715 42.1255 83.6715 42.6086V44.5409H83.0918V42.6086C83.0918 42.3187 83.0918 42.1255 82.9952 42.0289C82.8986 41.9322 82.8019 41.8356 82.6087 41.8356C82.5121 41.8356 82.4155 41.8356 82.3188 41.9323C82.2222 42.0289 82.1256 42.1255 82.1256 42.2221V44.5409H81.5459V41.3525H82.029Z" fill="#434343"/>
<path d="M85.9911 44.5409C85.9911 44.4443 85.9911 44.4443 85.8945 44.3477C85.8945 44.2511 85.8945 44.2511 85.8945 44.1545C85.7979 44.2511 85.7013 44.4443 85.6047 44.5409C85.5081 44.6376 85.3148 44.6376 85.1216 44.6376C84.8317 44.6376 84.6385 44.5409 84.5419 44.3477C84.3486 44.1545 84.3486 43.9612 84.3486 43.6714C84.3486 43.3815 84.4452 43.0917 84.6385 42.9951C84.8317 42.8018 85.1216 42.7052 85.5081 42.7052H85.9911V42.4153C85.9911 42.2221 85.9911 42.0289 85.8945 41.9323C85.7979 41.8356 85.7013 41.739 85.5081 41.739C85.4114 41.739 85.2182 41.8356 85.1216 41.9323C85.025 42.0289 85.025 42.1255 85.025 42.3187H84.4452C84.4452 42.0289 84.5419 41.8356 84.7351 41.6424C84.9283 41.4492 85.2182 41.3525 85.5081 41.3525C85.7979 41.3525 86.0878 41.4492 86.281 41.6424C86.4742 41.8356 86.5709 42.1255 86.5709 42.4153V43.8646C86.5709 43.9612 86.5709 44.0579 86.5709 44.2511C86.5709 44.3477 86.5709 44.4443 86.6675 44.5409H85.9911ZM85.2182 44.1545C85.3148 44.1545 85.5081 44.1545 85.6047 44.0579C85.7013 43.9612 85.7979 43.8646 85.8945 43.768V43.0917H85.4114C85.2182 43.0917 85.1216 43.1883 85.025 43.2849C84.9283 43.3815 84.8317 43.5748 84.8317 43.6714C84.8317 43.768 84.8317 43.9612 84.9283 44.0579C85.025 44.0579 85.1216 44.1545 85.2182 44.1545Z" fill="#434343"/>
<path d="M87.7301 44.5411H87.1504V40H87.7301V44.5411Z" fill="#434343"/>
<path d="M90.4352 42.7053V44.541H89.8555V40.2898H91.2081C91.5946 40.2898 91.8845 40.3864 92.1743 40.5796C92.3676 40.7729 92.4642 41.0627 92.4642 41.4492C92.4642 41.6425 92.3675 41.8357 92.2709 42.0289C92.1743 42.2222 91.9811 42.3188 91.7878 42.4154C91.9811 42.512 92.1743 42.6086 92.2709 42.8019C92.3675 42.9951 92.3675 43.1883 92.3675 43.4782V43.8647C92.3675 43.9613 92.3675 44.1545 92.3675 44.2511C92.3675 44.3478 92.4642 44.4444 92.4642 44.541V44.6376H91.8845C91.7878 44.541 91.7878 44.4444 91.7878 44.3478C91.7878 44.2511 91.7878 44.0579 91.7878 43.9613V43.4782C91.7878 43.285 91.6912 43.0917 91.5946 42.8985C91.498 42.8019 91.3047 42.7053 91.1115 42.7053H90.4352ZM90.4352 42.2222H91.1115C91.3047 42.2222 91.498 42.1255 91.5946 42.0289C91.6912 41.9323 91.7878 41.7391 91.7878 41.4492C91.7878 41.1594 91.6912 41.0627 91.5946 40.8695C91.498 40.7729 91.3047 40.6763 91.1115 40.6763H90.3386V42.2222H90.4352Z" fill="#434343"/>
<path d="M94.3 44.541C93.9136 44.541 93.6237 44.4444 93.4305 44.1545C93.2372 43.8647 93.1406 43.5748 93.1406 43.1883V42.7053C93.1406 42.3188 93.2372 41.9323 93.4305 41.6425C93.6237 41.3526 93.9136 41.256 94.3 41.256C94.6865 41.256 94.9764 41.3526 95.1696 41.6425C95.3629 41.9323 95.4595 42.2222 95.4595 42.6086V42.9951H93.817V43.0917C93.817 43.3816 93.9136 43.5748 94.0102 43.7681C94.1068 43.9613 94.3 44.0579 94.4933 44.0579C94.6865 44.0579 94.7831 44.0579 94.8798 43.9613C94.9764 43.8647 95.073 43.8647 95.1696 43.7681L95.3628 44.1545C95.2662 44.2511 95.1696 44.3478 94.9764 44.4444C94.6865 44.541 94.4933 44.541 94.3 44.541ZM94.2034 41.7391C94.0102 41.7391 93.9136 41.8357 93.817 42.0289C93.7203 42.2222 93.6237 42.4154 93.6237 42.7053H94.6865V42.512C94.6865 42.3188 94.6865 42.1255 94.5899 41.9323C94.4933 41.8357 94.3967 41.7391 94.2034 41.7391Z" fill="#434343"/>
<path d="M97.3915 44.5409C97.3915 44.4443 97.3915 44.4443 97.2949 44.3477C97.2949 44.2511 97.2949 44.2511 97.2949 44.1545C97.1983 44.2511 97.1017 44.4443 97.0051 44.5409C96.9084 44.6376 96.7152 44.6376 96.522 44.6376C96.2321 44.6376 96.0389 44.5409 95.9423 44.3477C95.749 44.1545 95.749 43.9612 95.749 43.6714C95.749 43.3815 95.8456 43.0917 96.0389 42.9951C96.2321 42.8018 96.522 42.7052 96.9085 42.7052H97.3915V42.4153C97.3915 42.2221 97.3915 42.0289 97.2949 41.9323C97.1983 41.8356 97.1017 41.739 96.9085 41.739C96.8118 41.739 96.6186 41.8356 96.522 41.9323C96.4254 42.0289 96.4254 42.1255 96.4254 42.3187H95.8456C95.8456 42.0289 95.9423 41.8356 96.1355 41.6424C96.3287 41.4492 96.6186 41.3525 96.9085 41.3525C97.1983 41.3525 97.4882 41.4492 97.6814 41.6424C97.8746 41.8356 97.9713 42.1255 97.9713 42.4153V43.8646C97.9713 43.9612 97.9713 44.0579 97.9713 44.2511C97.9713 44.3477 97.9713 44.4443 98.0679 44.5409H97.3915ZM96.7152 44.1545C96.8118 44.1545 97.0051 44.1545 97.1017 44.0579C97.1983 43.9612 97.2949 43.8646 97.3915 43.768V43.0917H96.9085C96.7152 43.0917 96.6186 43.1883 96.522 43.2849C96.4254 43.3815 96.3287 43.5748 96.3287 43.6714C96.3287 43.768 96.3287 43.9612 96.4254 44.0579C96.522 44.0579 96.6186 44.1545 96.7152 44.1545Z" fill="#434343"/>
<path d="M99.2272 44.5411H98.6475V40H99.2272V44.5411Z" fill="#434343"/>
<path d="M103.479 42.512H101.933V44.0579H103.769V44.541H101.354V40.2898H103.769V40.7729H101.933V42.1255H103.479V42.512Z" fill="#434343"/>
<path d="M105.701 43.6714C105.701 43.5748 105.701 43.4782 105.605 43.3816C105.508 43.285 105.411 43.1883 105.122 43.0917C104.832 42.9951 104.542 42.8019 104.445 42.7053C104.252 42.6086 104.252 42.4154 104.252 42.1255C104.252 41.8357 104.349 41.6425 104.542 41.5458C104.735 41.3526 105.025 41.256 105.315 41.256C105.605 41.256 105.894 41.3526 106.088 41.5458C106.281 41.7391 106.378 41.9323 106.378 42.2222H105.798C105.798 42.0289 105.798 41.9323 105.701 41.8357C105.605 41.7391 105.508 41.6425 105.315 41.6425C105.122 41.6425 105.025 41.6425 104.928 41.7391C104.832 41.8357 104.832 41.9323 104.832 42.0289C104.832 42.1255 104.832 42.2222 104.928 42.3188C105.025 42.4154 105.122 42.512 105.411 42.6086C105.701 42.7053 105.991 42.8985 106.184 42.9951C106.378 43.1883 106.378 43.3816 106.378 43.5748C106.378 43.8647 106.281 44.0579 106.088 44.2511C105.894 44.4444 105.605 44.541 105.315 44.541C104.928 44.541 104.735 44.4444 104.542 44.2511C104.349 44.0579 104.252 43.8647 104.252 43.5748H104.832C104.832 43.7681 104.928 43.9613 105.025 44.0579C105.122 44.1545 105.218 44.1545 105.411 44.1545C105.605 44.1545 105.701 44.1545 105.798 44.0579C105.605 43.9613 105.701 43.8647 105.701 43.6714Z" fill="#434343"/>
<path d="M107.536 40.5796V41.3525H108.02V41.739H107.536V43.6714C107.536 43.8646 107.536 43.9612 107.633 44.0578C107.73 44.1545 107.73 44.1545 107.826 44.1545H107.923H108.02L108.116 44.5409C108.02 44.5409 108.02 44.6376 107.923 44.6376C107.826 44.6376 107.73 44.6376 107.633 44.6376C107.44 44.6376 107.247 44.5409 107.15 44.4443C107.053 44.2511 106.957 44.0579 106.957 43.768V41.8356H106.57V41.4492H106.957V40.5796H107.536Z" fill="#434343"/>
<path d="M110.242 44.5409C110.242 44.4443 110.242 44.4443 110.146 44.3477C110.146 44.2511 110.146 44.2511 110.146 44.1545C110.049 44.2511 109.952 44.4443 109.856 44.5409C109.759 44.6376 109.566 44.6376 109.373 44.6376C109.083 44.6376 108.889 44.5409 108.793 44.3477C108.6 44.1545 108.6 43.9612 108.6 43.6714C108.6 43.3815 108.696 43.0917 108.889 42.9951C109.083 42.8018 109.373 42.7052 109.759 42.7052H110.242V42.4153C110.242 42.2221 110.242 42.0289 110.146 41.9323C110.049 41.8356 109.952 41.739 109.759 41.739C109.662 41.739 109.469 41.8356 109.373 41.9323C109.276 42.0289 109.276 42.1255 109.276 42.3187H108.696C108.696 42.0289 108.793 41.8356 108.986 41.6424C109.179 41.4492 109.469 41.3525 109.759 41.3525C110.049 41.3525 110.339 41.4492 110.532 41.6424C110.725 41.8356 110.822 42.1255 110.822 42.4153V43.8646C110.822 43.9612 110.822 44.0579 110.822 44.2511C110.822 44.3477 110.822 44.4443 110.918 44.5409H110.242ZM109.469 44.1545C109.566 44.1545 109.759 44.1545 109.856 44.0579C109.952 43.9612 110.049 43.8646 110.146 43.768V43.0917H109.662C109.469 43.0917 109.373 43.1883 109.276 43.2849C109.179 43.3815 109.083 43.5748 109.083 43.6714C109.083 43.768 109.083 43.9612 109.179 44.0579C109.276 44.0579 109.373 44.1545 109.469 44.1545Z" fill="#434343"/>
<path d="M112.174 40.5796V41.3525H112.657V41.739H112.174V43.6714C112.174 43.8646 112.174 43.9612 112.271 44.0578C112.271 44.1545 112.367 44.1545 112.464 44.1545H112.561H112.657L112.754 44.5409C112.657 44.5409 112.657 44.6376 112.561 44.6376C112.464 44.6376 112.367 44.6376 112.271 44.6376C112.078 44.6376 111.884 44.5409 111.788 44.4443C111.691 44.2511 111.594 44.0579 111.594 43.768V41.8356H111.111V41.4492H111.498V40.5796H112.174Z" fill="#434343"/>
<path d="M114.3 44.541C113.914 44.541 113.624 44.4444 113.43 44.1545C113.237 43.8647 113.141 43.5748 113.141 43.1883V42.7053C113.141 42.3188 113.237 41.9323 113.43 41.6425C113.624 41.3526 113.914 41.256 114.3 41.256C114.687 41.256 114.976 41.3526 115.17 41.6425C115.363 41.9323 115.459 42.2222 115.459 42.6086V42.9951H113.817V43.0917C113.817 43.3816 113.914 43.5748 114.01 43.7681C114.107 43.9613 114.3 44.0579 114.493 44.0579C114.687 44.0579 114.783 44.0579 114.88 43.9613C114.976 43.8647 115.073 43.8647 115.17 43.7681L115.363 44.1545C115.266 44.2511 115.17 44.3478 114.976 44.4444C114.783 44.541 114.59 44.541 114.3 44.541ZM114.3 41.7391C114.107 41.7391 114.01 41.8357 113.914 42.0289C113.817 42.2222 113.72 42.4154 113.72 42.7053H114.783V42.512C114.783 42.3188 114.783 42.1255 114.687 41.9323C114.59 41.8357 114.397 41.7391 114.3 41.7391Z" fill="#434343"/>
<path d="M119.807 43.1883C119.807 43.6714 119.71 43.9613 119.517 44.1545C119.324 44.3478 118.937 44.541 118.551 44.541C118.164 44.541 117.778 44.4444 117.585 44.1545C117.295 43.8647 117.198 43.4782 117.198 42.9951V41.8357C117.198 41.3526 117.295 40.9661 117.585 40.6763C117.875 40.3864 118.164 40.2898 118.551 40.2898C118.937 40.2898 119.324 40.3864 119.517 40.6763C119.71 40.8695 119.807 41.256 119.904 41.6424H119.324C119.324 41.3526 119.227 41.0627 119.131 40.9661C119.034 40.7729 118.841 40.7729 118.551 40.7729C118.261 40.7729 118.164 40.8695 117.971 41.0627C117.875 41.256 117.778 41.5458 117.778 41.9323V43.0917C117.778 43.4782 117.875 43.7681 117.971 43.9613C118.068 44.1545 118.261 44.2511 118.551 44.2511C118.841 44.2511 118.937 44.1545 119.131 44.0579C119.227 43.9613 119.324 43.6714 119.324 43.3816H119.807V43.1883Z" fill="#434343"/>
<path d="M121.739 41.8357H121.45C121.353 41.8357 121.256 41.8357 121.16 41.9323C121.063 42.0289 121.063 42.1255 120.966 42.2222V44.4444H120.387V41.256H120.966V41.7391C121.063 41.5458 121.16 41.4492 121.256 41.3526C121.353 41.256 121.45 41.256 121.643 41.256H121.739H121.836L121.739 41.8357Z" fill="#434343"/>
<path d="M122.029 42.7053C122.029 42.3188 122.126 41.9323 122.319 41.6425C122.512 41.3526 122.802 41.256 123.189 41.256C123.575 41.256 123.865 41.3526 124.058 41.6425C124.252 41.9323 124.348 42.2222 124.348 42.7053V43.0917C124.348 43.4782 124.252 43.8647 124.058 44.1545C123.865 44.4444 123.575 44.541 123.189 44.541C122.802 44.541 122.512 44.4444 122.319 44.1545C122.126 43.8647 122.029 43.5748 122.029 43.0917V42.7053ZM122.609 43.0917C122.609 43.3816 122.706 43.5748 122.802 43.7681C122.899 43.9613 123.092 44.0579 123.285 44.0579C123.479 44.0579 123.672 43.9613 123.768 43.7681C123.865 43.5748 123.962 43.3816 123.962 43.0917V42.7053C123.962 42.4154 123.865 42.2222 123.768 42.0289C123.672 41.8357 123.479 41.7391 123.285 41.7391C123.092 41.7391 122.899 41.8357 122.802 42.0289C122.706 42.2222 122.609 42.4154 122.609 42.7053V43.0917Z" fill="#434343"/>
<path d="M127.343 43.4781L127.73 41.3525H128.309L127.633 44.5409H127.15L126.57 42.4153L125.99 44.5409H125.507L124.831 41.3525H125.411L125.797 43.4781L126.377 41.3525H126.763L127.343 43.4781Z" fill="#434343"/>
<path d="M128.696 42.9951C128.696 42.512 128.793 42.1255 128.986 41.7391C129.179 41.4492 129.469 41.256 129.759 41.256C129.952 41.256 130.049 41.256 130.146 41.3526C130.242 41.4492 130.339 41.5458 130.435 41.6424V39.9033H131.015V44.4444H130.532V44.0579C130.435 44.1545 130.339 44.3478 130.242 44.3478C130.146 44.4444 129.952 44.4444 129.856 44.4444C129.566 44.4444 129.276 44.3478 129.083 44.0579C128.793 43.8647 128.696 43.4782 128.696 42.9951ZM129.276 42.9951C129.276 43.285 129.276 43.5748 129.373 43.7681C129.469 43.9613 129.662 44.0579 129.856 44.0579C129.952 44.0579 130.049 44.0579 130.146 43.9613C130.242 43.8647 130.339 43.7681 130.339 43.6714V42.1255C130.242 42.0289 130.242 41.9323 130.146 41.8357C130.049 41.7391 129.952 41.7391 129.856 41.7391C129.662 41.7391 129.469 41.8357 129.373 42.0289C129.373 42.3188 129.276 42.6086 129.276 42.9951Z" fill="#434343"/>
<path d="M131.885 44.5411V41.8357H131.498V41.4493H131.885V41.0628C131.885 40.7729 131.981 40.4831 132.078 40.2899C132.271 40.0966 132.464 40 132.754 40C132.851 40 132.851 40 132.947 40C133.044 40 133.044 40 133.141 40L133.044 40.4831H132.947H132.851C132.754 40.4831 132.657 40.5797 132.561 40.6763C132.464 40.7729 132.464 40.9662 132.464 41.1594V41.5459H133.044V41.9324H132.464V44.6377H131.885V44.5411Z" fill="#434343"/>
<path d="M135.17 44.0579C135.073 44.2511 134.977 44.3478 134.88 44.4444C134.783 44.541 134.59 44.541 134.397 44.541C134.107 44.541 133.914 44.4444 133.721 44.2511C133.527 44.0579 133.527 43.6714 133.527 43.1883V41.3526H134.107V43.1883C134.107 43.4782 134.107 43.7681 134.204 43.8647C134.3 43.9613 134.397 44.0579 134.59 44.0579C134.783 44.0579 134.88 44.0579 134.977 43.9613C135.073 43.8647 135.17 43.7681 135.17 43.6714V41.256H135.75V44.4444H135.266L135.17 44.0579Z" fill="#434343"/>
<path d="M136.909 41.3525V41.8356C137.005 41.6424 137.102 41.5458 137.199 41.4492C137.295 41.3525 137.489 41.3525 137.682 41.3525C137.972 41.3525 138.165 41.4492 138.358 41.6424C138.551 41.8356 138.551 42.1255 138.551 42.6086V44.5409H137.972V42.6086C137.972 42.3187 137.972 42.1255 137.875 42.0289C137.778 41.9322 137.682 41.8356 137.489 41.8356C137.392 41.8356 137.295 41.8356 137.199 41.9323C137.102 42.0289 137.005 42.1255 137.005 42.2221V44.5409H136.426V41.3525H136.909Z" fill="#434343"/>
<path d="M139.131 42.9951C139.131 42.512 139.227 42.1255 139.421 41.7391C139.614 41.4492 139.904 41.256 140.194 41.256C140.387 41.256 140.484 41.256 140.58 41.3526C140.677 41.4492 140.773 41.5458 140.87 41.6424V39.9033H141.45V44.4444H140.967V44.0579C140.87 44.1545 140.773 44.3478 140.677 44.3478C140.58 44.4444 140.387 44.4444 140.29 44.4444C140 44.4444 139.711 44.3478 139.517 44.0579C139.227 43.8647 139.131 43.4782 139.131 42.9951ZM139.807 42.9951C139.807 43.285 139.807 43.5748 139.904 43.7681C140 43.9613 140.194 44.0579 140.387 44.0579C140.484 44.0579 140.58 44.0579 140.677 43.9613C140.773 43.8647 140.87 43.7681 140.87 43.6714V42.1255C140.773 42.0289 140.773 41.9323 140.677 41.8357C140.58 41.7391 140.484 41.7391 140.387 41.7391C140.194 41.7391 140 41.8357 139.904 42.0289C139.807 42.2222 139.807 42.6086 139.807 42.9951Z" fill="#434343"/>
<path d="M142.802 40.483H142.223V39.9033H142.802V40.483ZM142.802 44.541H142.223V41.3526H142.802V44.541Z" fill="#434343"/>
<path d="M144.058 41.3525V41.8356C144.155 41.6424 144.252 41.5458 144.348 41.4492C144.445 41.3525 144.638 41.3525 144.831 41.3525C145.121 41.3525 145.314 41.4492 145.508 41.6424C145.701 41.8356 145.701 42.1255 145.701 42.6086V44.5409H145.121V42.6086C145.121 42.3187 145.121 42.1255 145.024 42.0289C144.928 41.9322 144.831 41.8356 144.638 41.8356C144.541 41.8356 144.445 41.8356 144.348 41.9323C144.252 42.0289 144.155 42.1255 144.155 42.2221V44.5409H143.575V41.3525H144.058Z" fill="#434343"/>
<path d="M146.28 42.8018C146.28 42.3187 146.377 41.9323 146.57 41.739C146.763 41.4492 147.053 41.3525 147.343 41.3525C147.536 41.3525 147.633 41.3525 147.73 41.4492C147.826 41.5458 147.923 41.6424 148.019 41.739V41.3525H148.502V44.4443C148.502 44.8308 148.406 45.1207 148.213 45.4105C148.019 45.6037 147.73 45.797 147.343 45.797C147.246 45.797 147.053 45.797 146.957 45.7004C146.763 45.7004 146.667 45.6037 146.57 45.5071L146.667 45.024C146.763 45.1207 146.86 45.1207 146.957 45.1207C147.053 45.1207 147.15 45.2173 147.343 45.2173C147.536 45.2173 147.73 45.1207 147.826 45.024C147.923 44.9274 148.019 44.6376 148.019 44.4443V44.1545C147.923 44.2511 147.826 44.3477 147.73 44.4443C147.633 44.5409 147.44 44.5409 147.343 44.5409C147.053 44.5409 146.763 44.4443 146.57 44.1545C146.377 43.8646 146.28 43.5748 146.28 43.1883V42.8018ZM146.86 43.1883C146.86 43.4781 146.86 43.6714 147.053 43.8646C147.15 44.0579 147.343 44.1545 147.536 44.1545C147.633 44.1545 147.73 44.1545 147.826 44.0579C147.923 43.9612 148.019 43.8646 148.019 43.768V42.2221C147.923 42.1255 147.923 42.0289 147.826 41.9323C147.73 41.8356 147.633 41.8356 147.536 41.8356C147.343 41.8356 147.15 41.9322 147.053 42.1255C146.957 42.3187 146.86 42.6086 146.86 42.8984V43.1883Z" fill="#434343"/>
<path d="M151.209 42.8018V44.4443H150.629V40.1931H151.982C152.368 40.1931 152.658 40.2897 152.948 40.5796C153.141 40.7728 153.238 41.1593 153.238 41.5458C153.238 41.9322 153.141 42.2221 152.948 42.512C152.755 42.7052 152.368 42.8984 151.982 42.8984H151.209V42.8018ZM151.209 42.3187H151.982C152.175 42.3187 152.368 42.2221 152.465 42.1255C152.561 41.9322 152.658 41.739 152.658 41.5458C152.658 41.2559 152.561 41.0627 152.465 40.9661C152.368 40.7728 152.175 40.7728 151.982 40.7728H151.209V42.3187Z" fill="#434343"/>
<path d="M154.493 44.5411H153.913V40H154.493V44.5411Z" fill="#434343"/>
<path d="M156.812 44.5409C156.812 44.4443 156.812 44.4443 156.716 44.3477C156.716 44.2511 156.716 44.2511 156.716 44.1545C156.619 44.2511 156.523 44.4443 156.426 44.5409C156.329 44.6376 156.136 44.6376 155.943 44.6376C155.653 44.6376 155.46 44.5409 155.363 44.3477C155.17 44.1545 155.17 43.9612 155.17 43.6714C155.17 43.3815 155.267 43.0917 155.46 42.9951C155.653 42.8018 155.943 42.7052 156.329 42.7052H156.812V42.4153C156.812 42.2221 156.812 42.0289 156.716 41.9323C156.619 41.8356 156.523 41.739 156.329 41.739C156.233 41.739 156.039 41.8356 155.943 41.9323C155.846 42.0289 155.846 42.1255 155.846 42.3187H155.267C155.267 42.0289 155.363 41.8356 155.556 41.6424C155.75 41.4492 156.039 41.3525 156.329 41.3525C156.619 41.3525 156.909 41.4492 157.102 41.6424C157.296 41.8356 157.392 42.1255 157.392 42.4153V43.8646C157.392 43.9612 157.392 44.0579 157.392 44.2511C157.392 44.3477 157.392 44.4443 157.489 44.5409H156.812ZM156.136 44.1545C156.233 44.1545 156.426 44.1545 156.523 44.0579C156.619 43.9612 156.716 43.8646 156.812 43.768V43.0917H156.329C156.136 43.0917 156.039 43.1883 155.943 43.2849C155.846 43.3815 155.75 43.5748 155.75 43.6714C155.75 43.768 155.75 43.9612 155.846 44.0579C155.846 44.0579 155.943 44.1545 156.136 44.1545Z" fill="#434343"/>
<path d="M158.745 40.5796V41.3525H159.228V41.739H158.745V43.6714C158.745 43.8646 158.744 43.9612 158.841 44.0578C158.841 44.1545 158.938 44.1545 159.034 44.1545H159.131H159.228L159.324 44.5409C159.228 44.5409 159.228 44.6376 159.131 44.6376C159.034 44.6376 158.938 44.6376 158.841 44.6376C158.648 44.6376 158.455 44.5409 158.358 44.4443C158.261 44.2511 158.165 44.0579 158.165 43.768V41.8356H157.778V41.4492H158.165V40.5796H158.745Z" fill="#434343"/>
<path d="M160.001 44.5411V41.8357H159.614V41.4493H160.001V41.0628C160.001 40.7729 160.097 40.4831 160.194 40.2899C160.387 40.0966 160.58 40 160.87 40C160.967 40 160.967 40 161.064 40C161.16 40 161.16 40 161.257 40L161.16 40.4831H161.064H160.967C160.87 40.4831 160.774 40.5797 160.677 40.6763C160.58 40.7729 160.58 40.9662 160.58 41.1594V41.5459H161.16V41.9324H160.58V44.6377H160.001V44.5411Z" fill="#434343"/>
<path d="M161.546 42.7053C161.546 42.3188 161.643 41.9323 161.836 41.6425C162.029 41.3526 162.319 41.256 162.705 41.256C163.092 41.256 163.382 41.3526 163.575 41.6425C163.768 41.9323 163.865 42.2222 163.865 42.7053V43.0917C163.865 43.4782 163.768 43.8647 163.575 44.1545C163.382 44.4444 163.092 44.541 162.705 44.541C162.319 44.541 162.029 44.4444 161.836 44.1545C161.643 43.8647 161.546 43.5748 161.546 43.0917V42.7053ZM162.126 43.0917C162.126 43.3816 162.222 43.5748 162.319 43.7681C162.415 43.9613 162.609 44.0579 162.802 44.0579C162.995 44.0579 163.188 43.9613 163.285 43.7681C163.382 43.5748 163.478 43.3816 163.478 43.0917V42.7053C163.478 42.4154 163.382 42.2222 163.285 42.0289C163.188 41.8357 162.995 41.7391 162.802 41.7391C162.609 41.7391 162.415 41.8357 162.319 42.0289C162.222 42.2222 162.126 42.4154 162.126 42.7053V43.0917Z" fill="#434343"/>
<path d="M165.894 41.8357H165.604C165.507 41.8357 165.411 41.8357 165.314 41.9323C165.217 42.0289 165.217 42.1255 165.121 42.2222V44.4444H164.541V41.256H165.121V41.7391C165.217 41.5458 165.314 41.4492 165.411 41.3526C165.507 41.256 165.604 41.256 165.797 41.256H165.894H165.99L165.894 41.8357Z" fill="#434343"/>
<path d="M166.86 41.3526V41.7391C166.957 41.5458 167.053 41.4492 167.15 41.3526C167.247 41.256 167.44 41.256 167.633 41.256C167.826 41.256 167.923 41.256 168.116 41.4492C168.213 41.5458 168.309 41.7391 168.406 41.9323C168.503 41.7391 168.599 41.6425 168.696 41.5458C168.792 41.4492 168.986 41.3526 169.179 41.3526C169.469 41.3526 169.662 41.4492 169.855 41.6425C170.048 41.8357 170.048 42.2222 170.048 42.6086V44.4444H169.469V42.512C169.469 42.2222 169.469 41.9323 169.372 41.8357C169.276 41.7391 169.179 41.6425 168.986 41.6425C168.889 41.6425 168.696 41.7391 168.696 41.8357C168.599 41.9323 168.503 42.0289 168.503 42.2222C168.503 42.2222 168.503 42.2222 168.503 42.3188C168.503 42.4154 168.503 42.4154 168.503 42.4154V44.4444H167.923V42.512C167.923 42.2222 167.923 41.9323 167.826 41.8357C167.73 41.7391 167.633 41.6425 167.44 41.6425C167.343 41.6425 167.247 41.6425 167.15 41.7391C167.053 41.8357 166.957 41.9323 166.957 42.0289V44.4444H166.377V41.256H166.86V41.3526Z" fill="#434343"/>
</g>
<defs>
<clipPath id="clip0_33542_1570">
<rect width="200" height="57.971" fill="white"/>
</clipPath>
</defs>
</svg>
