<svg width="200" height="47" viewBox="0 0 200 47" fill="none" xmlns="http://www.w3.org/2000/svg">
<g clip-path="url(#clip0_33583_1435)">
<path d="M0 7.8147V38.4596C0.00248217 38.6433 0.0521256 38.822 0.146448 38.9833C0.240771 39.1422 0.374808 39.2762 0.538631 39.3705L13.992 46.8791V15.6062L0 7.8147Z" fill="#60BEFF"/>
<path d="M41.9316 0.000854492L55.385 7.50943C55.5488 7.60375 55.6829 7.73779 55.7772 7.89665C55.8715 8.05799 55.9212 8.2367 55.9237 8.42287V39.0653L41.9316 31.2539V0.000854492Z" fill="#1A4199"/>
<path d="M13.9697 46.8791L27.9617 39.0653L13.9697 31.2539V46.8791ZM14.5083 0.306157L41.9313 15.6286V31.2539L0 7.81472L13.4534 0.306157C13.6143 0.213844 13.7965 0.16508 13.9821 0.164673C14.1657 0.164673 14.3494 0.214316 14.5083 0.306157Z" fill="#3CA9E5"/>
<path d="M41.9314 0.000854492L27.9617 7.81473L41.9314 15.6261V0.000854492ZM55.9234 39.0653L42.47 46.5763C42.3032 46.6612 42.1186 46.7054 41.9314 46.7054C41.7442 46.7054 41.5596 46.6612 41.3928 46.5763L13.9697 31.2539V15.6063L55.9234 39.0653ZM90.4529 10.4185C87.7693 10.4812 85.1634 11.3314 82.9592 12.8635V11.2501C82.9592 11.1185 82.9096 10.9944 82.8177 10.9025C82.7259 10.8107 82.5993 10.7611 82.4702 10.7611H77.2304C77.1659 10.7606 77.102 10.7729 77.0423 10.7972C76.9826 10.8216 76.9283 10.8576 76.8826 10.903C76.8369 10.9485 76.8007 11.0026 76.776 11.0622C76.7513 11.1217 76.7387 11.1856 76.7389 11.2501V24.2889C76.7265 24.5098 76.7265 24.7307 76.7389 24.9492V38.2586C76.7387 38.469 76.8205 38.6711 76.967 38.8222C77.1134 38.9733 77.313 39.0614 77.5232 39.0677H82.1773C82.2816 39.0677 82.3858 39.0454 82.4826 39.0057C82.5794 38.9635 82.6663 38.9039 82.7383 38.8295C82.8128 38.7525 82.8698 38.6632 82.9071 38.5663C82.9468 38.4695 82.9642 38.3653 82.9592 38.2586V24.6314C82.9617 23.512 83.1975 22.4074 83.6517 21.3848C84.106 20.3621 84.7712 19.4462 85.6002 18.6941C86.4305 17.943 87.4087 17.3739 88.4721 17.0236C89.537 16.6711 90.6614 16.547 91.7759 16.6562C93.8038 16.8697 95.6803 17.8278 97.0406 19.3494C98.3982 20.8687 99.1408 22.8397 99.1231 24.8772V38.3082C99.1206 38.4125 99.138 38.5167 99.1752 38.616C99.2149 38.7128 99.272 38.8022 99.344 38.8766C99.4185 38.9536 99.5054 39.0131 99.6022 39.0529C99.699 39.0951 99.8032 39.1149 99.9075 39.1149H104.537C104.75 39.1149 104.956 39.0305 105.108 38.8791C105.259 38.7277 105.343 38.5217 105.343 38.3082V24.6314C105.338 22.7102 104.946 20.8089 104.187 19.0441C103.43 17.2768 102.32 15.6832 100.93 14.3553C99.5401 13.0273 97.8944 11.9947 96.0949 11.3171C94.2939 10.6406 92.3749 10.335 90.4529 10.4185ZM137.018 26.153C137.018 26.6668 136.567 27.0888 136.001 27.0888H115.255C116.334 30.266 119.34 32.8971 122.88 32.8971H131.339C131.781 32.8971 132.131 33.257 132.131 33.6889V38.3256C132.131 38.7674 131.771 39.1174 131.339 39.1174H123.23C115.503 39.1174 108.905 32.7829 108.617 25.0733C108.617 19.3916 111.551 14.1914 116.799 11.7415C118.712 10.8504 120.778 10.4036 122.89 10.4036C130.299 10.4657 136.351 16.1921 136.956 23.4499C136.956 23.4499 137.008 25.5052 137.018 26.153ZM123.548 16.6537C119.916 16.3062 116.511 18.5154 115.285 21.9581H130.289C129.239 19.1111 126.698 16.9541 123.548 16.6537ZM164.213 10.6072C164.139 10.5377 164.042 10.5004 163.943 10.5004C163.843 10.5004 163.746 10.5377 163.674 10.6072L153.756 20.3944L143.961 10.6072C143.887 10.5377 143.79 10.5004 143.69 10.5004C143.589 10.5004 143.492 10.5377 143.42 10.6072L139.429 14.7425C139.359 14.8145 139.322 14.9113 139.322 15.0105C139.322 15.1098 139.359 15.2066 139.429 15.2811L149.223 25.0658L139.282 34.9995C139.213 35.0715 139.175 35.1683 139.175 35.2675C139.175 35.3693 139.213 35.4661 139.282 35.5381L143.199 39.4277C143.244 39.4748 143.296 39.5121 143.355 39.5394C143.415 39.5642 143.48 39.5791 143.544 39.5791C143.606 39.5791 143.671 39.5642 143.73 39.5394C143.79 39.5121 143.842 39.4748 143.887 39.4277L153.681 29.6405L163.478 39.4277C163.55 39.4972 163.647 39.5344 163.749 39.5344C163.848 39.5344 163.943 39.4972 164.017 39.4277L168.008 35.4636C168.078 35.3917 168.118 35.2948 168.118 35.1956C168.118 35.0938 168.078 34.9995 168.008 34.925L158.211 25.1403L168.155 15.3531C168.224 15.2811 168.264 15.1843 168.264 15.085C168.264 14.9832 168.224 14.8889 168.155 14.8145L164.213 10.6072ZM194.334 14.7524C197.036 17.4855 198.551 21.1733 198.551 25.0162C198.551 27.9154 197.688 30.7475 196.072 33.1552C194.456 35.5629 192.16 37.4345 189.477 38.5341C186.791 39.6362 183.84 39.9142 180.998 39.3333C178.155 38.7525 175.549 37.3426 173.511 35.28C171.474 33.217 170.097 30.5947 169.555 27.7466C169.011 24.8997 169.329 21.9556 170.466 19.2898C171.604 16.623 173.509 14.3543 175.939 12.7716C178.371 11.1905 181.218 10.3664 184.12 10.4036C187.964 10.455 191.633 12.0172 194.334 14.7524ZM189.787 30.7277C191.274 29.1639 192.1 27.0888 192.1 24.9318C192.1 22.7748 191.274 20.7022 189.787 19.1359C188.653 17.9395 187.192 17.1017 185.587 16.7263C183.982 16.3509 182.302 16.4542 180.754 17.0236C179.679 17.4192 178.695 18.0289 177.863 18.8157C177.031 19.6026 176.368 20.5508 175.917 21.6032C175.465 22.6556 175.229 23.7875 175.229 24.9318C175.229 26.0761 175.465 27.2104 175.917 28.2604C176.368 29.3125 177.031 30.261 177.863 31.0479C178.695 31.8355 179.679 32.4453 180.754 32.84C181.832 33.2371 182.976 33.4084 184.12 33.3463C186.275 33.2297 188.303 32.2939 189.787 30.7277Z" fill="#2853C3"/>
</g>
<defs>
<clipPath id="clip0_33583_1435">
<rect width="200" height="46.88" fill="white"/>
</clipPath>
</defs>
</svg>
