<svg width="200" height="22" viewBox="0 0 200 22" fill="none" xmlns="http://www.w3.org/2000/svg">
<path d="M14.6415 13.5036L5.05753 0.379272H0V20.7864H4.22303V6.62532L14.5657 20.7864H18.814V0.379272H14.6415V13.5036Z" fill="#050604"/>
<path d="M36.3635 15.6783C35.4025 16.9174 34.1129 17.5243 32.4186 17.5243C30.7749 17.5243 29.4852 16.9427 28.499 15.7289C27.4622 14.4645 26.9565 12.745 26.9565 10.6461C26.9565 8.52193 27.4622 6.77709 28.499 5.48742C29.46 4.24832 30.7496 3.66671 32.4186 3.66671C34.0623 3.66671 35.352 4.19775 36.3382 5.33569C37.375 6.52421 37.906 8.21848 37.906 10.4185C37.906 12.568 37.375 14.3381 36.3635 15.6783ZM32.4439 0C29.3082 0 26.7542 1.03679 24.8576 3.0598C22.9863 5.05753 22.0254 7.61158 22.0254 10.6461C22.0254 13.5542 22.9357 16.0324 24.7312 18.0554C26.5519 20.129 29.1312 21.191 32.368 21.191C35.6554 21.191 38.26 20.0784 40.106 17.9036C41.9015 15.7795 42.8118 13.276 42.8118 10.4438C42.8118 7.48514 41.8509 4.98166 40.0049 3.00923C38.1083 1.0115 35.5543 0 32.4439 0Z" fill="#050604"/>
<path d="M51.2577 4.17242H56.6946C57.7314 4.17242 58.5911 4.40001 59.2486 4.8299C59.8302 5.20921 60.0831 5.71496 60.0831 6.42302C60.0831 7.15636 59.8049 7.78855 59.2233 8.2943C58.6164 8.80005 57.6555 9.07822 56.3405 9.07822H51.2577V4.17242ZM63.7245 9.81156C64.4832 8.74948 64.8625 7.63682 64.8625 6.47359C64.8625 4.93105 64.1797 3.54023 62.8142 2.27585C61.4486 1.01146 59.4003 0.379272 56.6946 0.379272H46.6807V20.7864H51.2577V12.7196H56.3153L60.5383 20.7864H65.6717L60.9682 11.784C62.182 11.3288 63.0923 10.6713 63.7245 9.81156Z" fill="#050604"/>
<path d="M71.8674 4.07127H75.5846C77.8858 4.07127 79.5042 4.67817 80.5663 5.94255C81.6537 7.25751 82.1847 8.72419 82.1847 10.3679C82.1847 12.4162 81.6284 14.0852 80.4904 15.299C79.4031 16.4875 77.7847 17.0691 75.5846 17.0691H71.8674V4.07127ZM75.7616 0.379272H67.1133V20.7864H76.6973C79.6812 20.7864 82.1594 19.7749 84.1066 17.8025C86.0284 15.83 86.9894 13.3771 86.9894 10.5449C86.9894 7.73797 86.0031 5.31036 84.0307 3.36321C82.0583 1.39078 79.2766 0.379272 75.7616 0.379272Z" fill="#050604"/>
<path d="M100.443 8.67366L96.5736 7.83917C93.8931 7.25755 93.8931 6.22076 93.8931 5.89202C93.8931 5.20925 94.1713 4.72879 94.8035 4.34947C95.5621 3.8943 96.3966 3.66671 97.3828 3.66671C98.3691 3.66671 99.33 3.89429 100.215 4.40005C101.024 4.82994 101.505 5.46213 101.732 6.32191L101.935 7.18169L106.056 6.06903L105.702 5.15868C104.387 1.74485 101.606 0 97.484 0C95.2587 0 93.4127 0.53104 91.946 1.54255C90.4035 2.6552 89.6195 4.14717 89.6195 5.99317C89.6195 7.10583 89.923 8.11733 90.4793 8.97711C91.0356 9.83689 91.7437 10.4944 92.5529 10.899C93.2862 11.2783 94.2472 11.607 95.3851 11.8852L99.5323 12.7955C100.24 12.9473 100.873 13.2254 101.404 13.63C101.833 13.9588 102.01 14.3381 102.01 14.8691C102.01 15.653 101.732 16.2094 101.125 16.6898C100.443 17.1956 99.3553 17.4485 97.9139 17.4485C95.1575 17.4485 93.4127 16.3864 92.6035 14.2117L92.3506 13.5036L88.2793 14.3381L88.6586 15.299C90.1759 19.1933 93.3115 21.191 97.9645 21.191C100.569 21.191 102.643 20.5841 104.109 19.3956C105.652 18.1312 106.436 16.5634 106.436 14.6668C106.436 12.5174 105.399 9.73574 100.443 8.67366Z" fill="#050604"/>
<path d="M106.865 4.17242H113.44V20.7864H118.219V4.17242H124.819V0.379272H106.865V4.17242Z" fill="#050604"/>
<path d="M131.243 4.17242H136.655C137.717 4.17242 138.576 4.40001 139.234 4.8299C139.79 5.20921 140.068 5.71496 140.068 6.42302C140.068 7.15636 139.79 7.78855 139.209 8.2943C138.602 8.80005 137.641 9.07822 136.3 9.07822H131.243V4.17242ZM143.684 9.81156C144.468 8.74948 144.848 7.63682 144.848 6.47359C144.848 4.93105 144.165 3.54023 142.799 2.27585C141.434 1.01146 139.36 0.379272 136.655 0.379272H126.641V20.7864H131.243V12.7196H136.275L140.524 20.7864H145.632L140.928 11.784C142.142 11.3288 143.078 10.6713 143.684 9.81156Z" fill="#050604"/>
<path d="M151.22 12.0116H159.843V8.37017H151.22V4.17242H162.094V0.379272H146.77V20.7864H162.397V16.9932H151.22V12.0116Z" fill="#050604"/>
<path d="M182.046 0.379272V4.17242H188.621V20.8117H193.4V4.17242H200V0.379272H182.046Z" fill="#050604"/>
<path d="M169.149 12.0116H177.772V8.37017H169.149V4.17242H180.023V0.379272H164.698V20.8117H180.326V17.0185H169.149V12.0116Z" fill="#050604"/>
</svg>
