<svg width="200" height="41" viewBox="0 0 200 41" fill="none" xmlns="http://www.w3.org/2000/svg">
<g clip-path="url(#clip0_33542_1633)">
<path d="M179.385 13.6432C180.307 13.6432 181.061 13.7887 181.681 14.0179L186.394 14.018L190.742 24.925L195.127 14.018H200L189.168 40.0675H184.333L188.343 30.1724L182.072 15.3222L181.484 18.4033C180.475 17.9508 179.433 17.9185 178.93 17.9162L178.823 17.916C175.749 17.916 174.468 20.624 174.438 25.1721L174.438 25.3373V31.5217H169.865V14.018H174.438V18.1409C175.337 14.955 177.399 13.6432 179.385 13.6432ZM11.9939 25.9661C13.7445 27.533 16.0563 28.4858 18.5907 28.4858C20.6466 28.4858 22.556 27.8588 24.1378 26.7857C25.72 27.8588 27.6294 28.4858 29.6852 28.4858C32.0379 28.4858 34.1989 27.6646 35.8971 26.2933C32.9925 32.8819 26.4037 37.4813 18.7406 37.4813C16.3623 37.4813 14.0874 37.0382 11.9939 36.2302V25.9661ZM18.7406 0C19.0929 0 19.4429 0.0097195 19.7904 0.028905V8.76762C19.397 8.72011 18.9967 8.69565 18.5907 8.69565C13.1805 8.69565 8.78436 13.0377 8.69698 18.4271L8.69565 18.5907L8.6955 34.5645C3.46815 31.2392 0 25.3949 0 18.7406C0 8.39047 8.39047 0 18.7406 0ZM146.814 13.6432C151.799 13.6432 155.697 17.2039 155.697 22.7136L155.696 22.8637C155.69 23.2575 155.663 23.7779 155.634 24.1483L155.622 24.2879H142.279C142.579 26.6117 144.528 28.036 147.114 28.036C148.876 28.036 150.675 27.2864 151.499 25.7871C152.586 26.3868 153.861 27.0615 154.985 27.6612C153.411 30.6597 150.037 31.8966 146.814 31.8966C141.829 31.8966 137.744 28.2234 137.744 22.7136C137.744 17.2039 141.829 13.6432 146.814 13.6432ZM94.8276 13.6432C99.8126 13.6432 103.711 17.2039 103.711 22.7136L103.709 22.8637C103.704 23.2575 103.677 23.7779 103.647 24.1483L103.636 24.2879H90.2924C90.5922 26.6117 92.5412 28.036 95.1274 28.036C96.8891 28.036 98.6882 27.2864 99.5127 25.7871C100.6 26.3868 101.874 27.0615 102.998 27.6612C101.424 30.6597 98.051 31.8966 94.8276 31.8966C89.8426 31.8966 85.7571 28.2234 85.7571 22.7136C85.7571 17.2039 89.8426 13.6432 94.8276 13.6432ZM76.087 13.6432C81.072 13.6432 84.97 17.2039 84.97 22.7136L84.9688 22.8637C84.9629 23.2575 84.9361 23.7779 84.9068 24.1483L84.8951 24.2879H71.5517C71.8516 26.6117 73.8006 28.036 76.3868 28.036C78.1484 28.036 79.9475 27.2864 80.7721 25.7871C81.8591 26.3868 83.1334 27.0615 84.2579 27.6612C82.6837 30.6597 79.3103 31.8966 76.087 31.8966C71.102 31.8966 67.0165 28.2234 67.0165 22.7136C67.0165 17.2039 71.102 13.6432 76.087 13.6432ZM114.243 13.6432C115.421 13.6432 116.327 13.8812 117.026 14.2276L117.129 14.2804L116.342 18.4033C115.333 17.9508 114.291 17.9185 113.787 17.9162L113.681 17.916C110.607 17.916 109.326 20.624 109.296 25.1721L109.295 25.3373V31.5217H104.723V14.018H109.295V18.1409C110.195 14.955 112.256 13.6432 114.243 13.6432ZM166.229 13.6432C167.407 13.6432 168.313 13.8812 169.012 14.2276L169.115 14.2804L168.328 18.4033C167.319 17.9508 166.277 17.9185 165.774 17.9162L165.667 17.916C162.593 17.916 161.312 20.624 161.282 25.1721L161.282 25.3373V31.5217H156.709V14.018H161.282V18.1409C162.181 14.955 164.243 13.6432 166.229 13.6432ZM128.223 5.69715C132.759 5.69715 135.645 8.3958 135.645 12.7061C135.645 14.5802 134.82 16.7541 132.234 17.7286C135.457 18.5157 137.031 21.5142 137.031 23.7631C137.031 27.919 134.093 31.4505 129.161 31.5207L129.01 31.5217H118.103V5.69715H128.223ZM59.8951 5.69715C65.6297 5.69715 68.1034 9.85757 68.1034 14.0555C68.1034 18.2114 65.6789 22.2571 60.0661 22.3376L59.8951 22.3388H54.1979V31.5217H49.4003V5.69715H59.8951ZM128.636 20.09H122.901V27.2489H128.748C130.847 27.2489 132.009 25.4498 132.009 23.6882C132.009 22.0184 130.87 20.1282 128.702 20.0905L128.636 20.09ZM29.6852 11.994C33.3284 11.994 36.2819 14.9474 36.2819 18.5907C36.2819 22.234 33.3284 25.1874 29.6852 25.1874C28.5662 25.1874 27.5123 24.9088 26.5893 24.4171C27.782 22.7827 28.4858 20.7689 28.4858 18.5907C28.4858 16.4125 27.782 14.3987 26.5891 12.7642C27.5123 12.2726 28.5662 11.994 29.6852 11.994ZM18.5907 11.994C18.9594 11.994 19.3209 12.0242 19.6731 12.0824L19.7902 12.1028L19.7901 18.5907L19.7907 18.7013C19.8141 20.8371 20.5141 22.8104 21.6868 24.4172C20.7635 24.9088 19.7097 25.1874 18.5907 25.1874C14.9474 25.1874 11.994 22.234 11.994 18.5907C11.994 14.9474 14.9474 11.994 18.5907 11.994ZM24.1379 15.0193C24.802 16.0486 25.1874 17.2746 25.1874 18.5907C25.1874 19.9068 24.802 21.1328 24.1379 22.1622C23.4738 21.1328 23.0885 19.9068 23.0885 18.5907C23.0885 17.3111 23.4528 16.1166 24.0834 15.1053L24.1379 15.0193ZM146.852 17.4663C144.477 17.4663 142.616 18.7887 142.252 21.1064L142.241 21.1769H151.237C150.9 18.7781 149.1 17.4663 146.852 17.4663ZM94.8651 17.4663C92.4902 17.4663 90.6297 18.7887 90.2654 21.1064L90.2549 21.1769H99.2504C98.913 18.7781 97.1139 17.4663 94.8651 17.4663ZM76.1244 17.4663C73.7496 17.4663 71.8891 18.7887 71.5248 21.1064L71.5142 21.1769H80.5097C80.1724 18.7781 78.3733 17.4663 76.1244 17.4663ZM59.8201 9.97002H54.1979V18.066H59.6702C62.1439 18.066 63.3058 15.967 63.3058 14.0555C63.3058 12.2002 62.2405 10.0142 59.8917 9.97068L59.8201 9.97002ZM127.736 9.97002H122.901V16.0795H127.886C129.61 16.0795 130.66 14.6927 130.66 12.9685C130.66 11.1513 129.632 9.99455 127.795 9.9704L127.736 9.97002ZM23.0888 0.507019C28.6665 1.83219 33.2786 5.65041 35.6828 10.7194C34.0185 9.44979 31.9399 8.69565 29.6852 8.69565C27.6294 8.69565 25.72 9.32258 24.138 10.3957C23.8443 10.1965 23.5393 10.0126 23.2242 9.84532L23.0886 9.77464L23.0888 0.507019Z" fill="black"/>
</g>
<defs>
<clipPath id="clip0_33542_1633">
<rect width="200" height="40.2344" fill="white"/>
</clipPath>
</defs>
</svg>
