<svg width="200" height="42" viewBox="0 0 200 42" fill="none" xmlns="http://www.w3.org/2000/svg">
<g clip-path="url(#clip0_33542_1636)">
<path d="M7.01654 0L0.167032 32.2985C-0.863178 37.1711 2.86785 41.7653 7.85184 41.7653H41.7374L48.573 9.4668C49.6032 4.59418 45.8861 0 40.8882 0H7.01654Z" fill="url(#paint0_linear_33542_1636)"/>
<path d="M33.7469 23.788L27.3707 14.168C26.5494 12.8872 24.5864 13.2492 24.2662 14.7388L23.3195 19.1381H2.95197L1.60156 25.5421L21.2173 28.9112L20.4934 32.2942C20.1732 33.7838 21.816 34.9115 23.0968 34.0901L33.2457 26.1547C34.0253 25.6396 34.2481 24.5815 33.7469 23.788Z" fill="black" fill-opacity="0.3"/>
<path d="M23.0412 29.3984L33.1902 21.463C33.9837 20.9479 34.2064 19.8899 33.6913 19.0963L27.3152 9.47638C26.4938 8.19558 24.5308 8.55755 24.2106 10.0472L23.2639 14.4465H3.39758L1.32324 24.2195H21.1617L20.4378 27.6025C20.1176 29.0921 21.7604 30.2198 23.0412 29.3984Z" fill="white"/>
<path d="M68.0639 13.2953H67.3678C67.1312 13.2953 66.8945 13.3092 66.6718 13.3231C66.449 13.337 66.2263 13.3509 66.0314 13.3649C65.8364 13.3927 65.6694 13.4066 65.558 13.4484V20.1308H67.5767C68.76 20.1308 69.7485 19.8385 70.5281 19.2538C71.2938 18.6551 71.6836 17.7363 71.6836 16.4973C71.6836 15.5645 71.3634 14.7988 70.723 14.2002C70.0965 13.5876 69.2055 13.2953 68.0639 13.2953ZM63.4141 11.8196C64.0684 11.6943 64.8202 11.5968 65.6833 11.5411C66.5465 11.4854 67.3122 11.4437 68.0222 11.4437C68.8157 11.4437 69.5675 11.5272 70.2914 11.7082C71.0153 11.8892 71.6418 12.1676 72.1848 12.5574C72.7277 12.9611 73.1593 13.4762 73.4934 14.1166C73.7997 14.7292 73.9667 15.5088 73.9667 16.4277C73.9667 17.8477 73.5769 18.9893 72.7973 19.8663C72.0177 20.7434 71.0432 21.3281 69.8459 21.6205L71.0849 22.5811L75.5817 29.7508H73.0897L68.0918 21.9407L65.558 21.5509V29.7508H63.4141V11.8196Z" fill="#0A035F"/>
<path d="M78.7979 11.6385H88.6684V13.5458H80.9557V19.4765H88.0141V21.3838H80.9557V27.8296H88.7937V29.7508H78.7979V11.6385Z" fill="#0A035F"/>
<path d="M92.3848 29.7508H95.9348V11.6385H92.3848V29.7508Z" fill="#0A035F"/>
<path d="M103.898 20.2979L102.478 17.4579H102.353L102.77 20.2979V29.7508H99.4014V11.4994H101.991L108.84 21.1611L110.219 23.9315H110.344L109.926 21.1611V11.6386H113.295V29.8761H110.706L103.898 20.2979Z" fill="#0A035F"/>
<path d="M122.359 22.2748L122.818 25.3515H122.943L123.458 22.2469L126.939 11.6385H130.656L123.932 29.8761H121.398L114.618 11.6385H118.725L122.359 22.2748Z" fill="#0A035F"/>
<path d="M131.979 11.6385H142.712V14.7849H135.529V19.0032H142.072V22.1634H135.529V26.5905H142.851V29.7508H131.979V11.6385Z" fill="#0A035F"/>
<path d="M153.293 24.8782C153.293 24.3213 153.084 23.8758 152.681 23.5278C152.277 23.1797 151.762 22.8734 151.149 22.5811C150.537 22.3026 149.868 21.9964 149.158 21.704C148.448 21.3977 147.78 21.0358 147.168 20.5903C146.555 20.1448 146.04 19.6018 145.636 18.9475C145.232 18.2932 145.024 17.4579 145.024 16.4416C145.024 15.5645 145.177 14.7988 145.469 14.1584C145.761 13.518 146.179 12.9751 146.722 12.5435C147.265 12.1119 147.905 11.7917 148.643 11.5829C149.381 11.3741 150.216 11.2766 151.121 11.2766C152.179 11.2766 153.168 11.3741 154.101 11.555C155.033 11.736 155.799 12.0005 156.398 12.3486L155.312 15.3139C154.936 15.0773 154.365 14.8545 153.599 14.6596C152.834 14.4647 152.026 14.3672 151.135 14.3672C150.314 14.3672 149.673 14.5343 149.228 14.8545C148.782 15.1747 148.574 15.6202 148.574 16.1771C148.574 16.6922 148.782 17.1238 149.186 17.4718C149.59 17.8198 150.105 18.14 150.718 18.4324C151.33 18.7248 151.998 19.031 152.708 19.3373C153.418 19.6436 154.087 20.0195 154.699 20.465C155.312 20.9105 155.827 21.4534 156.231 22.0938C156.634 22.7342 156.843 23.5417 156.843 24.5162C156.843 25.4768 156.69 26.3121 156.37 27.0082C156.05 27.7043 155.604 28.289 155.019 28.7484C154.435 29.2078 153.739 29.5559 152.917 29.7786C152.096 30.0014 151.191 30.1128 150.216 30.1128C148.922 30.1128 147.78 29.9875 146.806 29.7508C145.831 29.5141 145.093 29.2635 144.634 29.0269L145.775 26.0058C145.97 26.1033 146.207 26.2286 146.513 26.34C146.82 26.4653 147.154 26.5766 147.53 26.6741C147.905 26.7715 148.309 26.869 148.727 26.9386C149.144 27.0082 149.59 27.036 150.035 27.036C151.093 27.036 151.901 26.8551 152.458 26.507C153.015 26.145 153.293 25.6021 153.293 24.8782Z" fill="#0A035F"/>
<path d="M172.059 14.7988H166.783V29.7508H163.233V14.7988H157.929V11.6385H172.059V14.7988Z" fill="#0A035F"/>
<path d="M183.879 15.7455C183.879 16.6643 183.712 17.5971 183.377 18.5577C183.043 19.5183 182.598 20.4789 182.055 21.4395C181.512 22.4001 180.899 23.3468 180.231 24.2795C179.563 25.1984 178.881 26.0754 178.212 26.9107L176.946 28.0245V28.1219L178.602 27.8435H184.241V29.7647H173.938V29.0129C174.314 28.6092 174.774 28.1219 175.317 27.5372C175.846 26.9525 176.403 26.2982 176.987 25.5882C177.572 24.8782 178.129 24.1125 178.7 23.305C179.257 22.4975 179.772 21.6901 180.231 20.8548C180.691 20.0195 181.053 19.212 181.331 18.3906C181.609 17.5692 181.749 16.8175 181.749 16.0935C181.749 15.2443 181.512 14.5482 181.025 13.9913C180.537 13.4345 179.813 13.156 178.825 13.156C178.171 13.156 177.53 13.2952 176.904 13.5598C176.277 13.8243 175.748 14.1306 175.303 14.4786L174.44 12.975C175.038 12.4599 175.762 12.0562 176.584 11.7639C177.405 11.4715 178.296 11.3184 179.243 11.3184C179.981 11.3184 180.635 11.4297 181.206 11.6386C181.776 11.8474 182.264 12.1537 182.654 12.5574C183.057 12.9611 183.35 13.4205 183.558 13.9635C183.767 14.5064 183.879 15.1051 183.879 15.7455Z" fill="#0A035F"/>
<path d="M194.933 16.7339L195.197 14.6178H195.114L194.209 16.3719L190.562 21.3142L189.322 22.5811L191.132 22.3722H194.933V16.7339ZM200 24.1821H196.952V29.7508H194.933V24.1821H186.97V23.3328L195.559 11.3462H196.952V22.3722H200V24.1821Z" fill="#0A035F"/>
</g>
<defs>
<linearGradient id="paint0_linear_33542_1636" x1="48.0195" y1="20.8858" x2="-2.85426e-05" y2="20.8858" gradientUnits="userSpaceOnUse">
<stop stop-color="#2AA3FF"/>
<stop offset="1" stop-color="#3A15FF"/>
</linearGradient>
<clipPath id="clip0_33542_1636">
<rect width="200" height="41.7653" fill="white"/>
</clipPath>
</defs>
</svg>
