<svg width="200" height="39" viewBox="0 0 200 39" fill="none" xmlns="http://www.w3.org/2000/svg">
<path d="M63.8988 5.85869C63.7686 5.98888 63.5838 6.05608 63.3571 6.05608H46.0793C45.9155 6.05608 45.8315 6.14007 45.8315 6.30386V16.8494C45.8315 17.0132 45.9113 17.0972 46.0793 17.0972H57.8638C58.0948 17.0972 58.2754 17.1644 58.4056 17.2946C58.5358 17.4248 58.603 17.6096 58.603 17.8363V20.4612C58.603 20.6922 58.5358 20.8728 58.4056 21.0029C58.2754 21.1331 58.0906 21.2003 57.8638 21.2003H46.0793C45.9155 21.2003 45.8315 21.2843 45.8315 21.4481V32.2415C45.8315 32.4052 45.9113 32.4892 46.0793 32.4892H63.3571C63.588 32.4892 63.7686 32.5564 63.8988 32.6866C64.029 32.8168 64.0962 33.0016 64.0962 33.2326V35.8574C64.0962 36.0884 64.029 36.269 63.8988 36.4034C63.7686 36.5336 63.5838 36.6008 63.3571 36.6008H41.8166C41.5856 36.6008 41.405 36.5336 41.2706 36.4034C41.1404 36.2732 41.0732 36.0884 41.0732 35.8574V2.69208C41.0732 2.4611 41.1404 2.28051 41.2706 2.14612C41.4008 2.01593 41.5814 1.94873 41.8166 1.94873H63.3529C63.5838 1.94873 63.7644 2.01593 63.8946 2.14612C64.0248 2.27631 64.092 2.4611 64.092 2.69208V5.31692C64.0962 5.54371 64.029 5.7285 63.8988 5.85869Z" fill="#00A3A7"/>
<path d="M70.879 36.4034C70.7488 36.2732 70.6816 36.0884 70.6816 35.8574V2.69208C70.6816 2.4611 70.7488 2.28051 70.879 2.14612C71.0092 2.01593 71.1898 1.94873 71.425 1.94873H74.5916C74.9864 1.94873 75.2846 2.11252 75.4819 2.4443L90.6304 26.9498C90.6976 27.0506 90.7606 27.0884 90.8278 27.0758C90.895 27.059 90.9286 26.9834 90.9286 26.8532V2.69208C90.9286 2.4611 90.9958 2.28051 91.126 2.14612C91.2562 2.01593 91.441 1.94873 91.6719 1.94873H94.9393C95.1703 1.94873 95.3509 2.01593 95.4853 2.14612C95.6155 2.27631 95.6827 2.4611 95.6827 2.69208V35.8616C95.6827 36.0926 95.6155 36.2732 95.4853 36.4076C95.3551 36.5378 95.1703 36.605 94.9393 36.605H91.7223C91.3276 36.605 91.0294 36.4412 90.832 36.1094L75.6835 11.4569C75.6163 11.3561 75.5533 11.3183 75.4861 11.3309C75.4189 11.3477 75.3853 11.4233 75.3853 11.5535L75.4357 35.8616C75.4357 36.0926 75.3685 36.2732 75.2384 36.4076C75.1082 36.5378 74.9234 36.605 74.6966 36.605H71.4292C71.1898 36.605 71.0092 36.5378 70.879 36.4034Z" fill="#00A3A7"/>
<path d="M103.406 36.4034C103.276 36.2732 103.209 36.0884 103.209 35.8574V2.69208C103.209 2.4611 103.276 2.28051 103.406 2.14612C103.537 2.01593 103.717 1.94873 103.952 1.94873H115.686C119.118 1.94873 121.856 2.84747 123.905 4.64496C125.951 6.44665 126.975 8.8447 126.975 11.8475V26.702C126.975 29.7048 125.951 32.1071 123.905 33.9045C121.856 35.7062 119.118 36.605 115.686 36.605H103.952C103.721 36.605 103.537 36.5378 103.406 36.4034ZM108.211 32.4934H115.884C117.799 32.4934 119.323 31.9055 120.462 30.7337C121.6 29.562 122.188 27.9871 122.221 26.0048V12.5447C122.221 10.5624 121.65 8.98749 120.512 7.81577C119.374 6.64404 117.828 6.06028 115.884 6.06028H108.211C108.047 6.06028 107.963 6.14427 107.963 6.30806V32.2498C107.963 32.4136 108.043 32.4934 108.211 32.4934Z" fill="#00A3A7"/>
<path d="M135.223 36.4034C135.093 36.2732 135.025 36.0884 135.025 35.8574V2.69208C135.025 2.4611 135.093 2.28051 135.223 2.14612C135.353 2.01593 135.534 1.94873 135.769 1.94873H139.036C139.267 1.94873 139.448 2.01593 139.578 2.14612C139.708 2.27631 139.775 2.4611 139.775 2.69208V35.8616C139.775 36.0926 139.708 36.2732 139.578 36.4076C139.448 36.5378 139.263 36.605 139.036 36.605H135.769C135.538 36.605 135.353 36.5378 135.223 36.4034Z" fill="#00A3A7"/>
<path d="M169.006 2.14612C169.136 2.27631 169.203 2.4611 169.203 2.69208V5.36732C169.203 5.5983 169.136 5.77889 169.006 5.90908C168.876 6.03928 168.691 6.10647 168.46 6.10647H159.25C159.086 6.10647 159.002 6.19047 159.002 6.35426V35.8616C159.002 36.0926 158.935 36.2732 158.805 36.4076C158.675 36.5378 158.49 36.605 158.259 36.605H154.992C154.761 36.605 154.58 36.5378 154.446 36.4076C154.315 36.2774 154.248 36.0926 154.248 35.8616V6.35426C154.248 6.19047 154.164 6.10647 154 6.10647H145.236C145.005 6.10647 144.824 6.03928 144.69 5.90908C144.559 5.77889 144.492 5.5983 144.492 5.36732V2.69208C144.492 2.4611 144.559 2.28051 144.69 2.14612C144.82 2.01593 145.005 1.94873 145.236 1.94873H168.456C168.691 1.94873 168.872 2.01593 169.006 2.14612Z" fill="#00A3A7"/>
<path d="M183.311 36.4034C183.18 36.2732 183.113 36.0884 183.113 35.8574V22.1957C183.113 22.1285 183.08 22.0319 183.012 21.8975L172.916 2.88949C172.849 2.6921 172.815 2.57871 172.815 2.54511C172.815 2.17973 173.03 1.99915 173.458 1.99915H176.973C177.402 1.99915 177.7 2.17973 177.864 2.54511L185.339 16.7528C185.44 16.883 185.536 16.883 185.637 16.7528L193.113 2.54511C193.31 2.17973 193.608 1.99915 194.003 1.99915H197.569C197.963 1.99915 198.161 2.16294 198.161 2.49471L198.06 2.88949L187.96 21.9017C187.892 22.0319 187.859 22.1327 187.859 22.1999V35.8616C187.859 36.0926 187.792 36.2732 187.662 36.4076C187.531 36.5378 187.347 36.605 187.12 36.605H183.852C183.626 36.605 183.445 36.5378 183.311 36.4034Z" fill="#00A3A7"/>
<path d="M35.5087 35.513L25.4084 23.6823C32.1112 22.8886 35.4583 19.3398 35.4583 13.036C35.4583 9.23944 34.3202 6.42562 32.044 4.59453C29.7677 2.76344 26.2189 1.8479 21.3976 1.8479H11.2972C10.7345 1.8479 10.4573 2.11248 10.4573 2.64165V11.5031H1.99902V15.4131H10.4573V20.2134H1.99902V24.1233H10.4573V35.7566C10.4573 36.3152 10.7387 36.5965 11.2972 36.5965H13.8717C14.4345 36.5965 14.7116 36.3152 14.7116 35.7566V24.1233H15.98H20.7509L30.7504 35.9582C31.1116 36.3866 31.5274 36.6007 31.9894 36.6007H35.009C35.3702 36.6007 35.5969 36.4874 35.6767 36.2564C35.7649 36.0254 35.7061 35.7776 35.5087 35.513ZM14.7158 20.2134V15.4131H20.8223V11.5031H14.7158V5.75786H21.301C24.7994 5.75786 27.3151 6.32902 28.8522 7.46715C30.3893 8.60528 31.1536 10.4616 31.1536 13.036C31.1536 15.5433 30.4019 17.3701 28.9026 18.5083C27.399 19.6464 24.833 20.2176 21.2044 20.2176H14.7158V20.2134Z" fill="#00A3A7"/>
</svg>
