<svg width="200" height="55" viewBox="0 0 200 55" fill="none" xmlns="http://www.w3.org/2000/svg">
<path d="M25.8027 23.1232C21.3872 21.6777 20.5501 20.8461 20.5501 19.8167C20.5501 18.4515 22.0241 17.5347 24.2171 17.5347C26.8222 17.5347 28.2747 18.7635 29.0732 21.6442L29.1993 22.0993L36.3985 20.4971L36.2815 20.0059C34.8989 14.1907 30.3889 10.7188 24.2166 10.7188C17.7183 10.7188 13.1798 14.4422 13.1798 19.7735C13.1798 24.5219 16.1713 27.3902 23.5028 29.6733C28.6538 31.305 29.6613 32.5345 29.6613 34.1076C29.6613 36.1733 27.3372 36.6068 25.3876 36.6068C21.4046 36.6068 19.8099 35.1436 19.0673 30.8094L18.9805 30.3008L11.7646 31.8066L11.8421 32.277C13.0235 39.4643 17.8032 43.423 25.3011 43.423C32.48 43.423 37.1189 39.7832 37.1189 34.1511C37.1189 28.8276 33.9456 25.7357 25.8026 23.1232" fill="#F5294A"/>
<path d="M62.2767 11.3706L60.633 28.967L57.6357 18.7546H53.7691L50.7723 28.967L49.1286 11.3706H41.9102L45.8518 42.771H52.426L55.7028 32.0985L58.9786 42.771H65.553L69.4952 11.3706H62.2767Z" fill="#F5294A"/>
<path d="M89.8662 11.3706H83.3519L72.2432 42.771H79.6776L81.2825 38.0804H91.936L93.5409 42.771H101.02L89.8662 11.3706ZM83.5284 31.3512L86.6093 22.2395L89.6896 31.3512H83.5284Z" fill="#F5294A"/>
<path d="M119.495 11.3707H106.723V42.7711H114.136V32.3029H119.408C126.346 32.3029 130.488 28.4143 130.488 21.9015C130.488 15.4054 126.275 11.3704 119.495 11.3704L119.495 11.3707ZM114.136 18.2728H119.408C121.909 18.2728 123.075 19.412 123.075 21.8586C123.075 24.0364 121.618 25.4437 119.364 25.4437H114.136V18.2728Z" fill="#F5294A"/>
<path d="M137.065 11.3545H158.141V14.8569H140.788V24.9155H156.885V28.2832H140.788V39.2849H158.141V42.7873H137.065V11.3545Z" fill="#F5294A"/>
<path d="M165.815 11.3546H177.743C184.29 11.3546 188.235 14.857 188.235 20.6492C188.235 25.6786 185.366 28.9565 180.343 29.7649V29.8546L187.249 42.7871H182.9L176.219 30.0347H169.538V42.7871H165.816L165.815 11.3546ZM177.429 26.5317C182.048 26.5317 184.514 24.5109 184.514 20.6493C184.514 16.8325 182.093 14.8571 177.429 14.8571H169.537V26.5318L177.429 26.5317Z" fill="#F5294A"/>
</svg>
