<svg width="200" height="83" viewBox="0 0 200 83" fill="none" xmlns="http://www.w3.org/2000/svg">
<g clip-path="url(#clip0_33542_1659)">
<path d="M41.4398 82.9443C19.6499 82.9443 1.2971 65.7588 0.0649375 43.7095C-1.16723 20.882 16.4073 1.29704 39.2348 0.0648741C52.5941 -0.648485 65.5643 5.18809 73.8652 15.6291C74.5137 16.4073 74.384 17.5746 73.5409 18.2231C72.7627 18.8716 71.5954 18.7419 70.9469 17.8989C63.4242 8.36578 51.6214 3.04801 39.4294 3.69652C18.6123 4.86384 2.59412 22.6978 3.69658 43.5149C4.8639 64.3321 22.6979 80.4151 43.515 79.2477C54.3451 78.6641 64.4618 73.4112 71.2063 64.9157C71.8548 64.1375 72.9573 64.0078 73.7355 64.5915C74.5137 65.24 74.6434 66.3424 74.0597 67.1206C66.6667 76.524 55.5773 82.2309 43.7096 82.8794C42.9313 82.9443 42.1531 82.9443 41.4398 82.9443Z" fill="url(#paint0_linear_33542_1659)"/>
<path d="M36.5116 33.5279L25.8112 54.2153H25.5518L14.3975 33.5279H19.7801L25.8761 46.3684L31.5181 33.5279H36.5116Z" fill="#013B51"/>
<path d="M41.8938 24.5137C42.4775 24.0597 43.0612 23.8003 43.7745 23.8003C44.4879 23.8003 45.1364 24.0597 45.6552 24.5137C46.174 24.9676 46.4334 25.6161 46.4334 26.2646C46.4334 26.978 46.174 27.5616 45.6552 28.0804C45.1364 28.5344 44.4879 28.7938 43.7745 28.7938C43.0612 28.7938 42.4126 28.5344 41.8938 28.0804C41.3102 27.6265 41.0508 26.978 41.0508 26.2646C41.0508 25.6161 41.3102 25.0325 41.8938 24.5137ZM45.9146 33.5279V53.6317H41.375V33.5279H45.9146Z" fill="#013B51"/>
<path d="M74.3847 33.5279V53.6317H69.8451V50.3243C69.1318 51.2322 68.0941 52.1401 66.7323 52.9183C65.3704 53.6965 63.814 54.0857 62.1279 54.0857C60.1823 54.0857 58.4962 53.6966 56.9398 52.8535C55.3834 52.0104 54.1512 50.8431 53.3082 49.2867C52.4651 47.7303 51.9463 45.7847 51.9463 43.5798C51.9463 41.3749 52.4002 39.4942 53.373 37.8729C54.2809 36.2517 55.5779 34.9547 57.1344 34.0467C58.6908 33.1388 60.4417 32.6849 62.3224 32.6849C64.0734 32.6849 65.565 33.074 66.7971 33.7873C68.0293 34.5007 69.0669 35.5383 69.8451 36.7056L70.2342 33.4631C70.2342 33.5279 74.3847 33.5279 74.3847 33.5279ZM67.6402 49.0273C68.8075 48.1194 69.5857 46.8224 69.91 45.2659V41.31C69.5209 39.8833 68.7427 38.716 67.4456 37.8081C66.1486 36.9002 64.7868 36.4462 63.2303 36.4462C62.063 36.4462 60.9606 36.7705 59.9229 37.3541C58.8853 37.9378 58.1071 38.7809 57.4586 39.8185C56.8101 40.8561 56.5507 42.0882 56.5507 43.3853C56.5507 44.6823 56.875 45.9144 57.4586 46.9521C58.1071 48.0545 58.8853 48.8976 59.9878 49.4812C61.0903 50.0649 62.1927 50.3892 63.36 50.3892C65.0462 50.454 66.4729 49.9352 67.6402 49.0273Z" fill="#013B51"/>
<path d="M82.9446 24.8379C83.4634 24.384 84.1119 24.1246 84.8253 24.1246C85.5387 24.1246 86.1223 24.384 86.6411 24.8379C87.1599 25.2919 87.4193 25.9404 87.4193 26.5889C87.4193 27.3023 87.1599 27.8859 86.6411 28.3399C86.1223 28.7938 85.4738 29.0532 84.8253 29.0532C84.1119 29.0532 83.5283 28.7938 82.9446 28.3399C82.4258 27.8859 82.1016 27.2374 82.1016 26.5889C82.1664 25.9404 82.4258 25.2919 82.9446 24.8379ZM86.9654 33.7225V53.5669H82.4907V33.7225H86.9654Z" fill="#013B51"/>
<path d="M111.609 34.6304C112.841 35.7329 113.425 37.1596 113.489 38.9106V53.5668H109.015V40.467C108.95 39.3645 108.626 38.4566 107.977 37.8081C107.393 37.1596 106.485 36.8353 105.253 36.7705C103.502 36.7705 102.011 37.4838 100.908 38.9106C99.741 40.3373 99.1573 42.0882 99.1573 44.2932V53.5668H94.6826V33.7225H98.7034L98.9628 37.5487C99.6761 36.122 100.714 34.9547 102.14 34.1764C103.567 33.3334 105.188 32.9443 107.004 32.9443C108.885 33.0091 110.441 33.5279 111.609 34.6304Z" fill="#013B51"/>
<path d="M139.364 33.7225L128.794 54.1505H128.534L117.51 33.7225H122.828L128.794 46.3684L134.371 33.7225H139.364Z" fill="#013B51"/>
<path d="M157.847 48.5085L159.923 51.8159C158.885 52.5293 157.718 53.0481 156.486 53.4372C155.253 53.8263 154.086 54.0208 152.919 54.0208C150.714 54.0208 148.768 53.5669 147.147 52.659C145.526 51.751 144.229 50.5189 143.321 48.8976C142.413 47.2763 141.959 45.5254 141.959 43.4501C141.959 41.5046 142.478 39.6888 143.451 38.1324C144.423 36.5111 145.785 35.2141 147.471 34.3062C149.157 33.3334 151.038 32.8795 153.048 32.8795C155.643 32.8795 157.783 33.6577 159.534 35.1492C161.285 36.6408 162.452 38.7809 163.1 41.5046L147.406 47.0169C147.99 47.9897 148.768 48.7679 149.741 49.3516C150.714 49.9352 151.816 50.1946 153.048 50.1946C154.67 50.2595 156.291 49.6758 157.847 48.5085ZM148.185 38.3918C147.017 39.6888 146.434 41.3101 146.434 43.2556C146.434 43.7095 146.434 44.0987 146.499 44.3581L158.042 40.0779C157.588 38.9754 156.875 38.1324 156.032 37.419C155.124 36.7705 154.086 36.3814 152.724 36.3814C150.844 36.5111 149.352 37.0948 148.185 38.3918Z" fill="#013B51"/>
<path d="M170.039 53.2426C168.742 52.7238 167.64 52.0104 166.797 50.9728L168.742 48.3788C169.521 49.157 170.364 49.7407 171.272 50.1298C172.179 50.5189 173.023 50.7783 173.866 50.7783C174.903 50.7783 175.811 50.5837 176.46 50.1298C177.108 49.7407 177.497 49.0922 177.497 48.1843C177.497 47.5357 177.303 46.9521 176.849 46.563C176.46 46.1739 175.941 45.8496 175.422 45.6551C174.903 45.4605 173.995 45.2011 172.763 44.812C169.391 43.7095 167.705 41.764 167.705 39.0403C167.705 37.3542 168.288 35.9274 169.521 34.7601C170.753 33.5928 172.439 33.0092 174.644 33.0092C176.071 33.0092 177.303 33.2037 178.405 33.528C179.508 33.8522 180.48 34.4359 181.453 35.2141L179.702 37.9378C179.183 37.419 178.535 36.9651 177.757 36.6408C176.978 36.3165 176.2 36.122 175.552 36.122C174.644 36.122 173.866 36.3165 173.282 36.7705C172.633 37.2245 172.309 37.8081 172.309 38.5215C172.309 39.1051 172.504 39.6239 172.958 40.013C173.347 40.4022 173.801 40.7264 174.255 40.8561C174.709 41.0507 175.552 41.3101 176.914 41.764C178.535 42.2828 179.832 42.9962 180.74 43.9041C181.648 44.7472 182.102 45.9145 182.102 47.406C182.102 49.3516 181.453 50.908 180.091 52.1402C178.729 53.3723 176.849 54.0208 174.384 54.0208C172.763 54.0208 171.336 53.7614 170.039 53.2426Z" fill="#013B51"/>
<path d="M197.731 49.5461C197.731 49.5461 196.952 49.6109 196.758 49.6109C195.396 49.6109 194.683 49.0273 194.683 46.952V37.2244H200.065V33.7225H194.683V24.9676H190.208V33.6576H186.576V37.1595H190.208V47.2763C190.208 49.2867 190.662 50.9728 191.764 52.0104C192.867 53.1129 194.229 53.5668 195.85 53.6317C196.693 53.6965 197.731 53.502 197.731 53.502V49.5461Z" fill="#013B51"/>
</g>
<defs>
<linearGradient id="paint0_linear_33542_1659" x1="8.66107e-05" y1="41.4755" x2="74.4526" y2="41.4755" gradientUnits="userSpaceOnUse">
<stop stop-color="#036BB4"/>
<stop offset="1" stop-color="#013B51"/>
</linearGradient>
<clipPath id="clip0_33542_1659">
<rect width="200" height="82.9442" fill="white"/>
</clipPath>
</defs>
</svg>
