<svg width="200" height="34" viewBox="0 0 200 34" fill="none" xmlns="http://www.w3.org/2000/svg">
<g clip-path="url(#clip0_33542_1400)">
<path d="M109.509 19.7238C109.804 19.2325 110.061 19.0425 110.819 18.7576C110.98 18.6986 111.769 18.5021 115.17 18.5021C116.628 18.5021 119.389 18.5741 120.024 19.3962C120.483 19.9858 120.745 20.6785 120.745 21.5907C120.745 21.7266 120.728 21.8101 120.719 21.8592H108.998C109.063 20.8979 109.235 20.1823 109.509 19.7238ZM109.165 25.9533C109.034 25.4833 108.968 24.8643 108.964 24.1028H120.787C121.529 24.1028 122.101 23.9292 122.484 23.5869C122.967 23.171 123.201 22.4963 123.201 21.5235C123.201 19.4503 122.307 17.9617 120.755 17.115C119.733 16.5582 116.697 16.3682 115.146 16.3682C112.237 16.3682 109.617 16.4108 108.389 17.5195C107.563 18.2597 107.036 19.1571 106.767 20.2544C106.597 20.9847 106.515 21.9346 106.515 23.1612C106.515 24.3403 106.564 25.2115 106.666 25.8174C106.823 26.7623 107.157 27.5664 107.653 28.2051C108.554 29.3727 109.822 29.9688 111.425 29.9688H123.252V27.7204H111.425C110.225 27.7204 109.509 27.1586 109.168 25.9517L109.165 25.9533ZM142.021 16.2569H131.856C131.108 16.2569 130.546 16.4861 130.186 16.9447C129.907 17.2886 129.771 17.7799 129.771 18.4595V29.9688H132.138V18.5021H142.09C142.864 18.5021 143.387 18.6871 143.688 19.072C143.885 19.3143 144.114 19.8417 144.114 20.9766V29.9672H146.479V20.6654C146.479 19.2177 146.102 18.1107 145.365 17.3705C144.623 16.6303 143.498 16.2569 142.024 16.2569H142.021ZM155.248 27.5124C154.991 27.3355 154.888 26.9064 154.844 26.556C154.814 26.3824 154.778 25.955 154.778 24.9151V18.5021H163.908V16.2585H154.78V12.2201H152.415V25.1738C152.415 27.1226 152.752 28.4 153.437 29.0632C153.869 29.4956 154.452 29.774 155.173 29.8886C155.505 29.9377 156.062 29.9656 156.876 29.9656H164.052V27.7187H157.161C155.599 27.7187 155.278 27.5304 155.245 27.5058L155.248 27.5124ZM172.869 19.1702C173.331 18.6544 175.804 18.2171 177.823 18.2171C179.842 18.2171 182.318 18.6527 182.779 19.1702C183.357 19.8089 183.658 21.1403 183.658 23.0187C183.658 24.825 183.363 26.0614 182.785 26.6919C182.264 27.2585 179.829 27.7204 177.823 27.7204C175.817 27.7204 173.385 27.2585 172.869 26.6936C172.286 26.0614 171.991 24.8266 171.991 23.0171C171.991 21.1387 172.296 19.8073 172.871 19.1686L172.869 19.1702ZM177.825 15.9719C176.113 15.9719 172.506 16.2962 171.269 17.5113C170.118 18.6462 169.533 20.4591 169.533 22.8959C169.533 25.4015 170.116 27.2471 171.269 28.382C172.543 29.6348 176.133 29.9705 177.825 29.9705C179.523 29.9705 183.108 29.6331 184.38 28.382C185.533 27.2471 186.116 25.4015 186.116 22.8959C186.116 20.4591 185.535 18.6478 184.38 17.5113C183.145 16.2995 179.541 15.9719 177.825 15.9719ZM198.285 16.2569C196.844 16.2569 194.895 16.6335 194.034 17.4573C193.191 18.2597 192.768 19.4994 192.768 21.142V29.9688H195.133V21.4269C195.133 20.0677 195.411 19.4535 195.644 19.1784C195.945 18.8181 197.226 18.5037 198.385 18.5037H200.003V16.2601H198.289L198.285 16.2569ZM73.7134 16.0374H75.9864V29.9033H73.7101L73.7134 16.0374ZM83.6342 16.2487H81.0565L89.0597 28.2362L90.3583 26.2661L83.6342 16.2487ZM99.1688 16.2487L95.53 21.6693L90.2519 29.5529C90.4484 29.6724 90.6482 29.7658 90.8414 29.8182C91.4146 29.9737 91.9583 29.8182 91.9583 29.8182C92.5708 29.6413 93.1538 29.191 93.5239 28.5801L101.745 16.2487H99.1705H99.1688ZM50.5015 16.2487H47.9238L55.9286 28.2362L57.2322 26.2661L50.5015 16.2487ZM66.0378 16.2487L62.3973 21.6693L57.1241 29.5529C57.3173 29.6724 57.5171 29.7658 57.7087 29.8182C58.2819 29.9737 58.8223 29.8182 58.8223 29.8182C59.4397 29.6413 60.0178 29.191 60.3879 28.5801L68.6121 16.2487H66.0361H66.0378Z" fill="#565656"/>
<path d="M23.1282 27.1651C22.7892 27.1651 22.4453 27.0603 22.1538 26.8442C21.4267 26.307 21.2744 25.2802 21.8099 24.5547L39.5161 0.661578C40.0565 -0.0622583 41.08 -0.216196 41.8088 0.322587C42.5326 0.863008 42.6866 1.88817 42.1478 2.61528L24.4449 26.5035C24.1272 26.9359 23.631 27.1651 23.1315 27.1651" fill="#FFD621"/>
<path d="M11.0934 32.024C10.756 32.024 10.4121 31.9208 10.1206 31.703C9.39353 31.1626 9.24123 30.1375 9.77674 29.4103L21.0765 14.159C21.6169 13.4319 22.642 13.2796 23.3691 13.8184C24.0946 14.3555 24.2453 15.3807 23.7098 16.1062L12.4101 31.3575C12.0891 31.7915 11.5945 32.0207 11.0934 32.0207" fill="#565656"/>
<path d="M1.63794 33.3292C1.29895 33.3292 0.959956 33.2261 0.663543 33.0066C-0.0635685 32.4662 -0.215869 31.4427 0.324552 30.7172L8.55369 19.7335C9.0892 19.0081 10.116 18.8541 10.8415 19.3929C11.5686 19.9333 11.7192 20.9569 11.1821 21.6823L2.9546 32.666C2.63362 33.1 2.13578 33.3292 1.63794 33.3292Z" fill="#FFD621"/>
</g>
<defs>
<clipPath id="clip0_33542_1400">
<rect width="200" height="33.3292" fill="white"/>
</clipPath>
</defs>
</svg>
