<svg width="200" height="34" viewBox="0 0 200 34" fill="none" xmlns="http://www.w3.org/2000/svg">
<g clip-path="url(#clip0_33542_1405)">
<path d="M0.140625 8.60572V30.4262C0.140625 31.8605 1.27505 33.0231 2.67442 33.0231H40.048C42.6481 33.0231 43.5614 29.4888 41.3021 28.1698L3.92861 6.34928C2.23945 5.36306 0.140625 6.61331 0.140625 8.60572ZM30.3669 27.8768H5.28552V13.0812L30.3669 27.8768Z" fill="url(#paint0_linear_33542_1405)"/>
<path opacity="0.6" d="M42.9023 2.57819V30.4103C42.9023 31.8314 41.7506 32.9834 40.3299 32.9834H2.91094C0.548183 32.9834 -0.564777 30.0645 1.19787 28.4907L38.6168 0.658584C40.2746 -0.821645 42.9023 0.355395 42.9023 2.57819ZM9.65567 27.8371H37.7575V8.32433L9.65567 27.8371Z" fill="url(#paint1_linear_33542_1405)"/>
<path d="M119.1 30.9378C113.697 30.9378 109.617 27.2981 109.617 21.5995C109.617 16.4524 113.403 12.298 118.806 12.298C124.099 12.298 127.701 16.2686 127.701 22.0774V23.1069H114.506C114.8 25.3495 116.601 27.2245 119.614 27.2245C121.121 27.2245 123.216 26.5628 124.356 25.4598L126.414 28.4745C124.65 30.0922 121.857 30.9378 119.1 30.9378ZM123.18 19.9451C123.069 18.2539 121.893 16.0112 118.806 16.0112C115.902 16.0112 114.653 18.1804 114.432 19.9451H123.18Z" fill="#1F1752"/>
<path fill-rule="evenodd" clip-rule="evenodd" d="M198.842 30.4966H194.138V28.2172C192.741 29.9819 190.793 30.9378 188.661 30.9378C184.177 30.9378 180.796 27.5554 180.796 21.6363C180.796 15.8274 184.141 12.298 188.661 12.298C190.756 12.298 192.741 13.2171 194.138 15.0186V5.97441H198.842V30.4966ZM190.095 26.7834C191.675 26.7834 193.366 25.9378 194.138 24.7613V18.4745C193.366 17.298 191.675 16.4524 190.095 16.4524C187.448 16.4524 185.611 18.548 185.611 21.6363C185.611 24.6878 187.448 26.7834 190.095 26.7834ZM179.068 30.4966H174.401V19.7613C174.401 17.298 173.114 16.4524 171.129 16.4524C169.292 16.4524 167.858 17.4818 167.086 18.548V30.4966H162.418V12.7392H167.086V15.0553C168.226 13.695 170.394 12.298 173.298 12.298C177.194 12.298 179.068 14.5039 179.068 17.9598V30.4966ZM159.093 30.4966H154.425V28.254C153.212 29.6143 151.08 30.9378 148.177 30.9378C144.281 30.9378 142.443 28.8054 142.443 25.3495V12.7392H147.111V23.5113C147.111 25.9745 148.397 26.7834 150.382 26.7834C152.183 26.7834 153.616 25.7907 154.425 24.7613V12.7392H159.093V30.4966ZM136.505 30.4966H131.8V16.8201H128.86V12.7392H131.8V11.7833C131.8 7.99648 134.226 5.60676 137.791 5.60676C139.482 5.60676 141.283 6.04794 142.422 7.26118L140.658 10.0186C140.18 9.54061 139.555 9.28326 138.71 9.28326C137.424 9.28326 136.505 10.1288 136.505 11.7833V12.7392H140.107V16.8201H136.505V30.4966ZM100.759 30.9378C97.6714 30.9378 94.6943 29.9084 92.8198 28.1804L94.8413 24.9083C96.1277 26.1216 98.7741 27.3348 100.979 27.3348C103.001 27.3348 103.957 26.526 103.957 25.4231C103.957 22.4819 93.4079 24.8716 93.4079 17.8862C93.4079 14.9083 96.0175 12.298 100.685 12.298C103.699 12.298 106.088 13.3274 107.853 14.7245L105.978 17.923C104.912 16.7833 102.891 15.8642 100.722 15.8642C99.0314 15.8642 97.9287 16.6362 97.9287 17.6289C97.9287 20.276 108.441 18.0701 108.441 25.2392C108.441 28.4745 105.684 30.9378 100.759 30.9378ZM88.1791 10.8274C86.6722 10.8274 85.3857 9.57737 85.3857 8.03325C85.3857 6.48912 86.6722 5.27588 88.1791 5.27588C89.7228 5.27588 90.9725 6.48912 90.9725 8.03325C90.9725 9.57737 89.7228 10.8274 88.1791 10.8274ZM90.5314 30.4966H85.8636V12.7392H90.5314V30.4966Z" fill="#1F1752"/>
<path fill-rule="evenodd" clip-rule="evenodd" d="M78.9451 30.4966H73.9823L70.2334 18.4014L66.4844 30.4966H61.4858L56.083 12.7393H60.934L64.243 24.6883L68.1382 12.7393H72.2913L76.1878 24.6883L79.4954 12.7393H84.3478L78.9451 30.4966Z" fill="#1F1752"/>
</g>
<defs>
<linearGradient id="paint0_linear_33542_1405" x1="2.59354" y1="14.0405" x2="35.8961" y2="34.8715" gradientUnits="userSpaceOnUse">
<stop stop-color="#838DFE"/>
<stop offset="1" stop-color="#D7C5FD"/>
</linearGradient>
<linearGradient id="paint1_linear_33542_1405" x1="39.9323" y1="6.59108" x2="6.81551" y2="34.1748" gradientUnits="userSpaceOnUse">
<stop stop-color="#00FFD4"/>
<stop offset="1" stop-color="#83DBFF"/>
</linearGradient>
<clipPath id="clip0_33542_1405">
<rect width="200" height="33.1034" fill="white"/>
</clipPath>
</defs>
</svg>
