<svg width="200" height="48" viewBox="0 0 200 48" fill="none" xmlns="http://www.w3.org/2000/svg">
<g clip-path="url(#clip0_33542_1673)">
<path d="M66.567 17.2644C65.9347 18.9903 65.2782 20.5892 64.6197 22.3735H64.4787C63.8222 20.5892 63.2181 18.9903 62.6018 17.2644L60.5437 11.9701H54.9775L61.9212 26.7978V35.0162H67.1309V26.7978L74.0685 11.9701H68.6312L66.567 17.2644Z" fill="#0F367F"/>
<path d="M78.6942 11.9701C76.9522 11.9701 75.6855 13.0938 75.6855 14.6867C75.6855 16.2797 76.9522 17.4054 78.6942 17.4054C80.4361 17.4054 81.7149 16.2676 81.7149 14.6867C81.7149 13.1059 80.4382 11.9701 78.6942 11.9701Z" fill="#0F367F"/>
<path d="M81.2875 19.1816H76.0898V35.0182H81.2875V19.1816Z" fill="#0F367F"/>
<path d="M93.1049 17.049C88.8899 17.049 84.8301 20.561 84.8301 26.2521C84.8301 32.0599 88.7027 35.4411 93.705 35.4411C95.9273 35.4027 98.0901 34.7161 99.9277 33.4656L98.2099 30.3321C96.9371 31.0772 95.743 31.4799 94.4158 31.4799C92.0738 31.4799 90.3318 30.3119 89.8646 27.7665H100.361C100.509 27.0096 100.582 26.2399 100.578 25.4687C100.578 20.6819 98.1011 17.049 93.1049 17.049ZM89.8163 24.3289C90.1687 22.1137 91.5864 21.0101 93.2398 21.0101C95.316 21.0101 96.1538 22.3997 96.1538 24.3289H89.8163Z" fill="#0F367F"/>
<path d="M124.766 16.2213L124.953 18.8795C123.767 17.7679 122.587 17.0489 120.652 17.0489C116.959 17.0489 113.376 20.5147 113.376 26.2521C113.376 31.9894 116.197 35.4431 120.553 35.4431C122.245 35.4431 123.977 34.5208 125.219 33.2803H125.348L125.723 35.0182H129.964V11.9701H124.766V16.2213ZM124.766 29.6151C123.906 30.7691 123.012 31.1879 121.904 31.1879C119.891 31.1879 118.703 29.6373 118.703 26.1937C118.703 22.8568 120.179 21.3021 121.864 21.3021C122.937 21.2936 123.973 21.6898 124.766 22.4117V29.6151Z" fill="#0F367F"/>
<path d="M147.613 11.9701L140.363 35.0162H145.7L147.124 29.5265H154.15L155.56 35.0162H161.075L153.844 11.9701H147.613ZM148.177 25.4768L148.731 23.3441C149.371 21.0403 149.987 18.3438 150.543 15.9111H150.686C151.29 18.3156 151.917 21.0403 152.557 23.3441L153.109 25.4768H148.177Z" fill="#0F367F"/>
<path d="M172.89 17.049C171.06 17.049 169.265 17.9713 167.894 19.1997H167.765L167.391 17.4739H163.149V40.1998H168.355V36.3856L168.182 33.6106C169.437 34.7806 170.856 35.4411 172.367 35.4411C176.165 35.4411 179.745 31.9894 179.745 25.9762C179.737 20.561 177.137 17.049 172.89 17.049ZM171.146 31.1879C170.108 31.1782 169.11 30.7827 168.347 30.0783V22.8749C169.374 21.7814 170.294 21.3021 171.368 21.3021C173.442 21.3021 174.415 22.8769 174.415 26.0265C174.411 29.6574 172.959 31.1879 171.146 31.1879Z" fill="#0F367F"/>
<path d="M193.151 17.049C191.32 17.049 189.526 17.9713 188.157 19.1997H188.028L187.651 17.4739H183.412V40.1998H188.61V36.3856L188.435 33.6106C189.701 34.7806 191.111 35.4431 192.619 35.4431C196.417 35.4431 200 31.9915 200 25.9782C200 20.561 197.398 17.049 193.151 17.049ZM191.409 31.1879C190.371 31.1782 189.373 30.7827 188.61 30.0783V22.8749C189.637 21.7814 190.555 21.3021 191.63 21.3021C193.705 21.3021 194.677 22.8769 194.677 26.0265C194.671 29.6574 193.221 31.1879 191.409 31.1879Z" fill="#0F367F"/>
<path d="M111.566 35.0081L112.432 34.6477L110.948 31.1758C110.74 31.2292 110.526 31.2529 110.311 31.2463C109.886 31.2463 109.371 30.8919 109.371 29.7783V11.9701H104.165V29.5648C104.165 33.1151 105.385 35.4411 108.952 35.4411C109.782 35.4637 110.61 35.339 111.397 35.0726L111.56 35.0041L111.566 35.0081Z" fill="#0F367F"/>
<path d="M46.2674 23.5616C46.2674 36.5769 35.9103 47.1233 23.1347 47.1233C10.3591 47.1233 0 36.583 0 23.5616C0 10.5403 10.357 0 23.1347 0C35.9124 0 46.2674 10.5524 46.2674 23.5616Z" fill="url(#paint0_linear_33542_1673)"/>
<path d="M26.3808 22.2547L15.3371 32.2493C14.9343 32.6097 14.5597 32.9178 14.1972 33.2038L10.5039 36.3091C12.2559 36.9817 15.1115 37.3784 18.1926 34.8994L28.2617 25.6923C28.9082 25.1747 29.9433 24.6632 30.8314 24.6632C31.8584 24.6632 32.8434 25.0712 33.5697 25.7975C34.2959 26.5237 34.7039 27.5087 34.7039 28.5358C34.7039 29.5628 34.2959 30.5478 33.5697 31.2741C32.8434 32.0003 31.8584 32.4083 30.8314 32.4083C29.0652 32.4083 27.9677 31.5807 27.2065 29.7642L24.1656 32.3036C25.1121 34.102 27.0373 36.2829 30.8233 36.2829C35.0221 36.2829 38.4254 32.8151 38.4254 28.5378C38.4254 24.2605 35.0221 20.7927 30.8233 20.7927C29.2242 20.7923 27.6672 21.3047 26.3808 22.2547Z" fill="white"/>
<path d="M28.0746 12.2339L18.0156 21.4411C17.3692 21.9586 16.332 22.4701 15.446 22.4701C14.4189 22.4701 13.4339 22.0621 12.7076 21.3359C11.9814 20.6096 11.5734 19.6246 11.5734 18.5976C11.5734 17.5705 11.9814 16.5855 12.7076 15.8593C13.4339 15.133 14.4189 14.725 15.446 14.725C17.1537 14.725 18.2351 15.5023 18.9943 17.198L21.9989 14.6465C21.0202 12.8884 19.103 10.8524 15.446 10.8524C11.2451 10.8524 7.8418 14.3202 7.8418 18.5976C7.8418 22.8749 11.2451 26.3427 15.446 26.3427C17.0464 26.3439 18.605 25.8315 19.8925 24.8807L30.9322 14.8861C31.335 14.5256 31.7075 14.2175 32.072 13.9316L35.7633 10.8263C34.0133 10.1537 31.1557 9.75693 28.0746 12.2339Z" fill="white"/>
</g>
<defs>
<linearGradient id="paint0_linear_33542_1673" x1="-1.63723" y1="23.5677" x2="44.9181" y2="23.5677" gradientUnits="userSpaceOnUse">
<stop stop-color="#0066CC"/>
<stop offset="1" stop-color="#0F367F"/>
</linearGradient>
<clipPath id="clip0_33542_1673">
<rect width="200" height="47.1353" fill="white"/>
</clipPath>
</defs>
</svg>
